# MagicaVoxel @ Ephtracy

# group
o 

# material
mtllib Idle-0.mtl
usemtl palette

# normals
vn -1 0 0
vn 1 0 0
vn 0 0 1
vn 0 0 -1
vn 0 -1 0
vn 0 1 0

# texcoords
vt 0.970703 0.5
vt 0.974609 0.5
vt 0.978516 0.5
vt 0.982422 0.5
vt 0.986328 0.5

# verts
v -0.4 0.3 0.1
v -0.4 0.3 0
v -0.4 0.8 0.1
v -0.4 0.8 0
v -0.3 0.8 0.1
v -0.3 0.8 0
v -0.3 0.9 0.2
v -0.3 0.9 0.1
v -0.3 0.9 0
v -0.3 0.9 -0.1
v -0.3 0.9 -0.2
v -0.3 1 0.3
v -0.3 1 0.2
v -0.3 1 0.1
v -0.3 1 -0.1
v -0.3 1.3 0.4
v -0.3 1.3 0.3
v -0.3 1.3 -0.2
v -0.3 1.4 0.4
v -0.3 1.4 0.2
v -0.3 1.5 0.2
v -0.3 1.5 0.1
v -0.3 1.5 -0.1
v -0.3 1.5 -0.2
v -0.3 1.6 0.1
v -0.3 1.6 -0.1
v -0.2 0 0.1
v -0.2 0 0
v -0.2 0.1 0.1
v -0.2 0.1 0
v -0.2 0.3 0.2
v -0.2 0.3 0.1
v -0.2 0.3 0
v -0.2 0.3 -0.1
v -0.2 0.4 0.2
v -0.2 0.4 -0.1
v -0.2 0.8 0.1
v -0.2 0.8 0
v -0.2 0.8 -0.1
v -0.2 0.8 -0.2
v -0.2 0.9 0.3
v -0.2 0.9 0.2
v -0.2 0.9 0.1
v -0.2 0.9 0
v -0.2 0.9 -0.1
v -0.2 0.9 -0.2
v -0.2 1 0.3
v -0.2 1 0.2
v -0.2 1 0.1
v -0.2 1 -0.1
v -0.2 1.5 0.2
v -0.2 1.5 0.1
v -0.2 1.5 -0.1
v -0.2 1.5 -0.2
v -0.2 1.6 0.2
v -0.2 1.6 0.1
v -0.2 1.6 -0.1
v -0.2 1.6 -0.2
v 0 0.8 -0.1
v 0 0.8 -0.2
v 0 1 -0.1
v 0 1 -0.2
v 0.1 0.9 0.3
v 0.1 0.9 0.2
v 0.1 1.3 0.3
v 0.1 1.3 0.2
v 0.2 0 0.1
v 0.2 0 0
v 0.2 0.1 0.1
v 0.2 0.1 0
v 0.2 0.3 0.1
v 0.2 0.3 0
v 0.3 0.9 -0.1
v 0.3 0.9 -0.2
v 0.3 1 -0.1
v 0.3 1 -0.2
v 0.4 0.3 0.1
v 0.4 0.3 0
v 0.4 0.8 0.1
v 0.4 0.8 0
v -0.3 0.3 0.1
v -0.3 0.3 0
v -0.3 0.8 0.1
v -0.3 0.8 0
v -0.1 0 0.1
v -0.1 0 0
v -0.1 0.1 0.1
v -0.1 0.1 0
v -0.1 0.3 0.1
v -0.1 0.3 0
v -0.1 0.8 -0.1
v -0.1 0.8 -0.2
v -0.1 0.9 0.3
v -0.1 0.9 0.2
v -0.1 1 -0.1
v -0.1 1 -0.2
v -0.1 1.2 0.3
v -0.1 1.2 0.2
v 0 1.2 0.3
v 0 1.2 0.2
v 0 1.3 0.3
v 0 1.3 0.2
v 0.1 0.8 -0.1
v 0.1 0.8 -0.2
v 0.1 0.9 -0.1
v 0.1 0.9 -0.2
v 0.2 0.9 0.3
v 0.2 0.9 0.2
v 0.2 0.9 -0.1
v 0.2 0.9 -0.2
v 0.2 1 0.3
v 0.2 1 0.2
v 0.2 1 -0.1
v 0.2 1 -0.2
v 0.3 0 0.1
v 0.3 0 0
v 0.3 0.1 0.1
v 0.3 0.1 0
v 0.3 0.3 0.2
v 0.3 0.3 0.1
v 0.3 0.3 0
v 0.3 0.3 -0.1
v 0.3 0.4 0.2
v 0.3 0.4 -0.1
v 0.3 0.8 0.1
v 0.3 0.8 0
v 0.3 0.9 0.2
v 0.3 0.9 0.1
v 0.3 0.9 0
v 0.3 0.9 -0.1
v 0.3 1 0.1
v 0.3 1 0
v 0.3 1.5 0.2
v 0.3 1.5 0.1
v 0.3 1.5 -0.1
v 0.3 1.5 -0.2
v 0.3 1.6 0.2
v 0.3 1.6 0.1
v 0.3 1.6 -0.1
v 0.3 1.6 -0.2
v 0.4 0.8 0.1
v 0.4 0.8 0
v 0.4 0.9 0.2
v 0.4 0.9 0.1
v 0.4 0.9 0
v 0.4 0.9 -0.2
v 0.4 1 0.3
v 0.4 1 0.2
v 0.4 1 0.1
v 0.4 1 0
v 0.4 1.3 0.4
v 0.4 1.3 0.3
v 0.4 1.3 -0.2
v 0.4 1.4 0.4
v 0.4 1.4 0.2
v 0.4 1.5 0.2
v 0.4 1.5 0.1
v 0.4 1.5 -0.1
v 0.4 1.5 -0.2
v 0.4 1.6 0.1
v 0.4 1.6 -0.1
v 0.5 0.3 0.1
v 0.5 0.3 0
v 0.5 0.8 0.1
v 0.5 0.8 0
v -0.3 1.3 0.4
v -0.3 1.4 0.4
v 0.4 1.3 0.4
v 0.4 1.4 0.4
v -0.3 1 0.3
v -0.3 1.3 0.3
v -0.2 0.9 0.3
v -0.2 1 0.3
v -0.1 0.9 0.3
v -0.1 1.2 0.3
v 0 1.2 0.3
v 0 1.3 0.3
v 0.1 0.9 0.3
v 0.1 1.3 0.3
v 0.2 0.9 0.3
v 0.2 1 0.3
v 0.4 1 0.3
v 0.4 1.3 0.3
v -0.3 0.9 0.2
v -0.3 1 0.2
v -0.3 1.4 0.2
v -0.3 1.5 0.2
v -0.2 0.3 0.2
v -0.2 0.4 0.2
v -0.2 0.9 0.2
v -0.2 1 0.2
v -0.2 1.5 0.2
v -0.2 1.6 0.2
v -0.1 0.8 0.2
v -0.1 0.9 0.2
v -0.1 1.2 0.2
v 0 0.7 0.2
v 0 0.8 0.2
v 0 1.2 0.2
v 0 1.3 0.2
v 0.1 0.7 0.2
v 0.1 0.8 0.2
v 0.1 0.9 0.2
v 0.1 1.3 0.2
v 0.2 0.8 0.2
v 0.2 0.9 0.2
v 0.2 1 0.2
v 0.3 0.3 0.2
v 0.3 0.4 0.2
v 0.3 0.9 0.2
v 0.3 1 0.2
v 0.3 1.5 0.2
v 0.3 1.6 0.2
v 0.4 0.9 0.2
v 0.4 1 0.2
v 0.4 1.4 0.2
v 0.4 1.5 0.2
v -0.4 0.3 0.1
v -0.4 0.8 0.1
v -0.3 0.3 0.1
v -0.3 0.8 0.1
v -0.3 0.9 0.1
v -0.3 1.5 0.1
v -0.3 1.6 0.1
v -0.2 0 0.1
v -0.2 0.1 0.1
v -0.2 0.3 0.1
v -0.2 0.8 0.1
v -0.2 0.9 0.1
v -0.2 1.5 0.1
v -0.2 1.6 0.1
v -0.1 0 0.1
v -0.1 0.1 0.1
v -0.1 0.3 0.1
v 0.2 0 0.1
v 0.2 0.1 0.1
v 0.2 0.3 0.1
v 0.3 0 0.1
v 0.3 0.1 0.1
v 0.3 0.3 0.1
v 0.3 0.8 0.1
v 0.3 0.9 0.1
v 0.3 1.5 0.1
v 0.3 1.6 0.1
v 0.4 0.3 0.1
v 0.4 0.8 0.1
v 0.4 0.9 0.1
v 0.4 1.5 0.1
v 0.4 1.6 0.1
v 0.5 0.3 0.1
v 0.5 0.8 0.1
v 0.3 0.9 0
v 0.3 1 0
v 0.4 0.9 0
v 0.4 1 0
v -0.3 0.9 -0.1
v -0.3 1 -0.1
v -0.2 0.9 -0.1
v -0.2 1 -0.1
v -0.3 0.9 0.1
v -0.3 1 0.1
v -0.2 0.9 0.1
v -0.2 1 0.1
v 0.3 0.9 0.1
v 0.3 1 0.1
v 0.4 0.9 0.1
v 0.4 1 0.1
v -0.4 0.3 0
v -0.4 0.8 0
v -0.3 0.3 0
v -0.3 0.8 0
v -0.3 0.9 0
v -0.2 0 0
v -0.2 0.1 0
v -0.2 0.3 0
v -0.2 0.8 0
v -0.2 0.9 0
v -0.1 0 0
v -0.1 0.1 0
v -0.1 0.3 0
v 0.2 0 0
v 0.2 0.1 0
v 0.2 0.3 0
v 0.3 0 0
v 0.3 0.1 0
v 0.3 0.3 0
v 0.3 0.8 0
v 0.3 0.9 0
v 0.4 0.3 0
v 0.4 0.8 0
v 0.4 0.9 0
v 0.5 0.3 0
v 0.5 0.8 0
v -0.3 1.5 -0.1
v -0.3 1.6 -0.1
v -0.2 0.3 -0.1
v -0.2 0.4 -0.1
v -0.2 0.8 -0.1
v -0.2 1.5 -0.1
v -0.2 1.6 -0.1
v -0.1 0.8 -0.1
v -0.1 1 -0.1
v 0 0.8 -0.1
v 0 1 -0.1
v 0.1 0.8 -0.1
v 0.1 0.9 -0.1
v 0.2 0.8 -0.1
v 0.2 0.9 -0.1
v 0.2 1 -0.1
v 0.3 0.3 -0.1
v 0.3 0.4 -0.1
v 0.3 0.9 -0.1
v 0.3 1 -0.1
v 0.3 1.5 -0.1
v 0.3 1.6 -0.1
v 0.4 1.5 -0.1
v 0.4 1.6 -0.1
v -0.3 0.9 -0.2
v -0.3 1.3 -0.2
v -0.3 1.5 -0.2
v -0.2 0.8 -0.2
v -0.2 0.9 -0.2
v -0.2 1.5 -0.2
v -0.2 1.6 -0.2
v -0.1 0.8 -0.2
v -0.1 1 -0.2
v 0 0.8 -0.2
v 0 1 -0.2
v 0.1 0.8 -0.2
v 0.1 0.9 -0.2
v 0.2 0.9 -0.2
v 0.2 1 -0.2
v 0.3 0.9 -0.2
v 0.3 1 -0.2
v 0.3 1.5 -0.2
v 0.3 1.6 -0.2
v 0.4 0.9 -0.2
v 0.4 1.3 -0.2
v 0.4 1.5 -0.2
v -0.2 0 0.1
v -0.1 0 0.1
v 0.2 0 0.1
v 0.3 0 0.1
v -0.2 0 0
v -0.1 0 0
v 0.2 0 0
v 0.3 0 0
v -0.2 0.3 0.2
v 0.3 0.3 0.2
v -0.4 0.3 0.1
v -0.3 0.3 0.1
v -0.2 0.3 0.1
v -0.1 0.3 0.1
v 0.2 0.3 0.1
v 0.3 0.3 0.1
v 0.4 0.3 0.1
v 0.5 0.3 0.1
v -0.4 0.3 0
v -0.3 0.3 0
v -0.2 0.3 0
v -0.1 0.3 0
v 0.2 0.3 0
v 0.3 0.3 0
v 0.4 0.3 0
v 0.5 0.3 0
v -0.2 0.3 -0.1
v 0.3 0.3 -0.1
v -0.3 0.8 0.1
v -0.2 0.8 0.1
v 0.3 0.8 0.1
v 0.4 0.8 0.1
v -0.3 0.8 0
v -0.2 0.8 0
v 0.3 0.8 0
v 0.4 0.8 0
v -0.2 0.8 -0.1
v -0.1 0.8 -0.1
v 0 0.8 -0.1
v 0.1 0.8 -0.1
v -0.2 0.8 -0.2
v -0.1 0.8 -0.2
v 0 0.8 -0.2
v 0.1 0.8 -0.2
v -0.2 0.9 0.3
v -0.1 0.9 0.3
v 0.1 0.9 0.3
v 0.2 0.9 0.3
v -0.3 0.9 0.2
v -0.2 0.9 0.2
v -0.1 0.9 0.2
v 0.1 0.9 0.2
v 0.2 0.9 0.2
v 0.3 0.9 0.2
v 0.4 0.9 0.2
v -0.3 0.9 0.1
v -0.2 0.9 0.1
v 0.3 0.9 0.1
v 0.4 0.9 0.1
v 0.3 0.9 0
v 0.4 0.9 0
v -0.3 0.9 -0.1
v -0.2 0.9 -0.1
v 0.1 0.9 -0.1
v 0.2 0.9 -0.1
v 0.3 0.9 -0.1
v -0.3 0.9 -0.2
v -0.2 0.9 -0.2
v 0.1 0.9 -0.2
v 0.2 0.9 -0.2
v 0.3 0.9 -0.2
v 0.4 0.9 -0.2
v -0.3 1 0.3
v -0.2 1 0.3
v 0.2 1 0.3
v 0.4 1 0.3
v -0.3 1 0.2
v -0.2 1 0.2
v 0.2 1 0.2
v 0.3 1 0.2
v 0.4 1 0.2
v -0.3 1 0.1
v -0.2 1 0.1
v 0.3 1 0.1
v 0.4 1 0.1
v 0.3 1 0
v 0.4 1 0
v -0.3 1 -0.1
v -0.2 1 -0.1
v -0.1 1 -0.1
v 0 1 -0.1
v 0.2 1 -0.1
v 0.3 1 -0.1
v -0.1 1 -0.2
v 0 1 -0.2
v 0.2 1 -0.2
v 0.3 1 -0.2
v -0.1 1.2 0.3
v 0 1.2 0.3
v -0.1 1.2 0.2
v 0 1.2 0.2
v -0.3 1.3 0.4
v 0.4 1.3 0.4
v -0.3 1.3 0.3
v 0 1.3 0.3
v 0.1 1.3 0.3
v 0.4 1.3 0.3
v 0 1.3 0.2
v 0.1 1.3 0.2
v -0.4 0.8 0.1
v -0.3 0.8 0.1
v 0.4 0.8 0.1
v 0.5 0.8 0.1
v -0.4 0.8 0
v -0.3 0.8 0
v 0.4 0.8 0
v 0.5 0.8 0
v -0.3 0.9 0.1
v -0.2 0.9 0.1
v 0.3 0.9 0.1
v 0.4 0.9 0.1
v -0.3 0.9 0
v -0.2 0.9 0
v 0.3 0.9 0
v 0.4 0.9 0
v -0.3 1.4 0.4
v 0.4 1.4 0.4
v -0.3 1.4 0.2
v 0.4 1.4 0.2
v -0.3 1.5 0.2
v -0.2 1.5 0.2
v 0.3 1.5 0.2
v 0.4 1.5 0.2
v -0.3 1.5 0.1
v -0.2 1.5 0.1
v 0.3 1.5 0.1
v 0.4 1.5 0.1
v -0.3 1.5 -0.1
v -0.2 1.5 -0.1
v 0.3 1.5 -0.1
v 0.4 1.5 -0.1
v -0.3 1.5 -0.2
v -0.2 1.5 -0.2
v 0.3 1.5 -0.2
v 0.4 1.5 -0.2
v -0.2 1.6 0.2
v 0.3 1.6 0.2
v -0.3 1.6 0.1
v -0.2 1.6 0.1
v 0.3 1.6 0.1
v 0.4 1.6 0.1
v -0.3 1.6 -0.1
v -0.2 1.6 -0.1
v 0.3 1.6 -0.1
v 0.4 1.6 -0.1
v -0.2 1.6 -0.2
v 0.3 1.6 -0.2

# faces
f 3/1/1 2/1/1 1/1/1
f 4/1/1 2/1/1 3/1/1
f 8/3/1 6/3/1 5/3/1
f 9/3/1 6/3/1 8/3/1
f 13/5/1 8/5/1 7/5/1
f 14/5/1 8/5/1 13/5/1
f 15/5/1 11/5/1 10/5/1
f 17/5/1 14/5/1 13/5/1
f 17/5/1 15/5/1 14/5/1
f 17/5/1 13/5/1 12/5/1
f 18/5/1 11/5/1 15/5/1
f 18/5/1 15/5/1 17/5/1
f 19/4/1 17/4/1 16/4/1
f 19/4/1 18/4/1 17/4/1
f 20/4/1 18/4/1 19/4/1
f 21/4/1 18/4/1 20/4/1
f 22/4/1 18/4/1 21/4/1
f 23/4/1 18/4/1 22/4/1
f 24/4/1 18/4/1 23/4/1
f 25/4/1 23/4/1 22/4/1
f 26/4/1 23/4/1 25/4/1
f 29/1/1 28/1/1 27/1/1
f 30/1/1 28/1/1 29/1/1
f 32/2/1 30/2/1 29/2/1
f 33/2/1 30/2/1 32/2/1
f 35/2/1 33/2/1 32/2/1
f 35/2/1 34/2/1 33/2/1
f 35/2/1 32/2/1 31/2/1
f 36/2/1 34/2/1 35/2/1
f 37/3/1 36/3/1 35/3/1
f 38/3/1 36/3/1 37/3/1
f 39/3/1 36/3/1 38/3/1
f 42/3/1 37/3/1 35/3/1
f 43/3/1 37/3/1 42/3/1
f 44/3/1 39/3/1 38/3/1
f 45/5/1 40/5/1 39/5/1
f 45/3/1 39/3/1 44/3/1
f 46/5/1 40/5/1 45/5/1
f 47/5/1 42/5/1 41/5/1
f 48/5/1 42/5/1 47/5/1
f 49/1/1 44/1/1 43/1/1
f 49/1/1 45/1/1 44/1/1
f 50/1/1 45/1/1 49/1/1
f 55/4/1 52/4/1 51/4/1
f 56/4/1 52/4/1 55/4/1
f 57/4/1 54/4/1 53/4/1
f 58/4/1 54/4/1 57/4/1
f 61/5/1 60/5/1 59/5/1
f 62/5/1 60/5/1 61/5/1
f 65/5/1 64/5/1 63/5/1
f 66/5/1 64/5/1 65/5/1
f 69/1/1 68/1/1 67/1/1
f 70/1/1 68/1/1 69/1/1
f 71/2/1 70/2/1 69/2/1
f 72/2/1 70/2/1 71/2/1
f 75/5/1 74/5/1 73/5/1
f 76/5/1 74/5/1 75/5/1
f 79/1/1 78/1/1 77/1/1
f 80/1/1 78/1/1 79/1/1
f 81/1/2 82/1/2 83/1/2
f 83/1/2 82/1/2 84/1/2
f 85/1/2 86/1/2 87/1/2
f 87/1/2 86/1/2 88/1/2
f 87/2/2 88/2/2 89/2/2
f 89/2/2 88/2/2 90/2/2
f 91/5/2 92/5/2 95/5/2
f 95/5/2 92/5/2 96/5/2
f 93/5/2 94/5/2 97/5/2
f 97/5/2 94/5/2 98/5/2
f 99/5/2 100/5/2 101/5/2
f 101/5/2 100/5/2 102/5/2
f 103/5/2 104/5/2 105/5/2
f 105/5/2 104/5/2 106/5/2
f 107/5/2 108/5/2 111/5/2
f 111/5/2 108/5/2 112/5/2
f 109/5/2 110/5/2 113/5/2
f 113/5/2 110/5/2 114/5/2
f 115/1/2 116/1/2 117/1/2
f 117/1/2 116/1/2 118/1/2
f 117/2/2 118/2/2 120/2/2
f 120/2/2 118/2/2 121/2/2
f 120/2/2 121/2/2 123/2/2
f 121/2/2 122/2/2 123/2/2
f 119/2/2 120/2/2 123/2/2
f 123/2/2 122/2/2 124/2/2
f 123/3/2 124/3/2 125/3/2
f 125/3/2 124/3/2 126/3/2
f 123/3/2 125/3/2 127/3/2
f 127/3/2 125/3/2 128/3/2
f 126/3/2 124/3/2 129/3/2
f 129/3/2 124/3/2 130/3/2
f 128/1/2 129/1/2 131/1/2
f 131/1/2 129/1/2 132/1/2
f 133/4/2 134/4/2 137/4/2
f 137/4/2 134/4/2 138/4/2
f 135/4/2 136/4/2 139/4/2
f 139/4/2 136/4/2 140/4/2
f 141/3/2 142/3/2 144/3/2
f 144/3/2 142/3/2 145/3/2
f 143/5/2 144/5/2 148/5/2
f 148/5/2 144/5/2 149/5/2
f 145/5/2 146/5/2 150/5/2
f 148/5/2 149/5/2 152/5/2
f 149/5/2 150/5/2 152/5/2
f 147/5/2 148/5/2 152/5/2
f 150/5/2 146/5/2 153/5/2
f 152/5/2 150/5/2 153/5/2
f 151/4/2 152/4/2 154/4/2
f 152/4/2 153/4/2 154/4/2
f 154/4/2 153/4/2 155/4/2
f 155/4/2 153/4/2 156/4/2
f 156/4/2 153/4/2 157/4/2
f 157/4/2 153/4/2 158/4/2
f 158/4/2 153/4/2 159/4/2
f 157/4/2 158/4/2 160/4/2
f 160/4/2 158/4/2 161/4/2
f 162/1/2 163/1/2 164/1/2
f 164/1/2 163/1/2 165/1/2
f 168/4/3 167/4/3 166/4/3
f 169/4/3 167/4/3 168/4/3
f 173/5/3 171/5/3 170/5/3
f 174/5/3 173/5/3 172/5/3
f 175/5/3 171/5/3 173/5/3
f 175/5/3 173/5/3 174/5/3
f 176/5/3 171/5/3 175/5/3
f 177/5/3 171/5/3 176/5/3
f 180/5/3 179/5/3 178/5/3
f 181/5/3 179/5/3 180/5/3
f 182/5/3 179/5/3 181/5/3
f 183/5/3 179/5/3 182/5/3
f 190/5/3 185/5/3 184/5/3
f 191/5/3 185/5/3 190/5/3
f 192/4/3 187/4/3 186/4/3
f 194/3/3 190/3/3 189/3/3
f 195/3/3 190/3/3 194/3/3
f 197/3/3 194/3/3 189/3/3
f 198/1/3 196/1/3 195/1/3
f 198/3/3 194/3/3 197/3/3
f 198/1/3 195/1/3 194/1/3
f 199/1/3 196/1/3 198/1/3
f 201/3/3 197/3/3 189/3/3
f 201/1/3 200/1/3 199/1/3
f 201/1/3 199/1/3 198/1/3
f 201/1/3 198/1/3 197/1/3
f 202/1/3 200/1/3 201/1/3
f 203/1/3 200/1/3 202/1/3
f 204/1/3 200/1/3 203/1/3
f 205/3/3 202/3/3 201/3/3
f 205/1/3 203/1/3 202/1/3
f 206/1/3 203/1/3 205/1/3
f 208/2/3 189/2/3 188/2/3
f 209/3/3 201/3/3 189/3/3
f 209/2/3 189/2/3 208/2/3
f 209/3/3 205/3/3 201/3/3
f 209/3/3 206/3/3 205/3/3
f 210/1/3 207/1/3 206/1/3
f 210/3/3 206/3/3 209/3/3
f 211/1/3 207/1/3 210/1/3
f 212/4/3 193/4/3 192/4/3
f 212/4/3 192/4/3 186/4/3
f 213/4/3 193/4/3 212/4/3
f 214/5/3 211/5/3 210/5/3
f 215/5/3 211/5/3 214/5/3
f 216/4/3 212/4/3 186/4/3
f 217/4/3 212/4/3 216/4/3
f 220/1/3 219/1/3 218/1/3
f 221/1/3 219/1/3 220/1/3
f 228/3/3 222/3/3 221/3/3
f 229/3/3 222/3/3 228/3/3
f 230/4/3 224/4/3 223/4/3
f 231/4/3 224/4/3 230/4/3
f 232/1/3 226/1/3 225/1/3
f 233/2/3 227/2/3 226/2/3
f 233/1/3 226/1/3 232/1/3
f 234/2/3 227/2/3 233/2/3
f 238/1/3 236/1/3 235/1/3
f 239/2/3 237/2/3 236/2/3
f 239/1/3 236/1/3 238/1/3
f 240/2/3 237/2/3 239/2/3
f 246/3/3 242/3/3 241/3/3
f 247/3/3 242/3/3 246/3/3
f 248/4/3 244/4/3 243/4/3
f 249/4/3 244/4/3 248/4/3
f 250/1/3 246/1/3 245/1/3
f 251/1/3 246/1/3 250/1/3
f 254/5/3 253/5/3 252/5/3
f 255/5/3 253/5/3 254/5/3
f 258/5/3 257/5/3 256/5/3
f 259/5/3 257/5/3 258/5/3
f 260/5/4 261/5/4 262/5/4
f 262/5/4 261/5/4 263/5/4
f 264/5/4 265/5/4 266/5/4
f 266/5/4 265/5/4 267/5/4
f 268/1/4 269/1/4 270/1/4
f 270/1/4 269/1/4 271/1/4
f 271/3/4 272/3/4 276/3/4
f 276/3/4 272/3/4 277/3/4
f 273/1/4 274/1/4 278/1/4
f 274/2/4 275/2/4 279/2/4
f 278/1/4 274/1/4 279/1/4
f 279/2/4 275/2/4 280/2/4
f 281/1/4 282/1/4 284/1/4
f 282/2/4 283/2/4 285/2/4
f 284/1/4 282/1/4 285/1/4
f 285/2/4 283/2/4 286/2/4
f 287/3/4 288/3/4 290/3/4
f 290/3/4 288/3/4 291/3/4
f 289/1/4 290/1/4 292/1/4
f 292/1/4 290/1/4 293/1/4
f 294/4/4 295/4/4 299/4/4
f 299/4/4 295/4/4 300/4/4
f 297/3/4 298/3/4 301/3/4
f 297/3/4 301/3/4 303/3/4
f 301/1/4 302/1/4 303/1/4
f 303/1/4 302/1/4 304/1/4
f 297/3/4 303/3/4 305/3/4
f 297/3/4 305/3/4 307/3/4
f 305/1/4 306/1/4 307/1/4
f 307/1/4 306/1/4 308/1/4
f 296/2/4 297/2/4 310/2/4
f 297/3/4 307/3/4 311/3/4
f 310/2/4 297/2/4 311/2/4
f 307/3/4 308/3/4 311/3/4
f 308/1/4 309/1/4 312/1/4
f 311/3/4 308/3/4 312/3/4
f 312/1/4 309/1/4 313/1/4
f 314/4/4 315/4/4 316/4/4
f 316/4/4 315/4/4 317/4/4
f 318/5/4 319/5/4 322/5/4
f 319/4/4 320/4/4 323/4/4
f 321/5/4 322/5/4 325/5/4
f 322/5/4 319/5/4 326/5/4
f 325/5/4 322/5/4 326/5/4
f 326/5/4 319/5/4 328/5/4
f 327/5/4 328/5/4 329/5/4
f 329/5/4 328/5/4 330/5/4
f 330/5/4 328/5/4 331/5/4
f 328/5/4 319/5/4 332/5/4
f 331/5/4 328/5/4 332/5/4
f 332/5/4 319/5/4 334/5/4
f 323/4/4 324/4/4 335/4/4
f 319/4/4 323/4/4 335/4/4
f 335/4/4 324/4/4 336/4/4
f 333/5/4 334/5/4 337/5/4
f 334/5/4 319/5/4 338/5/4
f 337/5/4 334/5/4 338/5/4
f 319/4/4 335/4/4 338/4/4
f 338/4/4 335/4/4 339/4/4
f 344/1/5 341/1/5 340/1/5
f 345/1/5 341/1/5 344/1/5
f 346/1/5 343/1/5 342/1/5
f 347/1/5 343/1/5 346/1/5
f 352/2/5 349/2/5 348/2/5
f 353/2/5 349/2/5 352/2/5
f 354/2/5 349/2/5 353/2/5
f 355/2/5 349/2/5 354/2/5
f 358/1/5 351/1/5 350/1/5
f 359/1/5 351/1/5 358/1/5
f 361/2/5 354/2/5 353/2/5
f 362/2/5 354/2/5 361/2/5
f 364/1/5 357/1/5 356/1/5
f 365/1/5 357/1/5 364/1/5
f 366/2/5 363/2/5 362/2/5
f 366/2/5 361/2/5 360/2/5
f 366/2/5 362/2/5 361/2/5
f 367/2/5 363/2/5 366/2/5
f 372/3/5 369/3/5 368/3/5
f 373/3/5 369/3/5 372/3/5
f 374/3/5 371/3/5 370/3/5
f 375/3/5 371/3/5 374/3/5
f 380/5/5 377/5/5 376/5/5
f 381/5/5 377/5/5 380/5/5
f 382/5/5 379/5/5 378/5/5
f 383/5/5 379/5/5 382/5/5
f 389/5/5 385/5/5 384/5/5
f 390/5/5 385/5/5 389/5/5
f 391/5/5 387/5/5 386/5/5
f 392/5/5 387/5/5 391/5/5
f 395/5/5 389/5/5 388/5/5
f 396/5/5 389/5/5 395/5/5
f 397/5/5 394/5/5 393/5/5
f 398/5/5 394/5/5 397/5/5
f 405/5/5 400/5/5 399/5/5
f 406/5/5 402/5/5 401/5/5
f 407/5/5 402/5/5 406/5/5
f 408/5/5 404/5/5 403/5/5
f 409/5/5 404/5/5 408/5/5
f 410/5/5 400/5/5 405/5/5
f 411/5/5 400/5/5 410/5/5
f 416/5/5 413/5/5 412/5/5
f 417/5/5 413/5/5 416/5/5
f 418/5/5 415/5/5 414/5/5
f 419/5/5 415/5/5 418/5/5
f 420/5/5 415/5/5 419/5/5
f 425/5/5 424/5/5 423/5/5
f 426/5/5 424/5/5 425/5/5
f 427/5/5 422/5/5 421/5/5
f 428/5/5 422/5/5 427/5/5
f 433/5/5 430/5/5 429/5/5
f 434/5/5 430/5/5 433/5/5
f 435/5/5 432/5/5 431/5/5
f 436/5/5 432/5/5 435/5/5
f 439/5/5 438/5/5 437/5/5
f 440/5/5 438/5/5 439/5/5
f 443/4/5 442/4/5 441/4/5
f 444/4/5 442/4/5 443/4/5
f 445/4/5 442/4/5 444/4/5
f 446/4/5 442/4/5 445/4/5
f 447/4/5 445/4/5 444/4/5
f 448/4/5 445/4/5 447/4/5
f 449/1/6 450/1/6 453/1/6
f 453/1/6 450/1/6 454/1/6
f 451/1/6 452/1/6 455/1/6
f 455/1/6 452/1/6 456/1/6
f 457/3/6 458/3/6 461/3/6
f 461/3/6 458/3/6 462/3/6
f 459/3/6 460/3/6 463/3/6
f 463/3/6 460/3/6 464/3/6
f 465/4/6 466/4/6 467/4/6
f 467/4/6 466/4/6 468/4/6
f 469/4/6 470/4/6 473/4/6
f 473/4/6 470/4/6 474/4/6
f 471/4/6 472/4/6 475/4/6
f 475/4/6 472/4/6 476/4/6
f 477/4/6 478/4/6 481/4/6
f 481/4/6 478/4/6 482/4/6
f 479/4/6 480/4/6 483/4/6
f 483/4/6 480/4/6 484/4/6
f 485/4/6 486/4/6 488/4/6
f 488/4/6 486/4/6 489/4/6
f 487/4/6 488/4/6 491/4/6
f 489/4/6 490/4/6 491/4/6
f 488/4/6 489/4/6 491/4/6
f 491/4/6 490/4/6 492/4/6
f 492/4/6 490/4/6 493/4/6
f 493/4/6 490/4/6 494/4/6
f 492/4/6 493/4/6 495/4/6
f 495/4/6 493/4/6 496/4/6
