# MagicaVoxel @ Ephtracy

# group
o 

# material
mtllib ChelPick-0.mtl
usemtl palette

# normals
vn -1 0 0
vn 1 0 0
vn 0 0 1
vn 0 0 -1
vn 0 -1 0
vn 0 1 0

# texcoords
vt 0.970703 0.5
vt 0.974609 0.5
vt 0.978516 0.5
vt 0.982422 0.5
vt 0.986328 0.5
vt 0.990234 0.5
vt 0.994141 0.5

# verts
v 9.2 1.8 -0.2
v 9.2 1.8 -0.3
v 9.2 1.9 -0.1
v 9.2 1.9 -0.2
v 9.2 1.9 -0.3
v 9.2 2 0
v 9.2 2 -0.1
v 9.2 2 -0.2
v 9.2 2.1 0
v 9.2 2.1 -0.1
v 9.3 1.7 -0.3
v 9.3 1.7 -0.4
v 9.3 1.8 -0.3
v 9.3 1.8 -0.4
v 9.3 1.8 -0.5
v 9.3 1.8 -0.6
v 9.3 1.9 -0.2
v 9.3 1.9 -0.3
v 9.3 1.9 -0.5
v 9.3 2 -0.1
v 9.3 2 -0.2
v 9.3 2.1 0.1
v 9.3 2.1 0
v 9.3 2.1 -0.1
v 9.3 2.2 0.1
v 9.3 2.2 0
v 9.3 2.2 -0.1
v 9.3 2.2 -0.6
v 9.3 2.3 0
v 9.3 2.3 -0.2
v 9.3 2.4 -0.2
v 9.3 2.4 -0.3
v 9.3 2.4 -0.5
v 9.3 2.4 -0.6
v 9.3 2.5 -0.3
v 9.3 2.5 -0.5
v 9.4 1 -0.3
v 9.4 1 -0.4
v 9.4 1.1 -0.3
v 9.4 1.1 -0.4
v 9.4 1.2 -0.2
v 9.4 1.2 -0.3
v 9.4 1.2 -0.4
v 9.4 1.2 -0.5
v 9.4 1.3 -0.2
v 9.4 1.3 -0.5
v 9.4 1.7 -0.3
v 9.4 1.7 -0.4
v 9.4 1.7 -0.5
v 9.4 1.7 -0.6
v 9.4 1.8 -0.1
v 9.4 1.8 -0.2
v 9.4 1.8 -0.3
v 9.4 1.8 -0.4
v 9.4 1.8 -0.5
v 9.4 1.8 -0.6
v 9.4 1.9 -0.1
v 9.4 1.9 -0.2
v 9.4 1.9 -0.3
v 9.4 1.9 -0.5
v 9.4 2.2 0.2
v 9.4 2.2 0.1
v 9.4 2.3 0.2
v 9.4 2.3 0.1
v 9.4 2.4 -0.2
v 9.4 2.4 -0.3
v 9.4 2.4 -0.5
v 9.4 2.4 -0.6
v 9.4 2.5 -0.2
v 9.4 2.5 -0.3
v 9.4 2.5 -0.5
v 9.4 2.5 -0.6
v 9.6 1.7 -0.5
v 9.6 1.7 -0.6
v 9.6 1.9 -0.5
v 9.6 1.9 -0.6
v 9.6 2.3 0.2
v 9.6 2.3 0.1
v 9.6 2.8 0.5
v 9.6 2.8 0.4
v 9.6 2.8 -0.1
v 9.6 2.8 -0.2
v 9.6 2.9 0.5
v 9.6 2.9 0.4
v 9.6 2.9 0.2
v 9.6 2.9 0.1
v 9.6 2.9 -0.1
v 9.6 2.9 -0.2
v 9.6 3 0.4
v 9.6 3 -0.1
v 9.7 1.8 -0.1
v 9.7 1.8 -0.2
v 9.7 2.2 -0.1
v 9.7 2.2 -0.2
v 9.8 1 -0.3
v 9.8 1 -0.4
v 9.8 1.1 -0.3
v 9.8 1.1 -0.4
v 9.8 1.2 -0.3
v 9.8 1.2 -0.4
v 9.9 1.8 -0.5
v 9.9 1.8 -0.6
v 9.9 1.9 -0.5
v 9.9 1.9 -0.6
v 9.9 2.1 0.1
v 9.9 2.1 0
v 9.9 2.2 0.1
v 9.9 2.2 0
v 10 2 0
v 10 2 -0.1
v 10 2.1 0
v 10 2.1 -0.1
v 9.3 2 0
v 9.3 2 -0.1
v 9.3 2.1 0
v 9.3 2.1 -0.1
v 9.4 2.1 0.1
v 9.4 2.1 0
v 9.4 2.2 0.1
v 9.4 2.2 0
v 9.5 1 -0.3
v 9.5 1 -0.4
v 9.5 1.1 -0.3
v 9.5 1.1 -0.4
v 9.5 1.2 -0.3
v 9.5 1.2 -0.4
v 9.5 1.7 -0.5
v 9.5 1.7 -0.6
v 9.5 1.8 -0.1
v 9.5 1.8 -0.2
v 9.5 1.9 -0.5
v 9.5 1.9 -0.6
v 9.5 2.1 -0.1
v 9.5 2.1 -0.2
v 9.6 2.1 -0.1
v 9.6 2.1 -0.2
v 9.6 2.2 -0.1
v 9.6 2.2 -0.2
v 9.7 1.7 -0.5
v 9.7 1.7 -0.6
v 9.7 1.8 -0.5
v 9.7 1.8 -0.6
v 9.7 2.3 0.2
v 9.7 2.3 0.1
v 9.7 2.8 0.5
v 9.7 2.8 0.4
v 9.7 2.8 -0.1
v 9.7 2.8 -0.2
v 9.7 2.9 0.5
v 9.7 2.9 0.4
v 9.7 2.9 0.2
v 9.7 2.9 0.1
v 9.7 2.9 -0.1
v 9.7 2.9 -0.2
v 9.7 3 0.4
v 9.7 3 -0.1
v 9.8 1.8 -0.1
v 9.8 1.8 -0.2
v 9.8 1.8 -0.5
v 9.8 1.8 -0.6
v 9.8 1.9 -0.1
v 9.8 1.9 -0.2
v 9.8 1.9 -0.5
v 9.8 1.9 -0.6
v 9.9 1 -0.3
v 9.9 1 -0.4
v 9.9 1.1 -0.3
v 9.9 1.1 -0.4
v 9.9 1.2 -0.2
v 9.9 1.2 -0.3
v 9.9 1.2 -0.4
v 9.9 1.2 -0.5
v 9.9 1.3 -0.2
v 9.9 1.3 -0.5
v 9.9 1.7 -0.3
v 9.9 1.7 -0.4
v 9.9 1.8 -0.2
v 9.9 1.8 -0.3
v 9.9 1.8 -0.4
v 9.9 1.8 -0.5
v 9.9 1.9 -0.3
v 9.9 1.9 -0.4
v 9.9 2.2 0.2
v 9.9 2.2 0.1
v 9.9 2.3 0.2
v 9.9 2.3 0.1
v 9.9 2.4 -0.2
v 9.9 2.4 -0.3
v 9.9 2.4 -0.5
v 9.9 2.4 -0.6
v 9.9 2.5 -0.2
v 9.9 2.5 -0.3
v 9.9 2.5 -0.5
v 9.9 2.5 -0.6
v 10 1.7 -0.3
v 10 1.7 -0.4
v 10 1.8 -0.3
v 10 1.8 -0.4
v 10 1.8 -0.6
v 10 1.9 -0.2
v 10 1.9 -0.3
v 10 1.9 -0.4
v 10 2 -0.1
v 10 2 -0.2
v 10 2.1 0.1
v 10 2.1 0
v 10 2.1 -0.1
v 10 2.2 0.1
v 10 2.2 0
v 10 2.2 -0.1
v 10 2.2 -0.6
v 10 2.3 0
v 10 2.3 -0.2
v 10 2.4 -0.2
v 10 2.4 -0.3
v 10 2.4 -0.5
v 10 2.4 -0.6
v 10 2.5 -0.3
v 10 2.5 -0.5
v 10.1 1.8 -0.2
v 10.1 1.8 -0.3
v 10.1 1.9 -0.1
v 10.1 1.9 -0.2
v 10.1 1.9 -0.3
v 10.1 2 0
v 10.1 2 -0.1
v 10.1 2 -0.2
v 10.1 2.1 0
v 10.1 2.1 -0.1
v 9.6 2.8 0.5
v 9.6 2.9 0.5
v 9.7 2.8 0.5
v 9.7 2.9 0.5
v 9.6 2.9 0.4
v 9.6 3 0.4
v 9.7 2.9 0.4
v 9.7 3 0.4
v 9.4 2.2 0.2
v 9.4 2.3 0.2
v 9.6 2.2 0.2
v 9.6 2.3 0.2
v 9.6 2.9 0.2
v 9.7 2.2 0.2
v 9.7 2.3 0.2
v 9.7 2.9 0.2
v 9.9 2.2 0.2
v 9.9 2.3 0.2
v 9.3 2.1 0.1
v 9.3 2.2 0.1
v 9.4 2.1 0.1
v 9.4 2.2 0.1
v 9.9 2.1 0.1
v 9.9 2.2 0.1
v 10 2.1 0.1
v 10 2.2 0.1
v 9.2 2 0
v 9.2 2.1 0
v 9.3 2 0
v 9.3 2.1 0
v 9.3 2.2 0
v 9.3 2.3 0
v 9.4 2.2 0
v 9.9 2.2 0
v 10 2 0
v 10 2.1 0
v 10 2.2 0
v 10 2.3 0
v 10.1 2 0
v 10.1 2.1 0
v 9.2 1.9 -0.1
v 9.2 2 -0.1
v 9.3 1.9 -0.1
v 9.3 2 -0.1
v 9.3 2.1 -0.1
v 9.3 2.2 -0.1
v 9.4 1.8 -0.1
v 9.4 1.9 -0.1
v 9.5 1.8 -0.1
v 9.5 2.1 -0.1
v 9.6 2.1 -0.1
v 9.6 2.2 -0.1
v 9.6 2.8 -0.1
v 9.6 2.9 -0.1
v 9.7 1.8 -0.1
v 9.7 2.2 -0.1
v 9.7 2.8 -0.1
v 9.7 2.9 -0.1
v 9.8 1.8 -0.1
v 9.8 1.9 -0.1
v 10 1.9 -0.1
v 10 2 -0.1
v 10 2.1 -0.1
v 10 2.2 -0.1
v 10.1 1.9 -0.1
v 10.1 2 -0.1
v 9.2 1.8 -0.2
v 9.2 1.9 -0.2
v 9.3 1.8 -0.2
v 9.3 1.9 -0.2
v 9.3 2.3 -0.2
v 9.3 2.4 -0.2
v 9.4 1.2 -0.2
v 9.4 1.3 -0.2
v 9.4 1.8 -0.2
v 9.4 1.9 -0.2
v 9.4 2.4 -0.2
v 9.4 2.5 -0.2
v 9.5 1.7 -0.2
v 9.5 1.8 -0.2
v 9.5 2.1 -0.2
v 9.6 1.6 -0.2
v 9.6 1.7 -0.2
v 9.6 2.1 -0.2
v 9.6 2.2 -0.2
v 9.7 1.6 -0.2
v 9.7 1.7 -0.2
v 9.7 1.8 -0.2
v 9.7 2.2 -0.2
v 9.8 1.7 -0.2
v 9.8 1.8 -0.2
v 9.8 1.9 -0.2
v 9.9 1.2 -0.2
v 9.9 1.3 -0.2
v 9.9 1.8 -0.2
v 9.9 1.9 -0.2
v 9.9 2.4 -0.2
v 9.9 2.5 -0.2
v 10 1.8 -0.2
v 10 1.9 -0.2
v 10 2.3 -0.2
v 10 2.4 -0.2
v 10.1 1.8 -0.2
v 10.1 1.9 -0.2
v 9.3 1.7 -0.3
v 9.3 1.8 -0.3
v 9.3 2.4 -0.3
v 9.3 2.5 -0.3
v 9.4 1 -0.3
v 9.4 1.1 -0.3
v 9.4 1.2 -0.3
v 9.4 1.7 -0.3
v 9.4 1.8 -0.3
v 9.4 2.4 -0.3
v 9.4 2.5 -0.3
v 9.5 1 -0.3
v 9.5 1.1 -0.3
v 9.5 1.2 -0.3
v 9.8 1 -0.3
v 9.8 1.1 -0.3
v 9.8 1.2 -0.3
v 9.9 1 -0.3
v 9.9 1.1 -0.3
v 9.9 1.2 -0.3
v 9.9 1.7 -0.3
v 9.9 1.8 -0.3
v 9.9 2.4 -0.3
v 9.9 2.5 -0.3
v 10 1.7 -0.3
v 10 1.8 -0.3
v 10 2.4 -0.3
v 10 2.5 -0.3
v 9.9 1.8 -0.4
v 9.9 1.9 -0.4
v 10 1.8 -0.4
v 10 1.9 -0.4
v 9.3 1.8 -0.5
v 9.3 1.9 -0.5
v 9.4 1.8 -0.5
v 9.4 1.9 -0.5
v 9.6 2.8 0.4
v 9.6 2.9 0.4
v 9.7 2.8 0.4
v 9.7 2.9 0.4
v 9.4 2.2 0.1
v 9.4 2.3 0.1
v 9.6 2.2 0.1
v 9.6 2.3 0.1
v 9.6 2.9 0.1
v 9.7 2.2 0.1
v 9.7 2.3 0.1
v 9.7 2.9 0.1
v 9.9 2.2 0.1
v 9.9 2.3 0.1
v 9.3 2.1 0
v 9.3 2.2 0
v 9.4 2.1 0
v 9.4 2.2 0
v 9.9 2.1 0
v 9.9 2.2 0
v 10 2.1 0
v 10 2.2 0
v 9.2 2 -0.1
v 9.2 2.1 -0.1
v 9.3 2 -0.1
v 9.3 2.1 -0.1
v 9.6 2.9 -0.1
v 9.6 3 -0.1
v 9.7 2.9 -0.1
v 9.7 3 -0.1
v 10 2 -0.1
v 10 2.1 -0.1
v 10.1 2 -0.1
v 10.1 2.1 -0.1
v 9.2 1.9 -0.2
v 9.2 2 -0.2
v 9.3 1.9 -0.2
v 9.3 2 -0.2
v 9.6 2.8 -0.2
v 9.6 2.9 -0.2
v 9.7 2.8 -0.2
v 9.7 2.9 -0.2
v 10 1.9 -0.2
v 10 2 -0.2
v 10.1 1.9 -0.2
v 10.1 2 -0.2
v 9.2 1.8 -0.3
v 9.2 1.9 -0.3
v 9.3 1.8 -0.3
v 9.3 1.9 -0.3
v 9.4 1.8 -0.3
v 9.4 1.9 -0.3
v 9.9 1.8 -0.3
v 9.9 1.9 -0.3
v 10 1.8 -0.3
v 10 1.9 -0.3
v 10.1 1.8 -0.3
v 10.1 1.9 -0.3
v 9.3 1.7 -0.4
v 9.3 1.8 -0.4
v 9.4 1 -0.4
v 9.4 1.1 -0.4
v 9.4 1.2 -0.4
v 9.4 1.7 -0.4
v 9.4 1.8 -0.4
v 9.5 1 -0.4
v 9.5 1.1 -0.4
v 9.5 1.2 -0.4
v 9.8 1 -0.4
v 9.8 1.1 -0.4
v 9.8 1.2 -0.4
v 9.9 1 -0.4
v 9.9 1.1 -0.4
v 9.9 1.2 -0.4
v 9.9 1.7 -0.4
v 9.9 1.8 -0.4
v 10 1.7 -0.4
v 10 1.8 -0.4
v 9.3 2.4 -0.5
v 9.3 2.5 -0.5
v 9.4 1.2 -0.5
v 9.4 1.3 -0.5
v 9.4 1.7 -0.5
v 9.4 2.4 -0.5
v 9.4 2.5 -0.5
v 9.5 1.7 -0.5
v 9.5 1.9 -0.5
v 9.6 1.7 -0.5
v 9.6 1.9 -0.5
v 9.7 1.7 -0.5
v 9.7 1.8 -0.5
v 9.8 1.7 -0.5
v 9.8 1.8 -0.5
v 9.8 1.9 -0.5
v 9.9 1.2 -0.5
v 9.9 1.3 -0.5
v 9.9 1.8 -0.5
v 9.9 1.9 -0.5
v 9.9 2.4 -0.5
v 9.9 2.5 -0.5
v 10 2.4 -0.5
v 10 2.5 -0.5
v 9.3 1.8 -0.6
v 9.3 2.2 -0.6
v 9.3 2.4 -0.6
v 9.4 1.7 -0.6
v 9.4 1.8 -0.6
v 9.4 2.4 -0.6
v 9.4 2.5 -0.6
v 9.5 1.7 -0.6
v 9.5 1.9 -0.6
v 9.6 1.7 -0.6
v 9.6 1.9 -0.6
v 9.7 1.7 -0.6
v 9.7 1.8 -0.6
v 9.8 1.8 -0.6
v 9.8 1.9 -0.6
v 9.9 1.8 -0.6
v 9.9 1.9 -0.6
v 9.9 2.4 -0.6
v 9.9 2.5 -0.6
v 10 1.8 -0.6
v 10 2.2 -0.6
v 10 2.4 -0.6
v 9.4 1 -0.3
v 9.5 1 -0.3
v 9.8 1 -0.3
v 9.9 1 -0.3
v 9.4 1 -0.4
v 9.5 1 -0.4
v 9.8 1 -0.4
v 9.9 1 -0.4
v 9.4 1.2 -0.2
v 9.9 1.2 -0.2
v 9.4 1.2 -0.3
v 9.5 1.2 -0.3
v 9.8 1.2 -0.3
v 9.9 1.2 -0.3
v 9.4 1.2 -0.4
v 9.5 1.2 -0.4
v 9.8 1.2 -0.4
v 9.9 1.2 -0.4
v 9.4 1.2 -0.5
v 9.9 1.2 -0.5
v 9.3 1.7 -0.3
v 9.4 1.7 -0.3
v 9.9 1.7 -0.3
v 10 1.7 -0.3
v 9.3 1.7 -0.4
v 9.4 1.7 -0.4
v 9.9 1.7 -0.4
v 10 1.7 -0.4
v 9.4 1.7 -0.5
v 9.5 1.7 -0.5
v 9.6 1.7 -0.5
v 9.7 1.7 -0.5
v 9.4 1.7 -0.6
v 9.5 1.7 -0.6
v 9.6 1.7 -0.6
v 9.7 1.7 -0.6
v 9.4 1.8 -0.1
v 9.5 1.8 -0.1
v 9.7 1.8 -0.1
v 9.8 1.8 -0.1
v 9.2 1.8 -0.2
v 9.3 1.8 -0.2
v 9.4 1.8 -0.2
v 9.5 1.8 -0.2
v 9.7 1.8 -0.2
v 9.8 1.8 -0.2
v 9.9 1.8 -0.2
v 10 1.8 -0.2
v 10.1 1.8 -0.2
v 9.2 1.8 -0.3
v 9.3 1.8 -0.3
v 9.4 1.8 -0.3
v 9.9 1.8 -0.3
v 10 1.8 -0.3
v 10.1 1.8 -0.3
v 9.9 1.8 -0.4
v 10 1.8 -0.4
v 9.3 1.8 -0.5
v 9.4 1.8 -0.5
v 9.7 1.8 -0.5
v 9.8 1.8 -0.5
v 9.9 1.8 -0.5
v 9.3 1.8 -0.6
v 9.4 1.8 -0.6
v 9.7 1.8 -0.6
v 9.8 1.8 -0.6
v 9.9 1.8 -0.6
v 10 1.8 -0.6
v 9.2 1.9 -0.1
v 9.3 1.9 -0.1
v 9.4 1.9 -0.1
v 9.8 1.9 -0.1
v 10 1.9 -0.1
v 10.1 1.9 -0.1
v 9.2 1.9 -0.2
v 9.3 1.9 -0.2
v 9.4 1.9 -0.2
v 9.8 1.9 -0.2
v 9.9 1.9 -0.2
v 10 1.9 -0.2
v 10.1 1.9 -0.2
v 9.3 1.9 -0.3
v 9.4 1.9 -0.3
v 9.9 1.9 -0.3
v 10 1.9 -0.3
v 9.9 1.9 -0.4
v 10 1.9 -0.4
v 9.3 1.9 -0.5
v 9.4 1.9 -0.5
v 9.5 1.9 -0.5
v 9.6 1.9 -0.5
v 9.8 1.9 -0.5
v 9.9 1.9 -0.5
v 9.5 1.9 -0.6
v 9.6 1.9 -0.6
v 9.8 1.9 -0.6
v 9.9 1.9 -0.6
v 9.2 2 0
v 9.3 2 0
v 10 2 0
v 10.1 2 0
v 9.2 2 -0.1
v 9.3 2 -0.1
v 10 2 -0.1
v 10.1 2 -0.1
v 9.3 2.1 0.1
v 9.4 2.1 0.1
v 9.9 2.1 0.1
v 10 2.1 0.1
v 9.3 2.1 0
v 9.4 2.1 0
v 9.9 2.1 0
v 10 2.1 0
v 9.5 2.1 -0.1
v 9.6 2.1 -0.1
v 9.5 2.1 -0.2
v 9.6 2.1 -0.2
v 9.4 2.2 0.2
v 9.6 2.2 0.2
v 9.7 2.2 0.2
v 9.9 2.2 0.2
v 9.4 2.2 0.1
v 9.6 2.2 0.1
v 9.7 2.2 0.1
v 9.9 2.2 0.1
v 9.3 2.2 0
v 9.4 2.2 0
v 9.9 2.2 0
v 10 2.2 0
v 9.3 2.2 -0.1
v 9.6 2.2 -0.1
v 9.7 2.2 -0.1
v 10 2.2 -0.1
v 9.6 2.2 -0.2
v 9.7 2.2 -0.2
v 9.6 2.8 0.5
v 9.7 2.8 0.5
v 9.6 2.8 0.4
v 9.7 2.8 0.4
v 9.6 2.8 -0.1
v 9.7 2.8 -0.1
v 9.6 2.8 -0.2
v 9.7 2.8 -0.2
v 9.6 2.9 0.4
v 9.7 2.9 0.4
v 9.6 2.9 0.2
v 9.7 2.9 0.2
v 9.6 2.9 0.1
v 9.7 2.9 0.1
v 9.6 2.9 -0.1
v 9.7 2.9 -0.1
v 9.3 1.8 -0.3
v 9.4 1.8 -0.3
v 9.9 1.8 -0.3
v 10 1.8 -0.3
v 9.3 1.8 -0.4
v 9.4 1.8 -0.4
v 9.9 1.8 -0.4
v 10 1.8 -0.4
v 9.2 1.9 -0.2
v 9.3 1.9 -0.2
v 10 1.9 -0.2
v 10.1 1.9 -0.2
v 9.2 1.9 -0.3
v 9.3 1.9 -0.3
v 10 1.9 -0.3
v 10.1 1.9 -0.3
v 9.2 2 -0.1
v 9.3 2 -0.1
v 10 2 -0.1
v 10.1 2 -0.1
v 9.2 2 -0.2
v 9.3 2 -0.2
v 10 2 -0.2
v 10.1 2 -0.2
v 9.2 2.1 0
v 9.3 2.1 0
v 10 2.1 0
v 10.1 2.1 0
v 9.2 2.1 -0.1
v 9.3 2.1 -0.1
v 10 2.1 -0.1
v 10.1 2.1 -0.1
v 9.3 2.2 0.1
v 9.4 2.2 0.1
v 9.9 2.2 0.1
v 10 2.2 0.1
v 9.3 2.2 0
v 9.4 2.2 0
v 9.9 2.2 0
v 10 2.2 0
v 9.4 2.3 0.2
v 9.6 2.3 0.2
v 9.7 2.3 0.2
v 9.9 2.3 0.2
v 9.4 2.3 0.1
v 9.6 2.3 0.1
v 9.7 2.3 0.1
v 9.9 2.3 0.1
v 9.3 2.3 0
v 10 2.3 0
v 9.3 2.3 -0.2
v 10 2.3 -0.2
v 9.3 2.4 -0.2
v 9.4 2.4 -0.2
v 9.9 2.4 -0.2
v 10 2.4 -0.2
v 9.3 2.4 -0.3
v 9.4 2.4 -0.3
v 9.9 2.4 -0.3
v 10 2.4 -0.3
v 9.3 2.4 -0.5
v 9.4 2.4 -0.5
v 9.9 2.4 -0.5
v 10 2.4 -0.5
v 9.3 2.4 -0.6
v 9.4 2.4 -0.6
v 9.9 2.4 -0.6
v 10 2.4 -0.6
v 9.4 2.5 -0.2
v 9.9 2.5 -0.2
v 9.3 2.5 -0.3
v 9.4 2.5 -0.3
v 9.9 2.5 -0.3
v 10 2.5 -0.3
v 9.3 2.5 -0.5
v 9.4 2.5 -0.5
v 9.9 2.5 -0.5
v 10 2.5 -0.5
v 9.4 2.5 -0.6
v 9.9 2.5 -0.6
v 9.6 2.9 0.5
v 9.7 2.9 0.5
v 9.6 2.9 0.4
v 9.7 2.9 0.4
v 9.6 2.9 -0.1
v 9.7 2.9 -0.1
v 9.6 2.9 -0.2
v 9.7 2.9 -0.2
v 9.6 3 0.4
v 9.7 3 0.4
v 9.6 3 -0.1
v 9.7 3 -0.1

# faces
f 4/1/1 2/1/1 1/1/1
f 5/1/1 2/1/1 4/1/1
f 7/1/1 4/1/1 3/1/1
f 8/1/1 4/1/1 7/1/1
f 9/1/1 7/1/1 6/1/1
f 10/1/1 7/1/1 9/1/1
f 13/3/1 12/3/1 11/3/1
f 14/3/1 12/3/1 13/3/1
f 19/5/1 16/5/1 15/5/1
f 21/5/1 18/5/1 17/5/1
f 21/5/1 19/5/1 18/5/1
f 24/5/1 21/5/1 20/5/1
f 25/1/1 23/1/1 22/1/1
f 26/1/1 23/1/1 25/1/1
f 27/5/1 21/5/1 24/5/1
f 28/5/1 16/5/1 19/5/1
f 28/5/1 19/5/1 21/5/1
f 28/5/1 21/5/1 27/5/1
f 29/4/1 27/4/1 26/4/1
f 29/4/1 28/4/1 27/4/1
f 30/4/1 28/4/1 29/4/1
f 31/4/1 28/4/1 30/4/1
f 32/4/1 28/4/1 31/4/1
f 33/4/1 28/4/1 32/4/1
f 34/4/1 28/4/1 33/4/1
f 35/4/1 33/4/1 32/4/1
f 36/4/1 33/4/1 35/4/1
f 39/1/1 38/1/1 37/1/1
f 40/1/1 38/1/1 39/1/1
f 42/2/1 40/2/1 39/2/1
f 43/2/1 40/2/1 42/2/1
f 45/2/1 43/2/1 42/2/1
f 45/2/1 44/2/1 43/2/1
f 45/2/1 42/2/1 41/2/1
f 46/2/1 44/2/1 45/2/1
f 47/3/1 46/3/1 45/3/1
f 48/3/1 46/3/1 47/3/1
f 49/3/1 46/3/1 48/3/1
f 52/3/1 47/3/1 45/3/1
f 53/3/1 47/3/1 52/3/1
f 54/3/1 49/3/1 48/3/1
f 55/5/1 50/5/1 49/5/1
f 55/3/1 49/3/1 54/3/1
f 56/5/1 50/5/1 55/5/1
f 57/5/1 52/5/1 51/5/1
f 58/5/1 52/5/1 57/5/1
f 59/1/1 54/1/1 53/1/1
f 59/1/1 55/1/1 54/1/1
f 60/1/1 55/1/1 59/1/1
f 63/1/1 62/1/1 61/1/1
f 64/1/1 62/1/1 63/1/1
f 69/4/1 66/4/1 65/4/1
f 70/4/1 66/4/1 69/4/1
f 71/4/1 68/4/1 67/4/1
f 72/4/1 68/4/1 71/4/1
f 75/5/1 74/5/1 73/5/1
f 76/5/1 74/5/1 75/5/1
f 83/6/1 80/6/1 79/6/1
f 84/6/1 80/6/1 83/6/1
f 85/7/1 78/7/1 77/7/1
f 86/7/1 78/7/1 85/7/1
f 87/6/1 82/6/1 81/6/1
f 88/6/1 82/6/1 87/6/1
f 89/6/1 86/6/1 85/6/1
f 89/6/1 87/6/1 86/6/1
f 89/6/1 85/6/1 84/6/1
f 90/6/1 87/6/1 89/6/1
f 93/5/1 92/5/1 91/5/1
f 94/5/1 92/5/1 93/5/1
f 97/1/1 96/1/1 95/1/1
f 98/1/1 96/1/1 97/1/1
f 99/2/1 98/2/1 97/2/1
f 100/2/1 98/2/1 99/2/1
f 103/5/1 102/5/1 101/5/1
f 104/5/1 102/5/1 103/5/1
f 107/1/1 106/1/1 105/1/1
f 108/1/1 106/1/1 107/1/1
f 111/1/1 110/1/1 109/1/1
f 112/1/1 110/1/1 111/1/1
f 113/1/2 114/1/2 115/1/2
f 115/1/2 114/1/2 116/1/2
f 117/1/2 118/1/2 119/1/2
f 119/1/2 118/1/2 120/1/2
f 121/1/2 122/1/2 123/1/2
f 123/1/2 122/1/2 124/1/2
f 123/2/2 124/2/2 125/2/2
f 125/2/2 124/2/2 126/2/2
f 127/5/2 128/5/2 131/5/2
f 131/5/2 128/5/2 132/5/2
f 129/5/2 130/5/2 133/5/2
f 133/5/2 130/5/2 134/5/2
f 135/5/2 136/5/2 137/5/2
f 137/5/2 136/5/2 138/5/2
f 139/5/2 140/5/2 141/5/2
f 141/5/2 140/5/2 142/5/2
f 145/6/2 146/6/2 149/6/2
f 149/6/2 146/6/2 150/6/2
f 143/7/2 144/7/2 151/7/2
f 151/7/2 144/7/2 152/7/2
f 147/6/2 148/6/2 153/6/2
f 153/6/2 148/6/2 154/6/2
f 151/6/2 152/6/2 155/6/2
f 152/6/2 153/6/2 155/6/2
f 150/6/2 151/6/2 155/6/2
f 155/6/2 153/6/2 156/6/2
f 157/5/2 158/5/2 161/5/2
f 161/5/2 158/5/2 162/5/2
f 159/5/2 160/5/2 163/5/2
f 163/5/2 160/5/2 164/5/2
f 165/1/2 166/1/2 167/1/2
f 167/1/2 166/1/2 168/1/2
f 167/2/2 168/2/2 170/2/2
f 170/2/2 168/2/2 171/2/2
f 170/2/2 171/2/2 173/2/2
f 171/2/2 172/2/2 173/2/2
f 169/2/2 170/2/2 173/2/2
f 173/2/2 172/2/2 174/2/2
f 173/3/2 174/3/2 175/3/2
f 175/3/2 174/3/2 176/3/2
f 173/3/2 175/3/2 177/3/2
f 177/3/2 175/3/2 178/3/2
f 176/3/2 174/3/2 179/3/2
f 179/3/2 174/3/2 180/3/2
f 178/1/2 179/1/2 181/1/2
f 181/1/2 179/1/2 182/1/2
f 183/1/2 184/1/2 185/1/2
f 185/1/2 184/1/2 186/1/2
f 187/4/2 188/4/2 191/4/2
f 191/4/2 188/4/2 192/4/2
f 189/4/2 190/4/2 193/4/2
f 193/4/2 190/4/2 194/4/2
f 195/3/2 196/3/2 197/3/2
f 197/3/2 196/3/2 198/3/2
f 198/5/2 199/5/2 202/5/2
f 200/5/2 201/5/2 204/5/2
f 201/5/2 202/5/2 204/5/2
f 203/5/2 204/5/2 207/5/2
f 205/1/2 206/1/2 208/1/2
f 208/1/2 206/1/2 209/1/2
f 207/5/2 204/5/2 210/5/2
f 202/5/2 199/5/2 211/5/2
f 204/5/2 202/5/2 211/5/2
f 210/5/2 204/5/2 211/5/2
f 209/4/2 210/4/2 212/4/2
f 210/4/2 211/4/2 212/4/2
f 212/4/2 211/4/2 213/4/2
f 213/4/2 211/4/2 214/4/2
f 214/4/2 211/4/2 215/4/2
f 215/4/2 211/4/2 216/4/2
f 216/4/2 211/4/2 217/4/2
f 215/4/2 216/4/2 218/4/2
f 218/4/2 216/4/2 219/4/2
f 220/1/2 221/1/2 223/1/2
f 223/1/2 221/1/2 224/1/2
f 222/1/2 223/1/2 226/1/2
f 226/1/2 223/1/2 227/1/2
f 225/1/2 226/1/2 228/1/2
f 228/1/2 226/1/2 229/1/2
f 232/6/3 231/6/3 230/6/3
f 233/6/3 231/6/3 232/6/3
f 236/6/3 235/6/3 234/6/3
f 237/6/3 235/6/3 236/6/3
f 240/1/3 239/1/3 238/1/3
f 241/1/3 239/1/3 240/1/3
f 243/7/3 241/7/3 240/7/3
f 243/7/3 242/7/3 241/7/3
f 244/7/3 242/7/3 243/7/3
f 245/7/3 242/7/3 244/7/3
f 246/1/3 244/1/3 243/1/3
f 247/1/3 244/1/3 246/1/3
f 250/1/3 249/1/3 248/1/3
f 251/1/3 249/1/3 250/1/3
f 254/1/3 253/1/3 252/1/3
f 255/1/3 253/1/3 254/1/3
f 258/1/3 257/1/3 256/1/3
f 259/1/3 257/1/3 258/1/3
f 262/4/3 261/4/3 260/4/3
f 263/4/3 261/4/3 262/4/3
f 266/4/3 261/4/3 263/4/3
f 267/4/3 261/4/3 266/4/3
f 268/1/3 265/1/3 264/1/3
f 269/1/3 265/1/3 268/1/3
f 272/1/3 271/1/3 270/1/3
f 273/1/3 271/1/3 272/1/3
f 277/5/3 273/5/3 272/5/3
f 277/5/3 275/5/3 274/5/3
f 277/5/3 274/5/3 273/5/3
f 278/5/3 277/5/3 276/5/3
f 279/5/3 275/5/3 277/5/3
f 279/5/3 277/5/3 278/5/3
f 280/5/3 275/5/3 279/5/3
f 281/5/3 275/5/3 280/5/3
f 286/6/3 283/6/3 282/6/3
f 287/6/3 283/6/3 286/6/3
f 288/5/3 285/5/3 284/5/3
f 289/5/3 285/5/3 288/5/3
f 290/5/3 285/5/3 289/5/3
f 291/5/3 285/5/3 290/5/3
f 292/5/3 285/5/3 291/5/3
f 293/5/3 285/5/3 292/5/3
f 294/1/3 291/1/3 290/1/3
f 295/1/3 291/1/3 294/1/3
f 298/1/3 297/1/3 296/1/3
f 299/1/3 297/1/3 298/1/3
f 304/5/3 299/5/3 298/5/3
f 305/5/3 299/5/3 304/5/3
f 306/4/3 301/4/3 300/4/3
f 308/3/3 304/3/3 303/3/3
f 309/3/3 304/3/3 308/3/3
f 311/3/3 308/3/3 303/3/3
f 312/1/3 310/1/3 309/1/3
f 312/3/3 308/3/3 311/3/3
f 312/1/3 309/1/3 308/1/3
f 313/1/3 310/1/3 312/1/3
f 315/3/3 311/3/3 303/3/3
f 315/1/3 314/1/3 313/1/3
f 315/1/3 313/1/3 312/1/3
f 315/1/3 312/1/3 311/1/3
f 316/1/3 314/1/3 315/1/3
f 317/1/3 314/1/3 316/1/3
f 318/1/3 314/1/3 317/1/3
f 319/3/3 316/3/3 315/3/3
f 319/1/3 317/1/3 316/1/3
f 320/1/3 317/1/3 319/1/3
f 322/2/3 303/2/3 302/2/3
f 323/3/3 315/3/3 303/3/3
f 323/2/3 303/2/3 322/2/3
f 323/3/3 319/3/3 315/3/3
f 323/3/3 320/3/3 319/3/3
f 324/1/3 321/1/3 320/1/3
f 324/3/3 320/3/3 323/3/3
f 325/1/3 321/1/3 324/1/3
f 326/4/3 307/4/3 306/4/3
f 326/4/3 306/4/3 300/4/3
f 327/4/3 307/4/3 326/4/3
f 328/5/3 325/5/3 324/5/3
f 329/5/3 325/5/3 328/5/3
f 330/4/3 326/4/3 300/4/3
f 331/4/3 326/4/3 330/4/3
f 332/1/3 329/1/3 328/1/3
f 333/1/3 329/1/3 332/1/3
f 341/3/3 335/3/3 334/3/3
f 342/3/3 335/3/3 341/3/3
f 343/4/3 337/4/3 336/4/3
f 344/4/3 337/4/3 343/4/3
f 345/1/3 339/1/3 338/1/3
f 346/2/3 340/2/3 339/2/3
f 346/1/3 339/1/3 345/1/3
f 347/2/3 340/2/3 346/2/3
f 351/1/3 349/1/3 348/1/3
f 352/2/3 350/2/3 349/2/3
f 352/1/3 349/1/3 351/1/3
f 353/2/3 350/2/3 352/2/3
f 358/3/3 355/3/3 354/3/3
f 359/3/3 355/3/3 358/3/3
f 360/4/3 357/4/3 356/4/3
f 361/4/3 357/4/3 360/4/3
f 364/5/3 363/5/3 362/5/3
f 365/5/3 363/5/3 364/5/3
f 368/5/3 367/5/3 366/5/3
f 369/5/3 367/5/3 368/5/3
f 370/6/4 371/6/4 372/6/4
f 372/6/4 371/6/4 373/6/4
f 374/1/4 375/1/4 376/1/4
f 376/1/4 375/1/4 377/1/4
f 376/7/4 377/7/4 379/7/4
f 377/7/4 378/7/4 379/7/4
f 379/7/4 378/7/4 380/7/4
f 380/7/4 378/7/4 381/7/4
f 379/1/4 380/1/4 382/1/4
f 382/1/4 380/1/4 383/1/4
f 384/1/4 385/1/4 386/1/4
f 386/1/4 385/1/4 387/1/4
f 388/1/4 389/1/4 390/1/4
f 390/1/4 389/1/4 391/1/4
f 392/1/4 393/1/4 394/1/4
f 394/1/4 393/1/4 395/1/4
f 396/6/4 397/6/4 398/6/4
f 398/6/4 397/6/4 399/6/4
f 400/1/4 401/1/4 402/1/4
f 402/1/4 401/1/4 403/1/4
f 404/1/4 405/1/4 406/1/4
f 406/1/4 405/1/4 407/1/4
f 408/6/4 409/6/4 410/6/4
f 410/6/4 409/6/4 411/6/4
f 412/1/4 413/1/4 414/1/4
f 414/1/4 413/1/4 415/1/4
f 416/1/4 417/1/4 418/1/4
f 418/1/4 417/1/4 419/1/4
f 418/5/4 419/5/4 420/5/4
f 420/5/4 419/5/4 421/5/4
f 422/5/4 423/5/4 424/5/4
f 424/5/4 423/5/4 425/5/4
f 424/1/4 425/1/4 426/1/4
f 426/1/4 425/1/4 427/1/4
f 428/3/4 429/3/4 433/3/4
f 433/3/4 429/3/4 434/3/4
f 430/1/4 431/1/4 435/1/4
f 431/2/4 432/2/4 436/2/4
f 435/1/4 431/1/4 436/1/4
f 436/2/4 432/2/4 437/2/4
f 438/1/4 439/1/4 441/1/4
f 439/2/4 440/2/4 442/2/4
f 441/1/4 439/1/4 442/1/4
f 442/2/4 440/2/4 443/2/4
f 444/3/4 445/3/4 446/3/4
f 446/3/4 445/3/4 447/3/4
f 448/4/4 449/4/4 453/4/4
f 453/4/4 449/4/4 454/4/4
f 451/3/4 452/3/4 455/3/4
f 451/3/4 455/3/4 457/3/4
f 455/1/4 456/1/4 457/1/4
f 457/1/4 456/1/4 458/1/4
f 451/3/4 457/3/4 459/3/4
f 451/3/4 459/3/4 461/3/4
f 459/1/4 460/1/4 461/1/4
f 461/1/4 460/1/4 462/1/4
f 450/2/4 451/2/4 464/2/4
f 451/3/4 461/3/4 465/3/4
f 464/2/4 451/2/4 465/2/4
f 461/3/4 462/3/4 465/3/4
f 462/1/4 463/1/4 466/1/4
f 465/3/4 462/3/4 466/3/4
f 466/1/4 463/1/4 467/1/4
f 468/4/4 469/4/4 470/4/4
f 470/4/4 469/4/4 471/4/4
f 472/5/4 473/5/4 476/5/4
f 473/4/4 474/4/4 477/4/4
f 475/5/4 476/5/4 479/5/4
f 476/5/4 473/5/4 480/5/4
f 479/5/4 476/5/4 480/5/4
f 480/5/4 473/5/4 482/5/4
f 481/5/4 482/5/4 483/5/4
f 483/5/4 482/5/4 484/5/4
f 484/5/4 482/5/4 485/5/4
f 482/5/4 473/5/4 486/5/4
f 485/5/4 482/5/4 486/5/4
f 486/5/4 473/5/4 488/5/4
f 477/4/4 478/4/4 489/4/4
f 473/4/4 477/4/4 489/4/4
f 489/4/4 478/4/4 490/4/4
f 487/5/4 488/5/4 491/5/4
f 488/5/4 473/5/4 492/5/4
f 491/5/4 488/5/4 492/5/4
f 473/4/4 489/4/4 492/4/4
f 492/4/4 489/4/4 493/4/4
f 498/1/5 495/1/5 494/1/5
f 499/1/5 495/1/5 498/1/5
f 500/1/5 497/1/5 496/1/5
f 501/1/5 497/1/5 500/1/5
f 504/2/5 503/2/5 502/2/5
f 505/2/5 503/2/5 504/2/5
f 506/2/5 503/2/5 505/2/5
f 507/2/5 503/2/5 506/2/5
f 509/2/5 506/2/5 505/2/5
f 510/2/5 506/2/5 509/2/5
f 512/2/5 509/2/5 508/2/5
f 512/2/5 511/2/5 510/2/5
f 512/2/5 510/2/5 509/2/5
f 513/2/5 511/2/5 512/2/5
f 518/3/5 515/3/5 514/3/5
f 519/3/5 515/3/5 518/3/5
f 520/3/5 517/3/5 516/3/5
f 521/3/5 517/3/5 520/3/5
f 526/5/5 523/5/5 522/5/5
f 527/5/5 523/5/5 526/5/5
f 528/5/5 525/5/5 524/5/5
f 529/5/5 525/5/5 528/5/5
f 536/5/5 531/5/5 530/5/5
f 537/5/5 531/5/5 536/5/5
f 538/5/5 533/5/5 532/5/5
f 539/5/5 533/5/5 538/5/5
f 543/1/5 535/1/5 534/1/5
f 544/5/5 536/5/5 535/5/5
f 544/1/5 535/1/5 543/1/5
f 545/5/5 536/5/5 544/5/5
f 546/5/5 541/5/5 540/5/5
f 547/1/5 542/1/5 541/1/5
f 547/5/5 541/5/5 546/5/5
f 548/1/5 542/1/5 547/1/5
f 555/5/5 550/5/5 549/5/5
f 556/5/5 552/5/5 551/5/5
f 557/5/5 552/5/5 556/5/5
f 558/5/5 554/5/5 553/5/5
f 559/5/5 554/5/5 558/5/5
f 560/5/5 550/5/5 555/5/5
f 561/5/5 550/5/5 560/5/5
f 568/1/5 563/1/5 562/1/5
f 569/5/5 564/5/5 563/5/5
f 569/1/5 563/1/5 568/1/5
f 570/5/5 564/5/5 569/5/5
f 571/5/5 566/5/5 565/5/5
f 572/5/5 566/5/5 571/5/5
f 573/1/5 567/1/5 566/1/5
f 573/5/5 566/5/5 572/5/5
f 574/1/5 567/1/5 573/1/5
f 579/5/5 578/5/5 577/5/5
f 580/5/5 578/5/5 579/5/5
f 581/5/5 576/5/5 575/5/5
f 582/5/5 576/5/5 581/5/5
f 587/5/5 584/5/5 583/5/5
f 588/5/5 584/5/5 587/5/5
f 589/5/5 586/5/5 585/5/5
f 590/5/5 586/5/5 589/5/5
f 595/1/5 592/1/5 591/1/5
f 596/1/5 592/1/5 595/1/5
f 597/1/5 594/1/5 593/1/5
f 598/1/5 594/1/5 597/1/5
f 603/1/5 600/1/5 599/1/5
f 604/1/5 600/1/5 603/1/5
f 605/1/5 602/1/5 601/1/5
f 606/1/5 602/1/5 605/1/5
f 609/5/5 608/5/5 607/5/5
f 610/5/5 608/5/5 609/5/5
f 615/1/5 612/1/5 611/1/5
f 616/7/5 613/7/5 612/7/5
f 616/1/5 612/1/5 615/1/5
f 617/1/5 614/1/5 613/1/5
f 617/7/5 613/7/5 616/7/5
f 618/1/5 614/1/5 617/1/5
f 623/4/5 621/4/5 620/4/5
f 623/4/5 622/4/5 621/4/5
f 623/4/5 620/4/5 619/4/5
f 624/4/5 622/4/5 623/4/5
f 625/4/5 622/4/5 624/4/5
f 626/4/5 622/4/5 625/4/5
f 627/4/5 625/4/5 624/4/5
f 628/4/5 625/4/5 627/4/5
f 631/6/5 630/6/5 629/6/5
f 632/6/5 630/6/5 631/6/5
f 635/6/5 634/6/5 633/6/5
f 636/6/5 634/6/5 635/6/5
f 639/6/5 638/6/5 637/6/5
f 640/6/5 638/6/5 639/6/5
f 643/6/5 642/6/5 641/6/5
f 644/6/5 642/6/5 643/6/5
f 645/3/6 646/3/6 649/3/6
f 649/3/6 646/3/6 650/3/6
f 647/3/6 648/3/6 651/3/6
f 651/3/6 648/3/6 652/3/6
f 653/1/6 654/1/6 657/1/6
f 657/1/6 654/1/6 658/1/6
f 655/1/6 656/1/6 659/1/6
f 659/1/6 656/1/6 660/1/6
f 661/1/6 662/1/6 665/1/6
f 665/1/6 662/1/6 666/1/6
f 663/1/6 664/1/6 667/1/6
f 667/1/6 664/1/6 668/1/6
f 669/1/6 670/1/6 673/1/6
f 673/1/6 670/1/6 674/1/6
f 671/1/6 672/1/6 675/1/6
f 675/1/6 672/1/6 676/1/6
f 677/1/6 678/1/6 681/1/6
f 681/1/6 678/1/6 682/1/6
f 679/1/6 680/1/6 683/1/6
f 683/1/6 680/1/6 684/1/6
f 685/1/6 686/1/6 689/1/6
f 689/1/6 686/1/6 690/1/6
f 687/1/6 688/1/6 691/1/6
f 691/1/6 688/1/6 692/1/6
f 693/4/6 694/4/6 695/4/6
f 695/4/6 694/4/6 696/4/6
f 697/4/6 698/4/6 701/4/6
f 701/4/6 698/4/6 702/4/6
f 699/4/6 700/4/6 703/4/6
f 703/4/6 700/4/6 704/4/6
f 705/4/6 706/4/6 709/4/6
f 709/4/6 706/4/6 710/4/6
f 707/4/6 708/4/6 711/4/6
f 711/4/6 708/4/6 712/4/6
f 713/4/6 714/4/6 716/4/6
f 716/4/6 714/4/6 717/4/6
f 715/4/6 716/4/6 719/4/6
f 717/4/6 718/4/6 719/4/6
f 716/4/6 717/4/6 719/4/6
f 719/4/6 718/4/6 720/4/6
f 720/4/6 718/4/6 721/4/6
f 721/4/6 718/4/6 722/4/6
f 720/4/6 721/4/6 723/4/6
f 723/4/6 721/4/6 724/4/6
f 725/6/6 726/6/6 727/6/6
f 727/6/6 726/6/6 728/6/6
f 729/6/6 730/6/6 731/6/6
f 731/6/6 730/6/6 732/6/6
f 733/6/6 734/6/6 735/6/6
f 735/6/6 734/6/6 736/6/6
