# MagicaVoxel @ Ephtracy

# group
o 

# material
mtllib Chel-1.mtl
usemtl palette

# normals
vn -1 0 0
vn 1 0 0
vn 0 0 1
vn 0 0 -1
vn 0 -1 0
vn 0 1 0

# texcoords
vt 0.990234 0.5
vt 0.994141 0.5

# verts
v 16.5 1.1 -0.2
v 16.5 1.1 -0.3
v 16.5 1.5 0.1
v 16.5 1.5 0
v 16.5 1.5 -0.5
v 16.5 1.5 -0.6
v 16.5 1.6 0.1
v 16.5 1.6 0
v 16.5 1.6 -0.2
v 16.5 1.6 -0.3
v 16.5 1.6 -0.5
v 16.5 1.6 -0.6
v 16.5 1.7 0
v 16.5 1.7 -0.5
v 16.6 1.1 -0.2
v 16.6 1.1 -0.3
v 16.6 1.5 0.1
v 16.6 1.5 0
v 16.6 1.5 -0.5
v 16.6 1.5 -0.6
v 16.6 1.6 0.1
v 16.6 1.6 0
v 16.6 1.6 -0.2
v 16.6 1.6 -0.3
v 16.6 1.6 -0.5
v 16.6 1.6 -0.6
v 16.6 1.7 0
v 16.6 1.7 -0.5
v 16.5 1.5 0.1
v 16.5 1.6 0.1
v 16.6 1.5 0.1
v 16.6 1.6 0.1
v 16.5 1.6 0
v 16.5 1.7 0
v 16.6 1.6 0
v 16.6 1.7 0
v 16.5 1.1 -0.2
v 16.5 1.6 -0.2
v 16.6 1.1 -0.2
v 16.6 1.6 -0.2
v 16.5 1.5 -0.5
v 16.5 1.6 -0.5
v 16.6 1.5 -0.5
v 16.6 1.6 -0.5
v 16.5 1.5 0
v 16.5 1.6 0
v 16.6 1.5 0
v 16.6 1.6 0
v 16.5 1.1 -0.3
v 16.5 1.6 -0.3
v 16.6 1.1 -0.3
v 16.6 1.6 -0.3
v 16.5 1.6 -0.5
v 16.5 1.7 -0.5
v 16.6 1.6 -0.5
v 16.6 1.7 -0.5
v 16.5 1.5 -0.6
v 16.5 1.6 -0.6
v 16.6 1.5 -0.6
v 16.6 1.6 -0.6
v 16.5 1.1 -0.2
v 16.6 1.1 -0.2
v 16.5 1.1 -0.3
v 16.6 1.1 -0.3
v 16.5 1.5 0.1
v 16.6 1.5 0.1
v 16.5 1.5 0
v 16.6 1.5 0
v 16.5 1.5 -0.5
v 16.6 1.5 -0.5
v 16.5 1.5 -0.6
v 16.6 1.5 -0.6
v 16.5 1.6 0
v 16.6 1.6 0
v 16.5 1.6 -0.2
v 16.6 1.6 -0.2
v 16.5 1.6 -0.3
v 16.6 1.6 -0.3
v 16.5 1.6 -0.5
v 16.6 1.6 -0.5
v 16.5 1.6 0.1
v 16.6 1.6 0.1
v 16.5 1.6 0
v 16.6 1.6 0
v 16.5 1.6 -0.5
v 16.6 1.6 -0.5
v 16.5 1.6 -0.6
v 16.6 1.6 -0.6
v 16.5 1.7 0
v 16.6 1.7 0
v 16.5 1.7 -0.5
v 16.6 1.7 -0.5

# faces
f 7/1/1 4/1/1 3/1/1
f 8/1/1 4/1/1 7/1/1
f 9/2/1 2/2/1 1/2/1
f 10/2/1 2/2/1 9/2/1
f 11/1/1 6/1/1 5/1/1
f 12/1/1 6/1/1 11/1/1
f 13/1/1 10/1/1 9/1/1
f 13/1/1 11/1/1 10/1/1
f 13/1/1 9/1/1 8/1/1
f 14/1/1 11/1/1 13/1/1
f 17/1/2 18/1/2 21/1/2
f 21/1/2 18/1/2 22/1/2
f 15/2/2 16/2/2 23/2/2
f 23/2/2 16/2/2 24/2/2
f 19/1/2 20/1/2 25/1/2
f 25/1/2 20/1/2 26/1/2
f 23/1/2 24/1/2 27/1/2
f 24/1/2 25/1/2 27/1/2
f 22/1/2 23/1/2 27/1/2
f 27/1/2 25/1/2 28/1/2
f 31/1/3 30/1/3 29/1/3
f 32/1/3 30/1/3 31/1/3
f 35/1/3 34/1/3 33/1/3
f 36/1/3 34/1/3 35/1/3
f 39/2/3 38/2/3 37/2/3
f 40/2/3 38/2/3 39/2/3
f 43/1/3 42/1/3 41/1/3
f 44/1/3 42/1/3 43/1/3
f 45/1/4 46/1/4 47/1/4
f 47/1/4 46/1/4 48/1/4
f 49/2/4 50/2/4 51/2/4
f 51/2/4 50/2/4 52/2/4
f 53/1/4 54/1/4 55/1/4
f 55/1/4 54/1/4 56/1/4
f 57/1/4 58/1/4 59/1/4
f 59/1/4 58/1/4 60/1/4
f 63/2/5 62/2/5 61/2/5
f 64/2/5 62/2/5 63/2/5
f 67/1/5 66/1/5 65/1/5
f 68/1/5 66/1/5 67/1/5
f 71/1/5 70/1/5 69/1/5
f 72/1/5 70/1/5 71/1/5
f 75/1/5 74/1/5 73/1/5
f 76/1/5 74/1/5 75/1/5
f 79/1/5 78/1/5 77/1/5
f 80/1/5 78/1/5 79/1/5
f 81/1/6 82/1/6 83/1/6
f 83/1/6 82/1/6 84/1/6
f 85/1/6 86/1/6 87/1/6
f 87/1/6 86/1/6 88/1/6
f 89/1/6 90/1/6 91/1/6
f 91/1/6 90/1/6 92/1/6
