# MagicaVoxel @ Ephtracy

# group
o 

# material
mtllib ChelPick-2.mtl
usemtl palette

# normals
vn -1 0 0
vn 1 0 0
vn 0 0 1
vn 0 0 -1
vn 0 -1 0
vn 0 1 0

# texcoords
vt 0.970703 0.5
vt 0.974609 0.5
vt 0.978516 0.5
vt 0.982422 0.5
vt 0.986328 0.5
vt 0.990234 0.5
vt 0.994141 0.5

# verts
v 12.9 2.1 -0.2
v 12.9 2.1 -0.5
v 12.9 2.2 -0.2
v 12.9 2.2 -0.5
v 13 2.1 -0.5
v 13 2.1 -0.6
v 13 2.2 -0.1
v 13 2.2 -0.2
v 13 2.2 -0.4
v 13 2.2 -0.5
v 13 2.2 -0.6
v 13 2.2 -0.7
v 13 2.2 -0.8
v 13 2.3 -0.1
v 13 2.3 -0.2
v 13 2.3 -0.3
v 13 2.3 -0.4
v 13 2.3 -0.5
v 13 2.3 -0.7
v 13 2.6 -0.2
v 13 2.6 -0.3
v 13 2.6 -0.8
v 13 2.7 -0.2
v 13 2.7 -0.4
v 13 2.8 -0.4
v 13 2.8 -0.5
v 13 2.8 -0.7
v 13 2.8 -0.8
v 13 2.9 -0.5
v 13 2.9 -0.7
v 13.1 1.2 -0.5
v 13.1 1.2 -0.6
v 13.1 1.4 -0.5
v 13.1 1.4 -0.6
v 13.1 1.6 -0.4
v 13.1 1.6 -0.5
v 13.1 1.6 -0.6
v 13.1 1.6 -0.7
v 13.1 1.7 -0.4
v 13.1 1.7 -0.7
v 13.1 2.1 -0.5
v 13.1 2.1 -0.6
v 13.1 2.1 -0.7
v 13.1 2.1 -0.8
v 13.1 2.2 -0.3
v 13.1 2.2 -0.4
v 13.1 2.2 -0.5
v 13.1 2.2 -0.6
v 13.1 2.2 -0.7
v 13.1 2.2 -0.8
v 13.1 2.3 0
v 13.1 2.3 -0.1
v 13.1 2.3 -0.3
v 13.1 2.3 -0.4
v 13.1 2.3 -0.5
v 13.1 2.3 -0.7
v 13.1 2.4 0
v 13.1 2.4 -0.1
v 13.1 2.8 -0.4
v 13.1 2.8 -0.5
v 13.1 2.8 -0.7
v 13.1 2.8 -0.8
v 13.1 2.9 -0.4
v 13.1 2.9 -0.5
v 13.1 2.9 -0.7
v 13.1 2.9 -0.8
v 13.3 2 0.6
v 13.3 2 0.5
v 13.3 2.1 0.7
v 13.3 2.1 0.6
v 13.3 2.1 0.5
v 13.3 2.1 -0.7
v 13.3 2.1 -0.8
v 13.3 2.3 0.6
v 13.3 2.3 0
v 13.3 2.3 -0.7
v 13.3 2.3 -0.8
v 13.3 2.4 0.6
v 13.3 2.4 0
v 13.3 2.6 0.7
v 13.3 2.6 0.6
v 13.3 2.6 0.5
v 13.3 2.7 0.6
v 13.3 2.7 0.5
v 13.4 2.2 -0.3
v 13.4 2.2 -0.4
v 13.4 2.6 -0.3
v 13.4 2.6 -0.4
v 13.5 1.2 -0.5
v 13.5 1.2 -0.6
v 13.5 1.4 -0.5
v 13.5 1.4 -0.6
v 13.5 1.6 -0.5
v 13.5 1.6 -0.6
v 13.6 2.2 -0.1
v 13.6 2.2 -0.2
v 13.6 2.2 -0.7
v 13.6 2.2 -0.8
v 13.6 2.3 -0.1
v 13.6 2.3 -0.2
v 13.6 2.3 -0.7
v 13.6 2.3 -0.8
v 13.7 2.1 -0.2
v 13.7 2.1 -0.5
v 13.7 2.2 -0.2
v 13.7 2.2 -0.4
v 13.7 2.2 -0.5
v 13 2.1 -0.2
v 13 2.1 -0.5
v 13 2.2 -0.2
v 13 2.2 -0.4
v 13 2.2 -0.5
v 13.1 2.2 -0.1
v 13.1 2.2 -0.2
v 13.1 2.3 -0.1
v 13.1 2.3 -0.2
v 13.2 1.2 -0.5
v 13.2 1.2 -0.6
v 13.2 1.4 -0.5
v 13.2 1.4 -0.6
v 13.2 1.6 -0.5
v 13.2 1.6 -0.6
v 13.2 2.1 -0.7
v 13.2 2.1 -0.8
v 13.2 2.2 -0.3
v 13.2 2.2 -0.4
v 13.2 2.3 -0.7
v 13.2 2.3 -0.8
v 13.2 2.5 -0.3
v 13.2 2.5 -0.4
v 13.3 2.5 -0.3
v 13.3 2.5 -0.4
v 13.3 2.6 -0.3
v 13.3 2.6 -0.4
v 13.4 2 0.6
v 13.4 2 0.5
v 13.4 2.1 0.7
v 13.4 2.1 0.6
v 13.4 2.1 0.5
v 13.4 2.1 -0.7
v 13.4 2.1 -0.8
v 13.4 2.2 -0.7
v 13.4 2.2 -0.8
v 13.4 2.3 0.6
v 13.4 2.3 0
v 13.4 2.4 0.6
v 13.4 2.4 0
v 13.4 2.6 0.7
v 13.4 2.6 0.6
v 13.4 2.6 0.5
v 13.4 2.7 0.6
v 13.4 2.7 0.5
v 13.5 2.2 -0.3
v 13.5 2.2 -0.4
v 13.5 2.2 -0.7
v 13.5 2.2 -0.8
v 13.5 2.3 -0.3
v 13.5 2.3 -0.4
v 13.5 2.3 -0.7
v 13.5 2.3 -0.8
v 13.6 1.2 -0.5
v 13.6 1.2 -0.6
v 13.6 1.4 -0.5
v 13.6 1.4 -0.6
v 13.6 1.6 -0.4
v 13.6 1.6 -0.5
v 13.6 1.6 -0.6
v 13.6 1.6 -0.7
v 13.6 1.7 -0.4
v 13.6 1.7 -0.7
v 13.6 2.1 -0.5
v 13.6 2.1 -0.6
v 13.6 2.2 -0.4
v 13.6 2.2 -0.5
v 13.6 2.2 -0.6
v 13.6 2.2 -0.7
v 13.6 2.3 0
v 13.6 2.3 -0.1
v 13.6 2.3 -0.5
v 13.6 2.3 -0.6
v 13.6 2.4 0
v 13.6 2.4 -0.1
v 13.6 2.8 -0.4
v 13.6 2.8 -0.5
v 13.6 2.8 -0.7
v 13.6 2.8 -0.8
v 13.6 2.9 -0.4
v 13.6 2.9 -0.5
v 13.6 2.9 -0.7
v 13.6 2.9 -0.8
v 13.7 2.1 -0.5
v 13.7 2.1 -0.6
v 13.7 2.2 -0.1
v 13.7 2.2 -0.2
v 13.7 2.2 -0.4
v 13.7 2.2 -0.5
v 13.7 2.2 -0.6
v 13.7 2.2 -0.8
v 13.7 2.3 -0.1
v 13.7 2.3 -0.2
v 13.7 2.3 -0.3
v 13.7 2.3 -0.4
v 13.7 2.3 -0.5
v 13.7 2.3 -0.6
v 13.7 2.6 -0.2
v 13.7 2.6 -0.3
v 13.7 2.6 -0.8
v 13.7 2.7 -0.2
v 13.7 2.7 -0.4
v 13.7 2.8 -0.4
v 13.7 2.8 -0.5
v 13.7 2.8 -0.7
v 13.7 2.8 -0.8
v 13.7 2.9 -0.5
v 13.7 2.9 -0.7
v 13.8 2.1 -0.2
v 13.8 2.1 -0.5
v 13.8 2.2 -0.2
v 13.8 2.2 -0.5
v 13.3 2.1 0.7
v 13.3 2.6 0.7
v 13.4 2.1 0.7
v 13.4 2.6 0.7
v 13.3 2 0.6
v 13.3 2.1 0.6
v 13.3 2.6 0.6
v 13.3 2.7 0.6
v 13.4 2 0.6
v 13.4 2.1 0.6
v 13.4 2.6 0.6
v 13.4 2.7 0.6
v 13.1 2.3 0
v 13.1 2.4 0
v 13.3 2.3 0
v 13.3 2.4 0
v 13.4 2.3 0
v 13.4 2.4 0
v 13.6 2.3 0
v 13.6 2.4 0
v 13 2.2 -0.1
v 13 2.3 -0.1
v 13.1 2.2 -0.1
v 13.1 2.3 -0.1
v 13.6 2.2 -0.1
v 13.6 2.3 -0.1
v 13.7 2.2 -0.1
v 13.7 2.3 -0.1
v 12.9 2.1 -0.2
v 12.9 2.2 -0.2
v 13 2.1 -0.2
v 13 2.2 -0.2
v 13 2.6 -0.2
v 13 2.7 -0.2
v 13.7 2.1 -0.2
v 13.7 2.2 -0.2
v 13.7 2.6 -0.2
v 13.7 2.7 -0.2
v 13.8 2.1 -0.2
v 13.8 2.2 -0.2
v 13 2.3 -0.3
v 13 2.6 -0.3
v 13.1 2.2 -0.3
v 13.1 2.3 -0.3
v 13.2 2.2 -0.3
v 13.2 2.5 -0.3
v 13.3 2.5 -0.3
v 13.3 2.6 -0.3
v 13.4 2.2 -0.3
v 13.4 2.6 -0.3
v 13.5 2.2 -0.3
v 13.5 2.3 -0.3
v 13.7 2.3 -0.3
v 13.7 2.6 -0.3
v 13 2.2 -0.4
v 13 2.3 -0.4
v 13 2.7 -0.4
v 13 2.8 -0.4
v 13.1 1.6 -0.4
v 13.1 1.7 -0.4
v 13.1 2.2 -0.4
v 13.1 2.3 -0.4
v 13.1 2.8 -0.4
v 13.1 2.9 -0.4
v 13.2 2.1 -0.4
v 13.2 2.2 -0.4
v 13.2 2.5 -0.4
v 13.3 2 -0.4
v 13.3 2.1 -0.4
v 13.3 2.5 -0.4
v 13.3 2.6 -0.4
v 13.4 2 -0.4
v 13.4 2.1 -0.4
v 13.4 2.2 -0.4
v 13.4 2.6 -0.4
v 13.5 2.1 -0.4
v 13.5 2.2 -0.4
v 13.5 2.3 -0.4
v 13.6 1.6 -0.4
v 13.6 1.7 -0.4
v 13.6 2.2 -0.4
v 13.6 2.3 -0.4
v 13.6 2.8 -0.4
v 13.6 2.9 -0.4
v 13.7 2.2 -0.4
v 13.7 2.3 -0.4
v 13.7 2.7 -0.4
v 13.7 2.8 -0.4
v 13 2.1 -0.5
v 13 2.2 -0.5
v 13 2.8 -0.5
v 13 2.9 -0.5
v 13.1 1.2 -0.5
v 13.1 1.4 -0.5
v 13.1 1.6 -0.5
v 13.1 2.1 -0.5
v 13.1 2.2 -0.5
v 13.1 2.8 -0.5
v 13.1 2.9 -0.5
v 13.2 1.2 -0.5
v 13.2 1.4 -0.5
v 13.2 1.6 -0.5
v 13.5 1.2 -0.5
v 13.5 1.4 -0.5
v 13.5 1.6 -0.5
v 13.6 1.2 -0.5
v 13.6 1.4 -0.5
v 13.6 1.6 -0.5
v 13.6 2.1 -0.5
v 13.6 2.2 -0.5
v 13.6 2.8 -0.5
v 13.6 2.9 -0.5
v 13.7 2.1 -0.5
v 13.7 2.2 -0.5
v 13.7 2.8 -0.5
v 13.7 2.9 -0.5
v 13.6 2.2 -0.6
v 13.6 2.3 -0.6
v 13.7 2.2 -0.6
v 13.7 2.3 -0.6
v 13 2.2 -0.7
v 13 2.3 -0.7
v 13.1 2.2 -0.7
v 13.1 2.3 -0.7
v 13.3 2.1 0.6
v 13.3 2.3 0.6
v 13.3 2.4 0.6
v 13.3 2.6 0.6
v 13.4 2.1 0.6
v 13.4 2.3 0.6
v 13.4 2.4 0.6
v 13.4 2.6 0.6
v 13.3 2 0.5
v 13.3 2.1 0.5
v 13.3 2.6 0.5
v 13.3 2.7 0.5
v 13.4 2 0.5
v 13.4 2.1 0.5
v 13.4 2.6 0.5
v 13.4 2.7 0.5
v 13.1 2.3 -0.1
v 13.1 2.4 -0.1
v 13.3 2.3 -0.1
v 13.3 2.4 -0.1
v 13.4 2.3 -0.1
v 13.4 2.4 -0.1
v 13.6 2.3 -0.1
v 13.6 2.4 -0.1
v 13 2.2 -0.2
v 13 2.3 -0.2
v 13.1 2.2 -0.2
v 13.1 2.3 -0.2
v 13.6 2.2 -0.2
v 13.6 2.3 -0.2
v 13.7 2.2 -0.2
v 13.7 2.3 -0.2
v 12.9 2.1 -0.5
v 12.9 2.2 -0.5
v 13 2.1 -0.5
v 13 2.2 -0.5
v 13 2.3 -0.5
v 13.1 2.2 -0.5
v 13.1 2.3 -0.5
v 13.6 2.2 -0.5
v 13.6 2.3 -0.5
v 13.7 2.1 -0.5
v 13.7 2.2 -0.5
v 13.7 2.3 -0.5
v 13.8 2.1 -0.5
v 13.8 2.2 -0.5
v 13 2.1 -0.6
v 13 2.2 -0.6
v 13.1 1.2 -0.6
v 13.1 1.4 -0.6
v 13.1 1.6 -0.6
v 13.1 2.1 -0.6
v 13.1 2.2 -0.6
v 13.2 1.2 -0.6
v 13.2 1.4 -0.6
v 13.2 1.6 -0.6
v 13.5 1.2 -0.6
v 13.5 1.4 -0.6
v 13.5 1.6 -0.6
v 13.6 1.2 -0.6
v 13.6 1.4 -0.6
v 13.6 1.6 -0.6
v 13.6 2.1 -0.6
v 13.6 2.2 -0.6
v 13.7 2.1 -0.6
v 13.7 2.2 -0.6
v 13 2.8 -0.7
v 13 2.9 -0.7
v 13.1 1.6 -0.7
v 13.1 1.7 -0.7
v 13.1 2.1 -0.7
v 13.1 2.8 -0.7
v 13.1 2.9 -0.7
v 13.2 2.1 -0.7
v 13.2 2.3 -0.7
v 13.3 2.1 -0.7
v 13.3 2.3 -0.7
v 13.4 2.1 -0.7
v 13.4 2.2 -0.7
v 13.5 2.1 -0.7
v 13.5 2.2 -0.7
v 13.5 2.3 -0.7
v 13.6 1.6 -0.7
v 13.6 1.7 -0.7
v 13.6 2.2 -0.7
v 13.6 2.3 -0.7
v 13.6 2.8 -0.7
v 13.6 2.9 -0.7
v 13.7 2.8 -0.7
v 13.7 2.9 -0.7
v 13 2.2 -0.8
v 13 2.6 -0.8
v 13 2.8 -0.8
v 13.1 2.1 -0.8
v 13.1 2.2 -0.8
v 13.1 2.8 -0.8
v 13.1 2.9 -0.8
v 13.2 2.1 -0.8
v 13.2 2.3 -0.8
v 13.3 2.1 -0.8
v 13.3 2.3 -0.8
v 13.4 2.1 -0.8
v 13.4 2.2 -0.8
v 13.5 2.2 -0.8
v 13.5 2.3 -0.8
v 13.6 2.2 -0.8
v 13.6 2.3 -0.8
v 13.6 2.8 -0.8
v 13.6 2.9 -0.8
v 13.7 2.2 -0.8
v 13.7 2.6 -0.8
v 13.7 2.8 -0.8
v 13.1 1.2 -0.5
v 13.2 1.2 -0.5
v 13.5 1.2 -0.5
v 13.6 1.2 -0.5
v 13.1 1.2 -0.6
v 13.2 1.2 -0.6
v 13.5 1.2 -0.6
v 13.6 1.2 -0.6
v 13.1 1.6 -0.4
v 13.6 1.6 -0.4
v 13.1 1.6 -0.5
v 13.2 1.6 -0.5
v 13.5 1.6 -0.5
v 13.6 1.6 -0.5
v 13.1 1.6 -0.6
v 13.2 1.6 -0.6
v 13.5 1.6 -0.6
v 13.6 1.6 -0.6
v 13.1 1.6 -0.7
v 13.6 1.6 -0.7
v 13.3 2 0.6
v 13.4 2 0.6
v 13.3 2 0.5
v 13.4 2 0.5
v 13.3 2.1 0.7
v 13.4 2.1 0.7
v 13.3 2.1 0.6
v 13.4 2.1 0.6
v 12.9 2.1 -0.2
v 13 2.1 -0.2
v 13.7 2.1 -0.2
v 13.8 2.1 -0.2
v 12.9 2.1 -0.5
v 13 2.1 -0.5
v 13.1 2.1 -0.5
v 13.6 2.1 -0.5
v 13.7 2.1 -0.5
v 13.8 2.1 -0.5
v 13 2.1 -0.6
v 13.1 2.1 -0.6
v 13.6 2.1 -0.6
v 13.7 2.1 -0.6
v 13.1 2.1 -0.7
v 13.2 2.1 -0.7
v 13.3 2.1 -0.7
v 13.4 2.1 -0.7
v 13.1 2.1 -0.8
v 13.2 2.1 -0.8
v 13.3 2.1 -0.8
v 13.4 2.1 -0.8
v 13 2.2 -0.1
v 13.1 2.2 -0.1
v 13.6 2.2 -0.1
v 13.7 2.2 -0.1
v 13 2.2 -0.2
v 13.1 2.2 -0.2
v 13.6 2.2 -0.2
v 13.7 2.2 -0.2
v 13.1 2.2 -0.3
v 13.2 2.2 -0.3
v 13.4 2.2 -0.3
v 13.5 2.2 -0.3
v 13 2.2 -0.4
v 13.1 2.2 -0.4
v 13.2 2.2 -0.4
v 13.4 2.2 -0.4
v 13.5 2.2 -0.4
v 13.6 2.2 -0.4
v 13.7 2.2 -0.4
v 13 2.2 -0.5
v 13.1 2.2 -0.5
v 13.6 2.2 -0.5
v 13.7 2.2 -0.5
v 13.6 2.2 -0.6
v 13.7 2.2 -0.6
v 13 2.2 -0.7
v 13.1 2.2 -0.7
v 13.4 2.2 -0.7
v 13.5 2.2 -0.7
v 13.6 2.2 -0.7
v 13 2.2 -0.8
v 13.1 2.2 -0.8
v 13.4 2.2 -0.8
v 13.5 2.2 -0.8
v 13.6 2.2 -0.8
v 13.7 2.2 -0.8
v 13.3 2.3 0.6
v 13.4 2.3 0.6
v 13.1 2.3 0
v 13.3 2.3 0
v 13.4 2.3 0
v 13.6 2.3 0
v 13.1 2.3 -0.1
v 13.3 2.3 -0.1
v 13.4 2.3 -0.1
v 13.6 2.3 -0.1
v 13 2.3 -0.3
v 13.1 2.3 -0.3
v 13.5 2.3 -0.3
v 13.7 2.3 -0.3
v 13 2.3 -0.4
v 13.1 2.3 -0.4
v 13.5 2.3 -0.4
v 13.6 2.3 -0.4
v 13.7 2.3 -0.4
v 13 2.3 -0.5
v 13.1 2.3 -0.5
v 13.6 2.3 -0.5
v 13.7 2.3 -0.5
v 13.6 2.3 -0.6
v 13.7 2.3 -0.6
v 13 2.3 -0.7
v 13.1 2.3 -0.7
v 13.2 2.3 -0.7
v 13.3 2.3 -0.7
v 13.5 2.3 -0.7
v 13.6 2.3 -0.7
v 13.2 2.3 -0.8
v 13.3 2.3 -0.8
v 13.5 2.3 -0.8
v 13.6 2.3 -0.8
v 13.2 2.5 -0.3
v 13.3 2.5 -0.3
v 13.2 2.5 -0.4
v 13.3 2.5 -0.4
v 13.3 2.6 0.6
v 13.4 2.6 0.6
v 13.3 2.6 0.5
v 13.4 2.6 0.5
v 13 2.6 -0.2
v 13.7 2.6 -0.2
v 13 2.6 -0.3
v 13.3 2.6 -0.3
v 13.4 2.6 -0.3
v 13.7 2.6 -0.3
v 13.3 2.6 -0.4
v 13.4 2.6 -0.4
v 13.3 2.1 0.6
v 13.4 2.1 0.6
v 13.3 2.1 0.5
v 13.4 2.1 0.5
v 12.9 2.2 -0.2
v 13 2.2 -0.2
v 13.7 2.2 -0.2
v 13.8 2.2 -0.2
v 13 2.2 -0.4
v 13.7 2.2 -0.4
v 12.9 2.2 -0.5
v 13 2.2 -0.5
v 13.1 2.2 -0.5
v 13.6 2.2 -0.5
v 13.7 2.2 -0.5
v 13.8 2.2 -0.5
v 13 2.2 -0.6
v 13.1 2.2 -0.6
v 13.6 2.2 -0.6
v 13.7 2.2 -0.6
v 13 2.3 -0.1
v 13.1 2.3 -0.1
v 13.6 2.3 -0.1
v 13.7 2.3 -0.1
v 13 2.3 -0.2
v 13.1 2.3 -0.2
v 13.6 2.3 -0.2
v 13.7 2.3 -0.2
v 13.3 2.4 0.6
v 13.4 2.4 0.6
v 13.1 2.4 0
v 13.3 2.4 0
v 13.4 2.4 0
v 13.6 2.4 0
v 13.1 2.4 -0.1
v 13.3 2.4 -0.1
v 13.4 2.4 -0.1
v 13.6 2.4 -0.1
v 13.3 2.6 0.7
v 13.4 2.6 0.7
v 13.3 2.6 0.6
v 13.4 2.6 0.6
v 13.3 2.7 0.6
v 13.4 2.7 0.6
v 13.3 2.7 0.5
v 13.4 2.7 0.5
v 13 2.7 -0.2
v 13.7 2.7 -0.2
v 13 2.7 -0.4
v 13.7 2.7 -0.4
v 13 2.8 -0.4
v 13.1 2.8 -0.4
v 13.6 2.8 -0.4
v 13.7 2.8 -0.4
v 13 2.8 -0.5
v 13.1 2.8 -0.5
v 13.6 2.8 -0.5
v 13.7 2.8 -0.5
v 13 2.8 -0.7
v 13.1 2.8 -0.7
v 13.6 2.8 -0.7
v 13.7 2.8 -0.7
v 13 2.8 -0.8
v 13.1 2.8 -0.8
v 13.6 2.8 -0.8
v 13.7 2.8 -0.8
v 13.1 2.9 -0.4
v 13.6 2.9 -0.4
v 13 2.9 -0.5
v 13.1 2.9 -0.5
v 13.6 2.9 -0.5
v 13.7 2.9 -0.5
v 13 2.9 -0.7
v 13.1 2.9 -0.7
v 13.6 2.9 -0.7
v 13.7 2.9 -0.7
v 13.1 2.9 -0.8
v 13.6 2.9 -0.8

# faces
f 3/1/1 2/1/1 1/1/1
f 4/1/1 2/1/1 3/1/1
f 10/3/1 6/3/1 5/3/1
f 11/3/1 6/3/1 10/3/1
f 14/1/1 8/1/1 7/1/1
f 15/1/1 8/1/1 14/1/1
f 17/5/1 10/5/1 9/5/1
f 18/5/1 10/5/1 17/5/1
f 19/5/1 13/5/1 12/5/1
f 21/5/1 18/5/1 17/5/1
f 21/5/1 19/5/1 18/5/1
f 21/5/1 17/5/1 16/5/1
f 22/5/1 13/5/1 19/5/1
f 22/5/1 19/5/1 21/5/1
f 23/4/1 21/4/1 20/4/1
f 23/4/1 22/4/1 21/4/1
f 24/4/1 22/4/1 23/4/1
f 25/4/1 22/4/1 24/4/1
f 26/4/1 22/4/1 25/4/1
f 27/4/1 22/4/1 26/4/1
f 28/4/1 22/4/1 27/4/1
f 29/4/1 27/4/1 26/4/1
f 30/4/1 27/4/1 29/4/1
f 33/1/1 32/1/1 31/1/1
f 34/1/1 32/1/1 33/1/1
f 36/2/1 34/2/1 33/2/1
f 37/2/1 34/2/1 36/2/1
f 39/2/1 37/2/1 36/2/1
f 39/2/1 38/2/1 37/2/1
f 39/2/1 36/2/1 35/2/1
f 40/2/1 38/2/1 39/2/1
f 41/3/1 40/3/1 39/3/1
f 42/3/1 40/3/1 41/3/1
f 43/3/1 40/3/1 42/3/1
f 46/3/1 41/3/1 39/3/1
f 47/3/1 41/3/1 46/3/1
f 48/3/1 43/3/1 42/3/1
f 49/5/1 44/5/1 43/5/1
f 49/3/1 43/3/1 48/3/1
f 50/5/1 44/5/1 49/5/1
f 53/5/1 46/5/1 45/5/1
f 54/5/1 46/5/1 53/5/1
f 55/1/1 48/1/1 47/1/1
f 55/1/1 49/1/1 48/1/1
f 56/1/1 49/1/1 55/1/1
f 57/1/1 52/1/1 51/1/1
f 58/1/1 52/1/1 57/1/1
f 63/4/1 60/4/1 59/4/1
f 64/4/1 60/4/1 63/4/1
f 65/4/1 62/4/1 61/4/1
f 66/4/1 62/4/1 65/4/1
f 70/6/1 68/6/1 67/6/1
f 71/6/1 68/6/1 70/6/1
f 74/6/1 70/6/1 69/6/1
f 76/5/1 73/5/1 72/5/1
f 77/5/1 73/5/1 76/5/1
f 78/7/1 75/7/1 74/7/1
f 78/6/1 74/6/1 69/6/1
f 79/7/1 75/7/1 78/7/1
f 80/6/1 78/6/1 69/6/1
f 81/6/1 78/6/1 80/6/1
f 83/6/1 82/6/1 81/6/1
f 84/6/1 82/6/1 83/6/1
f 87/5/1 86/5/1 85/5/1
f 88/5/1 86/5/1 87/5/1
f 91/1/1 90/1/1 89/1/1
f 92/1/1 90/1/1 91/1/1
f 93/2/1 92/2/1 91/2/1
f 94/2/1 92/2/1 93/2/1
f 99/1/1 96/1/1 95/1/1
f 100/1/1 96/1/1 99/1/1
f 101/5/1 98/5/1 97/5/1
f 102/5/1 98/5/1 101/5/1
f 105/1/1 104/1/1 103/1/1
f 106/1/1 104/1/1 105/1/1
f 107/1/1 104/1/1 106/1/1
f 108/1/2 109/1/2 110/1/2
f 110/1/2 109/1/2 111/1/2
f 111/1/2 109/1/2 112/1/2
f 113/1/2 114/1/2 115/1/2
f 115/1/2 114/1/2 116/1/2
f 117/1/2 118/1/2 119/1/2
f 119/1/2 118/1/2 120/1/2
f 119/2/2 120/2/2 121/2/2
f 121/2/2 120/2/2 122/2/2
f 123/5/2 124/5/2 127/5/2
f 127/5/2 124/5/2 128/5/2
f 125/5/2 126/5/2 129/5/2
f 129/5/2 126/5/2 130/5/2
f 131/5/2 132/5/2 133/5/2
f 133/5/2 132/5/2 134/5/2
f 135/6/2 136/6/2 138/6/2
f 138/6/2 136/6/2 139/6/2
f 140/5/2 141/5/2 142/5/2
f 142/5/2 141/5/2 143/5/2
f 137/6/2 138/6/2 144/6/2
f 137/6/2 144/6/2 146/6/2
f 144/7/2 145/7/2 146/7/2
f 146/7/2 145/7/2 147/7/2
f 137/6/2 146/6/2 148/6/2
f 148/6/2 146/6/2 149/6/2
f 149/6/2 150/6/2 151/6/2
f 151/6/2 150/6/2 152/6/2
f 153/5/2 154/5/2 157/5/2
f 157/5/2 154/5/2 158/5/2
f 155/5/2 156/5/2 159/5/2
f 159/5/2 156/5/2 160/5/2
f 161/1/2 162/1/2 163/1/2
f 163/1/2 162/1/2 164/1/2
f 163/2/2 164/2/2 166/2/2
f 166/2/2 164/2/2 167/2/2
f 166/2/2 167/2/2 169/2/2
f 167/2/2 168/2/2 169/2/2
f 165/2/2 166/2/2 169/2/2
f 169/2/2 168/2/2 170/2/2
f 169/3/2 170/3/2 171/3/2
f 171/3/2 170/3/2 172/3/2
f 169/3/2 171/3/2 173/3/2
f 173/3/2 171/3/2 174/3/2
f 172/3/2 170/3/2 175/3/2
f 175/3/2 170/3/2 176/3/2
f 174/1/2 175/1/2 179/1/2
f 179/1/2 175/1/2 180/1/2
f 177/1/2 178/1/2 181/1/2
f 181/1/2 178/1/2 182/1/2
f 183/4/2 184/4/2 187/4/2
f 187/4/2 184/4/2 188/4/2
f 185/4/2 186/4/2 189/4/2
f 189/4/2 186/4/2 190/4/2
f 191/3/2 192/3/2 196/3/2
f 196/3/2 192/3/2 197/3/2
f 193/1/2 194/1/2 199/1/2
f 199/1/2 194/1/2 200/1/2
f 195/5/2 196/5/2 202/5/2
f 202/5/2 196/5/2 203/5/2
f 197/5/2 198/5/2 204/5/2
f 202/5/2 203/5/2 206/5/2
f 203/5/2 204/5/2 206/5/2
f 201/5/2 202/5/2 206/5/2
f 204/5/2 198/5/2 207/5/2
f 206/5/2 204/5/2 207/5/2
f 205/4/2 206/4/2 208/4/2
f 206/4/2 207/4/2 208/4/2
f 208/4/2 207/4/2 209/4/2
f 209/4/2 207/4/2 210/4/2
f 210/4/2 207/4/2 211/4/2
f 211/4/2 207/4/2 212/4/2
f 212/4/2 207/4/2 213/4/2
f 211/4/2 212/4/2 214/4/2
f 214/4/2 212/4/2 215/4/2
f 216/1/2 217/1/2 218/1/2
f 218/1/2 217/1/2 219/1/2
f 222/6/3 221/6/3 220/6/3
f 223/6/3 221/6/3 222/6/3
f 228/6/3 225/6/3 224/6/3
f 229/6/3 225/6/3 228/6/3
f 230/6/3 227/6/3 226/6/3
f 231/6/3 227/6/3 230/6/3
f 234/1/3 233/1/3 232/1/3
f 235/1/3 233/1/3 234/1/3
f 238/1/3 237/1/3 236/1/3
f 239/1/3 237/1/3 238/1/3
f 242/1/3 241/1/3 240/1/3
f 243/1/3 241/1/3 242/1/3
f 246/1/3 245/1/3 244/1/3
f 247/1/3 245/1/3 246/1/3
f 250/1/3 249/1/3 248/1/3
f 251/1/3 249/1/3 250/1/3
f 256/4/3 253/4/3 252/4/3
f 257/4/3 253/4/3 256/4/3
f 258/1/3 255/1/3 254/1/3
f 259/1/3 255/1/3 258/1/3
f 263/5/3 261/5/3 260/5/3
f 264/5/3 263/5/3 262/5/3
f 265/5/3 261/5/3 263/5/3
f 265/5/3 263/5/3 264/5/3
f 266/5/3 261/5/3 265/5/3
f 267/5/3 261/5/3 266/5/3
f 270/5/3 269/5/3 268/5/3
f 271/5/3 269/5/3 270/5/3
f 272/5/3 269/5/3 271/5/3
f 273/5/3 269/5/3 272/5/3
f 280/5/3 275/5/3 274/5/3
f 281/5/3 275/5/3 280/5/3
f 282/4/3 277/4/3 276/4/3
f 284/3/3 280/3/3 279/3/3
f 285/3/3 280/3/3 284/3/3
f 287/3/3 284/3/3 279/3/3
f 288/1/3 286/1/3 285/1/3
f 288/3/3 284/3/3 287/3/3
f 288/1/3 285/1/3 284/1/3
f 289/1/3 286/1/3 288/1/3
f 291/3/3 287/3/3 279/3/3
f 291/1/3 290/1/3 289/1/3
f 291/1/3 289/1/3 288/1/3
f 291/1/3 288/1/3 287/1/3
f 292/1/3 290/1/3 291/1/3
f 293/1/3 290/1/3 292/1/3
f 294/1/3 290/1/3 293/1/3
f 295/3/3 292/3/3 291/3/3
f 295/1/3 293/1/3 292/1/3
f 296/1/3 293/1/3 295/1/3
f 298/2/3 279/2/3 278/2/3
f 299/3/3 291/3/3 279/3/3
f 299/2/3 279/2/3 298/2/3
f 299/3/3 295/3/3 291/3/3
f 299/3/3 296/3/3 295/3/3
f 300/1/3 297/1/3 296/1/3
f 300/3/3 296/3/3 299/3/3
f 301/1/3 297/1/3 300/1/3
f 302/4/3 283/4/3 282/4/3
f 302/4/3 282/4/3 276/4/3
f 303/4/3 283/4/3 302/4/3
f 304/5/3 301/5/3 300/5/3
f 305/5/3 301/5/3 304/5/3
f 306/4/3 302/4/3 276/4/3
f 307/4/3 302/4/3 306/4/3
f 315/3/3 309/3/3 308/3/3
f 316/3/3 309/3/3 315/3/3
f 317/4/3 311/4/3 310/4/3
f 318/4/3 311/4/3 317/4/3
f 319/1/3 313/1/3 312/1/3
f 320/2/3 314/2/3 313/2/3
f 320/1/3 313/1/3 319/1/3
f 321/2/3 314/2/3 320/2/3
f 325/1/3 323/1/3 322/1/3
f 326/2/3 324/2/3 323/2/3
f 326/1/3 323/1/3 325/1/3
f 327/2/3 324/2/3 326/2/3
f 332/3/3 329/3/3 328/3/3
f 333/3/3 329/3/3 332/3/3
f 334/4/3 331/4/3 330/4/3
f 335/4/3 331/4/3 334/4/3
f 338/5/3 337/5/3 336/5/3
f 339/5/3 337/5/3 338/5/3
f 342/5/3 341/5/3 340/5/3
f 343/5/3 341/5/3 342/5/3
f 344/6/4 345/6/4 348/6/4
f 348/6/4 345/6/4 349/6/4
f 346/6/4 347/6/4 350/6/4
f 350/6/4 347/6/4 351/6/4
f 352/6/4 353/6/4 356/6/4
f 356/6/4 353/6/4 357/6/4
f 354/6/4 355/6/4 358/6/4
f 358/6/4 355/6/4 359/6/4
f 360/1/4 361/1/4 362/1/4
f 362/1/4 361/1/4 363/1/4
f 362/7/4 363/7/4 364/7/4
f 364/7/4 363/7/4 365/7/4
f 364/1/4 365/1/4 366/1/4
f 366/1/4 365/1/4 367/1/4
f 368/1/4 369/1/4 370/1/4
f 370/1/4 369/1/4 371/1/4
f 372/1/4 373/1/4 374/1/4
f 374/1/4 373/1/4 375/1/4
f 376/1/4 377/1/4 378/1/4
f 378/1/4 377/1/4 379/1/4
f 379/5/4 380/5/4 381/5/4
f 381/5/4 380/5/4 382/5/4
f 383/5/4 384/5/4 386/5/4
f 386/5/4 384/5/4 387/5/4
f 385/1/4 386/1/4 388/1/4
f 388/1/4 386/1/4 389/1/4
f 390/3/4 391/3/4 395/3/4
f 395/3/4 391/3/4 396/3/4
f 392/1/4 393/1/4 397/1/4
f 393/2/4 394/2/4 398/2/4
f 397/1/4 393/1/4 398/1/4
f 398/2/4 394/2/4 399/2/4
f 400/1/4 401/1/4 403/1/4
f 401/2/4 402/2/4 404/2/4
f 403/1/4 401/1/4 404/1/4
f 404/2/4 402/2/4 405/2/4
f 406/3/4 407/3/4 408/3/4
f 408/3/4 407/3/4 409/3/4
f 410/4/4 411/4/4 415/4/4
f 415/4/4 411/4/4 416/4/4
f 413/3/4 414/3/4 417/3/4
f 413/3/4 417/3/4 419/3/4
f 417/1/4 418/1/4 419/1/4
f 419/1/4 418/1/4 420/1/4
f 413/3/4 419/3/4 421/3/4
f 413/3/4 421/3/4 423/3/4
f 421/1/4 422/1/4 423/1/4
f 423/1/4 422/1/4 424/1/4
f 412/2/4 413/2/4 426/2/4
f 413/3/4 423/3/4 427/3/4
f 426/2/4 413/2/4 427/2/4
f 423/3/4 424/3/4 427/3/4
f 424/1/4 425/1/4 428/1/4
f 427/3/4 424/3/4 428/3/4
f 428/1/4 425/1/4 429/1/4
f 430/4/4 431/4/4 432/4/4
f 432/4/4 431/4/4 433/4/4
f 434/5/4 435/5/4 438/5/4
f 435/4/4 436/4/4 439/4/4
f 437/5/4 438/5/4 441/5/4
f 438/5/4 435/5/4 442/5/4
f 441/5/4 438/5/4 442/5/4
f 442/5/4 435/5/4 444/5/4
f 443/5/4 444/5/4 445/5/4
f 445/5/4 444/5/4 446/5/4
f 446/5/4 444/5/4 447/5/4
f 444/5/4 435/5/4 448/5/4
f 447/5/4 444/5/4 448/5/4
f 448/5/4 435/5/4 450/5/4
f 439/4/4 440/4/4 451/4/4
f 435/4/4 439/4/4 451/4/4
f 451/4/4 440/4/4 452/4/4
f 449/5/4 450/5/4 453/5/4
f 450/5/4 435/5/4 454/5/4
f 453/5/4 450/5/4 454/5/4
f 435/4/4 451/4/4 454/4/4
f 454/4/4 451/4/4 455/4/4
f 460/1/5 457/1/5 456/1/5
f 461/1/5 457/1/5 460/1/5
f 462/1/5 459/1/5 458/1/5
f 463/1/5 459/1/5 462/1/5
f 466/2/5 465/2/5 464/2/5
f 467/2/5 465/2/5 466/2/5
f 468/2/5 465/2/5 467/2/5
f 469/2/5 465/2/5 468/2/5
f 471/2/5 468/2/5 467/2/5
f 472/2/5 468/2/5 471/2/5
f 474/2/5 471/2/5 470/2/5
f 474/2/5 473/2/5 472/2/5
f 474/2/5 472/2/5 471/2/5
f 475/2/5 473/2/5 474/2/5
f 478/6/5 477/6/5 476/6/5
f 479/6/5 477/6/5 478/6/5
f 482/6/5 481/6/5 480/6/5
f 483/6/5 481/6/5 482/6/5
f 488/1/5 485/1/5 484/1/5
f 489/1/5 485/1/5 488/1/5
f 492/1/5 487/1/5 486/1/5
f 493/1/5 487/1/5 492/1/5
f 494/3/5 490/3/5 489/3/5
f 495/3/5 490/3/5 494/3/5
f 496/3/5 492/3/5 491/3/5
f 497/3/5 492/3/5 496/3/5
f 502/5/5 499/5/5 498/5/5
f 503/5/5 499/5/5 502/5/5
f 504/5/5 501/5/5 500/5/5
f 505/5/5 501/5/5 504/5/5
f 510/1/5 507/1/5 506/1/5
f 511/1/5 507/1/5 510/1/5
f 512/1/5 509/1/5 508/1/5
f 513/1/5 509/1/5 512/1/5
f 519/5/5 515/5/5 514/5/5
f 520/5/5 515/5/5 519/5/5
f 521/5/5 517/5/5 516/5/5
f 522/5/5 517/5/5 521/5/5
f 525/5/5 519/5/5 518/5/5
f 526/5/5 519/5/5 525/5/5
f 527/5/5 524/5/5 523/5/5
f 528/5/5 524/5/5 527/5/5
f 535/5/5 530/5/5 529/5/5
f 536/5/5 532/5/5 531/5/5
f 537/5/5 532/5/5 536/5/5
f 538/5/5 534/5/5 533/5/5
f 539/5/5 534/5/5 538/5/5
f 540/5/5 530/5/5 535/5/5
f 541/5/5 530/5/5 540/5/5
f 545/7/5 543/7/5 542/7/5
f 546/7/5 543/7/5 545/7/5
f 548/1/5 545/1/5 544/1/5
f 549/7/5 546/7/5 545/7/5
f 549/1/5 545/1/5 548/1/5
f 550/1/5 547/1/5 546/1/5
f 550/7/5 546/7/5 549/7/5
f 551/1/5 547/1/5 550/1/5
f 556/5/5 553/5/5 552/5/5
f 557/5/5 553/5/5 556/5/5
f 558/5/5 555/5/5 554/5/5
f 559/5/5 555/5/5 558/5/5
f 560/5/5 555/5/5 559/5/5
f 565/5/5 564/5/5 563/5/5
f 566/5/5 564/5/5 565/5/5
f 567/5/5 562/5/5 561/5/5
f 568/5/5 562/5/5 567/5/5
f 573/5/5 570/5/5 569/5/5
f 574/5/5 570/5/5 573/5/5
f 575/5/5 572/5/5 571/5/5
f 576/5/5 572/5/5 575/5/5
f 579/5/5 578/5/5 577/5/5
f 580/5/5 578/5/5 579/5/5
f 583/6/5 582/6/5 581/6/5
f 584/6/5 582/6/5 583/6/5
f 587/4/5 586/4/5 585/4/5
f 588/4/5 586/4/5 587/4/5
f 589/4/5 586/4/5 588/4/5
f 590/4/5 586/4/5 589/4/5
f 591/4/5 589/4/5 588/4/5
f 592/4/5 589/4/5 591/4/5
f 593/6/6 594/6/6 595/6/6
f 595/6/6 594/6/6 596/6/6
f 597/1/6 598/1/6 601/1/6
f 599/1/6 600/1/6 602/1/6
f 597/1/6 601/1/6 603/1/6
f 603/1/6 601/1/6 604/1/6
f 602/1/6 600/1/6 607/1/6
f 607/1/6 600/1/6 608/1/6
f 604/3/6 605/3/6 609/3/6
f 609/3/6 605/3/6 610/3/6
f 606/3/6 607/3/6 611/3/6
f 611/3/6 607/3/6 612/3/6
f 613/1/6 614/1/6 617/1/6
f 617/1/6 614/1/6 618/1/6
f 615/1/6 616/1/6 619/1/6
f 619/1/6 616/1/6 620/1/6
f 621/7/6 622/7/6 624/7/6
f 624/7/6 622/7/6 625/7/6
f 623/1/6 624/1/6 627/1/6
f 624/7/6 625/7/6 628/7/6
f 627/1/6 624/1/6 628/1/6
f 625/1/6 626/1/6 629/1/6
f 628/7/6 625/7/6 629/7/6
f 629/1/6 626/1/6 630/1/6
f 631/6/6 632/6/6 633/6/6
f 633/6/6 632/6/6 634/6/6
f 635/6/6 636/6/6 637/6/6
f 637/6/6 636/6/6 638/6/6
f 639/4/6 640/4/6 641/4/6
f 641/4/6 640/4/6 642/4/6
f 643/4/6 644/4/6 647/4/6
f 647/4/6 644/4/6 648/4/6
f 645/4/6 646/4/6 649/4/6
f 649/4/6 646/4/6 650/4/6
f 651/4/6 652/4/6 655/4/6
f 655/4/6 652/4/6 656/4/6
f 653/4/6 654/4/6 657/4/6
f 657/4/6 654/4/6 658/4/6
f 659/4/6 660/4/6 662/4/6
f 662/4/6 660/4/6 663/4/6
f 661/4/6 662/4/6 665/4/6
f 663/4/6 664/4/6 665/4/6
f 662/4/6 663/4/6 665/4/6
f 665/4/6 664/4/6 666/4/6
f 666/4/6 664/4/6 667/4/6
f 667/4/6 664/4/6 668/4/6
f 666/4/6 667/4/6 669/4/6
f 669/4/6 667/4/6 670/4/6
