# MagicaVoxel @ Ephtracy

# group
o 

# material
mtllib Man-1.mtl
usemtl palette

# normals
vn -1 0 0
vn 1 0 0
vn 0 0 1
vn 0 0 -1
vn 0 -1 0
vn 0 1 0

# texcoords
vt 0.279297 0.5
vt 0.287109 0.5
vt 0.291016 0.5
vt 0.294922 0.5
vt 0.298828 0.5
vt 0.302734 0.5
vt 0.306641 0.5
vt 0.310547 0.5

# verts
v 1.9 2.2 -0.5
v 1.9 2.2 -0.6
v 1.9 2.3 -0.5
v 1.9 2.3 -0.6
v 2 1.8 -1.1
v 2 1.8 -1.2
v 2 1.9 -1.1
v 2 1.9 -1.2
v 2.1 2.3 -0.5
v 2.1 2.3 -0.6
v 2.1 2.4 -0.5
v 2.1 2.4 -0.6
v 2.2 1.9 -1.1
v 2.2 1.9 -1.2
v 2.2 2 -0.7
v 2.2 2 -1.1
v 2.2 2 -1.2
v 2.2 2.1 -0.7
v 2.2 2.1 -1.2
v 2.2 2.5 -0.7
v 2.2 2.5 -1.2
v 2.2 2.8 -0.7
v 2.2 2.8 -1.2
v 2.3 2.3 -0.6
v 2.3 2.3 -0.7
v 2.3 2.3 -1.2
v 2.3 2.3 -1.3
v 2.3 2.4 -0.6
v 2.3 2.4 -0.7
v 2.3 2.4 -1.2
v 2.3 2.4 -1.3
v 2.3 2.5 -0.6
v 2.3 2.5 -0.7
v 2.3 2.5 -1.2
v 2.3 2.5 -1.3
v 2.3 2.7 -0.6
v 2.3 2.7 -0.7
v 2.3 2.7 -1.2
v 2.3 2.7 -1.3
v 2.4 1.9 -0.7
v 2.4 1.9 -0.8
v 2.4 2 -0.7
v 2.4 2 -0.8
v 2.4 2.3 -1.3
v 2.4 2.3 -1.4
v 2.4 2.4 -1.3
v 2.4 2.4 -1.4
v 2.5 1.8 -0.7
v 2.5 1.8 -0.8
v 2.5 1.9 -0.7
v 2.5 1.9 -0.8
v 2.6 2.2 -1.3
v 2.6 2.2 -1.4
v 2.6 2.3 -1.3
v 2.6 2.3 -1.4
v 2.1 2.2 -0.5
v 2.1 2.2 -0.6
v 2.1 2.3 -0.5
v 2.1 2.3 -0.6
v 2.2 1.8 -1.1
v 2.2 1.8 -1.2
v 2.2 1.9 -1.1
v 2.2 1.9 -1.2
v 2.3 1.9 -1.1
v 2.3 1.9 -1.2
v 2.3 2 -1.1
v 2.3 2 -1.2
v 2.3 2.3 -0.5
v 2.3 2.3 -0.6
v 2.3 2.4 -0.5
v 2.3 2.4 -0.6
v 2.4 2.3 -0.6
v 2.4 2.3 -0.7
v 2.4 2.3 -1.2
v 2.4 2.3 -1.3
v 2.4 2.4 -0.6
v 2.4 2.4 -0.7
v 2.4 2.4 -1.2
v 2.4 2.4 -1.3
v 2.4 2.5 -0.6
v 2.4 2.5 -0.7
v 2.4 2.5 -1.2
v 2.4 2.5 -1.3
v 2.4 2.7 -0.6
v 2.4 2.7 -0.7
v 2.4 2.7 -1.2
v 2.4 2.7 -1.3
v 2.5 1.9 -0.7
v 2.5 1.9 -0.8
v 2.5 2 -0.7
v 2.5 2 -0.8
v 2.5 2 -0.9
v 2.5 2 -1
v 2.5 2 -1.2
v 2.5 2.1 -0.7
v 2.5 2.1 -0.9
v 2.5 2.1 -1
v 2.5 2.1 -1.2
v 2.5 2.4 -0.7
v 2.5 2.4 -0.8
v 2.5 2.4 -1.1
v 2.5 2.4 -1.2
v 2.5 2.5 -0.8
v 2.5 2.5 -0.9
v 2.5 2.5 -1
v 2.5 2.5 -1.1
v 2.5 2.7 -0.7
v 2.5 2.7 -0.9
v 2.5 2.7 -1
v 2.5 2.7 -1.2
v 2.5 2.8 -0.9
v 2.5 2.8 -1
v 2.6 2.3 -1.3
v 2.6 2.3 -1.4
v 2.6 2.4 -0.8
v 2.6 2.4 -1.1
v 2.6 2.4 -1.3
v 2.6 2.4 -1.4
v 2.6 2.5 -0.8
v 2.6 2.5 -0.9
v 2.6 2.5 -1
v 2.6 2.5 -1.1
v 2.6 2.7 -0.7
v 2.6 2.7 -0.9
v 2.6 2.7 -1
v 2.6 2.7 -1.2
v 2.6 2.8 -0.7
v 2.6 2.8 -0.9
v 2.6 2.8 -1
v 2.6 2.8 -1.2
v 2.7 1.8 -0.7
v 2.7 1.8 -0.8
v 2.7 1.9 -0.7
v 2.7 1.9 -0.8
v 2.8 2.2 -1.3
v 2.8 2.2 -1.4
v 2.8 2.3 -1.3
v 2.8 2.3 -1.4
v 1.9 2.2 -0.5
v 1.9 2.3 -0.5
v 2 2.2 -0.5
v 2 2.3 -0.5
v 2.1 2.2 -0.5
v 2.1 2.3 -0.5
v 2.1 2.4 -0.5
v 2.3 2.3 -0.5
v 2.3 2.4 -0.5
v 2.3 2.3 -0.6
v 2.3 2.4 -0.6
v 2.3 2.5 -0.6
v 2.3 2.7 -0.6
v 2.4 2.3 -0.6
v 2.4 2.4 -0.6
v 2.4 2.5 -0.6
v 2.4 2.7 -0.6
v 2.2 2 -0.7
v 2.2 2.1 -0.7
v 2.2 2.5 -0.7
v 2.2 2.8 -0.7
v 2.3 2.3 -0.7
v 2.3 2.4 -0.7
v 2.3 2.5 -0.7
v 2.3 2.7 -0.7
v 2.4 1.9 -0.7
v 2.4 2 -0.7
v 2.4 2.3 -0.7
v 2.4 2.4 -0.7
v 2.4 2.5 -0.7
v 2.4 2.7 -0.7
v 2.5 1.8 -0.7
v 2.5 1.9 -0.7
v 2.5 2 -0.7
v 2.5 2.1 -0.7
v 2.5 2.4 -0.7
v 2.5 2.7 -0.7
v 2.5 2.8 -0.7
v 2.6 2.7 -0.7
v 2.6 2.8 -0.7
v 2.7 1.8 -0.7
v 2.7 1.9 -0.7
v 2.5 2.4 -0.8
v 2.5 2.5 -0.8
v 2.6 2.4 -0.8
v 2.6 2.5 -0.8
v 2.5 2.5 -0.9
v 2.5 2.7 -0.9
v 2.6 2.5 -0.9
v 2.6 2.7 -0.9
v 2.5 2.7 -1
v 2.5 2.8 -1
v 2.6 2.7 -1
v 2.6 2.8 -1
v 2 1.8 -1.1
v 2 1.9 -1.1
v 2.2 1.8 -1.1
v 2.2 1.9 -1.1
v 2.2 2 -1.1
v 2.3 1.9 -1.1
v 2.3 2 -1.1
v 2.4 2.3 -1.3
v 2.4 2.4 -1.3
v 2.6 2.2 -1.3
v 2.6 2.3 -1.3
v 2.6 2.4 -1.3
v 2.7 2.2 -1.3
v 2.7 2.3 -1.3
v 2.8 2.2 -1.3
v 2.8 2.3 -1.3
v 1.9 2.2 -0.6
v 1.9 2.3 -0.6
v 2 2.2 -0.6
v 2 2.3 -0.6
v 2.1 2.2 -0.6
v 2.1 2.3 -0.6
v 2.1 2.4 -0.6
v 2.3 2.3 -0.6
v 2.3 2.4 -0.6
v 2.4 1.9 -0.8
v 2.4 2 -0.8
v 2.5 1.8 -0.8
v 2.5 1.9 -0.8
v 2.5 2 -0.8
v 2.7 1.8 -0.8
v 2.7 1.9 -0.8
v 2.5 2.7 -0.9
v 2.5 2.8 -0.9
v 2.6 2.7 -0.9
v 2.6 2.8 -0.9
v 2.5 2.5 -1
v 2.5 2.7 -1
v 2.6 2.5 -1
v 2.6 2.7 -1
v 2.5 2.4 -1.1
v 2.5 2.5 -1.1
v 2.6 2.4 -1.1
v 2.6 2.5 -1.1
v 2 1.8 -1.2
v 2 1.9 -1.2
v 2.2 1.8 -1.2
v 2.2 1.9 -1.2
v 2.2 2 -1.2
v 2.2 2.1 -1.2
v 2.2 2.5 -1.2
v 2.2 2.8 -1.2
v 2.3 1.9 -1.2
v 2.3 2 -1.2
v 2.3 2.3 -1.2
v 2.3 2.4 -1.2
v 2.3 2.5 -1.2
v 2.3 2.7 -1.2
v 2.4 2.3 -1.2
v 2.4 2.4 -1.2
v 2.4 2.5 -1.2
v 2.4 2.7 -1.2
v 2.5 2 -1.2
v 2.5 2.1 -1.2
v 2.5 2.4 -1.2
v 2.5 2.7 -1.2
v 2.5 2.8 -1.2
v 2.6 2.7 -1.2
v 2.6 2.8 -1.2
v 2.3 2.3 -1.3
v 2.3 2.4 -1.3
v 2.3 2.5 -1.3
v 2.3 2.7 -1.3
v 2.4 2.3 -1.3
v 2.4 2.4 -1.3
v 2.4 2.5 -1.3
v 2.4 2.7 -1.3
v 2.4 2.3 -1.4
v 2.4 2.4 -1.4
v 2.6 2.2 -1.4
v 2.6 2.3 -1.4
v 2.6 2.4 -1.4
v 2.7 2.2 -1.4
v 2.7 2.3 -1.4
v 2.8 2.2 -1.4
v 2.8 2.3 -1.4
v 2.5 1.8 -0.7
v 2.7 1.8 -0.7
v 2.5 1.8 -0.8
v 2.7 1.8 -0.8
v 2 1.8 -1.1
v 2.2 1.8 -1.1
v 2 1.8 -1.2
v 2.2 1.8 -1.2
v 2.4 1.9 -0.7
v 2.5 1.9 -0.7
v 2.4 1.9 -0.8
v 2.5 1.9 -0.8
v 2.2 1.9 -1.1
v 2.3 1.9 -1.1
v 2.2 1.9 -1.2
v 2.3 1.9 -1.2
v 2.2 2 -0.7
v 2.4 2 -0.7
v 2.3 2 -0.8
v 2.4 2 -0.8
v 2.5 2 -0.8
v 2.4 2 -0.9
v 2.5 2 -0.9
v 2.4 2 -1
v 2.5 2 -1
v 2.2 2 -1.1
v 2.3 2 -1.1
v 2.4 2 -1.1
v 2.3 2 -1.2
v 2.5 2 -1.2
v 1.9 2.2 -0.5
v 2 2.2 -0.5
v 2.1 2.2 -0.5
v 1.9 2.2 -0.6
v 2 2.2 -0.6
v 2.1 2.2 -0.6
v 2.6 2.2 -1.3
v 2.7 2.2 -1.3
v 2.8 2.2 -1.3
v 2.6 2.2 -1.4
v 2.7 2.2 -1.4
v 2.8 2.2 -1.4
v 2.1 2.3 -0.5
v 2.3 2.3 -0.5
v 2.1 2.3 -0.6
v 2.3 2.3 -0.6
v 2.4 2.3 -0.6
v 2.3 2.3 -0.7
v 2.4 2.3 -0.7
v 2.3 2.3 -1.2
v 2.4 2.3 -1.2
v 2.3 2.3 -1.3
v 2.4 2.3 -1.3
v 2.6 2.3 -1.3
v 2.4 2.3 -1.4
v 2.6 2.3 -1.4
v 2.5 2.4 -0.8
v 2.6 2.4 -0.8
v 2.5 2.4 -1.1
v 2.6 2.4 -1.1
v 2.3 2.5 -0.6
v 2.4 2.5 -0.6
v 2.3 2.5 -0.7
v 2.4 2.5 -0.7
v 2.3 2.5 -1.2
v 2.4 2.5 -1.2
v 2.3 2.5 -1.3
v 2.4 2.5 -1.3
v 2.5 2.7 -0.7
v 2.6 2.7 -0.7
v 2.5 2.7 -0.9
v 2.6 2.7 -0.9
v 2.5 2.7 -1
v 2.6 2.7 -1
v 2.5 2.7 -1.2
v 2.6 2.7 -1.2
v 2.5 1.9 -0.7
v 2.7 1.9 -0.7
v 2.5 1.9 -0.8
v 2.7 1.9 -0.8
v 2 1.9 -1.1
v 2.2 1.9 -1.1
v 2 1.9 -1.2
v 2.2 1.9 -1.2
v 1.9 2.3 -0.5
v 2 2.3 -0.5
v 2.1 2.3 -0.5
v 1.9 2.3 -0.6
v 2 2.3 -0.6
v 2.1 2.3 -0.6
v 2.6 2.3 -1.3
v 2.7 2.3 -1.3
v 2.8 2.3 -1.3
v 2.6 2.3 -1.4
v 2.7 2.3 -1.4
v 2.8 2.3 -1.4
v 2.1 2.4 -0.5
v 2.3 2.4 -0.5
v 2.1 2.4 -0.6
v 2.3 2.4 -0.6
v 2.4 2.4 -0.6
v 2.3 2.4 -0.7
v 2.4 2.4 -0.7
v 2.3 2.4 -1.2
v 2.4 2.4 -1.2
v 2.3 2.4 -1.3
v 2.4 2.4 -1.3
v 2.6 2.4 -1.3
v 2.4 2.4 -1.4
v 2.6 2.4 -1.4
v 2.5 2.5 -0.8
v 2.6 2.5 -0.8
v 2.5 2.5 -0.9
v 2.6 2.5 -0.9
v 2.5 2.5 -1
v 2.6 2.5 -1
v 2.5 2.5 -1.1
v 2.6 2.5 -1.1
v 2.3 2.7 -0.6
v 2.4 2.7 -0.6
v 2.3 2.7 -0.7
v 2.4 2.7 -0.7
v 2.5 2.7 -0.9
v 2.6 2.7 -0.9
v 2.5 2.7 -1
v 2.6 2.7 -1
v 2.3 2.7 -1.2
v 2.4 2.7 -1.2
v 2.3 2.7 -1.3
v 2.4 2.7 -1.3
v 2.2 2.8 -0.7
v 2.5 2.8 -0.7
v 2.6 2.8 -0.7
v 2.3 2.8 -0.8
v 2.5 2.8 -0.8
v 2.4 2.8 -0.9
v 2.5 2.8 -0.9
v 2.6 2.8 -0.9
v 2.4 2.8 -1
v 2.5 2.8 -1
v 2.6 2.8 -1
v 2.3 2.8 -1.1
v 2.5 2.8 -1.1
v 2.2 2.8 -1.2
v 2.5 2.8 -1.2
v 2.6 2.8 -1.2

# faces
f 3/1/1 2/1/1 1/1/1
f 4/1/1 2/1/1 3/1/1
f 7/4/1 6/4/1 5/4/1
f 8/4/1 6/4/1 7/4/1
f 11/4/1 10/4/1 9/4/1
f 12/4/1 10/4/1 11/4/1
f 16/4/1 14/4/1 13/4/1
f 17/4/1 14/4/1 16/4/1
f 18/3/1 16/3/1 15/3/1
f 18/3/1 17/3/1 16/3/1
f 19/3/1 17/3/1 18/3/1
f 20/4/1 19/4/1 18/4/1
f 21/4/1 19/4/1 20/4/1
f 22/1/1 21/1/1 20/1/1
f 23/1/1 21/1/1 22/1/1
f 28/4/1 25/4/1 24/4/1
f 29/4/1 25/4/1 28/4/1
f 30/4/1 27/4/1 26/4/1
f 31/4/1 27/4/1 30/4/1
f 36/1/1 33/1/1 32/1/1
f 37/1/1 33/1/1 36/1/1
f 38/1/1 35/1/1 34/1/1
f 39/1/1 35/1/1 38/1/1
f 42/4/1 41/4/1 40/4/1
f 43/4/1 41/4/1 42/4/1
f 46/4/1 45/4/1 44/4/1
f 47/4/1 45/4/1 46/4/1
f 50/4/1 49/4/1 48/4/1
f 51/4/1 49/4/1 50/4/1
f 54/4/1 53/4/1 52/4/1
f 55/4/1 53/4/1 54/4/1
f 56/4/2 57/4/2 58/4/2
f 58/4/2 57/4/2 59/4/2
f 60/4/2 61/4/2 62/4/2
f 62/4/2 61/4/2 63/4/2
f 64/4/2 65/4/2 66/4/2
f 66/4/2 65/4/2 67/4/2
f 68/4/2 69/4/2 70/4/2
f 70/4/2 69/4/2 71/4/2
f 72/4/2 73/4/2 76/4/2
f 76/4/2 73/4/2 77/4/2
f 74/4/2 75/4/2 78/4/2
f 78/4/2 75/4/2 79/4/2
f 80/1/2 81/1/2 84/1/2
f 84/1/2 81/1/2 85/1/2
f 82/1/2 83/1/2 86/1/2
f 86/1/2 83/1/2 87/1/2
f 88/4/2 89/4/2 90/4/2
f 90/4/2 89/4/2 91/4/2
f 90/3/2 91/3/2 95/3/2
f 91/3/2 92/3/2 95/3/2
f 92/2/2 93/2/2 96/2/2
f 95/3/2 92/3/2 96/3/2
f 93/3/2 94/3/2 97/3/2
f 96/2/2 93/2/2 97/2/2
f 97/3/2 94/3/2 98/3/2
f 95/4/2 96/4/2 99/4/2
f 96/4/2 97/4/2 99/4/2
f 97/4/2 98/4/2 99/4/2
f 99/4/2 98/4/2 100/4/2
f 100/4/2 98/4/2 101/4/2
f 101/4/2 98/4/2 102/4/2
f 99/1/2 100/1/2 103/1/2
f 101/1/2 102/1/2 106/1/2
f 103/1/2 104/1/2 107/1/2
f 99/1/2 103/1/2 107/1/2
f 107/1/2 104/1/2 108/1/2
f 105/1/2 106/1/2 109/1/2
f 106/1/2 102/1/2 110/1/2
f 109/1/2 106/1/2 110/1/2
f 108/1/2 109/1/2 111/1/2
f 111/1/2 109/1/2 112/1/2
f 113/4/2 114/4/2 117/4/2
f 117/4/2 114/4/2 118/4/2
f 115/6/2 116/6/2 119/6/2
f 119/6/2 116/6/2 120/6/2
f 120/6/2 116/6/2 121/6/2
f 121/6/2 116/6/2 122/6/2
f 120/8/2 121/8/2 124/8/2
f 124/8/2 121/8/2 125/8/2
f 123/6/2 124/6/2 127/6/2
f 127/6/2 124/6/2 128/6/2
f 125/6/2 126/6/2 129/6/2
f 129/6/2 126/6/2 130/6/2
f 131/4/2 132/4/2 133/4/2
f 133/4/2 132/4/2 134/4/2
f 135/1/2 136/1/2 137/1/2
f 137/1/2 136/1/2 138/1/2
f 141/1/3 140/1/3 139/1/3
f 142/1/3 140/1/3 141/1/3
f 143/4/3 142/4/3 141/4/3
f 144/4/3 142/4/3 143/4/3
f 146/4/3 145/4/3 144/4/3
f 147/4/3 145/4/3 146/4/3
f 152/4/3 149/4/3 148/4/3
f 153/4/3 149/4/3 152/4/3
f 154/1/3 151/1/3 150/1/3
f 155/1/3 151/1/3 154/1/3
f 160/4/3 158/4/3 157/4/3
f 161/4/3 158/4/3 160/4/3
f 162/1/3 159/1/3 158/1/3
f 162/4/3 158/4/3 161/4/3
f 163/1/3 159/1/3 162/1/3
f 165/3/3 157/3/3 156/3/3
f 166/4/3 160/4/3 157/4/3
f 167/4/3 162/4/3 161/4/3
f 168/4/3 162/4/3 167/4/3
f 169/1/3 159/1/3 163/1/3
f 171/4/3 165/4/3 164/4/3
f 172/3/3 157/3/3 165/3/3
f 172/4/3 165/4/3 171/4/3
f 173/4/3 166/4/3 157/4/3
f 173/3/3 157/3/3 172/3/3
f 173/4/3 167/4/3 166/4/3
f 174/1/3 168/1/3 167/1/3
f 174/4/3 167/4/3 173/4/3
f 174/1/3 169/1/3 168/1/3
f 175/1/3 159/1/3 169/1/3
f 175/1/3 169/1/3 174/1/3
f 176/1/3 159/1/3 175/1/3
f 177/6/3 176/6/3 175/6/3
f 178/6/3 176/6/3 177/6/3
f 179/4/3 171/4/3 170/4/3
f 180/4/3 171/4/3 179/4/3
f 183/6/3 182/6/3 181/6/3
f 184/6/3 182/6/3 183/6/3
f 187/8/3 186/8/3 185/8/3
f 188/8/3 186/8/3 187/8/3
f 191/6/3 190/6/3 189/6/3
f 192/6/3 190/6/3 191/6/3
f 195/4/3 194/4/3 193/4/3
f 196/4/3 194/4/3 195/4/3
f 198/4/3 197/4/3 196/4/3
f 199/4/3 197/4/3 198/4/3
f 203/4/3 201/4/3 200/4/3
f 204/4/3 201/4/3 203/4/3
f 205/4/3 203/4/3 202/4/3
f 206/4/3 203/4/3 205/4/3
f 207/1/3 206/1/3 205/1/3
f 208/1/3 206/1/3 207/1/3
f 209/1/4 210/1/4 211/1/4
f 211/1/4 210/1/4 212/1/4
f 211/4/4 212/4/4 213/4/4
f 213/4/4 212/4/4 214/4/4
f 214/4/4 215/4/4 216/4/4
f 216/4/4 215/4/4 217/4/4
f 218/4/4 219/4/4 221/4/4
f 221/4/4 219/4/4 222/4/4
f 220/4/4 221/4/4 223/4/4
f 223/4/4 221/4/4 224/4/4
f 225/6/4 226/6/4 227/6/4
f 227/6/4 226/6/4 228/6/4
f 229/8/4 230/8/4 231/8/4
f 231/8/4 230/8/4 232/8/4
f 233/6/4 234/6/4 235/6/4
f 235/6/4 234/6/4 236/6/4
f 237/4/4 238/4/4 239/4/4
f 239/4/4 238/4/4 240/4/4
f 240/4/4 241/4/4 245/4/4
f 241/3/4 242/3/4 246/3/4
f 245/4/4 241/4/4 246/4/4
f 242/4/4 243/4/4 247/4/4
f 247/4/4 243/4/4 248/4/4
f 243/1/4 244/1/4 249/1/4
f 248/4/4 243/4/4 249/4/4
f 249/1/4 244/1/4 250/1/4
f 242/4/4 247/4/4 251/4/4
f 248/4/4 249/4/4 252/4/4
f 252/4/4 249/4/4 253/4/4
f 250/1/4 244/1/4 254/1/4
f 246/3/4 242/3/4 255/3/4
f 242/4/4 251/4/4 256/4/4
f 255/3/4 242/3/4 256/3/4
f 251/4/4 252/4/4 256/4/4
f 252/1/4 253/1/4 257/1/4
f 256/4/4 252/4/4 257/4/4
f 253/1/4 254/1/4 257/1/4
f 254/1/4 244/1/4 258/1/4
f 257/1/4 254/1/4 258/1/4
f 258/1/4 244/1/4 259/1/4
f 258/6/4 259/6/4 260/6/4
f 260/6/4 259/6/4 261/6/4
f 262/4/4 263/4/4 266/4/4
f 266/4/4 263/4/4 267/4/4
f 264/1/4 265/1/4 268/1/4
f 268/1/4 265/1/4 269/1/4
f 270/4/4 271/4/4 273/4/4
f 273/4/4 271/4/4 274/4/4
f 272/4/4 273/4/4 275/4/4
f 275/4/4 273/4/4 276/4/4
f 275/1/4 276/1/4 277/1/4
f 277/1/4 276/1/4 278/1/4
f 281/4/5 280/4/5 279/4/5
f 282/4/5 280/4/5 281/4/5
f 285/4/5 284/4/5 283/4/5
f 286/4/5 284/4/5 285/4/5
f 289/4/5 288/4/5 287/4/5
f 290/4/5 288/4/5 289/4/5
f 293/4/5 292/4/5 291/4/5
f 294/4/5 292/4/5 293/4/5
f 297/3/5 296/3/5 295/3/5
f 298/3/5 296/3/5 297/3/5
f 300/4/5 298/4/5 297/4/5
f 300/3/5 299/3/5 298/3/5
f 301/3/5 299/3/5 300/3/5
f 302/4/5 300/4/5 297/4/5
f 302/2/5 301/2/5 300/2/5
f 303/2/5 301/2/5 302/2/5
f 304/3/5 297/3/5 295/3/5
f 305/4/5 302/4/5 297/4/5
f 305/3/5 297/3/5 304/3/5
f 306/3/5 303/3/5 302/3/5
f 306/4/5 302/4/5 305/4/5
f 307/3/5 306/3/5 305/3/5
f 308/3/5 303/3/5 306/3/5
f 308/3/5 306/3/5 307/3/5
f 312/1/5 310/1/5 309/1/5
f 313/4/5 311/4/5 310/4/5
f 313/1/5 310/1/5 312/1/5
f 314/4/5 311/4/5 313/4/5
f 318/4/5 316/4/5 315/4/5
f 319/1/5 317/1/5 316/1/5
f 319/4/5 316/4/5 318/4/5
f 320/1/5 317/1/5 319/1/5
f 323/4/5 322/4/5 321/4/5
f 324/4/5 322/4/5 323/4/5
f 326/4/5 325/4/5 324/4/5
f 327/4/5 325/4/5 326/4/5
f 330/4/5 329/4/5 328/4/5
f 331/4/5 329/4/5 330/4/5
f 333/4/5 332/4/5 331/4/5
f 334/4/5 332/4/5 333/4/5
f 337/6/5 336/6/5 335/6/5
f 338/6/5 336/6/5 337/6/5
f 341/1/5 340/1/5 339/1/5
f 342/1/5 340/1/5 341/1/5
f 345/1/5 344/1/5 343/1/5
f 346/1/5 344/1/5 345/1/5
f 349/6/5 348/6/5 347/6/5
f 350/6/5 348/6/5 349/6/5
f 353/6/5 352/6/5 351/6/5
f 354/6/5 352/6/5 353/6/5
f 355/4/6 356/4/6 357/4/6
f 357/4/6 356/4/6 358/4/6
f 359/4/6 360/4/6 361/4/6
f 361/4/6 360/4/6 362/4/6
f 363/1/6 364/1/6 366/1/6
f 364/4/6 365/4/6 367/4/6
f 366/1/6 364/1/6 367/1/6
f 367/4/6 365/4/6 368/4/6
f 369/4/6 370/4/6 372/4/6
f 370/1/6 371/1/6 373/1/6
f 372/4/6 370/4/6 373/4/6
f 373/1/6 371/1/6 374/1/6
f 375/4/6 376/4/6 377/4/6
f 377/4/6 376/4/6 378/4/6
f 378/4/6 379/4/6 380/4/6
f 380/4/6 379/4/6 381/4/6
f 382/4/6 383/4/6 384/4/6
f 384/4/6 383/4/6 385/4/6
f 385/4/6 386/4/6 387/4/6
f 387/4/6 386/4/6 388/4/6
f 389/6/6 390/6/6 391/6/6
f 391/6/6 390/6/6 392/6/6
f 393/6/6 394/6/6 395/6/6
f 395/6/6 394/6/6 396/6/6
f 397/1/6 398/1/6 399/1/6
f 399/1/6 398/1/6 400/1/6
f 401/8/6 402/8/6 403/8/6
f 403/8/6 402/8/6 404/8/6
f 405/1/6 406/1/6 407/1/6
f 407/1/6 406/1/6 408/1/6
f 409/1/6 410/1/6 412/1/6
f 410/6/6 411/6/6 413/6/6
f 412/1/6 410/1/6 413/1/6
f 412/5/6 413/5/6 414/5/6
f 413/6/6 411/6/6 415/6/6
f 414/5/6 413/5/6 415/5/6
f 415/6/6 411/6/6 416/6/6
f 412/5/6 414/5/6 417/5/6
f 414/1/6 415/1/6 417/1/6
f 417/1/6 415/1/6 418/1/6
f 409/1/6 412/1/6 420/1/6
f 412/5/6 417/5/6 420/5/6
f 417/5/6 418/5/6 420/5/6
f 418/6/6 419/6/6 421/6/6
f 420/5/6 418/5/6 421/5/6
f 409/1/6 420/1/6 422/1/6
f 420/1/6 421/1/6 422/1/6
f 421/6/6 419/6/6 423/6/6
f 422/1/6 421/1/6 423/1/6
f 423/6/6 419/6/6 424/6/6
