# MagicaVoxel @ Ephtracy

# material
mtllib Roll-00.mtl
usemtl palette

# normals
vn -1 0 0
vn 1 0 0
vn 0 0 1
vn 0 0 -1
vn 0 -1 0
vn 0 1 0

# texcoords
vt 0.970703 0.5
vt 0.974609 0.5
vt 0.978516 0.5
vt 0.982422 0.5
vt 0.986328 0.5

# verts
v -5.5 10 -0
v -5.5 10 -1
v -5.5 14 -0
v -5.5 14 -1
v -4.5 9 -0
v -4.5 9 -1
v -4.5 10 -0
v -4.5 10 -1
v -3.5 10 1
v -3.5 10 -0
v -3.5 10 -2
v -3.5 10 -3
v -3.5 11 2
v -3.5 11 1
v -3.5 11 -0
v -3.5 11 -2
v -3.5 14 3
v -3.5 14 2
v -3.5 14 -3
v -3.5 15 3
v -3.5 15 1
v -3.5 16 1
v -3.5 16 -0
v -3.5 16 -2
v -3.5 16 -3
v -3.5 17 -0
v -3.5 17 -2
v -2.5 0 -0
v -2.5 0 -1
v -2.5 2 -0
v -2.5 2 -1
v -2.5 4 1
v -2.5 4 -0
v -2.5 4 -1
v -2.5 4 -2
v -2.5 5 1
v -2.5 5 -2
v -2.5 9 -0
v -2.5 9 -1
v -2.5 9 -2
v -2.5 9 -3
v -2.5 10 2
v -2.5 10 1
v -2.5 10 -0
v -2.5 10 -1
v -2.5 10 -2
v -2.5 10 -3
v -2.5 11 2
v -2.5 11 1
v -2.5 11 -0
v -2.5 11 -2
v -2.5 16 1
v -2.5 16 -0
v -2.5 16 -2
v -2.5 16 -3
v -2.5 17 1
v -2.5 17 -0
v -2.5 17 -2
v -2.5 17 -3
v -0.5 9 -2
v -0.5 9 -3
v -0.5 11 -2
v -0.5 11 -3
v 0.5 10 2
v 0.5 10 1
v 0.5 14 2
v 0.5 14 1
v 1.5 0 -0
v 1.5 0 -1
v 1.5 2 -0
v 1.5 2 -1
v 1.5 4 -0
v 1.5 4 -1
v 2.5 10 -2
v 2.5 10 -3
v 2.5 11 -2
v 2.5 11 -3
v 4.5 10 -0
v 4.5 10 -1
v 4.5 14 -0
v 4.5 14 -1
v -4.5 10 -0
v -4.5 10 -1
v -4.5 14 -0
v -4.5 14 -1
v -1.5 0 -0
v -1.5 0 -1
v -1.5 2 -0
v -1.5 2 -1
v -1.5 4 -0
v -1.5 4 -1
v -1.5 9 -2
v -1.5 9 -3
v -1.5 10 2
v -1.5 10 1
v -1.5 11 -2
v -1.5 11 -3
v -1.5 13 2
v -1.5 13 1
v -0.5 13 2
v -0.5 13 1
v -0.5 14 2
v -0.5 14 1
v 0.5 9 -2
v 0.5 9 -3
v 0.5 10 -2
v 0.5 10 -3
v 1.5 10 2
v 1.5 10 1
v 1.5 10 -2
v 1.5 10 -3
v 1.5 11 2
v 1.5 11 1
v 1.5 11 -2
v 1.5 11 -3
v 2.5 0 -0
v 2.5 0 -1
v 2.5 2 -0
v 2.5 2 -1
v 2.5 4 1
v 2.5 4 -0
v 2.5 4 -1
v 2.5 4 -2
v 2.5 5 1
v 2.5 5 -2
v 2.5 9 -0
v 2.5 9 -1
v 2.5 10 1
v 2.5 10 -0
v 2.5 10 -1
v 2.5 10 -2
v 2.5 11 -0
v 2.5 11 -1
v 2.5 16 1
v 2.5 16 -0
v 2.5 16 -2
v 2.5 16 -3
v 2.5 17 1
v 2.5 17 -0
v 2.5 17 -2
v 2.5 17 -3
v 3.5 10 1
v 3.5 10 -0
v 3.5 10 -1
v 3.5 10 -3
v 3.5 11 2
v 3.5 11 1
v 3.5 11 -0
v 3.5 11 -1
v 3.5 14 3
v 3.5 14 2
v 3.5 14 -3
v 3.5 15 3
v 3.5 15 1
v 3.5 16 1
v 3.5 16 -0
v 3.5 16 -2
v 3.5 16 -3
v 3.5 17 -0
v 3.5 17 -2
v 4.5 9 -0
v 4.5 9 -1
v 4.5 10 -0
v 4.5 10 -1
v 5.5 10 -0
v 5.5 10 -1
v 5.5 14 -0
v 5.5 14 -1
v -3.5 14 3
v -3.5 15 3
v 3.5 14 3
v 3.5 15 3
v -3.5 11 2
v -3.5 14 2
v -2.5 10 2
v -2.5 11 2
v -1.5 10 2
v -1.5 13 2
v -0.5 13 2
v -0.5 14 2
v 0.5 10 2
v 0.5 14 2
v 1.5 10 2
v 1.5 11 2
v 3.5 11 2
v 3.5 14 2
v -3.5 10 1
v -3.5 11 1
v -3.5 15 1
v -3.5 16 1
v -2.5 4 1
v -2.5 5 1
v -2.5 10 1
v -2.5 11 1
v -2.5 16 1
v -2.5 17 1
v -1.5 9 1
v -1.5 10 1
v -1.5 13 1
v -0.5 8 1
v -0.5 9 1
v -0.5 13 1
v -0.5 14 1
v 0.5 8 1
v 0.5 9 1
v 0.5 10 1
v 0.5 14 1
v 1.5 9 1
v 1.5 10 1
v 1.5 11 1
v 2.5 4 1
v 2.5 5 1
v 2.5 10 1
v 2.5 11 1
v 2.5 16 1
v 2.5 17 1
v 3.5 10 1
v 3.5 11 1
v 3.5 15 1
v 3.5 16 1
v -5.5 10 -0
v -5.5 14 -0
v -4.5 9 -0
v -4.5 10 -0
v -4.5 14 -0
v -3.5 9 -0
v -3.5 10 -0
v -3.5 16 -0
v -3.5 17 -0
v -2.5 0 -0
v -2.5 2 -0
v -2.5 4 -0
v -2.5 9 -0
v -2.5 10 -0
v -2.5 16 -0
v -2.5 17 -0
v -1.5 0 -0
v -1.5 2 -0
v -1.5 4 -0
v 1.5 0 -0
v 1.5 2 -0
v 1.5 4 -0
v 2.5 0 -0
v 2.5 2 -0
v 2.5 4 -0
v 2.5 9 -0
v 2.5 10 -0
v 2.5 16 -0
v 2.5 17 -0
v 3.5 9 -0
v 3.5 10 -0
v 3.5 16 -0
v 3.5 17 -0
v 4.5 9 -0
v 4.5 10 -0
v 4.5 14 -0
v 5.5 10 -0
v 5.5 14 -0
v 2.5 10 -1
v 2.5 11 -1
v 3.5 10 -1
v 3.5 11 -1
v -3.5 10 -2
v -3.5 11 -2
v -2.5 10 -2
v -2.5 11 -2
v -3.5 10 -0
v -3.5 11 -0
v -2.5 10 -0
v -2.5 11 -0
v 2.5 10 -0
v 2.5 11 -0
v 3.5 10 -0
v 3.5 11 -0
v -5.5 10 -1
v -5.5 14 -1
v -4.5 9 -1
v -4.5 10 -1
v -4.5 14 -1
v -3.5 9 -1
v -3.5 10 -1
v -2.5 0 -1
v -2.5 2 -1
v -2.5 4 -1
v -2.5 9 -1
v -2.5 10 -1
v -1.5 0 -1
v -1.5 2 -1
v -1.5 4 -1
v 1.5 0 -1
v 1.5 2 -1
v 1.5 4 -1
v 2.5 0 -1
v 2.5 2 -1
v 2.5 4 -1
v 2.5 9 -1
v 2.5 10 -1
v 3.5 9 -1
v 3.5 10 -1
v 4.5 9 -1
v 4.5 10 -1
v 4.5 14 -1
v 5.5 10 -1
v 5.5 14 -1
v -3.5 16 -2
v -3.5 17 -2
v -2.5 4 -2
v -2.5 5 -2
v -2.5 9 -2
v -2.5 16 -2
v -2.5 17 -2
v -1.5 9 -2
v -1.5 11 -2
v -0.5 9 -2
v -0.5 11 -2
v 0.5 9 -2
v 0.5 10 -2
v 1.5 9 -2
v 1.5 10 -2
v 1.5 11 -2
v 2.5 4 -2
v 2.5 5 -2
v 2.5 10 -2
v 2.5 11 -2
v 2.5 16 -2
v 2.5 17 -2
v 3.5 16 -2
v 3.5 17 -2
v -3.5 10 -3
v -3.5 14 -3
v -3.5 16 -3
v -2.5 9 -3
v -2.5 10 -3
v -2.5 16 -3
v -2.5 17 -3
v -1.5 9 -3
v -1.5 11 -3
v -0.5 9 -3
v -0.5 11 -3
v 0.5 9 -3
v 0.5 10 -3
v 1.5 10 -3
v 1.5 11 -3
v 2.5 10 -3
v 2.5 11 -3
v 2.5 16 -3
v 2.5 17 -3
v 3.5 10 -3
v 3.5 14 -3
v 3.5 16 -3
v -2.5 0 -0
v -1.5 0 -0
v 1.5 0 -0
v 2.5 0 -0
v -2.5 0 -1
v -1.5 0 -1
v 1.5 0 -1
v 2.5 0 -1
v -2.5 4 1
v 2.5 4 1
v -2.5 4 -0
v -1.5 4 -0
v 1.5 4 -0
v 2.5 4 -0
v -2.5 4 -1
v -1.5 4 -1
v 1.5 4 -1
v 2.5 4 -1
v -2.5 4 -2
v 2.5 4 -2
v -4.5 9 -0
v -3.5 9 -0
v -2.5 9 -0
v 2.5 9 -0
v 3.5 9 -0
v 4.5 9 -0
v -4.5 9 -1
v -3.5 9 -1
v -2.5 9 -1
v 2.5 9 -1
v 3.5 9 -1
v 4.5 9 -1
v -2.5 9 -2
v -1.5 9 -2
v -0.5 9 -2
v 0.5 9 -2
v -2.5 9 -3
v -1.5 9 -3
v -0.5 9 -3
v 0.5 9 -3
v -2.5 10 2
v -1.5 10 2
v 0.5 10 2
v 1.5 10 2
v -3.5 10 1
v -2.5 10 1
v -1.5 10 1
v 0.5 10 1
v 1.5 10 1
v 2.5 10 1
v 3.5 10 1
v -5.5 10 -0
v -4.5 10 -0
v -3.5 10 -0
v -2.5 10 -0
v 2.5 10 -0
v 3.5 10 -0
v 4.5 10 -0
v 5.5 10 -0
v -5.5 10 -1
v -4.5 10 -1
v 2.5 10 -1
v 3.5 10 -1
v 4.5 10 -1
v 5.5 10 -1
v -3.5 10 -2
v -2.5 10 -2
v 0.5 10 -2
v 1.5 10 -2
v 2.5 10 -2
v -3.5 10 -3
v -2.5 10 -3
v 0.5 10 -3
v 1.5 10 -3
v 2.5 10 -3
v 3.5 10 -3
v -3.5 11 2
v -2.5 11 2
v 1.5 11 2
v 3.5 11 2
v -3.5 11 1
v -2.5 11 1
v 1.5 11 1
v 2.5 11 1
v 3.5 11 1
v -3.5 11 -0
v -2.5 11 -0
v 2.5 11 -0
v 3.5 11 -0
v 2.5 11 -1
v 3.5 11 -1
v -3.5 11 -2
v -2.5 11 -2
v -1.5 11 -2
v -0.5 11 -2
v 1.5 11 -2
v 2.5 11 -2
v -1.5 11 -3
v -0.5 11 -3
v 1.5 11 -3
v 2.5 11 -3
v -1.5 13 2
v -0.5 13 2
v -1.5 13 1
v -0.5 13 1
v -3.5 14 3
v 3.5 14 3
v -3.5 14 2
v -0.5 14 2
v 0.5 14 2
v 3.5 14 2
v -0.5 14 1
v 0.5 14 1
v -4.5 10 -0
v -3.5 10 -0
v -2.5 10 -0
v 2.5 10 -0
v 3.5 10 -0
v 4.5 10 -0
v -4.5 10 -1
v -3.5 10 -1
v -2.5 10 -1
v 2.5 10 -1
v 3.5 10 -1
v 4.5 10 -1
v -5.5 14 -0
v -4.5 14 -0
v 4.5 14 -0
v 5.5 14 -0
v -5.5 14 -1
v -4.5 14 -1
v 4.5 14 -1
v 5.5 14 -1
v -3.5 15 3
v 3.5 15 3
v -3.5 15 1
v 3.5 15 1
v -3.5 16 1
v -2.5 16 1
v 2.5 16 1
v 3.5 16 1
v -3.5 16 -0
v -2.5 16 -0
v 2.5 16 -0
v 3.5 16 -0
v -3.5 16 -2
v -2.5 16 -2
v 2.5 16 -2
v 3.5 16 -2
v -3.5 16 -3
v -2.5 16 -3
v 2.5 16 -3
v 3.5 16 -3
v -2.5 17 1
v 2.5 17 1
v -3.5 17 -0
v -2.5 17 -0
v 2.5 17 -0
v 3.5 17 -0
v -3.5 17 -2
v -2.5 17 -2
v 2.5 17 -2
v 3.5 17 -2
v -2.5 17 -3
v 2.5 17 -3

# faces
f 3/1/1 2/1/1 1/1/1
f 4/1/1 2/1/1 3/1/1
f 7/1/1 6/1/1 5/1/1
f 8/1/1 6/1/1 7/1/1
f 14/5/1 10/5/1 9/5/1
f 15/5/1 10/5/1 14/5/1
f 16/5/1 12/5/1 11/5/1
f 18/5/1 15/5/1 14/5/1
f 18/5/1 16/5/1 15/5/1
f 18/5/1 14/5/1 13/5/1
f 19/5/1 12/5/1 16/5/1
f 19/5/1 16/5/1 18/5/1
f 20/4/1 18/4/1 17/4/1
f 20/4/1 19/4/1 18/4/1
f 21/4/1 19/4/1 20/4/1
f 22/4/1 19/4/1 21/4/1
f 23/4/1 19/4/1 22/4/1
f 24/4/1 19/4/1 23/4/1
f 25/4/1 19/4/1 24/4/1
f 26/4/1 24/4/1 23/4/1
f 27/4/1 24/4/1 26/4/1
f 30/1/1 29/1/1 28/1/1
f 31/1/1 29/1/1 30/1/1
f 33/2/1 31/2/1 30/2/1
f 34/2/1 31/2/1 33/2/1
f 36/2/1 34/2/1 33/2/1
f 36/2/1 35/2/1 34/2/1
f 36/2/1 33/2/1 32/2/1
f 37/2/1 35/2/1 36/2/1
f 38/3/1 37/3/1 36/3/1
f 39/3/1 37/3/1 38/3/1
f 40/3/1 37/3/1 39/3/1
f 43/3/1 38/3/1 36/3/1
f 44/3/1 38/3/1 43/3/1
f 45/3/1 40/3/1 39/3/1
f 46/5/1 41/5/1 40/5/1
f 46/3/1 40/3/1 45/3/1
f 47/5/1 41/5/1 46/5/1
f 48/5/1 43/5/1 42/5/1
f 49/5/1 43/5/1 48/5/1
f 50/1/1 45/1/1 44/1/1
f 50/1/1 46/1/1 45/1/1
f 51/1/1 46/1/1 50/1/1
f 56/4/1 53/4/1 52/4/1
f 57/4/1 53/4/1 56/4/1
f 58/4/1 55/4/1 54/4/1
f 59/4/1 55/4/1 58/4/1
f 62/5/1 61/5/1 60/5/1
f 63/5/1 61/5/1 62/5/1
f 66/5/1 65/5/1 64/5/1
f 67/5/1 65/5/1 66/5/1
f 70/1/1 69/1/1 68/1/1
f 71/1/1 69/1/1 70/1/1
f 72/2/1 71/2/1 70/2/1
f 73/2/1 71/2/1 72/2/1
f 76/5/1 75/5/1 74/5/1
f 77/5/1 75/5/1 76/5/1
f 80/1/1 79/1/1 78/1/1
f 81/1/1 79/1/1 80/1/1
f 82/1/2 83/1/2 84/1/2
f 84/1/2 83/1/2 85/1/2
f 86/1/2 87/1/2 88/1/2
f 88/1/2 87/1/2 89/1/2
f 88/2/2 89/2/2 90/2/2
f 90/2/2 89/2/2 91/2/2
f 92/5/2 93/5/2 96/5/2
f 96/5/2 93/5/2 97/5/2
f 94/5/2 95/5/2 98/5/2
f 98/5/2 95/5/2 99/5/2
f 100/5/2 101/5/2 102/5/2
f 102/5/2 101/5/2 103/5/2
f 104/5/2 105/5/2 106/5/2
f 106/5/2 105/5/2 107/5/2
f 108/5/2 109/5/2 112/5/2
f 112/5/2 109/5/2 113/5/2
f 110/5/2 111/5/2 114/5/2
f 114/5/2 111/5/2 115/5/2
f 116/1/2 117/1/2 118/1/2
f 118/1/2 117/1/2 119/1/2
f 118/2/2 119/2/2 121/2/2
f 121/2/2 119/2/2 122/2/2
f 121/2/2 122/2/2 124/2/2
f 122/2/2 123/2/2 124/2/2
f 120/2/2 121/2/2 124/2/2
f 124/2/2 123/2/2 125/2/2
f 124/3/2 125/3/2 126/3/2
f 126/3/2 125/3/2 127/3/2
f 124/3/2 126/3/2 128/3/2
f 128/3/2 126/3/2 129/3/2
f 127/3/2 125/3/2 130/3/2
f 130/3/2 125/3/2 131/3/2
f 129/1/2 130/1/2 132/1/2
f 132/1/2 130/1/2 133/1/2
f 134/4/2 135/4/2 138/4/2
f 138/4/2 135/4/2 139/4/2
f 136/4/2 137/4/2 140/4/2
f 140/4/2 137/4/2 141/4/2
f 142/5/2 143/5/2 147/5/2
f 147/5/2 143/5/2 148/5/2
f 144/5/2 145/5/2 149/5/2
f 147/5/2 148/5/2 151/5/2
f 148/5/2 149/5/2 151/5/2
f 146/5/2 147/5/2 151/5/2
f 149/5/2 145/5/2 152/5/2
f 151/5/2 149/5/2 152/5/2
f 150/4/2 151/4/2 153/4/2
f 151/4/2 152/4/2 153/4/2
f 153/4/2 152/4/2 154/4/2
f 154/4/2 152/4/2 155/4/2
f 155/4/2 152/4/2 156/4/2
f 156/4/2 152/4/2 157/4/2
f 157/4/2 152/4/2 158/4/2
f 156/4/2 157/4/2 159/4/2
f 159/4/2 157/4/2 160/4/2
f 161/1/2 162/1/2 163/1/2
f 163/1/2 162/1/2 164/1/2
f 165/1/2 166/1/2 167/1/2
f 167/1/2 166/1/2 168/1/2
f 171/4/3 170/4/3 169/4/3
f 172/4/3 170/4/3 171/4/3
f 176/5/3 174/5/3 173/5/3
f 177/5/3 176/5/3 175/5/3
f 178/5/3 174/5/3 176/5/3
f 178/5/3 176/5/3 177/5/3
f 179/5/3 174/5/3 178/5/3
f 180/5/3 174/5/3 179/5/3
f 183/5/3 182/5/3 181/5/3
f 184/5/3 182/5/3 183/5/3
f 185/5/3 182/5/3 184/5/3
f 186/5/3 182/5/3 185/5/3
f 193/5/3 188/5/3 187/5/3
f 194/5/3 188/5/3 193/5/3
f 195/4/3 190/4/3 189/4/3
f 197/3/3 193/3/3 192/3/3
f 198/3/3 193/3/3 197/3/3
f 200/3/3 197/3/3 192/3/3
f 201/1/3 199/1/3 198/1/3
f 201/3/3 197/3/3 200/3/3
f 201/1/3 198/1/3 197/1/3
f 202/1/3 199/1/3 201/1/3
f 204/3/3 200/3/3 192/3/3
f 204/1/3 203/1/3 202/1/3
f 204/1/3 202/1/3 201/1/3
f 204/1/3 201/1/3 200/1/3
f 205/1/3 203/1/3 204/1/3
f 206/1/3 203/1/3 205/1/3
f 207/1/3 203/1/3 206/1/3
f 208/3/3 205/3/3 204/3/3
f 208/1/3 206/1/3 205/1/3
f 209/1/3 206/1/3 208/1/3
f 211/2/3 192/2/3 191/2/3
f 212/3/3 204/3/3 192/3/3
f 212/2/3 192/2/3 211/2/3
f 212/3/3 208/3/3 204/3/3
f 212/3/3 209/3/3 208/3/3
f 213/1/3 210/1/3 209/1/3
f 213/3/3 209/3/3 212/3/3
f 214/1/3 210/1/3 213/1/3
f 215/4/3 196/4/3 195/4/3
f 215/4/3 195/4/3 189/4/3
f 216/4/3 196/4/3 215/4/3
f 217/5/3 214/5/3 213/5/3
f 218/5/3 214/5/3 217/5/3
f 219/4/3 215/4/3 189/4/3
f 220/4/3 215/4/3 219/4/3
f 224/1/3 222/1/3 221/1/3
f 225/1/3 222/1/3 224/1/3
f 226/1/3 224/1/3 223/1/3
f 227/1/3 224/1/3 226/1/3
f 233/3/3 227/3/3 226/3/3
f 234/3/3 227/3/3 233/3/3
f 235/4/3 229/4/3 228/4/3
f 236/4/3 229/4/3 235/4/3
f 237/1/3 231/1/3 230/1/3
f 238/2/3 232/2/3 231/2/3
f 238/1/3 231/1/3 237/1/3
f 239/2/3 232/2/3 238/2/3
f 243/1/3 241/1/3 240/1/3
f 244/2/3 242/2/3 241/2/3
f 244/1/3 241/1/3 243/1/3
f 245/2/3 242/2/3 244/2/3
f 250/3/3 247/3/3 246/3/3
f 251/3/3 247/3/3 250/3/3
f 252/4/3 249/4/3 248/4/3
f 253/4/3 249/4/3 252/4/3
f 254/1/3 251/1/3 250/1/3
f 255/1/3 251/1/3 254/1/3
f 257/1/3 256/1/3 255/1/3
f 258/1/3 256/1/3 257/1/3
f 261/5/3 260/5/3 259/5/3
f 262/5/3 260/5/3 261/5/3
f 265/5/3 264/5/3 263/5/3
f 266/5/3 264/5/3 265/5/3
f 267/5/4 268/5/4 269/5/4
f 269/5/4 268/5/4 270/5/4
f 271/5/4 272/5/4 273/5/4
f 273/5/4 272/5/4 274/5/4
f 275/1/4 276/1/4 278/1/4
f 278/1/4 276/1/4 279/1/4
f 277/1/4 278/1/4 280/1/4
f 280/1/4 278/1/4 281/1/4
f 280/3/4 281/3/4 285/3/4
f 285/3/4 281/3/4 286/3/4
f 282/1/4 283/1/4 287/1/4
f 283/2/4 284/2/4 288/2/4
f 287/1/4 283/1/4 288/1/4
f 288/2/4 284/2/4 289/2/4
f 290/1/4 291/1/4 293/1/4
f 291/2/4 292/2/4 294/2/4
f 293/1/4 291/1/4 294/1/4
f 294/2/4 292/2/4 295/2/4
f 296/3/4 297/3/4 298/3/4
f 298/3/4 297/3/4 299/3/4
f 298/1/4 299/1/4 300/1/4
f 300/1/4 299/1/4 301/1/4
f 301/1/4 302/1/4 303/1/4
f 303/1/4 302/1/4 304/1/4
f 305/4/4 306/4/4 310/4/4
f 310/4/4 306/4/4 311/4/4
f 308/3/4 309/3/4 312/3/4
f 308/3/4 312/3/4 314/3/4
f 312/1/4 313/1/4 314/1/4
f 314/1/4 313/1/4 315/1/4
f 308/3/4 314/3/4 316/3/4
f 308/3/4 316/3/4 318/3/4
f 316/1/4 317/1/4 318/1/4
f 318/1/4 317/1/4 319/1/4
f 307/2/4 308/2/4 321/2/4
f 308/3/4 318/3/4 322/3/4
f 321/2/4 308/2/4 322/2/4
f 318/3/4 319/3/4 322/3/4
f 319/1/4 320/1/4 323/1/4
f 322/3/4 319/3/4 323/3/4
f 323/1/4 320/1/4 324/1/4
f 325/4/4 326/4/4 327/4/4
f 327/4/4 326/4/4 328/4/4
f 329/5/4 330/5/4 333/5/4
f 330/4/4 331/4/4 334/4/4
f 332/5/4 333/5/4 336/5/4
f 333/5/4 330/5/4 337/5/4
f 336/5/4 333/5/4 337/5/4
f 337/5/4 330/5/4 339/5/4
f 338/5/4 339/5/4 340/5/4
f 340/5/4 339/5/4 341/5/4
f 341/5/4 339/5/4 342/5/4
f 339/5/4 330/5/4 343/5/4
f 342/5/4 339/5/4 343/5/4
f 343/5/4 330/5/4 345/5/4
f 334/4/4 335/4/4 346/4/4
f 330/4/4 334/4/4 346/4/4
f 346/4/4 335/4/4 347/4/4
f 344/5/4 345/5/4 348/5/4
f 345/5/4 330/5/4 349/5/4
f 348/5/4 345/5/4 349/5/4
f 330/4/4 346/4/4 349/4/4
f 349/4/4 346/4/4 350/4/4
f 355/1/5 352/1/5 351/1/5
f 356/1/5 352/1/5 355/1/5
f 357/1/5 354/1/5 353/1/5
f 358/1/5 354/1/5 357/1/5
f 361/2/5 360/2/5 359/2/5
f 362/2/5 360/2/5 361/2/5
f 363/2/5 360/2/5 362/2/5
f 364/2/5 360/2/5 363/2/5
f 366/2/5 363/2/5 362/2/5
f 367/2/5 363/2/5 366/2/5
f 369/2/5 366/2/5 365/2/5
f 369/2/5 368/2/5 367/2/5
f 369/2/5 367/2/5 366/2/5
f 370/2/5 368/2/5 369/2/5
f 377/1/5 372/1/5 371/1/5
f 378/3/5 373/3/5 372/3/5
f 378/1/5 372/1/5 377/1/5
f 379/3/5 373/3/5 378/3/5
f 380/3/5 375/3/5 374/3/5
f 381/1/5 376/1/5 375/1/5
f 381/3/5 375/3/5 380/3/5
f 382/1/5 376/1/5 381/1/5
f 387/5/5 384/5/5 383/5/5
f 388/5/5 384/5/5 387/5/5
f 389/5/5 386/5/5 385/5/5
f 390/5/5 386/5/5 389/5/5
f 396/5/5 392/5/5 391/5/5
f 397/5/5 392/5/5 396/5/5
f 398/5/5 394/5/5 393/5/5
f 399/5/5 394/5/5 398/5/5
f 404/5/5 396/5/5 395/5/5
f 405/5/5 396/5/5 404/5/5
f 406/5/5 401/5/5 400/5/5
f 407/5/5 401/5/5 406/5/5
f 410/1/5 403/1/5 402/1/5
f 411/1/5 403/1/5 410/1/5
f 414/1/5 409/1/5 408/1/5
f 415/1/5 409/1/5 414/1/5
f 420/5/5 413/5/5 412/5/5
f 421/5/5 417/5/5 416/5/5
f 422/5/5 417/5/5 421/5/5
f 423/5/5 419/5/5 418/5/5
f 424/5/5 419/5/5 423/5/5
f 425/5/5 413/5/5 420/5/5
f 426/5/5 413/5/5 425/5/5
f 431/5/5 428/5/5 427/5/5
f 432/5/5 428/5/5 431/5/5
f 433/5/5 430/5/5 429/5/5
f 434/5/5 430/5/5 433/5/5
f 435/5/5 430/5/5 434/5/5
f 440/5/5 439/5/5 438/5/5
f 441/5/5 439/5/5 440/5/5
f 442/5/5 437/5/5 436/5/5
f 443/5/5 437/5/5 442/5/5
f 448/5/5 445/5/5 444/5/5
f 449/5/5 445/5/5 448/5/5
f 450/5/5 447/5/5 446/5/5
f 451/5/5 447/5/5 450/5/5
f 454/5/5 453/5/5 452/5/5
f 455/5/5 453/5/5 454/5/5
f 458/4/5 457/4/5 456/4/5
f 459/4/5 457/4/5 458/4/5
f 460/4/5 457/4/5 459/4/5
f 461/4/5 457/4/5 460/4/5
f 462/4/5 460/4/5 459/4/5
f 463/4/5 460/4/5 462/4/5
f 464/1/6 465/1/6 470/1/6
f 465/3/6 466/3/6 471/3/6
f 470/1/6 465/1/6 471/1/6
f 471/3/6 466/3/6 472/3/6
f 467/3/6 468/3/6 473/3/6
f 468/1/6 469/1/6 474/1/6
f 473/3/6 468/3/6 474/3/6
f 474/1/6 469/1/6 475/1/6
f 476/1/6 477/1/6 480/1/6
f 480/1/6 477/1/6 481/1/6
f 478/1/6 479/1/6 482/1/6
f 482/1/6 479/1/6 483/1/6
f 484/4/6 485/4/6 486/4/6
f 486/4/6 485/4/6 487/4/6
f 488/4/6 489/4/6 492/4/6
f 492/4/6 489/4/6 493/4/6
f 490/4/6 491/4/6 494/4/6
f 494/4/6 491/4/6 495/4/6
f 496/4/6 497/4/6 500/4/6
f 500/4/6 497/4/6 501/4/6
f 498/4/6 499/4/6 502/4/6
f 502/4/6 499/4/6 503/4/6
f 504/4/6 505/4/6 507/4/6
f 507/4/6 505/4/6 508/4/6
f 506/4/6 507/4/6 510/4/6
f 508/4/6 509/4/6 510/4/6
f 507/4/6 508/4/6 510/4/6
f 510/4/6 509/4/6 511/4/6
f 511/4/6 509/4/6 512/4/6
f 512/4/6 509/4/6 513/4/6
f 511/4/6 512/4/6 514/4/6
f 514/4/6 512/4/6 515/4/6
