# MagicaVoxel @ Ephtracy

# material
mtllib Roll-01.mtl
usemtl palette

# normals
vn -1 0 0
vn 1 0 0
vn 0 0 1
vn 0 0 -1
vn 0 -1 0
vn 0 1 0

# texcoords
vt 0.970703 0.5
vt 0.974609 0.5
vt 0.978516 0.5
vt 0.982422 0.5
vt 0.986328 0.5

# verts
v -5.5 10 0.5
v -5.5 10 -0.5
v -5.5 11 1.5
v -5.5 11 0.5
v -5.5 11 -0.5
v -5.5 14 1.5
v -5.5 14 0.5
v -4.5 9 -0.5
v -4.5 9 -1.5
v -4.5 10 -0.5
v -4.5 10 -1.5
v -3.5 10 1.5
v -3.5 10 0.5
v -3.5 10 -1.5
v -3.5 10 -2.5
v -3.5 11 2.5
v -3.5 11 1.5
v -3.5 11 0.5
v -3.5 11 -1.5
v -3.5 14 3.5
v -3.5 14 2.5
v -3.5 14 -2.5
v -3.5 15 3.5
v -3.5 15 1.5
v -3.5 16 1.5
v -3.5 16 0.5
v -3.5 16 -1.5
v -3.5 16 -2.5
v -3.5 17 0.5
v -3.5 17 -1.5
v -2.5 0 -1.5
v -2.5 0 -2.5
v -2.5 2 -1.5
v -2.5 2 -2.5
v -2.5 4 -0.5
v -2.5 4 -1.5
v -2.5 4 -2.5
v -2.5 4 -3.5
v -2.5 5 -0.5
v -2.5 5 -3.5
v -2.5 7 0.5
v -2.5 7 -0.5
v -2.5 7 -2.5
v -2.5 7 -3.5
v -2.5 9 -0.5
v -2.5 9 -1.5
v -2.5 9 -2.5
v -2.5 10 2.5
v -2.5 10 1.5
v -2.5 10 0.5
v -2.5 10 -0.5
v -2.5 10 -1.5
v -2.5 10 -2.5
v -2.5 11 2.5
v -2.5 11 1.5
v -2.5 11 0.5
v -2.5 11 -1.5
v -2.5 16 1.5
v -2.5 16 0.5
v -2.5 16 -1.5
v -2.5 16 -2.5
v -2.5 17 1.5
v -2.5 17 0.5
v -2.5 17 -1.5
v -2.5 17 -2.5
v -0.5 9 -1.5
v -0.5 9 -2.5
v -0.5 11 -1.5
v -0.5 11 -2.5
v 0.5 10 2.5
v 0.5 10 1.5
v 0.5 14 2.5
v 0.5 14 1.5
v 1.5 0 -1.5
v 1.5 0 -2.5
v 1.5 2 -1.5
v 1.5 2 -2.5
v 1.5 4 -1.5
v 1.5 4 -2.5
v 1.5 9 -1.5
v 1.5 9 -2.5
v 1.5 10 -1.5
v 1.5 10 -2.5
v 2.5 10 -1.5
v 2.5 10 -2.5
v 2.5 11 -1.5
v 2.5 11 -2.5
v 4.5 10 0.5
v 4.5 10 -0.5
v 4.5 11 1.5
v 4.5 11 0.5
v 4.5 11 -0.5
v 4.5 14 1.5
v 4.5 14 0.5
v -4.5 10 0.5
v -4.5 10 -0.5
v -4.5 11 1.5
v -4.5 11 0.5
v -4.5 11 -0.5
v -4.5 14 1.5
v -4.5 14 0.5
v -1.5 0 -1.5
v -1.5 0 -2.5
v -1.5 2 -1.5
v -1.5 2 -2.5
v -1.5 4 -1.5
v -1.5 4 -2.5
v -1.5 9 -1.5
v -1.5 9 -2.5
v -1.5 10 2.5
v -1.5 10 1.5
v -1.5 11 -1.5
v -1.5 11 -2.5
v -1.5 13 2.5
v -1.5 13 1.5
v -0.5 13 2.5
v -0.5 13 1.5
v -0.5 14 2.5
v -0.5 14 1.5
v 0.5 9 -1.5
v 0.5 9 -2.5
v 0.5 10 -1.5
v 0.5 10 -2.5
v 1.5 10 2.5
v 1.5 10 1.5
v 1.5 10 -1.5
v 1.5 10 -2.5
v 1.5 11 2.5
v 1.5 11 1.5
v 1.5 11 -1.5
v 1.5 11 -2.5
v 2.5 0 -1.5
v 2.5 0 -2.5
v 2.5 2 -1.5
v 2.5 2 -2.5
v 2.5 4 -0.5
v 2.5 4 -1.5
v 2.5 4 -2.5
v 2.5 4 -3.5
v 2.5 5 -0.5
v 2.5 5 -3.5
v 2.5 7 0.5
v 2.5 7 -0.5
v 2.5 7 -2.5
v 2.5 7 -3.5
v 2.5 9 -0.5
v 2.5 9 -1.5
v 2.5 10 0.5
v 2.5 10 -0.5
v 2.5 10 -1.5
v 2.5 10 -2.5
v 2.5 11 0.5
v 2.5 11 -0.5
v 2.5 16 1.5
v 2.5 16 0.5
v 2.5 16 -1.5
v 2.5 16 -2.5
v 2.5 17 1.5
v 2.5 17 0.5
v 2.5 17 -1.5
v 2.5 17 -2.5
v 3.5 10 1.5
v 3.5 10 0.5
v 3.5 10 -0.5
v 3.5 10 -1.5
v 3.5 10 -2.5
v 3.5 11 2.5
v 3.5 11 1.5
v 3.5 11 0.5
v 3.5 11 -0.5
v 3.5 14 3.5
v 3.5 14 2.5
v 3.5 14 -2.5
v 3.5 15 3.5
v 3.5 15 1.5
v 3.5 16 1.5
v 3.5 16 0.5
v 3.5 16 -1.5
v 3.5 16 -2.5
v 3.5 17 0.5
v 3.5 17 -1.5
v 4.5 9 -0.5
v 4.5 9 -1.5
v 4.5 10 -0.5
v 4.5 10 -1.5
v 5.5 10 0.5
v 5.5 10 -0.5
v 5.5 11 1.5
v 5.5 11 0.5
v 5.5 11 -0.5
v 5.5 14 1.5
v 5.5 14 0.5
v -3.5 14 3.5
v -3.5 15 3.5
v 3.5 14 3.5
v 3.5 15 3.5
v -3.5 11 2.5
v -3.5 14 2.5
v -2.5 10 2.5
v -2.5 11 2.5
v -1.5 10 2.5
v -1.5 13 2.5
v -0.5 13 2.5
v -0.5 14 2.5
v 0.5 10 2.5
v 0.5 14 2.5
v 1.5 10 2.5
v 1.5 11 2.5
v 3.5 11 2.5
v 3.5 14 2.5
v -5.5 11 1.5
v -5.5 14 1.5
v -4.5 11 1.5
v -4.5 14 1.5
v -3.5 10 1.5
v -3.5 11 1.5
v -3.5 15 1.5
v -3.5 16 1.5
v -2.5 10 1.5
v -2.5 11 1.5
v -2.5 16 1.5
v -2.5 17 1.5
v -1.5 10 1.5
v -1.5 13 1.5
v -0.5 13 1.5
v -0.5 14 1.5
v 0.5 10 1.5
v 0.5 14 1.5
v 1.5 10 1.5
v 1.5 11 1.5
v 2.5 10 1.5
v 2.5 11 1.5
v 2.5 16 1.5
v 2.5 17 1.5
v 3.5 10 1.5
v 3.5 11 1.5
v 3.5 15 1.5
v 3.5 16 1.5
v 4.5 11 1.5
v 4.5 14 1.5
v 5.5 11 1.5
v 5.5 14 1.5
v -5.5 10 0.5
v -5.5 11 0.5
v -4.5 10 0.5
v -4.5 11 0.5
v -3.5 16 0.5
v -3.5 17 0.5
v -2.5 7 0.5
v -2.5 10 0.5
v -2.5 16 0.5
v -2.5 17 0.5
v -1.5 9 0.5
v -1.5 10 0.5
v -0.5 8 0.5
v -0.5 9 0.5
v 0.5 8 0.5
v 0.5 9 0.5
v 1.5 9 0.5
v 1.5 10 0.5
v 2.5 7 0.5
v 2.5 10 0.5
v 2.5 16 0.5
v 2.5 17 0.5
v 3.5 16 0.5
v 3.5 17 0.5
v 4.5 10 0.5
v 4.5 11 0.5
v 5.5 10 0.5
v 5.5 11 0.5
v -4.5 9 -0.5
v -4.5 10 -0.5
v -3.5 9 -0.5
v -3.5 10 -0.5
v -2.5 4 -0.5
v -2.5 5 -0.5
v -2.5 7 -0.5
v -2.5 9 -0.5
v -2.5 10 -0.5
v 2.5 4 -0.5
v 2.5 5 -0.5
v 2.5 7 -0.5
v 2.5 9 -0.5
v 2.5 10 -0.5
v 2.5 11 -0.5
v 3.5 9 -0.5
v 3.5 10 -0.5
v 3.5 11 -0.5
v 4.5 9 -0.5
v 4.5 10 -0.5
v -3.5 10 -1.5
v -3.5 11 -1.5
v -2.5 0 -1.5
v -2.5 2 -1.5
v -2.5 4 -1.5
v -2.5 10 -1.5
v -2.5 11 -1.5
v -1.5 0 -1.5
v -1.5 2 -1.5
v -1.5 4 -1.5
v 1.5 0 -1.5
v 1.5 2 -1.5
v 1.5 4 -1.5
v 2.5 0 -1.5
v 2.5 2 -1.5
v 2.5 4 -1.5
v -5.5 11 0.5
v -5.5 14 0.5
v -4.5 11 0.5
v -4.5 14 0.5
v -3.5 10 0.5
v -3.5 11 0.5
v -2.5 10 0.5
v -2.5 11 0.5
v 2.5 10 0.5
v 2.5 11 0.5
v 3.5 10 0.5
v 3.5 11 0.5
v 4.5 11 0.5
v 4.5 14 0.5
v 5.5 11 0.5
v 5.5 14 0.5
v -5.5 10 -0.5
v -5.5 11 -0.5
v -4.5 10 -0.5
v -4.5 11 -0.5
v 4.5 10 -0.5
v 4.5 11 -0.5
v 5.5 10 -0.5
v 5.5 11 -0.5
v -4.5 9 -1.5
v -4.5 10 -1.5
v -3.5 9 -1.5
v -3.5 10 -1.5
v -3.5 16 -1.5
v -3.5 17 -1.5
v -2.5 9 -1.5
v -2.5 10 -1.5
v -2.5 16 -1.5
v -2.5 17 -1.5
v -1.5 9 -1.5
v -1.5 11 -1.5
v -0.5 9 -1.5
v -0.5 11 -1.5
v 0.5 9 -1.5
v 0.5 10 -1.5
v 1.5 9 -1.5
v 1.5 10 -1.5
v 1.5 11 -1.5
v 2.5 9 -1.5
v 2.5 10 -1.5
v 2.5 11 -1.5
v 2.5 16 -1.5
v 2.5 17 -1.5
v 3.5 9 -1.5
v 3.5 10 -1.5
v 3.5 16 -1.5
v 3.5 17 -1.5
v 4.5 9 -1.5
v 4.5 10 -1.5
v -3.5 10 -2.5
v -3.5 14 -2.5
v -3.5 16 -2.5
v -2.5 0 -2.5
v -2.5 2 -2.5
v -2.5 4 -2.5
v -2.5 7 -2.5
v -2.5 9 -2.5
v -2.5 10 -2.5
v -2.5 16 -2.5
v -2.5 17 -2.5
v -1.5 0 -2.5
v -1.5 2 -2.5
v -1.5 4 -2.5
v -1.5 9 -2.5
v -1.5 11 -2.5
v -0.5 9 -2.5
v -0.5 11 -2.5
v 0.5 9 -2.5
v 0.5 10 -2.5
v 1.5 0 -2.5
v 1.5 2 -2.5
v 1.5 4 -2.5
v 1.5 9 -2.5
v 1.5 10 -2.5
v 1.5 11 -2.5
v 2.5 0 -2.5
v 2.5 2 -2.5
v 2.5 4 -2.5
v 2.5 7 -2.5
v 2.5 10 -2.5
v 2.5 11 -2.5
v 2.5 16 -2.5
v 2.5 17 -2.5
v 3.5 10 -2.5
v 3.5 14 -2.5
v 3.5 16 -2.5
v -2.5 4 -3.5
v -2.5 5 -3.5
v -2.5 7 -3.5
v 2.5 4 -3.5
v 2.5 5 -3.5
v 2.5 7 -3.5
v -2.5 0 -1.5
v -1.5 0 -1.5
v 1.5 0 -1.5
v 2.5 0 -1.5
v -2.5 0 -2.5
v -1.5 0 -2.5
v 1.5 0 -2.5
v 2.5 0 -2.5
v -2.5 4 -0.5
v 2.5 4 -0.5
v -2.5 4 -1.5
v -1.5 4 -1.5
v 1.5 4 -1.5
v 2.5 4 -1.5
v -2.5 4 -2.5
v -1.5 4 -2.5
v 1.5 4 -2.5
v 2.5 4 -2.5
v -2.5 4 -3.5
v 2.5 4 -3.5
v -2.5 7 0.5
v 2.5 7 0.5
v -2.5 7 -0.5
v 2.5 7 -0.5
v -4.5 9 -0.5
v -3.5 9 -0.5
v -2.5 9 -0.5
v 2.5 9 -0.5
v 3.5 9 -0.5
v 4.5 9 -0.5
v -4.5 9 -1.5
v -3.5 9 -1.5
v -2.5 9 -1.5
v 2.5 9 -1.5
v 3.5 9 -1.5
v 4.5 9 -1.5
v -2.5 10 2.5
v -1.5 10 2.5
v 0.5 10 2.5
v 1.5 10 2.5
v -3.5 10 1.5
v -2.5 10 1.5
v -1.5 10 1.5
v 0.5 10 1.5
v 1.5 10 1.5
v 2.5 10 1.5
v 3.5 10 1.5
v -5.5 10 0.5
v -4.5 10 0.5
v -3.5 10 0.5
v -2.5 10 0.5
v -1.5 10 0.5
v 1.5 10 0.5
v 2.5 10 0.5
v 3.5 10 0.5
v 4.5 10 0.5
v 5.5 10 0.5
v -5.5 10 -0.5
v -4.5 10 -0.5
v 4.5 10 -0.5
v 5.5 10 -0.5
v -3.5 10 -1.5
v -2.5 10 -1.5
v 0.5 10 -1.5
v 1.5 10 -1.5
v 2.5 10 -1.5
v 3.5 10 -1.5
v -3.5 10 -2.5
v -2.5 10 -2.5
v 0.5 10 -2.5
v 1.5 10 -2.5
v 2.5 10 -2.5
v 3.5 10 -2.5
v -3.5 11 2.5
v -2.5 11 2.5
v 1.5 11 2.5
v 3.5 11 2.5
v -5.5 11 1.5
v -4.5 11 1.5
v -3.5 11 1.5
v -2.5 11 1.5
v 1.5 11 1.5
v 2.5 11 1.5
v 3.5 11 1.5
v 4.5 11 1.5
v 5.5 11 1.5
v -5.5 11 0.5
v -4.5 11 0.5
v -3.5 11 0.5
v -2.5 11 0.5
v 2.5 11 0.5
v 3.5 11 0.5
v 4.5 11 0.5
v 5.5 11 0.5
v 2.5 11 -0.5
v 3.5 11 -0.5
v -3.5 11 -1.5
v -2.5 11 -1.5
v -1.5 11 -1.5
v -0.5 11 -1.5
v 1.5 11 -1.5
v 2.5 11 -1.5
v -1.5 11 -2.5
v -0.5 11 -2.5
v 1.5 11 -2.5
v 2.5 11 -2.5
v -1.5 13 2.5
v -0.5 13 2.5
v -1.5 13 1.5
v -0.5 13 1.5
v -3.5 14 3.5
v 3.5 14 3.5
v -3.5 14 2.5
v -0.5 14 2.5
v 0.5 14 2.5
v 3.5 14 2.5
v -0.5 14 1.5
v 0.5 14 1.5
v -2.5 7 -2.5
v 2.5 7 -2.5
v -2.5 7 -3.5
v 2.5 7 -3.5
v -1.5 9 -1.5
v -0.5 9 -1.5
v 0.5 9 -1.5
v 1.5 9 -1.5
v -1.5 9 -2.5
v -0.5 9 -2.5
v 0.5 9 -2.5
v 1.5 9 -2.5
v -4.5 10 -0.5
v -3.5 10 -0.5
v -2.5 10 -0.5
v 3.5 10 -0.5
v 4.5 10 -0.5
v -4.5 10 -1.5
v -3.5 10 -1.5
v -2.5 10 -1.5
v 1.5 10 -1.5
v 2.5 10 -1.5
v 3.5 10 -1.5
v 4.5 10 -1.5
v 1.5 10 -2.5
v 2.5 10 -2.5
v -5.5 11 0.5
v -4.5 11 0.5
v 4.5 11 0.5
v 5.5 11 0.5
v -5.5 11 -0.5
v -4.5 11 -0.5
v 4.5 11 -0.5
v 5.5 11 -0.5
v -5.5 14 1.5
v -4.5 14 1.5
v 4.5 14 1.5
v 5.5 14 1.5
v -5.5 14 0.5
v -4.5 14 0.5
v 4.5 14 0.5
v 5.5 14 0.5
v -3.5 15 3.5
v 3.5 15 3.5
v -3.5 15 1.5
v 3.5 15 1.5
v -3.5 16 1.5
v -2.5 16 1.5
v 2.5 16 1.5
v 3.5 16 1.5
v -3.5 16 0.5
v -2.5 16 0.5
v 2.5 16 0.5
v 3.5 16 0.5
v -3.5 16 -1.5
v -2.5 16 -1.5
v 2.5 16 -1.5
v 3.5 16 -1.5
v -3.5 16 -2.5
v -2.5 16 -2.5
v 2.5 16 -2.5
v 3.5 16 -2.5
v -2.5 17 1.5
v 2.5 17 1.5
v -3.5 17 0.5
v -2.5 17 0.5
v 2.5 17 0.5
v 3.5 17 0.5
v -3.5 17 -1.5
v -2.5 17 -1.5
v 2.5 17 -1.5
v 3.5 17 -1.5
v -2.5 17 -2.5
v 2.5 17 -2.5

# faces
f 4/1/1 2/1/1 1/1/1
f 5/1/1 2/1/1 4/1/1
f 6/1/1 4/1/1 3/1/1
f 7/1/1 4/1/1 6/1/1
f 10/1/1 9/1/1 8/1/1
f 11/1/1 9/1/1 10/1/1
f 17/5/1 13/5/1 12/5/1
f 18/5/1 13/5/1 17/5/1
f 19/5/1 15/5/1 14/5/1
f 21/5/1 18/5/1 17/5/1
f 21/5/1 19/5/1 18/5/1
f 21/5/1 17/5/1 16/5/1
f 22/5/1 15/5/1 19/5/1
f 22/5/1 19/5/1 21/5/1
f 23/4/1 21/4/1 20/4/1
f 23/4/1 22/4/1 21/4/1
f 24/4/1 22/4/1 23/4/1
f 25/4/1 22/4/1 24/4/1
f 26/4/1 22/4/1 25/4/1
f 27/4/1 22/4/1 26/4/1
f 28/4/1 22/4/1 27/4/1
f 29/4/1 27/4/1 26/4/1
f 30/4/1 27/4/1 29/4/1
f 33/1/1 32/1/1 31/1/1
f 34/1/1 32/1/1 33/1/1
f 36/2/1 34/2/1 33/2/1
f 37/2/1 34/2/1 36/2/1
f 39/2/1 37/2/1 36/2/1
f 39/2/1 38/2/1 37/2/1
f 39/2/1 36/2/1 35/2/1
f 40/2/1 38/2/1 39/2/1
f 42/3/1 40/3/1 39/3/1
f 43/3/1 40/3/1 42/3/1
f 44/3/1 40/3/1 43/3/1
f 45/3/1 42/3/1 41/3/1
f 45/3/1 43/3/1 42/3/1
f 46/3/1 43/3/1 45/3/1
f 47/3/1 43/3/1 46/3/1
f 50/3/1 45/3/1 41/3/1
f 51/3/1 45/3/1 50/3/1
f 52/5/1 47/5/1 46/5/1
f 53/5/1 47/5/1 52/5/1
f 54/5/1 49/5/1 48/5/1
f 55/5/1 49/5/1 54/5/1
f 56/1/1 51/1/1 50/1/1
f 56/1/1 52/1/1 51/1/1
f 57/1/1 52/1/1 56/1/1
f 62/4/1 59/4/1 58/4/1
f 63/4/1 59/4/1 62/4/1
f 64/4/1 61/4/1 60/4/1
f 65/4/1 61/4/1 64/4/1
f 68/5/1 67/5/1 66/5/1
f 69/5/1 67/5/1 68/5/1
f 72/5/1 71/5/1 70/5/1
f 73/5/1 71/5/1 72/5/1
f 76/1/1 75/1/1 74/1/1
f 77/1/1 75/1/1 76/1/1
f 78/2/1 77/2/1 76/2/1
f 79/2/1 77/2/1 78/2/1
f 82/3/1 81/3/1 80/3/1
f 83/3/1 81/3/1 82/3/1
f 86/5/1 85/5/1 84/5/1
f 87/5/1 85/5/1 86/5/1
f 91/1/1 89/1/1 88/1/1
f 92/1/1 89/1/1 91/1/1
f 93/1/1 91/1/1 90/1/1
f 94/1/1 91/1/1 93/1/1
f 95/1/2 96/1/2 98/1/2
f 98/1/2 96/1/2 99/1/2
f 97/1/2 98/1/2 100/1/2
f 100/1/2 98/1/2 101/1/2
f 102/1/2 103/1/2 104/1/2
f 104/1/2 103/1/2 105/1/2
f 104/2/2 105/2/2 106/2/2
f 106/2/2 105/2/2 107/2/2
f 108/5/2 109/5/2 112/5/2
f 112/5/2 109/5/2 113/5/2
f 110/5/2 111/5/2 114/5/2
f 114/5/2 111/5/2 115/5/2
f 116/5/2 117/5/2 118/5/2
f 118/5/2 117/5/2 119/5/2
f 120/5/2 121/5/2 122/5/2
f 122/5/2 121/5/2 123/5/2
f 124/5/2 125/5/2 128/5/2
f 128/5/2 125/5/2 129/5/2
f 126/5/2 127/5/2 130/5/2
f 130/5/2 127/5/2 131/5/2
f 132/1/2 133/1/2 134/1/2
f 134/1/2 133/1/2 135/1/2
f 134/2/2 135/2/2 137/2/2
f 137/2/2 135/2/2 138/2/2
f 137/2/2 138/2/2 140/2/2
f 138/2/2 139/2/2 140/2/2
f 136/2/2 137/2/2 140/2/2
f 140/2/2 139/2/2 141/2/2
f 140/3/2 141/3/2 143/3/2
f 143/3/2 141/3/2 144/3/2
f 144/3/2 141/3/2 145/3/2
f 142/3/2 143/3/2 146/3/2
f 143/3/2 144/3/2 146/3/2
f 146/3/2 144/3/2 147/3/2
f 142/3/2 146/3/2 148/3/2
f 148/3/2 146/3/2 149/3/2
f 147/3/2 144/3/2 150/3/2
f 150/3/2 144/3/2 151/3/2
f 148/1/2 149/1/2 152/1/2
f 152/1/2 149/1/2 153/1/2
f 154/4/2 155/4/2 158/4/2
f 158/4/2 155/4/2 159/4/2
f 156/4/2 157/4/2 160/4/2
f 160/4/2 157/4/2 161/4/2
f 162/5/2 163/5/2 168/5/2
f 168/5/2 163/5/2 169/5/2
f 165/5/2 166/5/2 170/5/2
f 164/5/2 165/5/2 170/5/2
f 168/5/2 169/5/2 172/5/2
f 169/5/2 170/5/2 172/5/2
f 167/5/2 168/5/2 172/5/2
f 170/5/2 166/5/2 173/5/2
f 172/5/2 170/5/2 173/5/2
f 171/4/2 172/4/2 174/4/2
f 172/4/2 173/4/2 174/4/2
f 174/4/2 173/4/2 175/4/2
f 175/4/2 173/4/2 176/4/2
f 176/4/2 173/4/2 177/4/2
f 177/4/2 173/4/2 178/4/2
f 178/4/2 173/4/2 179/4/2
f 177/4/2 178/4/2 180/4/2
f 180/4/2 178/4/2 181/4/2
f 182/1/2 183/1/2 184/1/2
f 184/1/2 183/1/2 185/1/2
f 186/1/2 187/1/2 189/1/2
f 189/1/2 187/1/2 190/1/2
f 188/1/2 189/1/2 191/1/2
f 191/1/2 189/1/2 192/1/2
f 195/4/3 194/4/3 193/4/3
f 196/4/3 194/4/3 195/4/3
f 200/5/3 198/5/3 197/5/3
f 201/5/3 200/5/3 199/5/3
f 202/5/3 198/5/3 200/5/3
f 202/5/3 200/5/3 201/5/3
f 203/5/3 198/5/3 202/5/3
f 204/5/3 198/5/3 203/5/3
f 207/5/3 206/5/3 205/5/3
f 208/5/3 206/5/3 207/5/3
f 209/5/3 206/5/3 208/5/3
f 210/5/3 206/5/3 209/5/3
f 213/1/3 212/1/3 211/1/3
f 214/1/3 212/1/3 213/1/3
f 219/5/3 216/5/3 215/5/3
f 220/5/3 216/5/3 219/5/3
f 221/4/3 218/4/3 217/4/3
f 225/1/3 224/1/3 223/1/3
f 227/1/3 225/1/3 223/1/3
f 227/1/3 226/1/3 225/1/3
f 228/1/3 226/1/3 227/1/3
f 231/1/3 230/1/3 229/1/3
f 232/1/3 230/1/3 231/1/3
f 233/4/3 222/4/3 221/4/3
f 233/4/3 221/4/3 217/4/3
f 234/4/3 222/4/3 233/4/3
f 235/5/3 232/5/3 231/5/3
f 236/5/3 232/5/3 235/5/3
f 237/4/3 233/4/3 217/4/3
f 238/4/3 233/4/3 237/4/3
f 241/1/3 240/1/3 239/1/3
f 242/1/3 240/1/3 241/1/3
f 245/1/3 244/1/3 243/1/3
f 246/1/3 244/1/3 245/1/3
f 251/4/3 248/4/3 247/4/3
f 252/4/3 248/4/3 251/4/3
f 253/3/3 250/3/3 249/3/3
f 254/3/3 250/3/3 253/3/3
f 255/3/3 253/3/3 249/3/3
f 256/1/3 254/1/3 253/1/3
f 256/3/3 253/3/3 255/3/3
f 257/3/3 255/3/3 249/3/3
f 257/1/3 256/1/3 255/1/3
f 258/1/3 254/1/3 256/1/3
f 258/1/3 256/1/3 257/1/3
f 259/3/3 258/3/3 257/3/3
f 259/1/3 254/1/3 258/1/3
f 260/1/3 254/1/3 259/1/3
f 261/3/3 257/3/3 249/3/3
f 261/3/3 259/3/3 257/3/3
f 261/3/3 260/3/3 259/3/3
f 262/3/3 260/3/3 261/3/3
f 265/4/3 264/4/3 263/4/3
f 266/4/3 264/4/3 265/4/3
f 269/1/3 268/1/3 267/1/3
f 270/1/3 268/1/3 269/1/3
f 273/1/3 272/1/3 271/1/3
f 274/1/3 272/1/3 273/1/3
f 278/3/3 274/3/3 273/3/3
f 279/3/3 274/3/3 278/3/3
f 280/2/3 276/2/3 275/2/3
f 281/3/3 277/3/3 276/3/3
f 281/2/3 276/2/3 280/2/3
f 282/3/3 277/3/3 281/3/3
f 286/3/3 284/3/3 283/3/3
f 287/5/3 285/5/3 284/5/3
f 287/3/3 284/3/3 286/3/3
f 288/5/3 285/5/3 287/5/3
f 289/1/3 287/1/3 286/1/3
f 290/1/3 287/1/3 289/1/3
f 296/5/3 292/5/3 291/5/3
f 297/5/3 292/5/3 296/5/3
f 298/1/3 294/1/3 293/1/3
f 299/2/3 295/2/3 294/2/3
f 299/1/3 294/1/3 298/1/3
f 300/2/3 295/2/3 299/2/3
f 304/1/3 302/1/3 301/1/3
f 305/2/3 303/2/3 302/2/3
f 305/1/3 302/1/3 304/1/3
f 306/2/3 303/2/3 305/2/3
f 307/1/4 308/1/4 309/1/4
f 309/1/4 308/1/4 310/1/4
f 311/5/4 312/5/4 313/5/4
f 313/5/4 312/5/4 314/5/4
f 315/5/4 316/5/4 317/5/4
f 317/5/4 316/5/4 318/5/4
f 319/1/4 320/1/4 321/1/4
f 321/1/4 320/1/4 322/1/4
f 323/1/4 324/1/4 325/1/4
f 325/1/4 324/1/4 326/1/4
f 327/1/4 328/1/4 329/1/4
f 329/1/4 328/1/4 330/1/4
f 331/1/4 332/1/4 333/1/4
f 333/1/4 332/1/4 334/1/4
f 333/3/4 334/3/4 337/3/4
f 337/3/4 334/3/4 338/3/4
f 335/4/4 336/4/4 339/4/4
f 339/4/4 336/4/4 340/4/4
f 341/1/4 342/1/4 343/1/4
f 343/1/4 342/1/4 344/1/4
f 345/1/4 346/1/4 347/1/4
f 347/1/4 346/1/4 348/1/4
f 348/1/4 349/1/4 351/1/4
f 351/1/4 349/1/4 352/1/4
f 350/3/4 351/3/4 355/3/4
f 355/3/4 351/3/4 356/3/4
f 353/4/4 354/4/4 357/4/4
f 357/4/4 354/4/4 358/4/4
f 355/1/4 356/1/4 359/1/4
f 359/1/4 356/1/4 360/1/4
f 361/5/4 362/5/4 369/5/4
f 362/4/4 363/4/4 370/4/4
f 364/1/4 365/1/4 372/1/4
f 365/2/4 366/2/4 373/2/4
f 372/1/4 365/1/4 373/1/4
f 373/2/4 366/2/4 374/2/4
f 367/3/4 368/3/4 375/3/4
f 368/5/4 369/5/4 375/5/4
f 369/5/4 362/5/4 376/5/4
f 375/5/4 369/5/4 376/5/4
f 367/3/4 375/3/4 377/3/4
f 376/5/4 362/5/4 378/5/4
f 367/3/4 377/3/4 379/3/4
f 377/5/4 378/5/4 379/5/4
f 379/5/4 378/5/4 380/5/4
f 367/3/4 379/3/4 384/3/4
f 380/5/4 378/5/4 385/5/4
f 378/5/4 362/5/4 386/5/4
f 385/5/4 378/5/4 386/5/4
f 381/1/4 382/1/4 387/1/4
f 382/2/4 383/2/4 388/2/4
f 387/1/4 382/1/4 388/1/4
f 388/2/4 383/2/4 389/2/4
f 384/3/4 385/3/4 390/3/4
f 367/3/4 384/3/4 390/3/4
f 390/3/4 385/3/4 391/3/4
f 386/5/4 362/5/4 392/5/4
f 362/4/4 370/4/4 393/4/4
f 370/4/4 371/4/4 393/4/4
f 393/4/4 371/4/4 394/4/4
f 391/5/4 392/5/4 395/5/4
f 362/4/4 393/4/4 396/4/4
f 395/5/4 392/5/4 396/5/4
f 392/5/4 362/5/4 396/5/4
f 396/4/4 393/4/4 397/4/4
f 398/2/4 399/2/4 401/2/4
f 399/3/4 400/3/4 402/3/4
f 401/2/4 399/2/4 402/2/4
f 402/3/4 400/3/4 403/3/4
f 408/1/5 405/1/5 404/1/5
f 409/1/5 405/1/5 408/1/5
f 410/1/5 407/1/5 406/1/5
f 411/1/5 407/1/5 410/1/5
f 414/2/5 413/2/5 412/2/5
f 415/2/5 413/2/5 414/2/5
f 416/2/5 413/2/5 415/2/5
f 417/2/5 413/2/5 416/2/5
f 419/2/5 416/2/5 415/2/5
f 420/2/5 416/2/5 419/2/5
f 422/2/5 419/2/5 418/2/5
f 422/2/5 421/2/5 420/2/5
f 422/2/5 420/2/5 419/2/5
f 423/2/5 421/2/5 422/2/5
f 426/3/5 425/3/5 424/3/5
f 427/3/5 425/3/5 426/3/5
f 434/1/5 429/1/5 428/1/5
f 435/3/5 430/3/5 429/3/5
f 435/1/5 429/1/5 434/1/5
f 436/3/5 430/3/5 435/3/5
f 437/3/5 432/3/5 431/3/5
f 438/1/5 433/1/5 432/1/5
f 438/3/5 432/3/5 437/3/5
f 439/1/5 433/1/5 438/1/5
f 445/5/5 441/5/5 440/5/5
f 446/5/5 441/5/5 445/5/5
f 447/5/5 443/5/5 442/5/5
f 448/5/5 443/5/5 447/5/5
f 453/5/5 445/5/5 444/5/5
f 454/1/5 446/1/5 445/1/5
f 454/5/5 445/5/5 453/5/5
f 454/1/5 447/1/5 446/1/5
f 454/1/5 448/1/5 447/1/5
f 454/1/5 449/1/5 448/1/5
f 455/1/5 449/1/5 454/1/5
f 456/1/5 449/1/5 455/1/5
f 457/5/5 450/5/5 449/5/5
f 457/1/5 449/1/5 456/1/5
f 458/5/5 450/5/5 457/5/5
f 461/1/5 452/1/5 451/1/5
f 462/1/5 452/1/5 461/1/5
f 463/1/5 460/1/5 459/1/5
f 464/1/5 460/1/5 463/1/5
f 471/5/5 466/5/5 465/5/5
f 472/5/5 466/5/5 471/5/5
f 473/5/5 468/5/5 467/5/5
f 474/5/5 468/5/5 473/5/5
f 475/5/5 470/5/5 469/5/5
f 476/5/5 470/5/5 475/5/5
f 483/5/5 478/5/5 477/5/5
f 484/5/5 478/5/5 483/5/5
f 485/5/5 480/5/5 479/5/5
f 486/5/5 480/5/5 485/5/5
f 487/5/5 480/5/5 486/5/5
f 490/1/5 482/1/5 481/1/5
f 491/1/5 482/1/5 490/1/5
f 496/1/5 489/1/5 488/1/5
f 497/1/5 489/1/5 496/1/5
f 498/5/5 495/5/5 494/5/5
f 499/5/5 495/5/5 498/5/5
f 500/5/5 493/5/5 492/5/5
f 501/5/5 493/5/5 500/5/5
f 506/5/5 503/5/5 502/5/5
f 507/5/5 503/5/5 506/5/5
f 508/5/5 505/5/5 504/5/5
f 509/5/5 505/5/5 508/5/5
f 512/5/5 511/5/5 510/5/5
f 513/5/5 511/5/5 512/5/5
f 516/4/5 515/4/5 514/4/5
f 517/4/5 515/4/5 516/4/5
f 518/4/5 515/4/5 517/4/5
f 519/4/5 515/4/5 518/4/5
f 520/4/5 518/4/5 517/4/5
f 521/4/5 518/4/5 520/4/5
f 522/3/6 523/3/6 524/3/6
f 524/3/6 523/3/6 525/3/6
f 526/3/6 527/3/6 530/3/6
f 530/3/6 527/3/6 531/3/6
f 528/3/6 529/3/6 532/3/6
f 532/3/6 529/3/6 533/3/6
f 534/1/6 535/1/6 539/1/6
f 535/3/6 536/3/6 540/3/6
f 539/1/6 535/1/6 540/1/6
f 540/3/6 536/3/6 541/3/6
f 537/1/6 538/1/6 544/1/6
f 544/1/6 538/1/6 545/1/6
f 542/3/6 543/3/6 546/3/6
f 546/3/6 543/3/6 547/3/6
f 548/1/6 549/1/6 552/1/6
f 552/1/6 549/1/6 553/1/6
f 550/1/6 551/1/6 554/1/6
f 554/1/6 551/1/6 555/1/6
f 556/1/6 557/1/6 560/1/6
f 560/1/6 557/1/6 561/1/6
f 558/1/6 559/1/6 562/1/6
f 562/1/6 559/1/6 563/1/6
f 564/4/6 565/4/6 566/4/6
f 566/4/6 565/4/6 567/4/6
f 568/4/6 569/4/6 572/4/6
f 572/4/6 569/4/6 573/4/6
f 570/4/6 571/4/6 574/4/6
f 574/4/6 571/4/6 575/4/6
f 576/4/6 577/4/6 580/4/6
f 580/4/6 577/4/6 581/4/6
f 578/4/6 579/4/6 582/4/6
f 582/4/6 579/4/6 583/4/6
f 584/4/6 585/4/6 587/4/6
f 587/4/6 585/4/6 588/4/6
f 586/4/6 587/4/6 590/4/6
f 588/4/6 589/4/6 590/4/6
f 587/4/6 588/4/6 590/4/6
f 590/4/6 589/4/6 591/4/6
f 591/4/6 589/4/6 592/4/6
f 592/4/6 589/4/6 593/4/6
f 591/4/6 592/4/6 594/4/6
f 594/4/6 592/4/6 595/4/6
