# MagicaVoxel @ Ephtracy

# material
mtllib Roll-09.mtl
usemtl palette

# normals
vn -1 0 0
vn 1 0 0
vn 0 0 1
vn 0 0 -1
vn 0 -1 0
vn 0 1 0

# texcoords
vt 0.970703 0.5
vt 0.974609 0.5
vt 0.978516 0.5
vt 0.982422 0.5
vt 0.986328 0.5

# verts
v -5.5 3 -0
v -5.5 3 -1
v -5.5 4 -0
v -5.5 4 -1
v -5.5 4 -4
v -5.5 5 -1
v -5.5 5 -4
v -4.5 3 1
v -4.5 3 -0
v -4.5 4 1
v -4.5 4 -0
v -3.5 3 2
v -3.5 3 1
v -3.5 3 -0
v -3.5 3 -4
v -3.5 3 -6
v -3.5 4 2
v -3.5 4 1
v -3.5 4 -0
v -3.5 4 -1
v -3.5 4 -6
v -3.5 4 -7
v -3.5 6 -0
v -3.5 6 -1
v -3.5 6 -6
v -3.5 6 -7
v -3.5 7 -0
v -3.5 7 -1
v -3.5 7 -5
v -3.5 7 -6
v -3.5 8 -1
v -3.5 8 -4
v -3.5 9 -4
v -3.5 9 -5
v -2.5 0 7
v -2.5 0 6
v -2.5 2 7
v -2.5 2 6
v -2.5 3 6
v -2.5 3 5
v -2.5 3 1
v -2.5 3 -0
v -2.5 3 -6
v -2.5 3 -7
v -2.5 4 6
v -2.5 4 5
v -2.5 4 2
v -2.5 4 1
v -2.5 4 -0
v -2.5 4 -1
v -2.5 4 -6
v -2.5 4 -7
v -2.5 6 7
v -2.5 6 6
v -2.5 6 -0
v -2.5 6 -1
v -2.5 6 -6
v -2.5 6 -7
v -2.5 7 -0
v -2.5 7 -1
v -2.5 7 -6
v -2.5 7 -7
v -2.5 8 -0
v -2.5 8 -1
v -0.5 3 1
v -0.5 3 -1
v -0.5 4 1
v -0.5 4 -1
v 0.5 7 -0
v 0.5 7 -4
v 0.5 8 -0
v 0.5 8 -4
v 1.5 0 7
v 1.5 0 6
v 1.5 2 7
v 1.5 2 6
v 1.5 3 7
v 1.5 3 6
v 1.5 3 3
v 1.5 3 -0
v 1.5 4 3
v 1.5 4 1
v 1.5 4 -0
v 2.5 3 -0
v 2.5 3 -1
v 2.5 4 -0
v 2.5 4 -1
v 3.5 3 1
v 3.5 3 -0
v 3.5 4 1
v 3.5 4 -0
v 4.5 3 -0
v 4.5 3 -1
v 4.5 4 -0
v 4.5 4 -1
v 4.5 4 -4
v 4.5 5 -1
v 4.5 5 -4
v -4.5 3 -0
v -4.5 3 -1
v -4.5 4 -0
v -4.5 4 -1
v -4.5 4 -4
v -4.5 5 -1
v -4.5 5 -4
v -3.5 3 1
v -3.5 3 -0
v -3.5 4 1
v -3.5 4 -0
v -1.5 0 7
v -1.5 0 6
v -1.5 2 7
v -1.5 2 6
v -1.5 3 7
v -1.5 3 6
v -1.5 3 2
v -1.5 3 1
v -1.5 3 -1
v -1.5 4 2
v -1.5 4 1
v -1.5 4 -1
v -1.5 7 -0
v -1.5 7 -3
v -1.5 8 -0
v -1.5 8 -3
v -0.5 7 -3
v -0.5 7 -4
v -0.5 8 -3
v -0.5 8 -4
v 0.5 3 1
v 0.5 3 -0
v 0.5 4 1
v 0.5 4 -0
v 1.5 3 -0
v 1.5 3 -1
v 1.5 4 -0
v 1.5 4 -1
v 1.5 7 -0
v 1.5 7 -1
v 1.5 8 -0
v 1.5 8 -1
v 2.5 0 7
v 2.5 0 6
v 2.5 2 7
v 2.5 2 6
v 2.5 3 6
v 2.5 3 5
v 2.5 3 3
v 2.5 3 2
v 2.5 3 1
v 2.5 3 -0
v 2.5 3 -6
v 2.5 3 -7
v 2.5 4 6
v 2.5 4 5
v 2.5 4 3
v 2.5 4 2
v 2.5 4 1
v 2.5 4 -6
v 2.5 4 -7
v 2.5 5 -0
v 2.5 5 -1
v 2.5 6 7
v 2.5 6 6
v 2.5 6 -0
v 2.5 6 -1
v 2.5 6 -6
v 2.5 6 -7
v 2.5 7 -6
v 2.5 7 -7
v 3.5 3 2
v 3.5 3 1
v 3.5 3 -0
v 3.5 3 -4
v 3.5 3 -6
v 3.5 4 2
v 3.5 4 1
v 3.5 4 -0
v 3.5 4 -6
v 3.5 4 -7
v 3.5 5 -0
v 3.5 5 -1
v 3.5 6 -0
v 3.5 6 -1
v 3.5 6 -6
v 3.5 6 -7
v 3.5 7 -0
v 3.5 7 -1
v 3.5 7 -5
v 3.5 7 -6
v 3.5 8 -1
v 3.5 8 -4
v 3.5 9 -4
v 3.5 9 -5
v 4.5 3 1
v 4.5 3 -0
v 4.5 4 1
v 4.5 4 -0
v 5.5 3 -0
v 5.5 3 -1
v 5.5 4 -0
v 5.5 4 -1
v 5.5 4 -4
v 5.5 5 -1
v 5.5 5 -4
v -2.5 0 7
v -2.5 2 7
v -2.5 6 7
v -1.5 0 7
v -1.5 2 7
v -1.5 3 7
v 1.5 0 7
v 1.5 2 7
v 1.5 3 7
v 2.5 0 7
v 2.5 2 7
v 2.5 6 7
v 1.5 3 3
v 1.5 4 3
v 2.5 3 3
v 2.5 4 3
v -3.5 3 2
v -3.5 4 2
v -2.5 4 2
v -1.5 3 2
v -1.5 4 2
v 2.5 3 2
v 2.5 4 2
v 3.5 3 2
v 3.5 4 2
v -4.5 3 1
v -4.5 4 1
v -3.5 3 1
v -3.5 4 1
v -0.5 3 1
v -0.5 4 1
v 0.5 3 1
v 0.5 4 1
v 3.5 3 1
v 3.5 4 1
v 4.5 3 1
v 4.5 4 1
v -5.5 3 -0
v -5.5 4 -0
v -4.5 3 -0
v -4.5 4 -0
v -3.5 3 -0
v -3.5 4 -0
v -3.5 6 -0
v -3.5 7 -0
v -2.5 3 -0
v -2.5 4 -0
v -2.5 6 -0
v -2.5 7 -0
v -2.5 8 -0
v -1.5 6 -0
v -1.5 7 -0
v -1.5 8 -0
v 0.5 3 -0
v 0.5 4 -0
v 0.5 7 -0
v 0.5 8 -0
v 1.5 3 -0
v 1.5 4 -0
v 1.5 6 -0
v 1.5 7 -0
v 1.5 8 -0
v 2.5 3 -0
v 2.5 5 -0
v 2.5 6 -0
v 2.5 7 -0
v 3.5 3 -0
v 3.5 4 -0
v 3.5 5 -0
v 3.5 6 -0
v 3.5 7 -0
v 4.5 3 -0
v 4.5 4 -0
v 5.5 3 -0
v 5.5 4 -0
v -5.5 4 -1
v -5.5 5 -1
v -4.5 4 -1
v -4.5 5 -1
v -3.5 4 -1
v -3.5 6 -1
v -3.5 7 -1
v -3.5 8 -1
v -2.5 4 -1
v -2.5 6 -1
v -2.5 7 -1
v -2.5 8 -1
v -1.5 3 -1
v -1.5 4 -1
v -0.5 3 -1
v -0.5 4 -1
v 1.5 3 -1
v 1.5 4 -1
v 1.5 7 -1
v 1.5 8 -1
v 2.5 3 -1
v 2.5 4 -1
v 2.5 5 -1
v 2.5 6 -1
v 2.5 7 -1
v 3.5 5 -1
v 3.5 6 -1
v 3.5 7 -1
v 3.5 8 -1
v 4.5 4 -1
v 4.5 5 -1
v 5.5 4 -1
v 5.5 5 -1
v -1.5 7 -3
v -1.5 8 -3
v -0.5 7 -3
v -0.5 8 -3
v -3.5 8 -4
v -3.5 9 -4
v -0.5 7 -4
v -0.5 8 -4
v 0.5 7 -4
v 0.5 8 -4
v 3.5 8 -4
v 3.5 9 -4
v -2.5 0 6
v -2.5 2 6
v -2.5 3 6
v -1.5 0 6
v -1.5 2 6
v -1.5 3 6
v 1.5 0 6
v 1.5 2 6
v 1.5 3 6
v 2.5 0 6
v 2.5 2 6
v 2.5 3 6
v -2.5 3 5
v -2.5 4 5
v 2.5 3 5
v 2.5 4 5
v -3.5 3 1
v -3.5 4 1
v -2.5 3 1
v -2.5 4 1
v 2.5 3 1
v 2.5 4 1
v 3.5 3 1
v 3.5 4 1
v -4.5 3 -0
v -4.5 4 -0
v -3.5 3 -0
v -3.5 4 -0
v 1.5 3 -0
v 1.5 4 -0
v 2.5 3 -0
v 2.5 4 -0
v 3.5 3 -0
v 3.5 4 -0
v 4.5 3 -0
v 4.5 4 -0
v -5.5 3 -1
v -5.5 4 -1
v -4.5 3 -1
v -4.5 4 -1
v 4.5 3 -1
v 4.5 4 -1
v 5.5 3 -1
v 5.5 4 -1
v -5.5 4 -4
v -5.5 5 -4
v -4.5 4 -4
v -4.5 5 -4
v 4.5 4 -4
v 4.5 5 -4
v 5.5 4 -4
v 5.5 5 -4
v -3.5 7 -5
v -3.5 9 -5
v 3.5 7 -5
v 3.5 9 -5
v -3.5 3 -6
v -3.5 4 -6
v -3.5 6 -6
v -3.5 7 -6
v -2.5 3 -6
v -2.5 4 -6
v -2.5 6 -6
v -2.5 7 -6
v 2.5 3 -6
v 2.5 4 -6
v 2.5 6 -6
v 2.5 7 -6
v 3.5 3 -6
v 3.5 4 -6
v 3.5 6 -6
v 3.5 7 -6
v -3.5 4 -7
v -3.5 6 -7
v -2.5 3 -7
v -2.5 4 -7
v -2.5 6 -7
v -2.5 7 -7
v 2.5 3 -7
v 2.5 4 -7
v 2.5 6 -7
v 2.5 7 -7
v 3.5 4 -7
v 3.5 6 -7
v -2.5 0 7
v -1.5 0 7
v 1.5 0 7
v 2.5 0 7
v -2.5 0 6
v -1.5 0 6
v 1.5 0 6
v 2.5 0 6
v -1.5 3 7
v 1.5 3 7
v -2.5 3 6
v -1.5 3 6
v 1.5 3 6
v 2.5 3 6
v -2.5 3 5
v 2.5 3 5
v 1.5 3 3
v 2.5 3 3
v -3.5 3 2
v -1.5 3 2
v 2.5 3 2
v 3.5 3 2
v -4.5 3 1
v -3.5 3 1
v -2.5 3 1
v -1.5 3 1
v -0.5 3 1
v 0.5 3 1
v 2.5 3 1
v 3.5 3 1
v 4.5 3 1
v -5.5 3 -0
v -4.5 3 -0
v -3.5 3 -0
v -2.5 3 -0
v 0.5 3 -0
v 1.5 3 -0
v 2.5 3 -0
v 3.5 3 -0
v 4.5 3 -0
v 5.5 3 -0
v -5.5 3 -1
v -4.5 3 -1
v -1.5 3 -1
v -0.5 3 -1
v 1.5 3 -1
v 2.5 3 -1
v 4.5 3 -1
v 5.5 3 -1
v -3.5 3 -4
v 3.5 3 -4
v -3.5 3 -6
v -2.5 3 -6
v 2.5 3 -6
v 3.5 3 -6
v -2.5 3 -7
v 2.5 3 -7
v -2.5 4 5
v 2.5 4 5
v 1.5 4 3
v 2.5 4 3
v -2.5 4 2
v -1.5 4 2
v -0.5 4 2
v 0.5 4 2
v -1.5 4 1
v -0.5 4 1
v 0.5 4 1
v 1.5 4 1
v 0.5 4 -0
v 1.5 4 -0
v 2.5 4 -0
v -5.5 4 -1
v -4.5 4 -1
v -1.5 4 -1
v -0.5 4 -1
v 1.5 4 -1
v 2.5 4 -1
v 4.5 4 -1
v 5.5 4 -1
v -5.5 4 -4
v -4.5 4 -4
v 4.5 4 -4
v 5.5 4 -4
v -3.5 4 -6
v -2.5 4 -6
v 2.5 4 -6
v 3.5 4 -6
v -3.5 4 -7
v -2.5 4 -7
v 2.5 4 -7
v 3.5 4 -7
v -3.5 6 -0
v -2.5 6 -0
v 2.5 6 -0
v 3.5 6 -0
v -3.5 6 -1
v -2.5 6 -1
v 2.5 6 -1
v 3.5 6 -1
v -3.5 4 2
v -2.5 4 2
v 2.5 4 2
v 3.5 4 2
v -4.5 4 1
v -3.5 4 1
v -2.5 4 1
v 2.5 4 1
v 3.5 4 1
v 4.5 4 1
v -5.5 4 -0
v -4.5 4 -0
v -3.5 4 -0
v -2.5 4 -0
v 3.5 4 -0
v 4.5 4 -0
v 5.5 4 -0
v -5.5 4 -1
v -4.5 4 -1
v -3.5 4 -1
v -2.5 4 -1
v 4.5 4 -1
v 5.5 4 -1
v 2.5 5 -0
v 3.5 5 -0
v -5.5 5 -1
v -4.5 5 -1
v 2.5 5 -1
v 3.5 5 -1
v 4.5 5 -1
v 5.5 5 -1
v -5.5 5 -4
v -4.5 5 -4
v 4.5 5 -4
v 5.5 5 -4
v -2.5 6 7
v 2.5 6 7
v -2.5 6 6
v 2.5 6 6
v -0.5 6 2
v 0.5 6 2
v -1.5 6 1
v -0.5 6 1
v 0.5 6 1
v 1.5 6 1
v -2.5 6 -0
v -1.5 6 -0
v 1.5 6 -0
v 2.5 6 -0
v -3.5 6 -6
v -2.5 6 -6
v 2.5 6 -6
v 3.5 6 -6
v -3.5 6 -7
v -2.5 6 -7
v 2.5 6 -7
v 3.5 6 -7
v -3.5 7 -0
v -2.5 7 -0
v -1.5 7 -0
v 0.5 7 -0
v 1.5 7 -0
v 2.5 7 -0
v 3.5 7 -0
v -3.5 7 -1
v -2.5 7 -1
v 1.5 7 -1
v 2.5 7 -1
v 3.5 7 -1
v -1.5 7 -3
v -0.5 7 -3
v -0.5 7 -4
v 0.5 7 -4
v -3.5 7 -5
v 3.5 7 -5
v -3.5 7 -6
v -2.5 7 -6
v 2.5 7 -6
v 3.5 7 -6
v -2.5 7 -7
v 2.5 7 -7
v -2.5 8 -0
v -1.5 8 -0
v 0.5 8 -0
v 1.5 8 -0
v -3.5 8 -1
v -2.5 8 -1
v 1.5 8 -1
v 3.5 8 -1
v -1.5 8 -3
v -0.5 8 -3
v -3.5 8 -4
v -0.5 8 -4
v 0.5 8 -4
v 3.5 8 -4
v -3.5 9 -4
v 3.5 9 -4
v -3.5 9 -5
v 3.5 9 -5

# faces
f 3/1/1 2/1/1 1/1/1
f 4/1/1 2/1/1 3/1/1
f 6/1/1 5/1/1 4/1/1
f 7/1/1 5/1/1 6/1/1
f 10/1/1 9/1/1 8/1/1
f 11/1/1 9/1/1 10/1/1
f 17/3/1 13/3/1 12/3/1
f 18/3/1 13/3/1 17/3/1
f 19/5/1 15/5/1 14/5/1
f 20/5/1 15/5/1 19/5/1
f 21/4/1 16/4/1 15/4/1
f 24/5/1 15/5/1 20/5/1
f 25/4/1 21/4/1 15/4/1
f 25/4/1 22/4/1 21/4/1
f 26/4/1 22/4/1 25/4/1
f 27/5/1 24/5/1 23/5/1
f 28/5/1 15/5/1 24/5/1
f 28/5/1 24/5/1 27/5/1
f 29/4/1 25/4/1 15/4/1
f 30/4/1 25/4/1 29/4/1
f 31/5/1 15/5/1 28/5/1
f 32/4/1 29/4/1 15/4/1
f 32/5/1 15/5/1 31/5/1
f 33/4/1 29/4/1 32/4/1
f 34/4/1 29/4/1 33/4/1
f 37/1/1 36/1/1 35/1/1
f 38/1/1 36/1/1 37/1/1
f 39/2/1 38/2/1 37/2/1
f 45/2/1 39/2/1 37/2/1
f 45/2/1 40/2/1 39/2/1
f 46/2/1 40/2/1 45/2/1
f 48/5/1 42/5/1 41/5/1
f 49/5/1 42/5/1 48/5/1
f 51/4/1 44/4/1 43/4/1
f 52/4/1 44/4/1 51/4/1
f 53/2/1 45/2/1 37/2/1
f 54/3/1 47/3/1 46/3/1
f 54/2/1 45/2/1 53/2/1
f 54/3/1 46/3/1 45/3/1
f 54/3/1 48/3/1 47/3/1
f 54/3/1 49/3/1 48/3/1
f 55/1/1 50/1/1 49/1/1
f 55/3/1 49/3/1 54/3/1
f 56/1/1 50/1/1 55/1/1
f 61/4/1 58/4/1 57/4/1
f 62/4/1 58/4/1 61/4/1
f 63/5/1 60/5/1 59/5/1
f 64/5/1 60/5/1 63/5/1
f 67/5/1 66/5/1 65/5/1
f 68/5/1 66/5/1 67/5/1
f 71/5/1 70/5/1 69/5/1
f 72/5/1 70/5/1 71/5/1
f 75/1/1 74/1/1 73/1/1
f 76/1/1 74/1/1 75/1/1
f 77/2/1 76/2/1 75/2/1
f 78/2/1 76/2/1 77/2/1
f 81/3/1 80/3/1 79/3/1
f 82/3/1 80/3/1 81/3/1
f 83/3/1 80/3/1 82/3/1
f 86/5/1 85/5/1 84/5/1
f 87/5/1 85/5/1 86/5/1
f 90/1/1 89/1/1 88/1/1
f 91/1/1 89/1/1 90/1/1
f 94/1/1 93/1/1 92/1/1
f 95/1/1 93/1/1 94/1/1
f 97/1/1 96/1/1 95/1/1
f 98/1/1 96/1/1 97/1/1
f 99/1/2 100/1/2 101/1/2
f 101/1/2 100/1/2 102/1/2
f 102/1/2 103/1/2 104/1/2
f 104/1/2 103/1/2 105/1/2
f 106/1/2 107/1/2 108/1/2
f 108/1/2 107/1/2 109/1/2
f 110/1/2 111/1/2 112/1/2
f 112/1/2 111/1/2 113/1/2
f 112/2/2 113/2/2 114/2/2
f 114/2/2 113/2/2 115/2/2
f 116/3/2 117/3/2 119/3/2
f 117/5/2 118/5/2 120/5/2
f 119/3/2 117/3/2 120/3/2
f 120/5/2 118/5/2 121/5/2
f 122/5/2 123/5/2 124/5/2
f 124/5/2 123/5/2 125/5/2
f 126/5/2 127/5/2 128/5/2
f 128/5/2 127/5/2 129/5/2
f 130/5/2 131/5/2 132/5/2
f 132/5/2 131/5/2 133/5/2
f 134/5/2 135/5/2 136/5/2
f 136/5/2 135/5/2 137/5/2
f 138/5/2 139/5/2 140/5/2
f 140/5/2 139/5/2 141/5/2
f 142/1/2 143/1/2 144/1/2
f 144/1/2 143/1/2 145/1/2
f 144/2/2 145/2/2 146/2/2
f 144/2/2 146/2/2 154/2/2
f 146/2/2 147/2/2 154/2/2
f 154/2/2 147/2/2 155/2/2
f 148/3/2 149/3/2 156/3/2
f 156/3/2 149/3/2 157/3/2
f 150/3/2 151/3/2 158/3/2
f 152/4/2 153/4/2 159/4/2
f 159/4/2 153/4/2 160/4/2
f 157/3/2 158/3/2 161/3/2
f 156/3/2 157/3/2 161/3/2
f 154/3/2 155/3/2 161/3/2
f 158/3/2 151/3/2 161/3/2
f 155/3/2 156/3/2 161/3/2
f 144/2/2 154/2/2 163/2/2
f 154/3/2 161/3/2 164/3/2
f 163/2/2 154/2/2 164/2/2
f 161/1/2 162/1/2 165/1/2
f 164/3/2 161/3/2 165/3/2
f 165/1/2 162/1/2 166/1/2
f 167/4/2 168/4/2 169/4/2
f 169/4/2 168/4/2 170/4/2
f 171/3/2 172/3/2 176/3/2
f 176/3/2 172/3/2 177/3/2
f 173/5/2 174/5/2 178/5/2
f 174/4/2 175/4/2 179/4/2
f 178/5/2 174/5/2 181/5/2
f 181/5/2 174/5/2 182/5/2
f 182/5/2 174/5/2 184/5/2
f 179/4/2 180/4/2 185/4/2
f 174/4/2 179/4/2 185/4/2
f 185/4/2 180/4/2 186/4/2
f 183/5/2 184/5/2 187/5/2
f 184/5/2 174/5/2 188/5/2
f 187/5/2 184/5/2 188/5/2
f 174/4/2 185/4/2 189/4/2
f 189/4/2 185/4/2 190/4/2
f 188/5/2 174/5/2 191/5/2
f 174/4/2 189/4/2 192/4/2
f 191/5/2 174/5/2 192/5/2
f 192/4/2 189/4/2 193/4/2
f 193/4/2 189/4/2 194/4/2
f 195/1/2 196/1/2 197/1/2
f 197/1/2 196/1/2 198/1/2
f 199/1/2 200/1/2 201/1/2
f 201/1/2 200/1/2 202/1/2
f 202/1/2 203/1/2 204/1/2
f 204/1/2 203/1/2 205/1/2
f 209/1/3 207/1/3 206/1/3
f 210/2/3 208/2/3 207/2/3
f 210/1/3 207/1/3 209/1/3
f 211/2/3 208/2/3 210/2/3
f 214/2/3 208/2/3 211/2/3
f 215/1/3 213/1/3 212/1/3
f 216/2/3 214/2/3 213/2/3
f 216/1/3 213/1/3 215/1/3
f 217/2/3 208/2/3 214/2/3
f 217/2/3 214/2/3 216/2/3
f 220/3/3 219/3/3 218/3/3
f 221/3/3 219/3/3 220/3/3
f 224/3/3 223/3/3 222/3/3
f 225/3/3 224/3/3 222/3/3
f 226/3/3 224/3/3 225/3/3
f 229/3/3 228/3/3 227/3/3
f 230/3/3 228/3/3 229/3/3
f 233/1/3 232/1/3 231/1/3
f 234/1/3 232/1/3 233/1/3
f 237/5/3 236/5/3 235/5/3
f 238/5/3 236/5/3 237/5/3
f 241/1/3 240/1/3 239/1/3
f 242/1/3 240/1/3 241/1/3
f 245/1/3 244/1/3 243/1/3
f 246/1/3 244/1/3 245/1/3
f 251/5/3 248/5/3 247/5/3
f 252/5/3 248/5/3 251/5/3
f 253/5/3 250/5/3 249/5/3
f 254/5/3 250/5/3 253/5/3
f 256/1/3 254/1/3 253/1/3
f 257/5/3 255/5/3 254/5/3
f 257/1/3 254/1/3 256/1/3
f 258/5/3 255/5/3 257/5/3
f 261/1/3 257/1/3 256/1/3
f 263/5/3 260/5/3 259/5/3
f 264/5/3 260/5/3 263/5/3
f 265/1/3 261/1/3 256/1/3
f 266/5/3 262/5/3 261/5/3
f 266/1/3 261/1/3 265/1/3
f 267/5/3 262/5/3 266/5/3
f 270/1/3 266/1/3 265/1/3
f 271/1/3 266/1/3 270/1/3
f 272/5/3 269/5/3 268/5/3
f 273/5/3 269/5/3 272/5/3
f 274/5/3 269/5/3 273/5/3
f 275/5/3 271/5/3 270/5/3
f 276/5/3 271/5/3 275/5/3
f 279/1/3 278/1/3 277/1/3
f 280/1/3 278/1/3 279/1/3
f 283/1/3 282/1/3 281/1/3
f 284/1/3 282/1/3 283/1/3
f 289/5/3 286/5/3 285/5/3
f 290/5/3 286/5/3 289/5/3
f 291/5/3 288/5/3 287/5/3
f 292/5/3 288/5/3 291/5/3
f 295/5/3 294/5/3 293/5/3
f 296/5/3 294/5/3 295/5/3
f 301/5/3 298/5/3 297/5/3
f 302/5/3 298/5/3 301/5/3
f 305/5/3 300/5/3 299/5/3
f 306/5/3 304/5/3 303/5/3
f 307/5/3 304/5/3 306/5/3
f 308/5/3 300/5/3 305/5/3
f 309/5/3 300/5/3 308/5/3
f 312/1/3 311/1/3 310/1/3
f 313/1/3 311/1/3 312/1/3
f 316/5/3 315/5/3 314/5/3
f 317/5/3 315/5/3 316/5/3
f 321/4/3 319/4/3 318/4/3
f 322/4/3 321/4/3 320/4/3
f 323/4/3 319/4/3 321/4/3
f 323/4/3 321/4/3 322/4/3
f 324/4/3 319/4/3 323/4/3
f 325/4/3 319/4/3 324/4/3
f 326/1/4 327/1/4 329/1/4
f 327/2/4 328/2/4 330/2/4
f 329/1/4 327/1/4 330/1/4
f 330/2/4 328/2/4 331/2/4
f 332/1/4 333/1/4 335/1/4
f 333/2/4 334/2/4 336/2/4
f 335/1/4 333/1/4 336/1/4
f 336/2/4 334/2/4 337/2/4
f 338/2/4 339/2/4 340/2/4
f 340/2/4 339/2/4 341/2/4
f 342/3/4 343/3/4 344/3/4
f 344/3/4 343/3/4 345/3/4
f 346/3/4 347/3/4 348/3/4
f 348/3/4 347/3/4 349/3/4
f 350/1/4 351/1/4 352/1/4
f 352/1/4 351/1/4 353/1/4
f 354/3/4 355/3/4 356/3/4
f 356/3/4 355/3/4 357/3/4
f 358/1/4 359/1/4 360/1/4
f 360/1/4 359/1/4 361/1/4
f 362/1/4 363/1/4 364/1/4
f 364/1/4 363/1/4 365/1/4
f 366/1/4 367/1/4 368/1/4
f 368/1/4 367/1/4 369/1/4
f 370/1/4 371/1/4 372/1/4
f 372/1/4 371/1/4 373/1/4
f 374/1/4 375/1/4 376/1/4
f 376/1/4 375/1/4 377/1/4
f 378/4/4 379/4/4 380/4/4
f 380/4/4 379/4/4 381/4/4
f 382/4/4 383/4/4 386/4/4
f 386/4/4 383/4/4 387/4/4
f 384/4/4 385/4/4 388/4/4
f 388/4/4 385/4/4 389/4/4
f 390/4/4 391/4/4 394/4/4
f 394/4/4 391/4/4 395/4/4
f 392/4/4 393/4/4 396/4/4
f 396/4/4 393/4/4 397/4/4
f 398/4/4 399/4/4 401/4/4
f 401/4/4 399/4/4 402/4/4
f 400/4/4 401/4/4 404/4/4
f 402/4/4 403/4/4 404/4/4
f 401/4/4 402/4/4 404/4/4
f 404/4/4 403/4/4 405/4/4
f 405/4/4 403/4/4 406/4/4
f 406/4/4 403/4/4 407/4/4
f 405/4/4 406/4/4 408/4/4
f 408/4/4 406/4/4 409/4/4
f 414/1/5 411/1/5 410/1/5
f 415/1/5 411/1/5 414/1/5
f 416/1/5 413/1/5 412/1/5
f 417/1/5 413/1/5 416/1/5
f 421/2/5 419/2/5 418/2/5
f 422/2/5 419/2/5 421/2/5
f 424/2/5 421/2/5 420/2/5
f 424/2/5 423/2/5 422/2/5
f 424/2/5 422/2/5 421/2/5
f 425/2/5 423/2/5 424/2/5
f 430/3/5 427/3/5 426/3/5
f 433/3/5 429/3/5 428/3/5
f 434/3/5 429/3/5 433/3/5
f 435/3/5 429/3/5 434/3/5
f 438/3/5 430/3/5 426/3/5
f 438/3/5 431/3/5 430/3/5
f 439/3/5 431/3/5 438/3/5
f 442/1/5 433/1/5 432/1/5
f 443/1/5 433/1/5 442/1/5
f 444/5/5 435/5/5 434/5/5
f 445/5/5 437/5/5 436/5/5
f 446/3/5 438/3/5 426/3/5
f 447/3/5 438/3/5 446/3/5
f 448/1/5 440/1/5 439/1/5
f 449/1/5 440/1/5 448/1/5
f 451/1/5 442/1/5 441/1/5
f 452/1/5 442/1/5 451/1/5
f 453/5/5 444/5/5 443/5/5
f 453/5/5 435/5/5 444/5/5
f 454/5/5 445/5/5 436/5/5
f 454/5/5 446/5/5 445/5/5
f 455/5/5 446/5/5 454/5/5
f 456/5/5 448/5/5 447/5/5
f 457/1/5 450/1/5 449/1/5
f 458/1/5 450/1/5 457/1/5
f 459/5/5 456/5/5 455/5/5
f 459/5/5 453/5/5 443/5/5
f 459/5/5 455/5/5 454/5/5
f 459/5/5 454/5/5 453/5/5
f 460/5/5 448/5/5 456/5/5
f 460/5/5 456/5/5 459/5/5
f 461/4/5 460/4/5 459/4/5
f 462/4/5 460/4/5 461/4/5
f 463/4/5 460/4/5 462/4/5
f 464/4/5 460/4/5 463/4/5
f 465/4/5 463/4/5 462/4/5
f 466/4/5 463/4/5 465/4/5
f 469/3/5 468/3/5 467/3/5
f 470/3/5 468/3/5 469/3/5
f 471/3/5 469/3/5 467/3/5
f 472/3/5 469/3/5 471/3/5
f 473/3/5 469/3/5 472/3/5
f 474/3/5 469/3/5 473/3/5
f 475/3/5 473/3/5 472/3/5
f 476/1/5 474/1/5 473/1/5
f 476/3/5 473/3/5 475/3/5
f 477/3/5 469/3/5 474/3/5
f 477/1/5 474/1/5 476/1/5
f 478/3/5 469/3/5 477/3/5
f 479/1/5 478/1/5 477/1/5
f 480/1/5 478/1/5 479/1/5
f 484/1/5 476/1/5 475/1/5
f 485/1/5 476/1/5 484/1/5
f 486/1/5 481/1/5 480/1/5
f 487/1/5 481/1/5 486/1/5
f 490/1/5 483/1/5 482/1/5
f 491/1/5 483/1/5 490/1/5
f 492/1/5 489/1/5 488/1/5
f 493/1/5 489/1/5 492/1/5
f 498/4/5 495/4/5 494/4/5
f 499/4/5 495/4/5 498/4/5
f 500/4/5 497/4/5 496/4/5
f 501/4/5 497/4/5 500/4/5
f 506/5/5 503/5/5 502/5/5
f 507/5/5 503/5/5 506/5/5
f 508/5/5 505/5/5 504/5/5
f 509/5/5 505/5/5 508/5/5
f 510/3/6 511/3/6 515/3/6
f 515/3/6 511/3/6 516/3/6
f 512/3/6 513/3/6 517/3/6
f 517/3/6 513/3/6 518/3/6
f 514/1/6 515/1/6 521/1/6
f 521/1/6 515/1/6 522/1/6
f 518/1/6 519/1/6 524/1/6
f 524/1/6 519/1/6 525/1/6
f 520/1/6 521/1/6 527/1/6
f 527/1/6 521/1/6 528/1/6
f 522/5/6 523/5/6 529/5/6
f 529/5/6 523/5/6 530/5/6
f 525/1/6 526/1/6 531/1/6
f 531/1/6 526/1/6 532/1/6
f 533/5/6 534/5/6 537/5/6
f 537/5/6 534/5/6 538/5/6
f 535/1/6 536/1/6 541/1/6
f 541/1/6 536/1/6 542/1/6
f 539/1/6 540/1/6 543/1/6
f 543/1/6 540/1/6 544/1/6
f 545/2/6 546/2/6 547/2/6
f 547/2/6 546/2/6 548/2/6
f 547/3/6 548/3/6 549/3/6
f 549/3/6 548/3/6 550/3/6
f 547/3/6 549/3/6 551/3/6
f 549/1/6 550/1/6 552/1/6
f 551/3/6 549/3/6 552/3/6
f 550/3/6 548/3/6 553/3/6
f 552/1/6 550/1/6 553/1/6
f 553/3/6 548/3/6 554/3/6
f 547/3/6 551/3/6 555/3/6
f 551/1/6 552/1/6 556/1/6
f 555/3/6 551/3/6 556/3/6
f 552/1/6 553/1/6 556/1/6
f 553/1/6 554/1/6 556/1/6
f 554/3/6 548/3/6 557/3/6
f 556/1/6 554/1/6 557/1/6
f 557/3/6 548/3/6 558/3/6
f 559/4/6 560/4/6 563/4/6
f 563/4/6 560/4/6 564/4/6
f 561/4/6 562/4/6 565/4/6
f 565/4/6 562/4/6 566/4/6
f 567/5/6 568/5/6 574/5/6
f 574/5/6 568/5/6 575/5/6
f 571/1/6 572/1/6 576/1/6
f 572/5/6 573/5/6 577/5/6
f 576/1/6 572/1/6 577/1/6
f 577/5/6 573/5/6 578/5/6
f 569/1/6 570/1/6 579/1/6
f 579/1/6 570/1/6 580/1/6
f 580/1/6 570/1/6 581/1/6
f 581/1/6 570/1/6 582/1/6
f 583/4/6 584/4/6 585/4/6
f 585/4/6 584/4/6 586/4/6
f 586/4/6 584/4/6 587/4/6
f 587/4/6 584/4/6 588/4/6
f 586/4/6 587/4/6 589/4/6
f 589/4/6 587/4/6 590/4/6
f 591/5/6 592/5/6 596/5/6
f 593/5/6 594/5/6 597/5/6
f 595/5/6 596/5/6 599/5/6
f 596/5/6 592/5/6 599/5/6
f 595/5/6 599/5/6 601/5/6
f 599/5/6 600/5/6 601/5/6
f 601/5/6 600/5/6 602/5/6
f 597/5/6 598/5/6 603/5/6
f 593/5/6 597/5/6 603/5/6
f 603/5/6 598/5/6 604/5/6
f 605/4/6 606/4/6 607/4/6
f 607/4/6 606/4/6 608/4/6
