# MagicaVoxel @ Ephtracy

# material
mtllib Roll-08.mtl
usemtl palette

# normals
vn -1 0 0
vn 1 0 0
vn 0 0 1
vn 0 0 -1
vn 0 -1 0
vn 0 1 0

# texcoords
vt 0.970703 0.5
vt 0.974609 0.5
vt 0.978516 0.5
vt 0.982422 0.5
vt 0.986328 0.5

# verts
v -5.5 7 -3
v -5.5 7 -4
v -5.5 8 -3
v -5.5 8 -4
v -5.5 8 -7
v -5.5 9 -4
v -5.5 9 -7
v -4.5 7 -2
v -4.5 7 -3
v -4.5 8 -2
v -4.5 8 -3
v -3.5 0 -1
v -3.5 0 -3
v -3.5 1 -0
v -3.5 1 -1
v -3.5 1 -3
v -3.5 1 -4
v -3.5 2 -4
v -3.5 2 -6
v -3.5 3 -0
v -3.5 3 -5
v -3.5 3 -6
v -3.5 6 -1
v -3.5 6 -3
v -3.5 6 -4
v -3.5 6 -5
v -3.5 7 -0
v -3.5 7 -1
v -3.5 7 -2
v -3.5 7 -3
v -3.5 7 -4
v -3.5 8 -1
v -3.5 8 -2
v -2.5 0 -0
v -2.5 0 -1
v -2.5 0 -3
v -2.5 0 -4
v -2.5 1 -0
v -2.5 1 -1
v -2.5 1 -3
v -2.5 1 -4
v -2.5 6 -1
v -2.5 6 -3
v -2.5 6 -4
v -2.5 6 -5
v -2.5 7 -0
v -2.5 7 -1
v -2.5 7 -2
v -2.5 7 -3
v -2.5 7 -4
v -2.5 7 -5
v -2.5 8 3
v -2.5 8 -0
v -2.5 8 -1
v -2.5 8 -2
v -2.5 9 4
v -2.5 9 3
v -2.5 10 7
v -2.5 10 5
v -2.5 10 4
v -2.5 10 3
v -2.5 10 1
v -2.5 10 -3
v -2.5 11 7
v -2.5 11 5
v -2.5 11 1
v -0.5 6 -0
v -0.5 6 -1
v -0.5 8 -0
v -0.5 8 -1
v 0.5 3 -4
v 0.5 3 -5
v 0.5 7 -4
v 0.5 7 -5
v 1.5 7 -0
v 1.5 7 -1
v 1.5 8 -0
v 1.5 8 -1
v 1.5 10 7
v 1.5 10 5
v 1.5 10 4
v 1.5 11 7
v 1.5 11 5
v 1.5 11 4
v 2.5 6 -0
v 2.5 6 -1
v 2.5 7 -0
v 2.5 7 -1
v 3.5 7 -2
v 3.5 7 -3
v 3.5 8 -2
v 3.5 8 -3
v 4.5 7 -3
v 4.5 7 -4
v 4.5 8 -3
v 4.5 8 -4
v 4.5 8 -7
v 4.5 9 -4
v 4.5 9 -7
v -4.5 7 -3
v -4.5 7 -4
v -4.5 8 -3
v -4.5 8 -4
v -4.5 8 -7
v -4.5 9 -4
v -4.5 9 -7
v -3.5 7 -2
v -3.5 7 -3
v -3.5 8 -2
v -3.5 8 -3
v -1.5 4 -4
v -1.5 4 -5
v -1.5 6 -0
v -1.5 6 -1
v -1.5 7 -4
v -1.5 7 -5
v -1.5 8 -0
v -1.5 8 -1
v -1.5 10 7
v -1.5 10 5
v -1.5 10 4
v -1.5 11 7
v -1.5 11 5
v -1.5 11 4
v -0.5 3 -4
v -0.5 3 -5
v -0.5 4 -4
v -0.5 4 -5
v 0.5 7 -0
v 0.5 7 -1
v 0.5 8 -0
v 0.5 8 -1
v 1.5 6 -0
v 1.5 6 -1
v 1.5 6 -4
v 1.5 6 -5
v 1.5 7 -0
v 1.5 7 -1
v 1.5 7 -4
v 1.5 7 -5
v 2.5 0 -0
v 2.5 0 -1
v 2.5 0 -3
v 2.5 0 -4
v 2.5 1 -0
v 2.5 1 -1
v 2.5 1 -3
v 2.5 1 -4
v 2.5 6 -2
v 2.5 6 -3
v 2.5 7 -0
v 2.5 7 -1
v 2.5 7 -2
v 2.5 7 -3
v 2.5 8 3
v 2.5 8 -0
v 2.5 8 -1
v 2.5 8 -2
v 2.5 9 4
v 2.5 9 3
v 2.5 10 7
v 2.5 10 5
v 2.5 10 4
v 2.5 10 3
v 2.5 10 1
v 2.5 10 -3
v 2.5 11 7
v 2.5 11 5
v 2.5 11 1
v 3.5 0 -1
v 3.5 0 -3
v 3.5 1 -0
v 3.5 1 -1
v 3.5 1 -3
v 3.5 1 -4
v 3.5 2 -4
v 3.5 2 -6
v 3.5 3 -0
v 3.5 3 -5
v 3.5 3 -6
v 3.5 6 -2
v 3.5 6 -3
v 3.5 6 -4
v 3.5 6 -5
v 3.5 7 -0
v 3.5 7 -1
v 3.5 7 -2
v 3.5 7 -3
v 3.5 7 -4
v 3.5 8 -1
v 3.5 8 -2
v 4.5 7 -2
v 4.5 7 -3
v 4.5 8 -2
v 4.5 8 -3
v 5.5 7 -3
v 5.5 7 -4
v 5.5 8 -3
v 5.5 8 -4
v 5.5 8 -7
v 5.5 9 -4
v 5.5 9 -7
v -2.5 10 7
v -2.5 11 7
v -1.5 10 7
v -1.5 11 7
v 1.5 10 7
v 1.5 11 7
v 2.5 10 7
v 2.5 11 7
v -2.5 9 4
v -2.5 10 4
v -1.5 10 4
v -1.5 11 4
v 1.5 10 4
v 1.5 11 4
v 2.5 9 4
v 2.5 10 4
v -2.5 8 3
v -2.5 9 3
v 2.5 8 3
v 2.5 9 3
v -3.5 1 -0
v -3.5 3 -0
v -3.5 7 -0
v -2.5 0 -0
v -2.5 1 -0
v -2.5 7 -0
v -2.5 8 -0
v -1.5 6 -0
v -1.5 8 -0
v -0.5 6 -0
v -0.5 8 -0
v 0.5 7 -0
v 0.5 8 -0
v 1.5 6 -0
v 1.5 7 -0
v 1.5 8 -0
v 2.5 0 -0
v 2.5 1 -0
v 2.5 6 -0
v 2.5 7 -0
v 2.5 8 -0
v 3.5 1 -0
v 3.5 3 -0
v 3.5 7 -0
v -3.5 0 -1
v -3.5 1 -1
v -3.5 7 -1
v -3.5 8 -1
v -2.5 0 -1
v -2.5 1 -1
v -2.5 7 -1
v -2.5 8 -1
v -1.5 6 -1
v -1.5 8 -1
v -0.5 6 -1
v -0.5 8 -1
v 0.5 7 -1
v 0.5 8 -1
v 1.5 6 -1
v 1.5 7 -1
v 1.5 8 -1
v 2.5 0 -1
v 2.5 1 -1
v 2.5 6 -1
v 2.5 7 -1
v 2.5 8 -1
v 3.5 0 -1
v 3.5 1 -1
v 3.5 7 -1
v 3.5 8 -1
v -4.5 7 -2
v -4.5 8 -2
v -3.5 7 -2
v -3.5 8 -2
v 3.5 7 -2
v 3.5 8 -2
v 4.5 7 -2
v 4.5 8 -2
v -5.5 7 -3
v -5.5 8 -3
v -4.5 7 -3
v -4.5 8 -3
v -3.5 6 -3
v -3.5 7 -3
v -2.5 6 -3
v -2.5 7 -3
v 2.5 6 -3
v 2.5 7 -3
v 3.5 6 -3
v 3.5 7 -3
v 4.5 7 -3
v 4.5 8 -3
v 5.5 7 -3
v 5.5 8 -3
v -5.5 8 -4
v -5.5 9 -4
v -4.5 8 -4
v -4.5 9 -4
v 4.5 8 -4
v 4.5 9 -4
v 5.5 8 -4
v 5.5 9 -4
v -2.5 10 1
v -2.5 11 1
v 2.5 10 1
v 2.5 11 1
v -3.5 6 -1
v -3.5 7 -1
v -2.5 6 -1
v -2.5 7 -1
v -3.5 7 -2
v -3.5 8 -2
v -2.5 7 -2
v -2.5 8 -2
v 2.5 6 -2
v 2.5 7 -2
v 2.5 8 -2
v 3.5 6 -2
v 3.5 7 -2
v 3.5 8 -2
v -4.5 7 -3
v -4.5 8 -3
v -3.5 0 -3
v -3.5 1 -3
v -3.5 7 -3
v -3.5 8 -3
v -2.5 0 -3
v -2.5 1 -3
v -2.5 7 -3
v -2.5 10 -3
v -1.5 7 -3
v -1.5 8 -3
v -0.5 8 -3
v -0.5 9 -3
v 0.5 8 -3
v 0.5 9 -3
v 1.5 7 -3
v 1.5 8 -3
v 2.5 0 -3
v 2.5 1 -3
v 2.5 7 -3
v 2.5 10 -3
v 3.5 0 -3
v 3.5 1 -3
v 3.5 7 -3
v 3.5 8 -3
v 4.5 7 -3
v 4.5 8 -3
v -5.5 7 -4
v -5.5 8 -4
v -4.5 7 -4
v -4.5 8 -4
v -3.5 1 -4
v -3.5 2 -4
v -3.5 6 -4
v -3.5 7 -4
v -2.5 0 -4
v -2.5 1 -4
v -2.5 6 -4
v -2.5 7 -4
v -1.5 4 -4
v -1.5 7 -4
v -0.5 3 -4
v -0.5 4 -4
v 0.5 3 -4
v 0.5 7 -4
v 1.5 6 -4
v 1.5 7 -4
v 2.5 0 -4
v 2.5 1 -4
v 2.5 6 -4
v 2.5 7 -4
v 3.5 1 -4
v 3.5 2 -4
v 3.5 6 -4
v 3.5 7 -4
v 4.5 7 -4
v 4.5 8 -4
v 5.5 7 -4
v 5.5 8 -4
v -3.5 3 -5
v -3.5 6 -5
v -2.5 6 -5
v -2.5 7 -5
v -1.5 4 -5
v -1.5 7 -5
v -0.5 3 -5
v -0.5 4 -5
v 0.5 3 -5
v 0.5 7 -5
v 1.5 6 -5
v 1.5 7 -5
v 3.5 3 -5
v 3.5 6 -5
v -3.5 2 -6
v -3.5 3 -6
v 3.5 2 -6
v 3.5 3 -6
v -5.5 8 -7
v -5.5 9 -7
v -4.5 8 -7
v -4.5 9 -7
v 4.5 8 -7
v 4.5 9 -7
v 5.5 8 -7
v 5.5 9 -7
v -2.5 0 -0
v 2.5 0 -0
v -3.5 0 -1
v -2.5 0 -1
v 2.5 0 -1
v 3.5 0 -1
v -3.5 0 -3
v -2.5 0 -3
v 2.5 0 -3
v 3.5 0 -3
v -2.5 0 -4
v 2.5 0 -4
v -3.5 1 -0
v -2.5 1 -0
v 2.5 1 -0
v 3.5 1 -0
v -3.5 1 -1
v -2.5 1 -1
v 2.5 1 -1
v 3.5 1 -1
v -3.5 1 -3
v -2.5 1 -3
v 2.5 1 -3
v 3.5 1 -3
v -3.5 1 -4
v -2.5 1 -4
v 2.5 1 -4
v 3.5 1 -4
v -3.5 2 -4
v 3.5 2 -4
v -3.5 2 -6
v 3.5 2 -6
v 1.5 7 -0
v 2.5 7 -0
v -3.5 7 -1
v -2.5 7 -1
v 1.5 7 -1
v 2.5 7 -1
v -4.5 7 -2
v -3.5 7 -2
v -2.5 7 -2
v 3.5 7 -2
v 4.5 7 -2
v -5.5 7 -3
v -4.5 7 -3
v -3.5 7 -3
v 3.5 7 -3
v 4.5 7 -3
v 5.5 7 -3
v -5.5 7 -4
v -4.5 7 -4
v 4.5 7 -4
v 5.5 7 -4
v -2.5 8 3
v 2.5 8 3
v -2.5 8 -0
v -1.5 8 -0
v -0.5 8 -0
v 0.5 8 -0
v 1.5 8 -0
v 2.5 8 -0
v -1.5 8 -1
v -0.5 8 -1
v 0.5 8 -1
v 1.5 8 -1
v -5.5 8 -4
v -4.5 8 -4
v 4.5 8 -4
v 5.5 8 -4
v -5.5 8 -7
v -4.5 8 -7
v 4.5 8 -7
v 5.5 8 -7
v -2.5 9 4
v 2.5 9 4
v -2.5 9 3
v 2.5 9 3
v -2.5 10 7
v -1.5 10 7
v 1.5 10 7
v 2.5 10 7
v -2.5 10 5
v -1.5 10 5
v 1.5 10 5
v 2.5 10 5
v -2.5 10 4
v -1.5 10 4
v 1.5 10 4
v 2.5 10 4
v -0.5 3 -4
v 0.5 3 -4
v -3.5 3 -5
v -0.5 3 -5
v 0.5 3 -5
v 3.5 3 -5
v -3.5 3 -6
v 3.5 3 -6
v -1.5 4 -4
v -0.5 4 -4
v -1.5 4 -5
v -0.5 4 -5
v -1.5 6 -0
v -0.5 6 -0
v 1.5 6 -0
v 2.5 6 -0
v -3.5 6 -1
v -2.5 6 -1
v -1.5 6 -1
v -0.5 6 -1
v 1.5 6 -1
v 2.5 6 -1
v 2.5 6 -2
v 3.5 6 -2
v -3.5 6 -3
v -2.5 6 -3
v 2.5 6 -3
v 3.5 6 -3
v -3.5 6 -4
v -2.5 6 -4
v 1.5 6 -4
v 2.5 6 -4
v 3.5 6 -4
v -3.5 6 -5
v -2.5 6 -5
v 1.5 6 -5
v 3.5 6 -5
v -3.5 7 -0
v -2.5 7 -0
v 0.5 7 -0
v 1.5 7 -0
v 2.5 7 -0
v 3.5 7 -0
v -3.5 7 -1
v -2.5 7 -1
v 0.5 7 -1
v 1.5 7 -1
v 2.5 7 -1
v 3.5 7 -1
v -3.5 7 -3
v -2.5 7 -3
v -1.5 7 -3
v 1.5 7 -3
v 2.5 7 -3
v 3.5 7 -3
v -3.5 7 -4
v -2.5 7 -4
v -1.5 7 -4
v 0.5 7 -4
v 1.5 7 -4
v 2.5 7 -4
v 3.5 7 -4
v -2.5 7 -5
v -1.5 7 -5
v 0.5 7 -5
v 1.5 7 -5
v -3.5 8 -1
v -2.5 8 -1
v 2.5 8 -1
v 3.5 8 -1
v -4.5 8 -2
v -3.5 8 -2
v -2.5 8 -2
v 2.5 8 -2
v 3.5 8 -2
v 4.5 8 -2
v -5.5 8 -3
v -4.5 8 -3
v -3.5 8 -3
v 3.5 8 -3
v 4.5 8 -3
v 5.5 8 -3
v -5.5 8 -4
v -4.5 8 -4
v 4.5 8 -4
v 5.5 8 -4
v -5.5 9 -4
v -4.5 9 -4
v 4.5 9 -4
v 5.5 9 -4
v -5.5 9 -7
v -4.5 9 -7
v 4.5 9 -7
v 5.5 9 -7
v -2.5 10 1
v 2.5 10 1
v -2.5 10 -3
v 2.5 10 -3
v -2.5 11 7
v -1.5 11 7
v 1.5 11 7
v 2.5 11 7
v -2.5 11 5
v -1.5 11 5
v 1.5 11 5
v 2.5 11 5
v -1.5 11 4
v 1.5 11 4
v -2.5 11 1
v 2.5 11 1

# faces
f 3/1/1 2/1/1 1/1/1
f 4/1/1 2/1/1 3/1/1
f 6/1/1 5/1/1 4/1/1
f 7/1/1 5/1/1 6/1/1
f 10/1/1 9/1/1 8/1/1
f 11/1/1 9/1/1 10/1/1
f 15/4/1 13/4/1 12/4/1
f 16/4/1 13/4/1 15/4/1
f 18/4/1 15/4/1 14/4/1
f 18/4/1 17/4/1 16/4/1
f 18/4/1 16/4/1 15/4/1
f 20/4/1 18/4/1 14/4/1
f 20/4/1 19/4/1 18/4/1
f 21/4/1 19/4/1 20/4/1
f 22/4/1 19/4/1 21/4/1
f 23/5/1 21/5/1 20/5/1
f 24/5/1 21/5/1 23/5/1
f 25/5/1 21/5/1 24/5/1
f 26/5/1 21/5/1 25/5/1
f 27/5/1 23/5/1 20/5/1
f 28/5/1 23/5/1 27/5/1
f 30/5/1 25/5/1 24/5/1
f 31/5/1 25/5/1 30/5/1
f 32/3/1 29/3/1 28/3/1
f 33/3/1 29/3/1 32/3/1
f 38/4/1 35/4/1 34/4/1
f 39/4/1 35/4/1 38/4/1
f 40/4/1 37/4/1 36/4/1
f 41/4/1 37/4/1 40/4/1
f 47/1/1 43/1/1 42/1/1
f 48/1/1 43/1/1 47/1/1
f 49/1/1 43/1/1 48/1/1
f 50/5/1 45/5/1 44/5/1
f 51/5/1 45/5/1 50/5/1
f 53/5/1 47/5/1 46/5/1
f 54/5/1 47/5/1 53/5/1
f 55/3/1 49/3/1 48/3/1
f 57/3/1 54/3/1 53/3/1
f 57/3/1 55/3/1 54/3/1
f 57/3/1 53/3/1 52/3/1
f 60/2/1 57/2/1 56/2/1
f 61/3/1 55/3/1 57/3/1
f 61/2/1 57/2/1 60/2/1
f 62/3/1 55/3/1 61/3/1
f 63/3/1 49/3/1 55/3/1
f 63/3/1 55/3/1 62/3/1
f 64/1/1 59/1/1 58/1/1
f 65/2/1 62/2/1 61/2/1
f 65/1/1 59/1/1 64/1/1
f 65/2/1 60/2/1 59/2/1
f 65/2/1 61/2/1 60/2/1
f 66/2/1 62/2/1 65/2/1
f 69/5/1 68/5/1 67/5/1
f 70/5/1 68/5/1 69/5/1
f 73/5/1 72/5/1 71/5/1
f 74/5/1 72/5/1 73/5/1
f 77/3/1 76/3/1 75/3/1
f 78/3/1 76/3/1 77/3/1
f 82/1/1 80/1/1 79/1/1
f 83/2/1 81/2/1 80/2/1
f 83/1/1 80/1/1 82/1/1
f 84/2/1 81/2/1 83/2/1
f 87/5/1 86/5/1 85/5/1
f 88/5/1 86/5/1 87/5/1
f 91/1/1 90/1/1 89/1/1
f 92/1/1 90/1/1 91/1/1
f 95/1/1 94/1/1 93/1/1
f 96/1/1 94/1/1 95/1/1
f 98/1/1 97/1/1 96/1/1
f 99/1/1 97/1/1 98/1/1
f 100/1/2 101/1/2 102/1/2
f 102/1/2 101/1/2 103/1/2
f 103/1/2 104/1/2 105/1/2
f 105/1/2 104/1/2 106/1/2
f 107/1/2 108/1/2 109/1/2
f 109/1/2 108/1/2 110/1/2
f 111/5/2 112/5/2 115/5/2
f 115/5/2 112/5/2 116/5/2
f 113/5/2 114/5/2 117/5/2
f 117/5/2 114/5/2 118/5/2
f 119/1/2 120/1/2 122/1/2
f 120/2/2 121/2/2 123/2/2
f 122/1/2 120/1/2 123/1/2
f 123/2/2 121/2/2 124/2/2
f 125/5/2 126/5/2 127/5/2
f 127/5/2 126/5/2 128/5/2
f 129/5/2 130/5/2 131/5/2
f 131/5/2 130/5/2 132/5/2
f 133/5/2 134/5/2 137/5/2
f 137/5/2 134/5/2 138/5/2
f 135/5/2 136/5/2 139/5/2
f 139/5/2 136/5/2 140/5/2
f 141/4/2 142/4/2 145/4/2
f 145/4/2 142/4/2 146/4/2
f 143/4/2 144/4/2 147/4/2
f 147/4/2 144/4/2 148/4/2
f 149/1/2 150/1/2 153/1/2
f 153/1/2 150/1/2 154/1/2
f 151/3/2 152/3/2 156/3/2
f 156/3/2 152/3/2 157/3/2
f 153/3/2 154/3/2 158/3/2
f 156/3/2 157/3/2 160/3/2
f 157/3/2 158/3/2 160/3/2
f 155/3/2 156/3/2 160/3/2
f 159/2/2 160/2/2 163/2/2
f 160/3/2 158/3/2 164/3/2
f 163/2/2 160/2/2 164/2/2
f 164/3/2 158/3/2 165/3/2
f 158/3/2 154/3/2 166/3/2
f 165/3/2 158/3/2 166/3/2
f 161/1/2 162/1/2 167/1/2
f 164/2/2 165/2/2 168/2/2
f 167/1/2 162/1/2 168/1/2
f 162/2/2 163/2/2 168/2/2
f 163/2/2 164/2/2 168/2/2
f 168/2/2 165/2/2 169/2/2
f 170/4/2 171/4/2 173/4/2
f 173/4/2 171/4/2 174/4/2
f 172/4/2 173/4/2 176/4/2
f 174/4/2 175/4/2 176/4/2
f 173/4/2 174/4/2 176/4/2
f 172/4/2 176/4/2 178/4/2
f 176/4/2 177/4/2 178/4/2
f 178/4/2 177/4/2 179/4/2
f 179/4/2 177/4/2 180/4/2
f 178/5/2 179/5/2 181/5/2
f 181/5/2 179/5/2 182/5/2
f 182/5/2 179/5/2 183/5/2
f 183/5/2 179/5/2 184/5/2
f 178/5/2 181/5/2 185/5/2
f 185/5/2 181/5/2 186/5/2
f 186/5/2 181/5/2 187/5/2
f 182/5/2 183/5/2 188/5/2
f 188/5/2 183/5/2 189/5/2
f 186/3/2 187/3/2 190/3/2
f 190/3/2 187/3/2 191/3/2
f 192/1/2 193/1/2 194/1/2
f 194/1/2 193/1/2 195/1/2
f 196/1/2 197/1/2 198/1/2
f 198/1/2 197/1/2 199/1/2
f 199/1/2 200/1/2 201/1/2
f 201/1/2 200/1/2 202/1/2
f 205/1/3 204/1/3 203/1/3
f 206/1/3 204/1/3 205/1/3
f 209/1/3 208/1/3 207/1/3
f 210/1/3 208/1/3 209/1/3
f 213/2/3 212/2/3 211/2/3
f 215/2/3 213/2/3 211/2/3
f 215/2/3 214/2/3 213/2/3
f 216/2/3 214/2/3 215/2/3
f 217/2/3 215/2/3 211/2/3
f 218/2/3 215/2/3 217/2/3
f 221/3/3 220/3/3 219/3/3
f 222/3/3 220/3/3 221/3/3
f 227/4/3 224/4/3 223/4/3
f 228/5/3 225/5/3 224/5/3
f 230/5/3 228/5/3 224/5/3
f 230/5/3 229/5/3 228/5/3
f 231/5/3 229/5/3 230/5/3
f 232/5/3 230/5/3 224/5/3
f 234/5/3 233/5/3 232/5/3
f 235/5/3 233/5/3 234/5/3
f 236/5/3 232/5/3 224/5/3
f 236/5/3 234/5/3 232/5/3
f 237/5/3 234/5/3 236/5/3
f 239/4/3 227/4/3 226/4/3
f 240/4/3 224/4/3 227/4/3
f 240/4/3 227/4/3 239/4/3
f 241/5/3 236/5/3 224/5/3
f 242/3/3 238/3/3 237/3/3
f 243/3/3 238/3/3 242/3/3
f 244/4/3 224/4/3 240/4/3
f 245/5/3 241/5/3 224/5/3
f 245/4/3 224/4/3 244/4/3
f 245/5/3 242/5/3 241/5/3
f 246/5/3 242/5/3 245/5/3
f 251/4/3 248/4/3 247/4/3
f 252/4/3 248/4/3 251/4/3
f 253/3/3 250/3/3 249/3/3
f 254/3/3 250/3/3 253/3/3
f 257/1/3 256/1/3 255/1/3
f 258/1/3 256/1/3 257/1/3
f 262/1/3 260/1/3 259/1/3
f 263/1/3 260/1/3 262/1/3
f 266/1/3 262/1/3 261/1/3
f 267/1/3 262/1/3 266/1/3
f 269/4/3 265/4/3 264/4/3
f 270/4/3 265/4/3 269/4/3
f 271/3/3 268/3/3 267/3/3
f 272/3/3 268/3/3 271/3/3
f 275/1/3 274/1/3 273/1/3
f 276/1/3 274/1/3 275/1/3
f 279/1/3 278/1/3 277/1/3
f 280/1/3 278/1/3 279/1/3
f 283/1/3 282/1/3 281/1/3
f 284/1/3 282/1/3 283/1/3
f 287/5/3 286/5/3 285/5/3
f 288/5/3 286/5/3 287/5/3
f 291/5/3 290/5/3 289/5/3
f 292/5/3 290/5/3 291/5/3
f 295/1/3 294/1/3 293/1/3
f 296/1/3 294/1/3 295/1/3
f 299/1/3 298/1/3 297/1/3
f 300/1/3 298/1/3 299/1/3
f 303/1/3 302/1/3 301/1/3
f 304/1/3 302/1/3 303/1/3
f 305/2/4 306/2/4 307/2/4
f 307/2/4 306/2/4 308/2/4
f 309/5/4 310/5/4 311/5/4
f 311/5/4 310/5/4 312/5/4
f 313/3/4 314/3/4 315/3/4
f 315/3/4 314/3/4 316/3/4
f 317/5/4 318/5/4 320/5/4
f 318/3/4 319/3/4 321/3/4
f 320/5/4 318/5/4 321/5/4
f 321/3/4 319/3/4 322/3/4
f 323/1/4 324/1/4 327/1/4
f 327/1/4 324/1/4 328/1/4
f 325/4/4 326/4/4 329/4/4
f 329/4/4 326/4/4 330/4/4
f 331/3/4 332/3/4 333/3/4
f 333/3/4 332/3/4 334/3/4
f 333/1/4 334/1/4 335/1/4
f 334/3/4 332/3/4 335/3/4
f 335/3/4 332/3/4 336/3/4
f 333/1/4 335/1/4 337/1/4
f 335/1/4 336/1/4 337/1/4
f 336/3/4 332/3/4 338/3/4
f 337/1/4 336/1/4 338/1/4
f 333/1/4 337/1/4 339/1/4
f 337/3/4 338/3/4 340/3/4
f 339/1/4 337/1/4 340/1/4
f 339/3/4 340/3/4 343/3/4
f 338/3/4 332/3/4 344/3/4
f 343/3/4 340/3/4 344/3/4
f 340/3/4 338/3/4 344/3/4
f 341/4/4 342/4/4 345/4/4
f 345/4/4 342/4/4 346/4/4
f 347/1/4 348/1/4 349/1/4
f 349/1/4 348/1/4 350/1/4
f 351/1/4 352/1/4 353/1/4
f 353/1/4 352/1/4 354/1/4
f 355/4/4 356/4/4 360/4/4
f 357/5/4 358/5/4 361/5/4
f 361/5/4 358/5/4 362/5/4
f 363/1/4 364/1/4 366/1/4
f 365/1/4 366/1/4 367/1/4
f 366/1/4 364/1/4 368/1/4
f 367/1/4 366/1/4 368/1/4
f 359/4/4 360/4/4 371/4/4
f 360/4/4 356/4/4 372/4/4
f 371/4/4 360/4/4 372/4/4
f 369/1/4 370/1/4 373/1/4
f 373/1/4 370/1/4 374/1/4
f 372/4/4 356/4/4 375/4/4
f 375/4/4 356/4/4 376/4/4
f 373/5/4 374/5/4 377/5/4
f 377/5/4 374/5/4 378/5/4
f 379/1/4 380/1/4 381/1/4
f 381/1/4 380/1/4 382/1/4
f 383/5/4 384/5/4 385/5/4
f 383/5/4 385/5/4 387/5/4
f 385/5/4 386/5/4 387/5/4
f 387/5/4 386/5/4 388/5/4
f 383/5/4 387/5/4 389/5/4
f 389/5/4 387/5/4 390/5/4
f 391/5/4 392/5/4 393/5/4
f 393/5/4 392/5/4 394/5/4
f 391/5/4 393/5/4 395/5/4
f 395/5/4 393/5/4 396/5/4
f 397/4/4 398/4/4 399/4/4
f 399/4/4 398/4/4 400/4/4
f 401/1/4 402/1/4 403/1/4
f 403/1/4 402/1/4 404/1/4
f 405/1/4 406/1/4 407/1/4
f 407/1/4 406/1/4 408/1/4
f 412/4/5 410/4/5 409/4/5
f 413/4/5 410/4/5 412/4/5
f 415/4/5 412/4/5 411/4/5
f 415/4/5 414/4/5 413/4/5
f 415/4/5 413/4/5 412/4/5
f 416/4/5 414/4/5 415/4/5
f 417/4/5 414/4/5 416/4/5
f 418/4/5 414/4/5 417/4/5
f 419/4/5 417/4/5 416/4/5
f 420/4/5 417/4/5 419/4/5
f 425/4/5 422/4/5 421/4/5
f 426/4/5 422/4/5 425/4/5
f 427/4/5 424/4/5 423/4/5
f 428/4/5 424/4/5 427/4/5
f 433/4/5 430/4/5 429/4/5
f 434/4/5 430/4/5 433/4/5
f 435/4/5 432/4/5 431/4/5
f 436/4/5 432/4/5 435/4/5
f 439/4/5 438/4/5 437/4/5
f 440/4/5 438/4/5 439/4/5
f 445/3/5 442/3/5 441/3/5
f 446/3/5 442/3/5 445/3/5
f 448/3/5 444/3/5 443/3/5
f 449/3/5 444/3/5 448/3/5
f 453/1/5 448/1/5 447/1/5
f 454/1/5 448/1/5 453/1/5
f 455/1/5 451/1/5 450/1/5
f 456/1/5 451/1/5 455/1/5
f 458/1/5 453/1/5 452/1/5
f 459/1/5 453/1/5 458/1/5
f 460/1/5 457/1/5 456/1/5
f 461/1/5 457/1/5 460/1/5
f 464/3/5 463/3/5 462/3/5
f 465/3/5 463/3/5 464/3/5
f 466/3/5 463/3/5 465/3/5
f 467/3/5 463/3/5 466/3/5
f 468/3/5 463/3/5 467/3/5
f 469/3/5 463/3/5 468/3/5
f 470/3/5 466/3/5 465/3/5
f 471/3/5 466/3/5 470/3/5
f 472/3/5 468/3/5 467/3/5
f 473/3/5 468/3/5 472/3/5
f 478/1/5 475/1/5 474/1/5
f 479/1/5 475/1/5 478/1/5
f 480/1/5 477/1/5 476/1/5
f 481/1/5 477/1/5 480/1/5
f 484/2/5 483/2/5 482/2/5
f 485/2/5 483/2/5 484/2/5
f 490/1/5 487/1/5 486/1/5
f 491/1/5 487/1/5 490/1/5
f 492/1/5 489/1/5 488/1/5
f 493/1/5 489/1/5 492/1/5
f 494/2/5 491/2/5 490/2/5
f 495/2/5 491/2/5 494/2/5
f 496/2/5 493/2/5 492/2/5
f 497/2/5 493/2/5 496/2/5
f 498/4/6 499/4/6 501/4/6
f 501/4/6 499/4/6 502/4/6
f 500/4/6 501/4/6 504/4/6
f 502/4/6 503/4/6 504/4/6
f 501/4/6 502/4/6 504/4/6
f 504/4/6 503/4/6 505/4/6
f 506/5/6 507/5/6 508/5/6
f 508/5/6 507/5/6 509/5/6
f 510/5/6 511/5/6 516/5/6
f 516/5/6 511/5/6 517/5/6
f 512/5/6 513/5/6 518/5/6
f 518/5/6 513/5/6 519/5/6
f 514/5/6 515/5/6 522/5/6
f 522/5/6 515/5/6 523/5/6
f 520/5/6 521/5/6 524/5/6
f 524/5/6 521/5/6 525/5/6
f 526/5/6 527/5/6 531/5/6
f 531/5/6 527/5/6 532/5/6
f 529/5/6 530/5/6 533/5/6
f 528/5/6 529/5/6 533/5/6
f 533/5/6 530/5/6 534/5/6
f 535/5/6 536/5/6 541/5/6
f 541/5/6 536/5/6 542/5/6
f 537/5/6 538/5/6 543/5/6
f 543/5/6 538/5/6 544/5/6
f 539/5/6 540/5/6 545/5/6
f 545/5/6 540/5/6 546/5/6
f 547/5/6 548/5/6 553/5/6
f 548/1/6 549/1/6 554/1/6
f 553/5/6 548/5/6 554/5/6
f 549/1/6 550/1/6 554/1/6
f 550/1/6 551/1/6 554/1/6
f 554/1/6 551/1/6 555/1/6
f 555/1/6 551/1/6 556/1/6
f 556/1/6 551/1/6 557/1/6
f 551/5/6 552/5/6 558/5/6
f 557/1/6 551/1/6 558/1/6
f 558/5/6 552/5/6 559/5/6
f 554/5/6 555/5/6 560/5/6
f 560/5/6 555/5/6 561/5/6
f 556/5/6 557/5/6 562/5/6
f 562/5/6 557/5/6 563/5/6
f 564/3/6 565/3/6 569/3/6
f 569/3/6 565/3/6 570/3/6
f 566/3/6 567/3/6 571/3/6
f 571/3/6 567/3/6 572/3/6
f 568/1/6 569/1/6 575/1/6
f 575/1/6 569/1/6 576/1/6
f 572/1/6 573/1/6 577/1/6
f 577/1/6 573/1/6 578/1/6
f 574/1/6 575/1/6 580/1/6
f 580/1/6 575/1/6 581/1/6
f 578/1/6 579/1/6 582/1/6
f 582/1/6 579/1/6 583/1/6
f 584/1/6 585/1/6 588/1/6
f 588/1/6 585/1/6 589/1/6
f 586/1/6 587/1/6 590/1/6
f 590/1/6 587/1/6 591/1/6
f 592/3/6 593/3/6 594/3/6
f 594/3/6 593/3/6 595/3/6
f 596/1/6 597/1/6 600/1/6
f 600/1/6 597/1/6 601/1/6
f 598/1/6 599/1/6 602/1/6
f 602/1/6 599/1/6 603/1/6
f 600/2/6 601/2/6 604/2/6
f 602/2/6 603/2/6 605/2/6
f 600/2/6 604/2/6 606/2/6
f 604/2/6 605/2/6 606/2/6
f 605/2/6 603/2/6 607/2/6
f 606/2/6 605/2/6 607/2/6
