# MagicaVoxel @ Ephtracy

# material
mtllib Roll-07.mtl
usemtl palette

# normals
vn -1 0 0
vn 1 0 0
vn 0 0 1
vn 0 0 -1
vn 0 -1 0
vn 0 1 0

# texcoords
vt 0.970703 0.5
vt 0.974609 0.5
vt 0.978516 0.5
vt 0.982422 0.5
vt 0.986328 0.5

# verts
v -5.5 1 -0
v -5.5 1 -1
v -5.5 5 -0
v -5.5 5 -1
v -4.5 5 -0
v -4.5 5 -1
v -4.5 6 -0
v -4.5 6 -1
v -3.5 0 3
v -3.5 0 -1
v -3.5 1 -1
v -3.5 1 -3
v -3.5 2 3
v -3.5 2 -2
v -3.5 2 -3
v -3.5 5 2
v -3.5 5 -0
v -3.5 5 -1
v -3.5 5 -2
v -3.5 6 3
v -3.5 6 2
v -2.5 5 2
v -2.5 5 -0
v -2.5 5 -1
v -2.5 5 -2
v -2.5 6 3
v -2.5 6 2
v -2.5 6 1
v -2.5 6 -0
v -2.5 6 -1
v -2.5 6 -2
v -2.5 7 3
v -2.5 7 2
v -2.5 11 1
v -2.5 11 -1
v -2.5 13 1
v -2.5 13 -0
v -2.5 14 -0
v -2.5 14 -1
v -2.5 17 -0
v -2.5 17 -1
v -0.5 5 3
v -0.5 5 2
v -0.5 6 2
v -0.5 7 3
v -0.5 7 2
v 0.5 2 -1
v 0.5 2 -2
v 0.5 6 -1
v 0.5 6 -2
v 1.5 13 -0
v 1.5 13 -1
v 1.5 14 -0
v 1.5 14 -1
v 1.5 17 -0
v 1.5 17 -1
v 2.5 5 3
v 2.5 5 2
v 2.5 6 3
v 2.5 6 2
v 4.5 1 -0
v 4.5 1 -1
v 4.5 5 -0
v 4.5 5 -1
v -4.5 1 -0
v -4.5 1 -1
v -4.5 5 -0
v -4.5 5 -1
v -1.5 3 -1
v -1.5 3 -2
v -1.5 5 3
v -1.5 5 2
v -1.5 6 2
v -1.5 6 -1
v -1.5 6 -2
v -1.5 7 3
v -1.5 7 2
v -1.5 13 -0
v -1.5 13 -1
v -1.5 14 -0
v -1.5 14 -1
v -1.5 17 -0
v -1.5 17 -1
v -0.5 2 -1
v -0.5 2 -2
v -0.5 3 -1
v -0.5 3 -2
v 0.5 6 3
v 0.5 6 2
v 0.5 7 3
v 0.5 7 2
v 1.5 5 3
v 1.5 5 2
v 1.5 5 -1
v 1.5 5 -2
v 1.5 6 3
v 1.5 6 2
v 1.5 6 -1
v 1.5 6 -2
v 2.5 5 1
v 2.5 5 -0
v 2.5 6 1
v 2.5 6 -0
v 2.5 6 -1
v 2.5 11 1
v 2.5 11 -1
v 2.5 13 1
v 2.5 13 -0
v 2.5 14 -0
v 2.5 14 -1
v 2.5 17 -0
v 2.5 17 -1
v 3.5 0 3
v 3.5 0 -1
v 3.5 1 -1
v 3.5 1 -3
v 3.5 2 3
v 3.5 2 -2
v 3.5 2 -3
v 3.5 5 1
v 3.5 5 -0
v 3.5 5 -1
v 3.5 5 -2
v 3.5 6 3
v 3.5 6 1
v 4.5 5 -0
v 4.5 5 -1
v 4.5 6 -0
v 4.5 6 -1
v 5.5 1 -0
v 5.5 1 -1
v 5.5 5 -0
v 5.5 5 -1
v -3.5 0 3
v -3.5 2 3
v -3.5 6 3
v -2.5 6 3
v -2.5 7 3
v -1.5 5 3
v -1.5 7 3
v -0.5 5 3
v -0.5 7 3
v 0.5 6 3
v 0.5 7 3
v 1.5 5 3
v 1.5 6 3
v 2.5 5 3
v 2.5 6 3
v 3.5 0 3
v 3.5 2 3
v 3.5 6 3
v -1.5 5 2
v -1.5 6 2
v -0.5 5 2
v -0.5 6 2
v 1.5 5 2
v 1.5 6 2
v 2.5 5 2
v 2.5 6 2
v -2.5 6 1
v -2.5 11 1
v -2.5 13 1
v 2.5 6 1
v 2.5 11 1
v 2.5 13 1
v -5.5 1 -0
v -5.5 5 -0
v -4.5 1 -0
v -4.5 5 -0
v -4.5 6 -0
v -3.5 5 -0
v -3.5 6 -0
v -2.5 5 -0
v -2.5 6 -0
v -2.5 13 -0
v -2.5 14 -0
v -2.5 17 -0
v -1.5 13 -0
v -1.5 14 -0
v -1.5 17 -0
v 1.5 13 -0
v 1.5 14 -0
v 1.5 17 -0
v 2.5 5 -0
v 2.5 6 -0
v 2.5 13 -0
v 2.5 14 -0
v 2.5 17 -0
v 3.5 5 -0
v 3.5 6 -0
v 4.5 1 -0
v 4.5 5 -0
v 4.5 6 -0
v 5.5 1 -0
v 5.5 5 -0
v -3.5 5 2
v -3.5 6 2
v -2.5 5 2
v -2.5 6 2
v -2.5 7 2
v -1.5 6 2
v -1.5 7 2
v -0.5 6 2
v -0.5 7 2
v 0.5 6 2
v 0.5 7 2
v 2.5 5 1
v 2.5 6 1
v 3.5 5 1
v 3.5 6 1
v -5.5 1 -1
v -5.5 5 -1
v -4.5 1 -1
v -4.5 5 -1
v -4.5 6 -1
v -3.5 0 -1
v -3.5 1 -1
v -3.5 5 -1
v -3.5 6 -1
v -2.5 5 -1
v -2.5 6 -1
v -2.5 11 -1
v -2.5 14 -1
v -2.5 17 -1
v -1.5 3 -1
v -1.5 6 -1
v -1.5 13 -1
v -1.5 14 -1
v -1.5 17 -1
v -0.5 2 -1
v -0.5 3 -1
v 0.5 2 -1
v 0.5 6 -1
v 1.5 5 -1
v 1.5 6 -1
v 1.5 13 -1
v 1.5 14 -1
v 1.5 17 -1
v 2.5 5 -1
v 2.5 6 -1
v 2.5 11 -1
v 2.5 14 -1
v 2.5 17 -1
v 3.5 0 -1
v 3.5 1 -1
v 3.5 5 -1
v 3.5 6 -1
v 4.5 1 -1
v 4.5 5 -1
v 4.5 6 -1
v 5.5 1 -1
v 5.5 5 -1
v -3.5 2 -2
v -3.5 5 -2
v -2.5 5 -2
v -2.5 6 -2
v -1.5 3 -2
v -1.5 6 -2
v -0.5 2 -2
v -0.5 3 -2
v 0.5 2 -2
v 0.5 6 -2
v 1.5 5 -2
v 1.5 6 -2
v 3.5 2 -2
v 3.5 5 -2
v -3.5 1 -3
v -3.5 2 -3
v 3.5 1 -3
v 3.5 2 -3
v -3.5 0 3
v 3.5 0 3
v -3.5 0 -1
v 3.5 0 -1
v -5.5 1 -0
v -4.5 1 -0
v 4.5 1 -0
v 5.5 1 -0
v -5.5 1 -1
v -4.5 1 -1
v -3.5 1 -1
v 3.5 1 -1
v 4.5 1 -1
v 5.5 1 -1
v -3.5 1 -3
v 3.5 1 -3
v -4.5 5 -0
v -3.5 5 -0
v 3.5 5 -0
v 4.5 5 -0
v -4.5 5 -1
v -3.5 5 -1
v 3.5 5 -1
v 4.5 5 -1
v -0.5 2 -1
v 0.5 2 -1
v -3.5 2 -2
v -0.5 2 -2
v 0.5 2 -2
v 3.5 2 -2
v -3.5 2 -3
v 3.5 2 -3
v -1.5 3 -1
v -0.5 3 -1
v -1.5 3 -2
v -0.5 3 -2
v -1.5 5 3
v -0.5 5 3
v 1.5 5 3
v 2.5 5 3
v -3.5 5 2
v -2.5 5 2
v -1.5 5 2
v -0.5 5 2
v 1.5 5 2
v 2.5 5 2
v 2.5 5 1
v 3.5 5 1
v -5.5 5 -0
v -4.5 5 -0
v -3.5 5 -0
v -2.5 5 -0
v 2.5 5 -0
v 3.5 5 -0
v 4.5 5 -0
v 5.5 5 -0
v -5.5 5 -1
v -4.5 5 -1
v -3.5 5 -1
v -2.5 5 -1
v 1.5 5 -1
v 2.5 5 -1
v 3.5 5 -1
v 4.5 5 -1
v 5.5 5 -1
v -3.5 5 -2
v -2.5 5 -2
v 1.5 5 -2
v 3.5 5 -2
v -3.5 6 3
v -2.5 6 3
v 0.5 6 3
v 1.5 6 3
v 2.5 6 3
v 3.5 6 3
v -3.5 6 2
v -2.5 6 2
v -1.5 6 2
v -0.5 6 2
v 0.5 6 2
v 1.5 6 2
v 2.5 6 2
v -2.5 6 1
v 2.5 6 1
v 3.5 6 1
v -4.5 6 -0
v -3.5 6 -0
v -2.5 6 -0
v 2.5 6 -0
v 3.5 6 -0
v 4.5 6 -0
v -4.5 6 -1
v -3.5 6 -1
v -2.5 6 -1
v -1.5 6 -1
v 0.5 6 -1
v 1.5 6 -1
v 2.5 6 -1
v 3.5 6 -1
v 4.5 6 -1
v -2.5 6 -2
v -1.5 6 -2
v 0.5 6 -2
v 1.5 6 -2
v -2.5 7 3
v -1.5 7 3
v -0.5 7 3
v 0.5 7 3
v -2.5 7 2
v -1.5 7 2
v -0.5 7 2
v 0.5 7 2
v -2.5 13 1
v 2.5 13 1
v -2.5 13 -0
v -1.5 13 -0
v 1.5 13 -0
v 2.5 13 -0
v -1.5 13 -1
v 1.5 13 -1
v -2.5 17 -0
v -1.5 17 -0
v 1.5 17 -0
v 2.5 17 -0
v -2.5 17 -1
v -1.5 17 -1
v 1.5 17 -1
v 2.5 17 -1

# faces
f 3/1/1 2/1/1 1/1/1
f 4/1/1 2/1/1 3/1/1
f 7/1/1 6/1/1 5/1/1
f 8/1/1 6/1/1 7/1/1
f 11/4/1 10/4/1 9/4/1
f 13/4/1 11/4/1 9/4/1
f 13/4/1 12/4/1 11/4/1
f 14/4/1 12/4/1 13/4/1
f 15/4/1 12/4/1 14/4/1
f 16/5/1 14/5/1 13/5/1
f 17/5/1 14/5/1 16/5/1
f 18/5/1 14/5/1 17/5/1
f 19/5/1 14/5/1 18/5/1
f 20/5/1 16/5/1 13/5/1
f 21/5/1 16/5/1 20/5/1
f 27/1/1 23/1/1 22/1/1
f 28/1/1 23/1/1 27/1/1
f 29/1/1 23/1/1 28/1/1
f 30/5/1 25/5/1 24/5/1
f 31/5/1 25/5/1 30/5/1
f 32/5/1 27/5/1 26/5/1
f 33/5/1 27/5/1 32/5/1
f 34/3/1 29/3/1 28/3/1
f 34/3/1 30/3/1 29/3/1
f 35/3/1 30/3/1 34/3/1
f 36/2/1 35/2/1 34/2/1
f 37/2/1 35/2/1 36/2/1
f 38/2/1 35/2/1 37/2/1
f 39/2/1 35/2/1 38/2/1
f 40/1/1 39/1/1 38/1/1
f 41/1/1 39/1/1 40/1/1
f 44/5/1 43/5/1 42/5/1
f 45/5/1 44/5/1 42/5/1
f 46/5/1 44/5/1 45/5/1
f 49/5/1 48/5/1 47/5/1
f 50/5/1 48/5/1 49/5/1
f 53/2/1 52/2/1 51/2/1
f 54/2/1 52/2/1 53/2/1
f 55/1/1 54/1/1 53/1/1
f 56/1/1 54/1/1 55/1/1
f 59/5/1 58/5/1 57/5/1
f 60/5/1 58/5/1 59/5/1
f 63/1/1 62/1/1 61/1/1
f 64/1/1 62/1/1 63/1/1
f 65/1/2 66/1/2 67/1/2
f 67/1/2 66/1/2 68/1/2
f 71/5/2 72/5/2 73/5/2
f 69/5/2 70/5/2 74/5/2
f 74/5/2 70/5/2 75/5/2
f 71/5/2 73/5/2 76/5/2
f 76/5/2 73/5/2 77/5/2
f 78/2/2 79/2/2 80/2/2
f 80/2/2 79/2/2 81/2/2
f 80/1/2 81/1/2 82/1/2
f 82/1/2 81/1/2 83/1/2
f 84/5/2 85/5/2 86/5/2
f 86/5/2 85/5/2 87/5/2
f 88/5/2 89/5/2 90/5/2
f 90/5/2 89/5/2 91/5/2
f 92/5/2 93/5/2 96/5/2
f 96/5/2 93/5/2 97/5/2
f 94/5/2 95/5/2 98/5/2
f 98/5/2 95/5/2 99/5/2
f 100/1/2 101/1/2 102/1/2
f 102/1/2 101/1/2 103/1/2
f 102/3/2 103/3/2 105/3/2
f 103/3/2 104/3/2 105/3/2
f 105/3/2 104/3/2 106/3/2
f 105/2/2 106/2/2 107/2/2
f 107/2/2 106/2/2 108/2/2
f 108/2/2 106/2/2 109/2/2
f 109/2/2 106/2/2 110/2/2
f 109/1/2 110/1/2 111/1/2
f 111/1/2 110/1/2 112/1/2
f 113/4/2 114/4/2 115/4/2
f 113/4/2 115/4/2 117/4/2
f 115/4/2 116/4/2 117/4/2
f 117/4/2 116/4/2 118/4/2
f 118/4/2 116/4/2 119/4/2
f 117/5/2 118/5/2 120/5/2
f 120/5/2 118/5/2 121/5/2
f 121/5/2 118/5/2 122/5/2
f 122/5/2 118/5/2 123/5/2
f 117/5/2 120/5/2 124/5/2
f 124/5/2 120/5/2 125/5/2
f 126/1/2 127/1/2 128/1/2
f 128/1/2 127/1/2 129/1/2
f 130/1/2 131/1/2 132/1/2
f 132/1/2 131/1/2 133/1/2
f 137/5/3 136/5/3 135/5/3
f 139/5/3 137/5/3 135/5/3
f 139/5/3 138/5/3 137/5/3
f 140/5/3 138/5/3 139/5/3
f 141/5/3 139/5/3 135/5/3
f 143/5/3 142/5/3 141/5/3
f 144/5/3 142/5/3 143/5/3
f 145/5/3 141/5/3 135/5/3
f 145/5/3 143/5/3 141/5/3
f 146/5/3 143/5/3 145/5/3
f 147/5/3 145/5/3 135/5/3
f 149/4/3 135/4/3 134/4/3
f 150/5/3 148/5/3 147/5/3
f 150/4/3 135/4/3 149/4/3
f 150/5/3 147/5/3 135/5/3
f 151/5/3 148/5/3 150/5/3
f 154/1/3 153/1/3 152/1/3
f 155/1/3 153/1/3 154/1/3
f 158/1/3 157/1/3 156/1/3
f 159/1/3 157/1/3 158/1/3
f 163/3/3 161/3/3 160/3/3
f 164/2/3 162/2/3 161/2/3
f 164/3/3 161/3/3 163/3/3
f 165/2/3 162/2/3 164/2/3
f 168/1/3 167/1/3 166/1/3
f 169/1/3 167/1/3 168/1/3
f 171/1/3 170/1/3 169/1/3
f 172/1/3 170/1/3 171/1/3
f 173/5/3 172/5/3 171/5/3
f 174/5/3 172/5/3 173/5/3
f 178/2/3 176/2/3 175/2/3
f 179/1/3 177/1/3 176/1/3
f 179/2/3 176/2/3 178/2/3
f 180/1/3 177/1/3 179/1/3
f 186/2/3 182/2/3 181/2/3
f 187/1/3 183/1/3 182/1/3
f 187/2/3 182/2/3 186/2/3
f 188/1/3 183/1/3 187/1/3
f 189/5/3 185/5/3 184/5/3
f 190/5/3 185/5/3 189/5/3
f 192/1/3 190/1/3 189/1/3
f 193/1/3 190/1/3 192/1/3
f 194/1/3 192/1/3 191/1/3
f 195/1/3 192/1/3 194/1/3
f 196/5/4 197/5/4 198/5/4
f 198/5/4 197/5/4 199/5/4
f 199/5/4 200/5/4 201/5/4
f 201/5/4 200/5/4 202/5/4
f 203/5/4 204/5/4 205/5/4
f 205/5/4 204/5/4 206/5/4
f 207/5/4 208/5/4 209/5/4
f 209/5/4 208/5/4 210/5/4
f 211/1/4 212/1/4 213/1/4
f 213/1/4 212/1/4 214/1/4
f 214/1/4 215/1/4 218/1/4
f 218/1/4 215/1/4 219/1/4
f 218/5/4 219/5/4 220/5/4
f 220/5/4 219/5/4 221/5/4
f 221/3/4 222/3/4 226/3/4
f 222/2/4 223/2/4 227/2/4
f 223/1/4 224/1/4 228/1/4
f 227/2/4 223/2/4 228/2/4
f 228/1/4 224/1/4 229/1/4
f 225/1/4 226/1/4 231/1/4
f 230/1/4 231/1/4 232/1/4
f 226/3/4 222/3/4 233/3/4
f 232/1/4 231/1/4 233/1/4
f 231/1/4 226/1/4 233/1/4
f 233/3/4 222/3/4 235/3/4
f 222/2/4 227/2/4 236/2/4
f 234/1/4 235/1/4 239/1/4
f 235/3/4 222/3/4 240/3/4
f 239/1/4 235/1/4 240/1/4
f 222/2/4 236/2/4 241/2/4
f 240/3/4 222/3/4 241/3/4
f 236/2/4 237/2/4 241/2/4
f 237/1/4 238/1/4 242/1/4
f 241/2/4 237/2/4 242/2/4
f 242/1/4 238/1/4 243/1/4
f 216/4/4 217/4/4 244/4/4
f 244/4/4 217/4/4 245/4/4
f 239/5/4 240/5/4 246/5/4
f 246/5/4 240/5/4 247/5/4
f 246/1/4 247/1/4 249/1/4
f 249/1/4 247/1/4 250/1/4
f 248/1/4 249/1/4 251/1/4
f 251/1/4 249/1/4 252/1/4
f 253/5/4 254/5/4 255/5/4
f 253/5/4 255/5/4 257/5/4
f 255/5/4 256/5/4 257/5/4
f 257/5/4 256/5/4 258/5/4
f 253/5/4 257/5/4 259/5/4
f 259/5/4 257/5/4 260/5/4
f 261/5/4 262/5/4 263/5/4
f 263/5/4 262/5/4 264/5/4
f 261/5/4 263/5/4 265/5/4
f 265/5/4 263/5/4 266/5/4
f 267/4/4 268/4/4 269/4/4
f 269/4/4 268/4/4 270/4/4
f 273/4/5 272/4/5 271/4/5
f 274/4/5 272/4/5 273/4/5
f 279/1/5 276/1/5 275/1/5
f 280/1/5 276/1/5 279/1/5
f 283/1/5 278/1/5 277/1/5
f 284/1/5 278/1/5 283/1/5
f 285/4/5 282/4/5 281/4/5
f 286/4/5 282/4/5 285/4/5
f 291/1/5 288/1/5 287/1/5
f 292/1/5 288/1/5 291/1/5
f 293/1/5 290/1/5 289/1/5
f 294/1/5 290/1/5 293/1/5
f 295/4/6 296/4/6 298/4/6
f 298/4/6 296/4/6 299/4/6
f 297/4/6 298/4/6 301/4/6
f 299/4/6 300/4/6 301/4/6
f 298/4/6 299/4/6 301/4/6
f 301/4/6 300/4/6 302/4/6
f 303/5/6 304/5/6 305/5/6
f 305/5/6 304/5/6 306/5/6
f 307/5/6 308/5/6 313/5/6
f 313/5/6 308/5/6 314/5/6
f 309/5/6 310/5/6 315/5/6
f 315/5/6 310/5/6 316/5/6
f 311/5/6 312/5/6 321/5/6
f 321/5/6 312/5/6 322/5/6
f 317/5/6 318/5/6 323/5/6
f 323/5/6 318/5/6 324/5/6
f 319/1/6 320/1/6 327/1/6
f 327/1/6 320/1/6 328/1/6
f 325/1/6 326/1/6 334/1/6
f 334/1/6 326/1/6 335/1/6
f 329/5/6 330/5/6 336/5/6
f 336/5/6 330/5/6 337/5/6
f 332/5/6 333/5/6 338/5/6
f 331/5/6 332/5/6 338/5/6
f 338/5/6 333/5/6 339/5/6
f 340/5/6 341/5/6 346/5/6
f 346/5/6 341/5/6 347/5/6
f 342/5/6 343/5/6 350/5/6
f 350/5/6 343/5/6 351/5/6
f 344/5/6 345/5/6 352/5/6
f 350/1/6 351/1/6 353/1/6
f 351/1/6 352/1/6 353/1/6
f 348/1/6 349/1/6 353/1/6
f 349/1/6 350/1/6 353/1/6
f 347/1/6 348/1/6 353/1/6
f 352/5/6 345/5/6 354/5/6
f 353/1/6 352/1/6 354/1/6
f 354/5/6 345/5/6 355/5/6
f 356/1/6 357/1/6 362/1/6
f 357/5/6 358/5/6 363/5/6
f 362/1/6 357/1/6 363/1/6
f 363/5/6 358/5/6 364/5/6
f 359/5/6 360/5/6 368/5/6
f 360/1/6 361/1/6 369/1/6
f 368/5/6 360/5/6 369/5/6
f 369/1/6 361/1/6 370/1/6
f 364/5/6 365/5/6 371/5/6
f 371/5/6 365/5/6 372/5/6
f 366/5/6 367/5/6 373/5/6
f 373/5/6 367/5/6 374/5/6
f 375/5/6 376/5/6 379/5/6
f 379/5/6 376/5/6 380/5/6
f 377/5/6 378/5/6 381/5/6
f 381/5/6 378/5/6 382/5/6
f 383/2/6 384/2/6 385/2/6
f 385/2/6 384/2/6 386/2/6
f 386/2/6 384/2/6 387/2/6
f 387/2/6 384/2/6 388/2/6
f 386/2/6 387/2/6 389/2/6
f 389/2/6 387/2/6 390/2/6
f 391/1/6 392/1/6 395/1/6
f 395/1/6 392/1/6 396/1/6
f 393/1/6 394/1/6 397/1/6
f 397/1/6 394/1/6 398/1/6
