# MagicaVoxel @ Ephtracy

# group
o 

# material
mtllib ChelAxe-0.mtl
usemtl palette

# normals
vn -1 0 0
vn 1 0 0
vn 0 0 1
vn 0 0 -1
vn 0 -1 0
vn 0 1 0

# texcoords
vt 0.970703 0.5
vt 0.974609 0.5
vt 0.978516 0.5
vt 0.982422 0.5
vt 0.986328 0.5
vt 0.990234 0.5
vt 0.994141 0.5

# verts
v 0.1 2 0.2
v 0.1 2 -0.3
v 0.1 2.1 0.2
v 0.1 2.1 -0.3
v 0.2 2 0.3
v 0.2 2 0.2
v 0.2 2.1 0.3
v 0.2 2.1 0.2
v 1.5 2.1 0
v 1.5 2.1 -0.1
v 1.5 2.2 0.1
v 1.5 2.2 0
v 1.5 2.2 -0.1
v 1.5 2.2 -0.2
v 1.5 2.2 -0.3
v 1.5 2.3 0.2
v 1.5 2.3 0.1
v 1.5 2.3 0
v 1.5 2.3 -0.2
v 1.5 2.6 0.3
v 1.5 2.6 0.2
v 1.5 2.6 -0.3
v 1.5 2.7 0.3
v 1.5 2.7 0.1
v 1.5 2.8 0.1
v 1.5 2.8 0
v 1.5 2.8 -0.2
v 1.5 2.8 -0.3
v 1.5 2.9 0
v 1.5 2.9 -0.2
v 1.6 1.2 0
v 1.6 1.2 -0.1
v 1.6 1.4 0
v 1.6 1.4 -0.1
v 1.6 1.6 0.1
v 1.6 1.6 0
v 1.6 1.6 -0.1
v 1.6 1.6 -0.2
v 1.6 1.7 0.1
v 1.6 1.7 -0.2
v 1.6 2.1 0
v 1.6 2.1 -0.1
v 1.6 2.1 -0.2
v 1.6 2.1 -0.3
v 1.6 2.2 0.2
v 1.6 2.2 0.1
v 1.6 2.2 0
v 1.6 2.2 -0.1
v 1.6 2.2 -0.2
v 1.6 2.2 -0.3
v 1.6 2.3 0.2
v 1.6 2.3 0.1
v 1.6 2.3 0
v 1.6 2.3 -0.2
v 1.6 2.8 0.1
v 1.6 2.8 0
v 1.6 2.8 -0.2
v 1.6 2.8 -0.3
v 1.6 2.9 0.1
v 1.6 2.9 0
v 1.6 2.9 -0.2
v 1.6 2.9 -0.3
v 1.8 2.1 -0.2
v 1.8 2.1 -0.3
v 1.8 2.3 -0.2
v 1.8 2.3 -0.3
v 1.9 2.2 0.2
v 1.9 2.2 0.1
v 1.9 2.6 0.2
v 1.9 2.6 0.1
v 2 1.2 0
v 2 1.2 -0.1
v 2 1.4 0
v 2 1.4 -0.1
v 2 1.6 0
v 2 1.6 -0.1
v 2.1 2.2 -0.2
v 2.1 2.2 -0.3
v 2.1 2.3 -0.2
v 2.1 2.3 -0.3
v 2.2 1.6 0
v 2.2 1.6 -0.1
v 2.2 2.1 0
v 2.2 2.1 -0.1
v 0.4 2 0.3
v 0.4 2 0.2
v 0.4 2.1 0.3
v 0.4 2.1 0.2
v 0.5 2 0.2
v 0.5 2 0
v 0.5 2 -0.1
v 0.5 2 -0.3
v 0.5 2.1 0.2
v 0.5 2.1 0
v 0.5 2.1 -0.1
v 0.5 2.1 -0.3
v 1.5 2 0
v 1.5 2 -0.1
v 1.5 2.1 0
v 1.5 2.1 -0.1
v 1.7 1.2 0
v 1.7 1.2 -0.1
v 1.7 1.4 0
v 1.7 1.4 -0.1
v 1.7 1.6 0
v 1.7 1.6 -0.1
v 1.7 2.1 -0.2
v 1.7 2.1 -0.3
v 1.7 2.2 0.2
v 1.7 2.2 0.1
v 1.7 2.3 -0.2
v 1.7 2.3 -0.3
v 1.7 2.5 0.2
v 1.7 2.5 0.1
v 1.8 2.5 0.2
v 1.8 2.5 0.1
v 1.8 2.6 0.2
v 1.8 2.6 0.1
v 1.9 2.1 -0.2
v 1.9 2.1 -0.3
v 1.9 2.2 -0.2
v 1.9 2.2 -0.3
v 2 2.2 0.2
v 2 2.2 0.1
v 2 2.2 -0.2
v 2 2.2 -0.3
v 2 2.3 0.2
v 2 2.3 0.1
v 2 2.3 -0.2
v 2 2.3 -0.3
v 2.1 1.2 0
v 2.1 1.2 -0.1
v 2.1 1.4 0
v 2.1 1.4 -0.1
v 2.1 1.6 0.1
v 2.1 1.6 0
v 2.1 1.6 -0.1
v 2.1 1.6 -0.2
v 2.1 1.7 0.1
v 2.1 1.7 -0.2
v 2.1 2.1 0
v 2.1 2.1 -0.1
v 2.1 2.2 0.1
v 2.1 2.2 0
v 2.1 2.2 -0.1
v 2.1 2.2 -0.2
v 2.1 2.3 0
v 2.1 2.3 -0.1
v 2.1 2.8 0.1
v 2.1 2.8 0
v 2.1 2.8 -0.2
v 2.1 2.8 -0.3
v 2.1 2.9 0.1
v 2.1 2.9 0
v 2.1 2.9 -0.2
v 2.1 2.9 -0.3
v 2.2 2.1 0
v 2.2 2.1 -0.1
v 2.2 2.2 0.1
v 2.2 2.2 0
v 2.2 2.2 -0.1
v 2.2 2.2 -0.3
v 2.2 2.3 0.2
v 2.2 2.3 0.1
v 2.2 2.3 0
v 2.2 2.3 -0.1
v 2.2 2.6 0.3
v 2.2 2.6 0.2
v 2.2 2.6 -0.3
v 2.2 2.7 0.3
v 2.2 2.7 0.1
v 2.2 2.8 0.1
v 2.2 2.8 0
v 2.2 2.8 -0.2
v 2.2 2.8 -0.3
v 2.2 2.9 0
v 2.2 2.9 -0.2
v 2.3 1.6 0
v 2.3 1.6 -0.1
v 2.3 2.1 0
v 2.3 2.1 -0.1
v 0.2 2 0.3
v 0.2 2.1 0.3
v 0.4 2 0.3
v 0.4 2.1 0.3
v 1.5 2.6 0.3
v 1.5 2.7 0.3
v 2.2 2.6 0.3
v 2.2 2.7 0.3
v 0.1 2 0.2
v 0.1 2.1 0.2
v 0.2 2 0.2
v 0.2 2.1 0.2
v 0.4 2 0.2
v 0.4 2.1 0.2
v 0.5 2 0.2
v 0.5 2.1 0.2
v 1.5 2.3 0.2
v 1.5 2.6 0.2
v 1.6 2.2 0.2
v 1.6 2.3 0.2
v 1.7 2.2 0.2
v 1.7 2.5 0.2
v 1.8 2.5 0.2
v 1.8 2.6 0.2
v 1.9 2.2 0.2
v 1.9 2.6 0.2
v 2 2.2 0.2
v 2 2.3 0.2
v 2.2 2.3 0.2
v 2.2 2.6 0.2
v 1.5 2.2 0.1
v 1.5 2.3 0.1
v 1.5 2.7 0.1
v 1.5 2.8 0.1
v 1.6 1.6 0.1
v 1.6 1.7 0.1
v 1.6 2.2 0.1
v 1.6 2.3 0.1
v 1.6 2.8 0.1
v 1.6 2.9 0.1
v 1.7 2.1 0.1
v 1.7 2.2 0.1
v 1.7 2.5 0.1
v 1.8 2 0.1
v 1.8 2.1 0.1
v 1.8 2.5 0.1
v 1.8 2.6 0.1
v 1.9 2 0.1
v 1.9 2.1 0.1
v 1.9 2.2 0.1
v 1.9 2.6 0.1
v 2 2.1 0.1
v 2 2.2 0.1
v 2 2.3 0.1
v 2.1 1.6 0.1
v 2.1 1.7 0.1
v 2.1 2.2 0.1
v 2.1 2.3 0.1
v 2.1 2.8 0.1
v 2.1 2.9 0.1
v 2.2 2.2 0.1
v 2.2 2.3 0.1
v 2.2 2.7 0.1
v 2.2 2.8 0.1
v 0.5 2 0
v 0.5 2.1 0
v 1 2 0
v 1 2.1 0
v 1.5 2 0
v 1.5 2.1 0
v 1.5 2.2 0
v 1.5 2.8 0
v 1.5 2.9 0
v 1.6 1.2 0
v 1.6 1.4 0
v 1.6 1.6 0
v 1.6 2.1 0
v 1.6 2.2 0
v 1.6 2.8 0
v 1.6 2.9 0
v 1.7 1.2 0
v 1.7 1.4 0
v 1.7 1.6 0
v 2 1.2 0
v 2 1.4 0
v 2 1.6 0
v 2.1 1.2 0
v 2.1 1.4 0
v 2.1 1.6 0
v 2.1 2.1 0
v 2.1 2.2 0
v 2.1 2.8 0
v 2.1 2.9 0
v 2.2 1.6 0
v 2.2 2.1 0
v 2.2 2.2 0
v 2.2 2.8 0
v 2.2 2.9 0
v 2.3 1.6 0
v 2.3 2.1 0
v 2.1 2.2 -0.1
v 2.1 2.3 -0.1
v 2.2 2.2 -0.1
v 2.2 2.3 -0.1
v 1.5 2.2 -0.2
v 1.5 2.3 -0.2
v 1.6 2.2 -0.2
v 1.6 2.3 -0.2
v 1.5 2.2 0
v 1.5 2.3 0
v 1.6 2.2 0
v 1.6 2.3 0
v 2.1 2.2 0
v 2.1 2.3 0
v 2.2 2.2 0
v 2.2 2.3 0
v 0.5 2 -0.1
v 0.5 2.1 -0.1
v 1 2 -0.1
v 1 2.1 -0.1
v 1.5 2 -0.1
v 1.5 2.1 -0.1
v 1.5 2.2 -0.1
v 1.6 1.2 -0.1
v 1.6 1.4 -0.1
v 1.6 1.6 -0.1
v 1.6 2.1 -0.1
v 1.6 2.2 -0.1
v 1.7 1.2 -0.1
v 1.7 1.4 -0.1
v 1.7 1.6 -0.1
v 2 1.2 -0.1
v 2 1.4 -0.1
v 2 1.6 -0.1
v 2.1 1.2 -0.1
v 2.1 1.4 -0.1
v 2.1 1.6 -0.1
v 2.1 2.1 -0.1
v 2.1 2.2 -0.1
v 2.2 1.6 -0.1
v 2.2 2.1 -0.1
v 2.2 2.2 -0.1
v 2.3 1.6 -0.1
v 2.3 2.1 -0.1
v 1.5 2.8 -0.2
v 1.5 2.9 -0.2
v 1.6 1.6 -0.2
v 1.6 1.7 -0.2
v 1.6 2.1 -0.2
v 1.6 2.8 -0.2
v 1.6 2.9 -0.2
v 1.7 2.1 -0.2
v 1.7 2.3 -0.2
v 1.8 2.1 -0.2
v 1.8 2.3 -0.2
v 1.9 2.1 -0.2
v 1.9 2.2 -0.2
v 2 2.1 -0.2
v 2 2.2 -0.2
v 2 2.3 -0.2
v 2.1 1.6 -0.2
v 2.1 1.7 -0.2
v 2.1 2.2 -0.2
v 2.1 2.3 -0.2
v 2.1 2.8 -0.2
v 2.1 2.9 -0.2
v 2.2 2.8 -0.2
v 2.2 2.9 -0.2
v 0.1 2 -0.3
v 0.1 2.1 -0.3
v 0.5 2 -0.3
v 0.5 2.1 -0.3
v 1.5 2.2 -0.3
v 1.5 2.6 -0.3
v 1.5 2.8 -0.3
v 1.6 2.1 -0.3
v 1.6 2.2 -0.3
v 1.6 2.8 -0.3
v 1.6 2.9 -0.3
v 1.7 2.1 -0.3
v 1.7 2.3 -0.3
v 1.8 2.1 -0.3
v 1.8 2.3 -0.3
v 1.9 2.1 -0.3
v 1.9 2.2 -0.3
v 2 2.2 -0.3
v 2 2.3 -0.3
v 2.1 2.2 -0.3
v 2.1 2.3 -0.3
v 2.1 2.8 -0.3
v 2.1 2.9 -0.3
v 2.2 2.2 -0.3
v 2.2 2.6 -0.3
v 2.2 2.8 -0.3
v 1.6 1.2 0
v 1.7 1.2 0
v 2 1.2 0
v 2.1 1.2 0
v 1.6 1.2 -0.1
v 1.7 1.2 -0.1
v 2 1.2 -0.1
v 2.1 1.2 -0.1
v 1.6 1.6 0.1
v 2.1 1.6 0.1
v 1.6 1.6 0
v 1.7 1.6 0
v 2 1.6 0
v 2.1 1.6 0
v 2.2 1.6 0
v 2.3 1.6 0
v 1.6 1.6 -0.1
v 1.7 1.6 -0.1
v 2 1.6 -0.1
v 2.1 1.6 -0.1
v 2.2 1.6 -0.1
v 2.3 1.6 -0.1
v 1.6 1.6 -0.2
v 2.1 1.6 -0.2
v 0.2 2 0.3
v 0.4 2 0.3
v 0.1 2 0.2
v 0.2 2 0.2
v 0.4 2 0.2
v 0.5 2 0.2
v 0.5 2 0
v 1 2 0
v 1.5 2 0
v 0.5 2 -0.1
v 1 2 -0.1
v 1.5 2 -0.1
v 0.1 2 -0.3
v 0.5 2 -0.3
v 1.5 2.1 0
v 1.6 2.1 0
v 2.1 2.1 0
v 2.2 2.1 0
v 1.5 2.1 -0.1
v 1.6 2.1 -0.1
v 2.1 2.1 -0.1
v 2.2 2.1 -0.1
v 1.6 2.1 -0.2
v 1.7 2.1 -0.2
v 1.8 2.1 -0.2
v 1.9 2.1 -0.2
v 1.6 2.1 -0.3
v 1.7 2.1 -0.3
v 1.8 2.1 -0.3
v 1.9 2.1 -0.3
v 1.6 2.2 0.2
v 1.7 2.2 0.2
v 1.9 2.2 0.2
v 2 2.2 0.2
v 1.5 2.2 0.1
v 1.6 2.2 0.1
v 1.7 2.2 0.1
v 1.9 2.2 0.1
v 2 2.2 0.1
v 2.1 2.2 0.1
v 2.2 2.2 0.1
v 1.5 2.2 0
v 1.6 2.2 0
v 2.1 2.2 0
v 2.2 2.2 0
v 2.1 2.2 -0.1
v 2.2 2.2 -0.1
v 1.5 2.2 -0.2
v 1.6 2.2 -0.2
v 1.9 2.2 -0.2
v 2 2.2 -0.2
v 2.1 2.2 -0.2
v 1.5 2.2 -0.3
v 1.6 2.2 -0.3
v 1.9 2.2 -0.3
v 2 2.2 -0.3
v 2.1 2.2 -0.3
v 2.2 2.2 -0.3
v 1.5 2.3 0.2
v 1.6 2.3 0.2
v 2 2.3 0.2
v 2.2 2.3 0.2
v 1.5 2.3 0.1
v 1.6 2.3 0.1
v 2 2.3 0.1
v 2.1 2.3 0.1
v 2.2 2.3 0.1
v 1.5 2.3 0
v 1.6 2.3 0
v 2.1 2.3 0
v 2.2 2.3 0
v 2.1 2.3 -0.1
v 2.2 2.3 -0.1
v 1.5 2.3 -0.2
v 1.6 2.3 -0.2
v 1.7 2.3 -0.2
v 1.8 2.3 -0.2
v 2 2.3 -0.2
v 2.1 2.3 -0.2
v 1.7 2.3 -0.3
v 1.8 2.3 -0.3
v 2 2.3 -0.3
v 2.1 2.3 -0.3
v 1.7 2.5 0.2
v 1.8 2.5 0.2
v 1.7 2.5 0.1
v 1.8 2.5 0.1
v 1.5 2.6 0.3
v 2.2 2.6 0.3
v 1.5 2.6 0.2
v 1.8 2.6 0.2
v 1.9 2.6 0.2
v 2.2 2.6 0.2
v 1.8 2.6 0.1
v 1.9 2.6 0.1
v 0.2 2.1 0.3
v 0.4 2.1 0.3
v 0.1 2.1 0.2
v 0.2 2.1 0.2
v 0.4 2.1 0.2
v 0.5 2.1 0.2
v 0.5 2.1 0
v 1 2.1 0
v 1.5 2.1 0
v 2.2 2.1 0
v 2.3 2.1 0
v 0.5 2.1 -0.1
v 1 2.1 -0.1
v 1.5 2.1 -0.1
v 2.2 2.1 -0.1
v 2.3 2.1 -0.1
v 0.1 2.1 -0.3
v 0.5 2.1 -0.3
v 1.5 2.2 0
v 1.6 2.2 0
v 2.1 2.2 0
v 2.2 2.2 0
v 1.5 2.2 -0.1
v 1.6 2.2 -0.1
v 2.1 2.2 -0.1
v 2.2 2.2 -0.1
v 1.5 2.7 0.3
v 2.2 2.7 0.3
v 1.5 2.7 0.1
v 2.2 2.7 0.1
v 1.5 2.8 0.1
v 1.6 2.8 0.1
v 2.1 2.8 0.1
v 2.2 2.8 0.1
v 1.5 2.8 0
v 1.6 2.8 0
v 2.1 2.8 0
v 2.2 2.8 0
v 1.5 2.8 -0.2
v 1.6 2.8 -0.2
v 2.1 2.8 -0.2
v 2.2 2.8 -0.2
v 1.5 2.8 -0.3
v 1.6 2.8 -0.3
v 2.1 2.8 -0.3
v 2.2 2.8 -0.3
v 1.6 2.9 0.1
v 2.1 2.9 0.1
v 1.5 2.9 0
v 1.6 2.9 0
v 2.1 2.9 0
v 2.2 2.9 0
v 1.5 2.9 -0.2
v 1.6 2.9 -0.2
v 2.1 2.9 -0.2
v 2.2 2.9 -0.2
v 1.6 2.9 -0.3
v 2.1 2.9 -0.3

# faces
f 3/6/1 2/6/1 1/6/1
f 4/6/1 2/6/1 3/6/1
f 7/6/1 6/6/1 5/6/1
f 8/6/1 6/6/1 7/6/1
f 12/3/1 10/3/1 9/3/1
f 13/3/1 10/3/1 12/3/1
f 17/5/1 12/5/1 11/5/1
f 18/5/1 12/5/1 17/5/1
f 19/5/1 15/5/1 14/5/1
f 21/5/1 18/5/1 17/5/1
f 21/5/1 19/5/1 18/5/1
f 21/5/1 17/5/1 16/5/1
f 22/5/1 15/5/1 19/5/1
f 22/5/1 19/5/1 21/5/1
f 23/4/1 21/4/1 20/4/1
f 23/4/1 22/4/1 21/4/1
f 24/4/1 22/4/1 23/4/1
f 25/4/1 22/4/1 24/4/1
f 26/4/1 22/4/1 25/4/1
f 27/4/1 22/4/1 26/4/1
f 28/4/1 22/4/1 27/4/1
f 29/4/1 27/4/1 26/4/1
f 30/4/1 27/4/1 29/4/1
f 33/1/1 32/1/1 31/1/1
f 34/1/1 32/1/1 33/1/1
f 36/2/1 34/2/1 33/2/1
f 37/2/1 34/2/1 36/2/1
f 39/2/1 37/2/1 36/2/1
f 39/2/1 38/2/1 37/2/1
f 39/2/1 36/2/1 35/2/1
f 40/2/1 38/2/1 39/2/1
f 41/3/1 40/3/1 39/3/1
f 42/3/1 40/3/1 41/3/1
f 43/3/1 40/3/1 42/3/1
f 46/3/1 41/3/1 39/3/1
f 47/3/1 41/3/1 46/3/1
f 48/3/1 43/3/1 42/3/1
f 49/5/1 44/5/1 43/5/1
f 49/3/1 43/3/1 48/3/1
f 50/5/1 44/5/1 49/5/1
f 51/5/1 46/5/1 45/5/1
f 52/5/1 46/5/1 51/5/1
f 53/1/1 48/1/1 47/1/1
f 53/1/1 49/1/1 48/1/1
f 54/1/1 49/1/1 53/1/1
f 59/4/1 56/4/1 55/4/1
f 60/4/1 56/4/1 59/4/1
f 61/4/1 58/4/1 57/4/1
f 62/4/1 58/4/1 61/4/1
f 65/5/1 64/5/1 63/5/1
f 66/5/1 64/5/1 65/5/1
f 69/5/1 68/5/1 67/5/1
f 70/5/1 68/5/1 69/5/1
f 73/1/1 72/1/1 71/1/1
f 74/1/1 72/1/1 73/1/1
f 75/2/1 74/2/1 73/2/1
f 76/2/1 74/2/1 75/2/1
f 79/5/1 78/5/1 77/5/1
f 80/5/1 78/5/1 79/5/1
f 83/1/1 82/1/1 81/1/1
f 84/1/1 82/1/1 83/1/1
f 85/6/2 86/6/2 87/6/2
f 87/6/2 86/6/2 88/6/2
f 89/6/2 90/6/2 93/6/2
f 93/6/2 90/6/2 94/6/2
f 91/6/2 92/6/2 95/6/2
f 95/6/2 92/6/2 96/6/2
f 97/1/2 98/1/2 99/1/2
f 99/1/2 98/1/2 100/1/2
f 101/1/2 102/1/2 103/1/2
f 103/1/2 102/1/2 104/1/2
f 103/2/2 104/2/2 105/2/2
f 105/2/2 104/2/2 106/2/2
f 107/5/2 108/5/2 111/5/2
f 111/5/2 108/5/2 112/5/2
f 109/5/2 110/5/2 113/5/2
f 113/5/2 110/5/2 114/5/2
f 115/5/2 116/5/2 117/5/2
f 117/5/2 116/5/2 118/5/2
f 119/5/2 120/5/2 121/5/2
f 121/5/2 120/5/2 122/5/2
f 123/5/2 124/5/2 127/5/2
f 127/5/2 124/5/2 128/5/2
f 125/5/2 126/5/2 129/5/2
f 129/5/2 126/5/2 130/5/2
f 131/1/2 132/1/2 133/1/2
f 133/1/2 132/1/2 134/1/2
f 133/2/2 134/2/2 136/2/2
f 136/2/2 134/2/2 137/2/2
f 136/2/2 137/2/2 139/2/2
f 137/2/2 138/2/2 139/2/2
f 135/2/2 136/2/2 139/2/2
f 139/2/2 138/2/2 140/2/2
f 139/3/2 140/3/2 141/3/2
f 141/3/2 140/3/2 142/3/2
f 139/3/2 141/3/2 143/3/2
f 143/3/2 141/3/2 144/3/2
f 142/3/2 140/3/2 145/3/2
f 145/3/2 140/3/2 146/3/2
f 144/1/2 145/1/2 147/1/2
f 147/1/2 145/1/2 148/1/2
f 149/4/2 150/4/2 153/4/2
f 153/4/2 150/4/2 154/4/2
f 151/4/2 152/4/2 155/4/2
f 155/4/2 152/4/2 156/4/2
f 157/3/2 158/3/2 160/3/2
f 160/3/2 158/3/2 161/3/2
f 159/5/2 160/5/2 164/5/2
f 164/5/2 160/5/2 165/5/2
f 161/5/2 162/5/2 166/5/2
f 164/5/2 165/5/2 168/5/2
f 165/5/2 166/5/2 168/5/2
f 163/5/2 164/5/2 168/5/2
f 166/5/2 162/5/2 169/5/2
f 168/5/2 166/5/2 169/5/2
f 167/4/2 168/4/2 170/4/2
f 168/4/2 169/4/2 170/4/2
f 170/4/2 169/4/2 171/4/2
f 171/4/2 169/4/2 172/4/2
f 172/4/2 169/4/2 173/4/2
f 173/4/2 169/4/2 174/4/2
f 174/4/2 169/4/2 175/4/2
f 173/4/2 174/4/2 176/4/2
f 176/4/2 174/4/2 177/4/2
f 178/1/2 179/1/2 180/1/2
f 180/1/2 179/1/2 181/1/2
f 184/6/3 183/6/3 182/6/3
f 185/6/3 183/6/3 184/6/3
f 188/4/3 187/4/3 186/4/3
f 189/4/3 187/4/3 188/4/3
f 192/6/3 191/6/3 190/6/3
f 193/6/3 191/6/3 192/6/3
f 196/6/3 195/6/3 194/6/3
f 197/6/3 195/6/3 196/6/3
f 201/5/3 199/5/3 198/5/3
f 202/5/3 201/5/3 200/5/3
f 203/5/3 199/5/3 201/5/3
f 203/5/3 201/5/3 202/5/3
f 204/5/3 199/5/3 203/5/3
f 205/5/3 199/5/3 204/5/3
f 208/5/3 207/5/3 206/5/3
f 209/5/3 207/5/3 208/5/3
f 210/5/3 207/5/3 209/5/3
f 211/5/3 207/5/3 210/5/3
f 218/5/3 213/5/3 212/5/3
f 219/5/3 213/5/3 218/5/3
f 220/4/3 215/4/3 214/4/3
f 222/3/3 218/3/3 217/3/3
f 223/3/3 218/3/3 222/3/3
f 225/3/3 222/3/3 217/3/3
f 226/1/3 224/1/3 223/1/3
f 226/3/3 222/3/3 225/3/3
f 226/1/3 223/1/3 222/1/3
f 227/1/3 224/1/3 226/1/3
f 229/3/3 225/3/3 217/3/3
f 229/1/3 228/1/3 227/1/3
f 229/1/3 227/1/3 226/1/3
f 229/1/3 226/1/3 225/1/3
f 230/1/3 228/1/3 229/1/3
f 231/1/3 228/1/3 230/1/3
f 232/1/3 228/1/3 231/1/3
f 233/3/3 230/3/3 229/3/3
f 233/1/3 231/1/3 230/1/3
f 234/1/3 231/1/3 233/1/3
f 236/2/3 217/2/3 216/2/3
f 237/3/3 229/3/3 217/3/3
f 237/2/3 217/2/3 236/2/3
f 237/3/3 233/3/3 229/3/3
f 237/3/3 234/3/3 233/3/3
f 238/1/3 235/1/3 234/1/3
f 238/3/3 234/3/3 237/3/3
f 239/1/3 235/1/3 238/1/3
f 240/4/3 221/4/3 220/4/3
f 240/4/3 220/4/3 214/4/3
f 241/4/3 221/4/3 240/4/3
f 242/5/3 239/5/3 238/5/3
f 243/5/3 239/5/3 242/5/3
f 244/4/3 240/4/3 214/4/3
f 245/4/3 240/4/3 244/4/3
f 248/7/3 247/7/3 246/7/3
f 249/7/3 247/7/3 248/7/3
f 250/1/3 249/1/3 248/1/3
f 251/1/3 249/1/3 250/1/3
f 258/3/3 252/3/3 251/3/3
f 259/3/3 252/3/3 258/3/3
f 260/4/3 254/4/3 253/4/3
f 261/4/3 254/4/3 260/4/3
f 262/1/3 256/1/3 255/1/3
f 263/2/3 257/2/3 256/2/3
f 263/1/3 256/1/3 262/1/3
f 264/2/3 257/2/3 263/2/3
f 268/1/3 266/1/3 265/1/3
f 269/2/3 267/2/3 266/2/3
f 269/1/3 266/1/3 268/1/3
f 270/2/3 267/2/3 269/2/3
f 276/3/3 272/3/3 271/3/3
f 277/3/3 272/3/3 276/3/3
f 278/4/3 274/4/3 273/4/3
f 279/4/3 274/4/3 278/4/3
f 280/1/3 276/1/3 275/1/3
f 281/1/3 276/1/3 280/1/3
f 284/5/3 283/5/3 282/5/3
f 285/5/3 283/5/3 284/5/3
f 288/5/3 287/5/3 286/5/3
f 289/5/3 287/5/3 288/5/3
f 290/5/4 291/5/4 292/5/4
f 292/5/4 291/5/4 293/5/4
f 294/5/4 295/5/4 296/5/4
f 296/5/4 295/5/4 297/5/4
f 298/7/4 299/7/4 300/7/4
f 300/7/4 299/7/4 301/7/4
f 300/1/4 301/1/4 302/1/4
f 302/1/4 301/1/4 303/1/4
f 303/3/4 304/3/4 308/3/4
f 308/3/4 304/3/4 309/3/4
f 305/1/4 306/1/4 310/1/4
f 306/2/4 307/2/4 311/2/4
f 310/1/4 306/1/4 311/1/4
f 311/2/4 307/2/4 312/2/4
f 313/1/4 314/1/4 316/1/4
f 314/2/4 315/2/4 317/2/4
f 316/1/4 314/1/4 317/1/4
f 317/2/4 315/2/4 318/2/4
f 319/3/4 320/3/4 322/3/4
f 322/3/4 320/3/4 323/3/4
f 321/1/4 322/1/4 324/1/4
f 324/1/4 322/1/4 325/1/4
f 326/4/4 327/4/4 331/4/4
f 331/4/4 327/4/4 332/4/4
f 329/3/4 330/3/4 333/3/4
f 329/3/4 333/3/4 335/3/4
f 333/1/4 334/1/4 335/1/4
f 335/1/4 334/1/4 336/1/4
f 329/3/4 335/3/4 337/3/4
f 329/3/4 337/3/4 339/3/4
f 337/1/4 338/1/4 339/1/4
f 339/1/4 338/1/4 340/1/4
f 328/2/4 329/2/4 342/2/4
f 329/3/4 339/3/4 343/3/4
f 342/2/4 329/2/4 343/2/4
f 339/3/4 340/3/4 343/3/4
f 340/1/4 341/1/4 344/1/4
f 343/3/4 340/3/4 344/3/4
f 344/1/4 341/1/4 345/1/4
f 346/4/4 347/4/4 348/4/4
f 348/4/4 347/4/4 349/4/4
f 350/6/4 351/6/4 352/6/4
f 352/6/4 351/6/4 353/6/4
f 354/5/4 355/5/4 358/5/4
f 355/4/4 356/4/4 359/4/4
f 357/5/4 358/5/4 361/5/4
f 358/5/4 355/5/4 362/5/4
f 361/5/4 358/5/4 362/5/4
f 362/5/4 355/5/4 364/5/4
f 363/5/4 364/5/4 365/5/4
f 365/5/4 364/5/4 366/5/4
f 366/5/4 364/5/4 367/5/4
f 364/5/4 355/5/4 368/5/4
f 367/5/4 364/5/4 368/5/4
f 368/5/4 355/5/4 370/5/4
f 359/4/4 360/4/4 371/4/4
f 355/4/4 359/4/4 371/4/4
f 371/4/4 360/4/4 372/4/4
f 369/5/4 370/5/4 373/5/4
f 370/5/4 355/5/4 374/5/4
f 373/5/4 370/5/4 374/5/4
f 355/4/4 371/4/4 374/4/4
f 374/4/4 371/4/4 375/4/4
f 380/1/5 377/1/5 376/1/5
f 381/1/5 377/1/5 380/1/5
f 382/1/5 379/1/5 378/1/5
f 383/1/5 379/1/5 382/1/5
f 386/2/5 385/2/5 384/2/5
f 387/2/5 385/2/5 386/2/5
f 388/2/5 385/2/5 387/2/5
f 389/2/5 385/2/5 388/2/5
f 393/2/5 388/2/5 387/2/5
f 394/2/5 388/2/5 393/2/5
f 396/1/5 391/1/5 390/1/5
f 397/1/5 391/1/5 396/1/5
f 398/2/5 395/2/5 394/2/5
f 398/2/5 393/2/5 392/2/5
f 398/2/5 394/2/5 393/2/5
f 399/2/5 395/2/5 398/2/5
f 403/6/5 401/6/5 400/6/5
f 404/6/5 401/6/5 403/6/5
f 406/6/5 403/6/5 402/6/5
f 406/6/5 405/6/5 404/6/5
f 406/6/5 404/6/5 403/6/5
f 409/6/5 406/6/5 402/6/5
f 409/7/5 407/7/5 406/7/5
f 410/1/5 408/1/5 407/1/5
f 410/7/5 407/7/5 409/7/5
f 411/1/5 408/1/5 410/1/5
f 412/6/5 409/6/5 402/6/5
f 413/6/5 409/6/5 412/6/5
f 418/3/5 415/3/5 414/3/5
f 419/3/5 415/3/5 418/3/5
f 420/3/5 417/3/5 416/3/5
f 421/3/5 417/3/5 420/3/5
f 426/5/5 423/5/5 422/5/5
f 427/5/5 423/5/5 426/5/5
f 428/5/5 425/5/5 424/5/5
f 429/5/5 425/5/5 428/5/5
f 435/5/5 431/5/5 430/5/5
f 436/5/5 431/5/5 435/5/5
f 437/5/5 433/5/5 432/5/5
f 438/5/5 433/5/5 437/5/5
f 441/5/5 435/5/5 434/5/5
f 442/5/5 435/5/5 441/5/5
f 443/5/5 440/5/5 439/5/5
f 444/5/5 440/5/5 443/5/5
f 451/5/5 446/5/5 445/5/5
f 452/5/5 448/5/5 447/5/5
f 453/5/5 448/5/5 452/5/5
f 454/5/5 450/5/5 449/5/5
f 455/5/5 450/5/5 454/5/5
f 456/5/5 446/5/5 451/5/5
f 457/5/5 446/5/5 456/5/5
f 462/5/5 459/5/5 458/5/5
f 463/5/5 459/5/5 462/5/5
f 464/5/5 461/5/5 460/5/5
f 465/5/5 461/5/5 464/5/5
f 466/5/5 461/5/5 465/5/5
f 471/5/5 470/5/5 469/5/5
f 472/5/5 470/5/5 471/5/5
f 473/5/5 468/5/5 467/5/5
f 474/5/5 468/5/5 473/5/5
f 479/5/5 476/5/5 475/5/5
f 480/5/5 476/5/5 479/5/5
f 481/5/5 478/5/5 477/5/5
f 482/5/5 478/5/5 481/5/5
f 485/5/5 484/5/5 483/5/5
f 486/5/5 484/5/5 485/5/5
f 489/4/5 488/4/5 487/4/5
f 490/4/5 488/4/5 489/4/5
f 491/4/5 488/4/5 490/4/5
f 492/4/5 488/4/5 491/4/5
f 493/4/5 491/4/5 490/4/5
f 494/4/5 491/4/5 493/4/5
f 495/6/6 496/6/6 498/6/6
f 498/6/6 496/6/6 499/6/6
f 497/6/6 498/6/6 501/6/6
f 499/6/6 500/6/6 501/6/6
f 498/6/6 499/6/6 501/6/6
f 497/6/6 501/6/6 506/6/6
f 501/7/6 502/7/6 506/7/6
f 502/1/6 503/1/6 507/1/6
f 506/7/6 502/7/6 507/7/6
f 507/1/6 503/1/6 508/1/6
f 504/1/6 505/1/6 509/1/6
f 509/1/6 505/1/6 510/1/6
f 497/6/6 506/6/6 511/6/6
f 511/6/6 506/6/6 512/6/6
f 513/3/6 514/3/6 517/3/6
f 517/3/6 514/3/6 518/3/6
f 515/3/6 516/3/6 519/3/6
f 519/3/6 516/3/6 520/3/6
f 521/4/6 522/4/6 523/4/6
f 523/4/6 522/4/6 524/4/6
f 525/4/6 526/4/6 529/4/6
f 529/4/6 526/4/6 530/4/6
f 527/4/6 528/4/6 531/4/6
f 531/4/6 528/4/6 532/4/6
f 533/4/6 534/4/6 537/4/6
f 537/4/6 534/4/6 538/4/6
f 535/4/6 536/4/6 539/4/6
f 539/4/6 536/4/6 540/4/6
f 541/4/6 542/4/6 544/4/6
f 544/4/6 542/4/6 545/4/6
f 543/4/6 544/4/6 547/4/6
f 545/4/6 546/4/6 547/4/6
f 544/4/6 545/4/6 547/4/6
f 547/4/6 546/4/6 548/4/6
f 548/4/6 546/4/6 549/4/6
f 549/4/6 546/4/6 550/4/6
f 548/4/6 549/4/6 551/4/6
f 551/4/6 549/4/6 552/4/6
