# MagicaVoxel @ Ephtracy

# group
o 

# material
mtllib Chel-11.mtl
usemtl palette

# normals
vn -1 0 0
vn 1 0 0
vn 0 0 1
vn 0 0 -1
vn 0 -1 0
vn 0 1 0

# texcoords
vt 0.970703 0.5
vt 0.974609 0.5
vt 0.978516 0.5
vt 0.982422 0.5
vt 0.986328 0.5

# verts
v 0.9 1.7 -0.1
v 0.9 1.7 -0.5
v 0.9 1.8 0
v 0.9 1.8 -0.1
v 0.9 1.8 -0.5
v 0.9 1.9 0
v 0.9 1.9 -0.1
v 1 1.9 0
v 1 1.9 -0.1
v 1 2 0.1
v 1 2 0
v 1 2 -0.1
v 1 2 -0.2
v 1 2 -0.3
v 1 2.1 0.2
v 1 2.1 0.1
v 1 2.1 0
v 1 2.1 -0.2
v 1 2.4 0.3
v 1 2.4 0.2
v 1 2.4 -0.3
v 1 2.5 0.3
v 1 2.5 0.1
v 1 2.6 0.1
v 1 2.6 0
v 1 2.6 -0.2
v 1 2.6 -0.3
v 1 2.7 0
v 1 2.7 -0.2
v 1.1 1.2 0.3
v 1.1 1.2 0.1
v 1.1 1.2 0
v 1.1 1.3 0.3
v 1.1 1.3 0.1
v 1.1 1.3 0
v 1.1 1.3 -0.1
v 1.1 1.4 0.1
v 1.1 1.4 0
v 1.1 1.4 -0.1
v 1.1 1.4 -0.2
v 1.1 1.5 0.1
v 1.1 1.5 -0.2
v 1.1 1.9 0
v 1.1 1.9 -0.1
v 1.1 1.9 -0.2
v 1.1 1.9 -0.3
v 1.1 2 0.2
v 1.1 2 0.1
v 1.1 2 0
v 1.1 2 -0.1
v 1.1 2 -0.2
v 1.1 2 -0.3
v 1.1 2.1 0.2
v 1.1 2.1 0.1
v 1.1 2.1 0
v 1.1 2.1 -0.2
v 1.1 2.6 0.1
v 1.1 2.6 0
v 1.1 2.6 -0.2
v 1.1 2.6 -0.3
v 1.1 2.7 0.1
v 1.1 2.7 0
v 1.1 2.7 -0.2
v 1.1 2.7 -0.3
v 1.3 1.9 -0.2
v 1.3 1.9 -0.3
v 1.3 2.1 -0.2
v 1.3 2.1 -0.3
v 1.4 2 0.2
v 1.4 2 0.1
v 1.4 2.4 0.2
v 1.4 2.4 0.1
v 1.5 1.2 -0.1
v 1.5 1.2 -0.2
v 1.5 1.2 -0.4
v 1.5 1.3 0
v 1.5 1.3 -0.1
v 1.5 1.3 -0.2
v 1.5 1.3 -0.4
v 1.5 1.4 0
v 1.5 1.4 -0.1
v 1.6 2 -0.2
v 1.6 2 -0.3
v 1.6 2.1 -0.2
v 1.6 2.1 -0.3
v 1.7 1.7 0.4
v 1.7 1.7 0
v 1.7 1.8 0.4
v 1.7 1.8 0
v 1.7 1.8 -0.1
v 1.7 1.9 0
v 1.7 1.9 -0.1
v 1 1.7 -0.1
v 1 1.7 -0.5
v 1 1.8 0
v 1 1.8 -0.1
v 1 1.8 -0.5
v 1 1.9 0
v 1 1.9 -0.1
v 1.2 1.2 0.3
v 1.2 1.2 0.1
v 1.2 1.2 0
v 1.2 1.3 0.3
v 1.2 1.3 0.1
v 1.2 1.3 0
v 1.2 1.3 -0.1
v 1.2 1.4 0
v 1.2 1.4 -0.1
v 1.2 1.9 -0.2
v 1.2 1.9 -0.3
v 1.2 2 0.2
v 1.2 2 0.1
v 1.2 2.1 -0.2
v 1.2 2.1 -0.3
v 1.2 2.3 0.2
v 1.2 2.3 0.1
v 1.3 2.3 0.2
v 1.3 2.3 0.1
v 1.3 2.4 0.2
v 1.3 2.4 0.1
v 1.4 1.9 -0.2
v 1.4 1.9 -0.3
v 1.4 2 -0.2
v 1.4 2 -0.3
v 1.5 2 0.2
v 1.5 2 0.1
v 1.5 2 -0.2
v 1.5 2 -0.3
v 1.5 2.1 0.2
v 1.5 2.1 0.1
v 1.5 2.1 -0.2
v 1.5 2.1 -0.3
v 1.6 1.2 -0.1
v 1.6 1.2 -0.2
v 1.6 1.2 -0.4
v 1.6 1.3 0
v 1.6 1.3 -0.1
v 1.6 1.3 -0.2
v 1.6 1.3 -0.4
v 1.6 1.4 0.1
v 1.6 1.4 0
v 1.6 1.4 -0.1
v 1.6 1.4 -0.2
v 1.6 1.5 0.1
v 1.6 1.5 -0.2
v 1.6 1.9 0
v 1.6 1.9 -0.1
v 1.6 2 0.1
v 1.6 2 0
v 1.6 2 -0.1
v 1.6 2 -0.2
v 1.6 2.1 0
v 1.6 2.1 -0.1
v 1.6 2.6 0.1
v 1.6 2.6 0
v 1.6 2.6 -0.2
v 1.6 2.6 -0.3
v 1.6 2.7 0.1
v 1.6 2.7 0
v 1.6 2.7 -0.2
v 1.6 2.7 -0.3
v 1.7 1.9 0
v 1.7 1.9 -0.1
v 1.7 2 0.1
v 1.7 2 0
v 1.7 2 -0.1
v 1.7 2 -0.3
v 1.7 2.1 0.2
v 1.7 2.1 0.1
v 1.7 2.1 0
v 1.7 2.1 -0.1
v 1.7 2.4 0.3
v 1.7 2.4 0.2
v 1.7 2.4 -0.3
v 1.7 2.5 0.3
v 1.7 2.5 0.1
v 1.7 2.6 0.1
v 1.7 2.6 0
v 1.7 2.6 -0.2
v 1.7 2.6 -0.3
v 1.7 2.7 0
v 1.7 2.7 -0.2
v 1.8 1.7 0.4
v 1.8 1.7 0
v 1.8 1.8 0.4
v 1.8 1.8 0
v 1.8 1.8 -0.1
v 1.8 1.9 0
v 1.8 1.9 -0.1
v 1.7 1.7 0.4
v 1.7 1.8 0.4
v 1.8 1.7 0.4
v 1.8 1.8 0.4
v 1 2.4 0.3
v 1 2.5 0.3
v 1.1 1.2 0.3
v 1.1 1.3 0.3
v 1.2 1.2 0.3
v 1.2 1.3 0.3
v 1.7 2.4 0.3
v 1.7 2.5 0.3
v 1 2.1 0.2
v 1 2.4 0.2
v 1.1 2 0.2
v 1.1 2.1 0.2
v 1.2 2 0.2
v 1.2 2.3 0.2
v 1.3 2.3 0.2
v 1.3 2.4 0.2
v 1.4 2 0.2
v 1.4 2.4 0.2
v 1.5 2 0.2
v 1.5 2.1 0.2
v 1.7 2.1 0.2
v 1.7 2.4 0.2
v 1 2 0.1
v 1 2.1 0.1
v 1 2.5 0.1
v 1 2.6 0.1
v 1.1 1.4 0.1
v 1.1 1.5 0.1
v 1.1 2 0.1
v 1.1 2.1 0.1
v 1.1 2.6 0.1
v 1.1 2.7 0.1
v 1.2 1.9 0.1
v 1.2 2 0.1
v 1.2 2.3 0.1
v 1.3 1.8 0.1
v 1.3 1.9 0.1
v 1.3 2.3 0.1
v 1.3 2.4 0.1
v 1.4 1.8 0.1
v 1.4 1.9 0.1
v 1.4 2 0.1
v 1.4 2.4 0.1
v 1.5 1.9 0.1
v 1.5 2 0.1
v 1.5 2.1 0.1
v 1.6 1.4 0.1
v 1.6 1.5 0.1
v 1.6 2 0.1
v 1.6 2.1 0.1
v 1.6 2.6 0.1
v 1.6 2.7 0.1
v 1.7 2 0.1
v 1.7 2.1 0.1
v 1.7 2.5 0.1
v 1.7 2.6 0.1
v 0.9 1.8 0
v 0.9 1.9 0
v 1 1.8 0
v 1 1.9 0
v 1 2 0
v 1 2.6 0
v 1 2.7 0
v 1.1 1.3 0
v 1.1 1.4 0
v 1.1 1.9 0
v 1.1 2 0
v 1.1 2.6 0
v 1.1 2.7 0
v 1.2 1.3 0
v 1.2 1.4 0
v 1.5 1.3 0
v 1.5 1.4 0
v 1.6 1.3 0
v 1.6 1.4 0
v 1.6 1.9 0
v 1.6 2 0
v 1.6 2.6 0
v 1.6 2.7 0
v 1.7 1.8 0
v 1.7 1.9 0
v 1.7 2 0
v 1.7 2.6 0
v 1.7 2.7 0
v 1.8 1.8 0
v 1.8 1.9 0
v 0.9 1.7 -0.1
v 0.9 1.8 -0.1
v 1 1.7 -0.1
v 1 1.8 -0.1
v 1.5 1.2 -0.1
v 1.5 1.3 -0.1
v 1.6 1.2 -0.1
v 1.6 1.3 -0.1
v 1.6 2 -0.1
v 1.6 2.1 -0.1
v 1.7 2 -0.1
v 1.7 2.1 -0.1
v 1 2 -0.2
v 1 2.1 -0.2
v 1.1 2 -0.2
v 1.1 2.1 -0.2
v 1 2 0
v 1 2.1 0
v 1.1 1.2 0
v 1.1 1.3 0
v 1.1 2 0
v 1.1 2.1 0
v 1.2 1.2 0
v 1.2 1.3 0
v 1.6 2 0
v 1.6 2.1 0
v 1.7 1.7 0
v 1.7 1.8 0
v 1.7 2 0
v 1.7 2.1 0
v 1.8 1.7 0
v 1.8 1.8 0
v 0.9 1.8 -0.1
v 0.9 1.9 -0.1
v 1 1.8 -0.1
v 1 1.9 -0.1
v 1 2 -0.1
v 1.1 1.3 -0.1
v 1.1 1.4 -0.1
v 1.1 1.9 -0.1
v 1.1 2 -0.1
v 1.2 1.3 -0.1
v 1.2 1.4 -0.1
v 1.5 1.3 -0.1
v 1.5 1.4 -0.1
v 1.6 1.3 -0.1
v 1.6 1.4 -0.1
v 1.6 1.9 -0.1
v 1.6 2 -0.1
v 1.7 1.8 -0.1
v 1.7 1.9 -0.1
v 1.7 2 -0.1
v 1.8 1.8 -0.1
v 1.8 1.9 -0.1
v 1 2.6 -0.2
v 1 2.7 -0.2
v 1.1 1.4 -0.2
v 1.1 1.5 -0.2
v 1.1 1.9 -0.2
v 1.1 2.6 -0.2
v 1.1 2.7 -0.2
v 1.2 1.9 -0.2
v 1.2 2.1 -0.2
v 1.3 1.9 -0.2
v 1.3 2.1 -0.2
v 1.4 1.9 -0.2
v 1.4 2 -0.2
v 1.5 1.9 -0.2
v 1.5 2 -0.2
v 1.5 2.1 -0.2
v 1.6 1.4 -0.2
v 1.6 1.5 -0.2
v 1.6 2 -0.2
v 1.6 2.1 -0.2
v 1.6 2.6 -0.2
v 1.6 2.7 -0.2
v 1.7 2.6 -0.2
v 1.7 2.7 -0.2
v 1 2 -0.3
v 1 2.4 -0.3
v 1 2.6 -0.3
v 1.1 1.9 -0.3
v 1.1 2 -0.3
v 1.1 2.6 -0.3
v 1.1 2.7 -0.3
v 1.2 1.9 -0.3
v 1.2 2.1 -0.3
v 1.3 1.9 -0.3
v 1.3 2.1 -0.3
v 1.4 1.9 -0.3
v 1.4 2 -0.3
v 1.5 2 -0.3
v 1.5 2.1 -0.3
v 1.6 2 -0.3
v 1.6 2.1 -0.3
v 1.6 2.6 -0.3
v 1.6 2.7 -0.3
v 1.7 2 -0.3
v 1.7 2.4 -0.3
v 1.7 2.6 -0.3
v 1.5 1.2 -0.4
v 1.5 1.3 -0.4
v 1.6 1.2 -0.4
v 1.6 1.3 -0.4
v 0.9 1.7 -0.5
v 0.9 1.8 -0.5
v 1 1.7 -0.5
v 1 1.8 -0.5
v 1.1 1.2 0.3
v 1.2 1.2 0.3
v 1.1 1.2 0.1
v 1.2 1.2 0.1
v 1.1 1.2 0
v 1.2 1.2 0
v 1.5 1.2 -0.1
v 1.6 1.2 -0.1
v 1.5 1.2 -0.2
v 1.6 1.2 -0.2
v 1.5 1.2 -0.4
v 1.6 1.2 -0.4
v 1.1 1.3 0
v 1.2 1.3 0
v 1.5 1.3 0
v 1.6 1.3 0
v 1.1 1.3 -0.1
v 1.2 1.3 -0.1
v 1.5 1.3 -0.1
v 1.6 1.3 -0.1
v 1.1 1.4 0.1
v 1.6 1.4 0.1
v 1.1 1.4 0
v 1.2 1.4 0
v 1.5 1.4 0
v 1.6 1.4 0
v 1.1 1.4 -0.1
v 1.2 1.4 -0.1
v 1.5 1.4 -0.1
v 1.6 1.4 -0.1
v 1.1 1.4 -0.2
v 1.6 1.4 -0.2
v 1.7 1.7 0.4
v 1.8 1.7 0.4
v 1.7 1.7 0
v 1.8 1.7 0
v 0.9 1.7 -0.1
v 1 1.7 -0.1
v 0.9 1.7 -0.5
v 1 1.7 -0.5
v 0.9 1.8 0
v 1 1.8 0
v 1.7 1.8 0
v 1.8 1.8 0
v 0.9 1.8 -0.1
v 1 1.8 -0.1
v 1.7 1.8 -0.1
v 1.8 1.8 -0.1
v 1 1.9 0
v 1.1 1.9 0
v 1.6 1.9 0
v 1.7 1.9 0
v 1 1.9 -0.1
v 1.1 1.9 -0.1
v 1.6 1.9 -0.1
v 1.7 1.9 -0.1
v 1.1 1.9 -0.2
v 1.2 1.9 -0.2
v 1.3 1.9 -0.2
v 1.4 1.9 -0.2
v 1.1 1.9 -0.3
v 1.2 1.9 -0.3
v 1.3 1.9 -0.3
v 1.4 1.9 -0.3
v 1.1 2 0.2
v 1.2 2 0.2
v 1.4 2 0.2
v 1.5 2 0.2
v 1 2 0.1
v 1.1 2 0.1
v 1.2 2 0.1
v 1.4 2 0.1
v 1.5 2 0.1
v 1.6 2 0.1
v 1.7 2 0.1
v 1 2 0
v 1.1 2 0
v 1.6 2 0
v 1.7 2 0
v 1.6 2 -0.1
v 1.7 2 -0.1
v 1 2 -0.2
v 1.1 2 -0.2
v 1.4 2 -0.2
v 1.5 2 -0.2
v 1.6 2 -0.2
v 1 2 -0.3
v 1.1 2 -0.3
v 1.4 2 -0.3
v 1.5 2 -0.3
v 1.6 2 -0.3
v 1.7 2 -0.3
v 1 2.1 0.2
v 1.1 2.1 0.2
v 1.5 2.1 0.2
v 1.7 2.1 0.2
v 1 2.1 0.1
v 1.1 2.1 0.1
v 1.5 2.1 0.1
v 1.6 2.1 0.1
v 1.7 2.1 0.1
v 1 2.1 0
v 1.1 2.1 0
v 1.6 2.1 0
v 1.7 2.1 0
v 1.6 2.1 -0.1
v 1.7 2.1 -0.1
v 1 2.1 -0.2
v 1.1 2.1 -0.2
v 1.2 2.1 -0.2
v 1.3 2.1 -0.2
v 1.5 2.1 -0.2
v 1.6 2.1 -0.2
v 1.2 2.1 -0.3
v 1.3 2.1 -0.3
v 1.5 2.1 -0.3
v 1.6 2.1 -0.3
v 1.2 2.3 0.2
v 1.3 2.3 0.2
v 1.2 2.3 0.1
v 1.3 2.3 0.1
v 1 2.4 0.3
v 1.7 2.4 0.3
v 1 2.4 0.2
v 1.3 2.4 0.2
v 1.4 2.4 0.2
v 1.7 2.4 0.2
v 1.3 2.4 0.1
v 1.4 2.4 0.1
v 1.1 1.3 0.3
v 1.2 1.3 0.3
v 1.1 1.3 0.1
v 1.2 1.3 0.1
v 1.1 1.3 0
v 1.2 1.3 0
v 1.5 1.3 -0.1
v 1.6 1.3 -0.1
v 1.5 1.3 -0.2
v 1.6 1.3 -0.2
v 1.5 1.3 -0.4
v 1.6 1.3 -0.4
v 1.7 1.8 0.4
v 1.8 1.8 0.4
v 1.7 1.8 0
v 1.8 1.8 0
v 0.9 1.8 -0.1
v 1 1.8 -0.1
v 0.9 1.8 -0.5
v 1 1.8 -0.5
v 0.9 1.9 0
v 1 1.9 0
v 1.7 1.9 0
v 1.8 1.9 0
v 0.9 1.9 -0.1
v 1 1.9 -0.1
v 1.7 1.9 -0.1
v 1.8 1.9 -0.1
v 1 2 0
v 1.1 2 0
v 1.6 2 0
v 1.7 2 0
v 1 2 -0.1
v 1.1 2 -0.1
v 1.6 2 -0.1
v 1.7 2 -0.1
v 1 2.5 0.3
v 1.7 2.5 0.3
v 1 2.5 0.1
v 1.7 2.5 0.1
v 1 2.6 0.1
v 1.1 2.6 0.1
v 1.6 2.6 0.1
v 1.7 2.6 0.1
v 1 2.6 0
v 1.1 2.6 0
v 1.6 2.6 0
v 1.7 2.6 0
v 1 2.6 -0.2
v 1.1 2.6 -0.2
v 1.6 2.6 -0.2
v 1.7 2.6 -0.2
v 1 2.6 -0.3
v 1.1 2.6 -0.3
v 1.6 2.6 -0.3
v 1.7 2.6 -0.3
v 1.1 2.7 0.1
v 1.6 2.7 0.1
v 1 2.7 0
v 1.1 2.7 0
v 1.6 2.7 0
v 1.7 2.7 0
v 1 2.7 -0.2
v 1.1 2.7 -0.2
v 1.6 2.7 -0.2
v 1.7 2.7 -0.2
v 1.1 2.7 -0.3
v 1.6 2.7 -0.3

# faces
f 4/1/1 2/1/1 1/1/1
f 5/1/1 2/1/1 4/1/1
f 6/1/1 4/1/1 3/1/1
f 7/1/1 4/1/1 6/1/1
f 11/3/1 9/3/1 8/3/1
f 12/3/1 9/3/1 11/3/1
f 16/5/1 11/5/1 10/5/1
f 17/5/1 11/5/1 16/5/1
f 18/5/1 14/5/1 13/5/1
f 20/5/1 17/5/1 16/5/1
f 20/5/1 18/5/1 17/5/1
f 20/5/1 16/5/1 15/5/1
f 21/5/1 14/5/1 18/5/1
f 21/5/1 18/5/1 20/5/1
f 22/4/1 20/4/1 19/4/1
f 22/4/1 21/4/1 20/4/1
f 23/4/1 21/4/1 22/4/1
f 24/4/1 21/4/1 23/4/1
f 25/4/1 21/4/1 24/4/1
f 26/4/1 21/4/1 25/4/1
f 27/4/1 21/4/1 26/4/1
f 28/4/1 26/4/1 25/4/1
f 29/4/1 26/4/1 28/4/1
f 33/1/1 31/1/1 30/1/1
f 34/2/1 32/2/1 31/2/1
f 34/1/1 31/1/1 33/1/1
f 35/2/1 32/2/1 34/2/1
f 38/2/1 36/2/1 35/2/1
f 39/2/1 36/2/1 38/2/1
f 41/2/1 38/2/1 37/2/1
f 41/2/1 40/2/1 39/2/1
f 41/2/1 39/2/1 38/2/1
f 42/2/1 40/2/1 41/2/1
f 43/3/1 42/3/1 41/3/1
f 44/3/1 42/3/1 43/3/1
f 45/3/1 42/3/1 44/3/1
f 48/3/1 43/3/1 41/3/1
f 49/3/1 43/3/1 48/3/1
f 50/3/1 45/3/1 44/3/1
f 51/5/1 46/5/1 45/5/1
f 51/3/1 45/3/1 50/3/1
f 52/5/1 46/5/1 51/5/1
f 53/5/1 48/5/1 47/5/1
f 54/5/1 48/5/1 53/5/1
f 55/1/1 50/1/1 49/1/1
f 55/1/1 51/1/1 50/1/1
f 56/1/1 51/1/1 55/1/1
f 61/4/1 58/4/1 57/4/1
f 62/4/1 58/4/1 61/4/1
f 63/4/1 60/4/1 59/4/1
f 64/4/1 60/4/1 63/4/1
f 67/5/1 66/5/1 65/5/1
f 68/5/1 66/5/1 67/5/1
f 71/5/1 70/5/1 69/5/1
f 72/5/1 70/5/1 71/5/1
f 77/2/1 74/2/1 73/2/1
f 78/1/1 75/1/1 74/1/1
f 78/2/1 74/2/1 77/2/1
f 79/1/1 75/1/1 78/1/1
f 80/2/1 77/2/1 76/2/1
f 81/2/1 77/2/1 80/2/1
f 84/5/1 83/5/1 82/5/1
f 85/5/1 83/5/1 84/5/1
f 88/1/1 87/1/1 86/1/1
f 89/1/1 87/1/1 88/1/1
f 91/1/1 90/1/1 89/1/1
f 92/1/1 90/1/1 91/1/1
f 93/1/2 94/1/2 96/1/2
f 96/1/2 94/1/2 97/1/2
f 95/1/2 96/1/2 98/1/2
f 98/1/2 96/1/2 99/1/2
f 100/1/2 101/1/2 103/1/2
f 101/2/2 102/2/2 104/2/2
f 103/1/2 101/1/2 104/1/2
f 104/2/2 102/2/2 105/2/2
f 105/2/2 106/2/2 107/2/2
f 107/2/2 106/2/2 108/2/2
f 109/5/2 110/5/2 113/5/2
f 113/5/2 110/5/2 114/5/2
f 111/5/2 112/5/2 115/5/2
f 115/5/2 112/5/2 116/5/2
f 117/5/2 118/5/2 119/5/2
f 119/5/2 118/5/2 120/5/2
f 121/5/2 122/5/2 123/5/2
f 123/5/2 122/5/2 124/5/2
f 125/5/2 126/5/2 129/5/2
f 129/5/2 126/5/2 130/5/2
f 127/5/2 128/5/2 131/5/2
f 131/5/2 128/5/2 132/5/2
f 133/2/2 134/2/2 137/2/2
f 134/1/2 135/1/2 138/1/2
f 137/2/2 134/2/2 138/2/2
f 138/1/2 135/1/2 139/1/2
f 136/2/2 137/2/2 141/2/2
f 141/2/2 137/2/2 142/2/2
f 140/2/2 141/2/2 144/2/2
f 142/2/2 143/2/2 144/2/2
f 141/2/2 142/2/2 144/2/2
f 144/2/2 143/2/2 145/2/2
f 144/3/2 145/3/2 146/3/2
f 146/3/2 145/3/2 147/3/2
f 144/3/2 146/3/2 148/3/2
f 148/3/2 146/3/2 149/3/2
f 147/3/2 145/3/2 150/3/2
f 150/3/2 145/3/2 151/3/2
f 149/1/2 150/1/2 152/1/2
f 152/1/2 150/1/2 153/1/2
f 154/4/2 155/4/2 158/4/2
f 158/4/2 155/4/2 159/4/2
f 156/4/2 157/4/2 160/4/2
f 160/4/2 157/4/2 161/4/2
f 162/3/2 163/3/2 165/3/2
f 165/3/2 163/3/2 166/3/2
f 164/5/2 165/5/2 169/5/2
f 169/5/2 165/5/2 170/5/2
f 166/5/2 167/5/2 171/5/2
f 169/5/2 170/5/2 173/5/2
f 170/5/2 171/5/2 173/5/2
f 168/5/2 169/5/2 173/5/2
f 171/5/2 167/5/2 174/5/2
f 173/5/2 171/5/2 174/5/2
f 172/4/2 173/4/2 175/4/2
f 173/4/2 174/4/2 175/4/2
f 175/4/2 174/4/2 176/4/2
f 176/4/2 174/4/2 177/4/2
f 177/4/2 174/4/2 178/4/2
f 178/4/2 174/4/2 179/4/2
f 179/4/2 174/4/2 180/4/2
f 178/4/2 179/4/2 181/4/2
f 181/4/2 179/4/2 182/4/2
f 183/1/2 184/1/2 185/1/2
f 185/1/2 184/1/2 186/1/2
f 186/1/2 187/1/2 188/1/2
f 188/1/2 187/1/2 189/1/2
f 192/1/3 191/1/3 190/1/3
f 193/1/3 191/1/3 192/1/3
f 198/1/3 197/1/3 196/1/3
f 199/1/3 197/1/3 198/1/3
f 200/4/3 195/4/3 194/4/3
f 201/4/3 195/4/3 200/4/3
f 205/5/3 203/5/3 202/5/3
f 206/5/3 205/5/3 204/5/3
f 207/5/3 203/5/3 205/5/3
f 207/5/3 205/5/3 206/5/3
f 208/5/3 203/5/3 207/5/3
f 209/5/3 203/5/3 208/5/3
f 212/5/3 211/5/3 210/5/3
f 213/5/3 211/5/3 212/5/3
f 214/5/3 211/5/3 213/5/3
f 215/5/3 211/5/3 214/5/3
f 222/5/3 217/5/3 216/5/3
f 223/5/3 217/5/3 222/5/3
f 224/4/3 219/4/3 218/4/3
f 226/3/3 222/3/3 221/3/3
f 227/3/3 222/3/3 226/3/3
f 229/3/3 226/3/3 221/3/3
f 230/1/3 228/1/3 227/1/3
f 230/3/3 226/3/3 229/3/3
f 230/1/3 227/1/3 226/1/3
f 231/1/3 228/1/3 230/1/3
f 233/3/3 229/3/3 221/3/3
f 233/1/3 232/1/3 231/1/3
f 233/1/3 231/1/3 230/1/3
f 233/1/3 230/1/3 229/1/3
f 234/1/3 232/1/3 233/1/3
f 235/1/3 232/1/3 234/1/3
f 236/1/3 232/1/3 235/1/3
f 237/3/3 234/3/3 233/3/3
f 237/1/3 235/1/3 234/1/3
f 238/1/3 235/1/3 237/1/3
f 240/2/3 221/2/3 220/2/3
f 241/3/3 233/3/3 221/3/3
f 241/2/3 221/2/3 240/2/3
f 241/3/3 237/3/3 233/3/3
f 241/3/3 238/3/3 237/3/3
f 242/1/3 239/1/3 238/1/3
f 242/3/3 238/3/3 241/3/3
f 243/1/3 239/1/3 242/1/3
f 244/4/3 225/4/3 224/4/3
f 244/4/3 224/4/3 218/4/3
f 245/4/3 225/4/3 244/4/3
f 246/5/3 243/5/3 242/5/3
f 247/5/3 243/5/3 246/5/3
f 248/4/3 244/4/3 218/4/3
f 249/4/3 244/4/3 248/4/3
f 252/1/3 251/1/3 250/1/3
f 253/1/3 251/1/3 252/1/3
f 259/3/3 254/3/3 253/3/3
f 260/3/3 254/3/3 259/3/3
f 261/4/3 256/4/3 255/4/3
f 262/4/3 256/4/3 261/4/3
f 263/2/3 258/2/3 257/2/3
f 264/2/3 258/2/3 263/2/3
f 267/2/3 266/2/3 265/2/3
f 268/2/3 266/2/3 267/2/3
f 274/3/3 270/3/3 269/3/3
f 275/3/3 270/3/3 274/3/3
f 276/4/3 272/4/3 271/4/3
f 277/4/3 272/4/3 276/4/3
f 278/1/3 274/1/3 273/1/3
f 279/1/3 274/1/3 278/1/3
f 282/1/3 281/1/3 280/1/3
f 283/1/3 281/1/3 282/1/3
f 286/2/3 285/2/3 284/2/3
f 287/2/3 285/2/3 286/2/3
f 290/5/3 289/5/3 288/5/3
f 291/5/3 289/5/3 290/5/3
f 294/5/3 293/5/3 292/5/3
f 295/5/3 293/5/3 294/5/3
f 296/5/4 297/5/4 300/5/4
f 300/5/4 297/5/4 301/5/4
f 298/2/4 299/2/4 302/2/4
f 302/2/4 299/2/4 303/2/4
f 304/5/4 305/5/4 308/5/4
f 308/5/4 305/5/4 309/5/4
f 306/1/4 307/1/4 310/1/4
f 310/1/4 307/1/4 311/1/4
f 312/1/4 313/1/4 314/1/4
f 314/1/4 313/1/4 315/1/4
f 315/3/4 316/3/4 319/3/4
f 319/3/4 316/3/4 320/3/4
f 317/2/4 318/2/4 321/2/4
f 321/2/4 318/2/4 322/2/4
f 323/2/4 324/2/4 325/2/4
f 325/2/4 324/2/4 326/2/4
f 327/3/4 328/3/4 330/3/4
f 330/3/4 328/3/4 331/3/4
f 329/1/4 330/1/4 332/1/4
f 332/1/4 330/1/4 333/1/4
f 334/4/4 335/4/4 339/4/4
f 339/4/4 335/4/4 340/4/4
f 337/3/4 338/3/4 341/3/4
f 337/3/4 341/3/4 343/3/4
f 341/1/4 342/1/4 343/1/4
f 343/1/4 342/1/4 344/1/4
f 337/3/4 343/3/4 345/3/4
f 337/3/4 345/3/4 347/3/4
f 345/1/4 346/1/4 347/1/4
f 347/1/4 346/1/4 348/1/4
f 336/2/4 337/2/4 350/2/4
f 337/3/4 347/3/4 351/3/4
f 350/2/4 337/2/4 351/2/4
f 347/3/4 348/3/4 351/3/4
f 348/1/4 349/1/4 352/1/4
f 351/3/4 348/3/4 352/3/4
f 352/1/4 349/1/4 353/1/4
f 354/4/4 355/4/4 356/4/4
f 356/4/4 355/4/4 357/4/4
f 358/5/4 359/5/4 362/5/4
f 359/4/4 360/4/4 363/4/4
f 361/5/4 362/5/4 365/5/4
f 362/5/4 359/5/4 366/5/4
f 365/5/4 362/5/4 366/5/4
f 366/5/4 359/5/4 368/5/4
f 367/5/4 368/5/4 369/5/4
f 369/5/4 368/5/4 370/5/4
f 370/5/4 368/5/4 371/5/4
f 368/5/4 359/5/4 372/5/4
f 371/5/4 368/5/4 372/5/4
f 372/5/4 359/5/4 374/5/4
f 363/4/4 364/4/4 375/4/4
f 359/4/4 363/4/4 375/4/4
f 375/4/4 364/4/4 376/4/4
f 373/5/4 374/5/4 377/5/4
f 374/5/4 359/5/4 378/5/4
f 377/5/4 374/5/4 378/5/4
f 359/4/4 375/4/4 378/4/4
f 378/4/4 375/4/4 379/4/4
f 380/1/4 381/1/4 382/1/4
f 382/1/4 381/1/4 383/1/4
f 384/1/4 385/1/4 386/1/4
f 386/1/4 385/1/4 387/1/4
f 390/1/5 389/1/5 388/1/5
f 391/1/5 389/1/5 390/1/5
f 392/2/5 391/2/5 390/2/5
f 393/2/5 391/2/5 392/2/5
f 396/2/5 395/2/5 394/2/5
f 397/2/5 395/2/5 396/2/5
f 398/1/5 397/1/5 396/1/5
f 399/1/5 397/1/5 398/1/5
f 404/2/5 401/2/5 400/2/5
f 405/2/5 401/2/5 404/2/5
f 406/2/5 403/2/5 402/2/5
f 407/2/5 403/2/5 406/2/5
f 410/2/5 409/2/5 408/2/5
f 411/2/5 409/2/5 410/2/5
f 412/2/5 409/2/5 411/2/5
f 413/2/5 409/2/5 412/2/5
f 415/2/5 412/2/5 411/2/5
f 416/2/5 412/2/5 415/2/5
f 418/2/5 415/2/5 414/2/5
f 418/2/5 417/2/5 416/2/5
f 418/2/5 416/2/5 415/2/5
f 419/2/5 417/2/5 418/2/5
f 422/1/5 421/1/5 420/1/5
f 423/1/5 421/1/5 422/1/5
f 426/1/5 425/1/5 424/1/5
f 427/1/5 425/1/5 426/1/5
f 432/1/5 429/1/5 428/1/5
f 433/1/5 429/1/5 432/1/5
f 434/1/5 431/1/5 430/1/5
f 435/1/5 431/1/5 434/1/5
f 440/3/5 437/3/5 436/3/5
f 441/3/5 437/3/5 440/3/5
f 442/3/5 439/3/5 438/3/5
f 443/3/5 439/3/5 442/3/5
f 448/5/5 445/5/5 444/5/5
f 449/5/5 445/5/5 448/5/5
f 450/5/5 447/5/5 446/5/5
f 451/5/5 447/5/5 450/5/5
f 457/5/5 453/5/5 452/5/5
f 458/5/5 453/5/5 457/5/5
f 459/5/5 455/5/5 454/5/5
f 460/5/5 455/5/5 459/5/5
f 463/5/5 457/5/5 456/5/5
f 464/5/5 457/5/5 463/5/5
f 465/5/5 462/5/5 461/5/5
f 466/5/5 462/5/5 465/5/5
f 473/5/5 468/5/5 467/5/5
f 474/5/5 470/5/5 469/5/5
f 475/5/5 470/5/5 474/5/5
f 476/5/5 472/5/5 471/5/5
f 477/5/5 472/5/5 476/5/5
f 478/5/5 468/5/5 473/5/5
f 479/5/5 468/5/5 478/5/5
f 484/5/5 481/5/5 480/5/5
f 485/5/5 481/5/5 484/5/5
f 486/5/5 483/5/5 482/5/5
f 487/5/5 483/5/5 486/5/5
f 488/5/5 483/5/5 487/5/5
f 493/5/5 492/5/5 491/5/5
f 494/5/5 492/5/5 493/5/5
f 495/5/5 490/5/5 489/5/5
f 496/5/5 490/5/5 495/5/5
f 501/5/5 498/5/5 497/5/5
f 502/5/5 498/5/5 501/5/5
f 503/5/5 500/5/5 499/5/5
f 504/5/5 500/5/5 503/5/5
f 507/5/5 506/5/5 505/5/5
f 508/5/5 506/5/5 507/5/5
f 511/4/5 510/4/5 509/4/5
f 512/4/5 510/4/5 511/4/5
f 513/4/5 510/4/5 512/4/5
f 514/4/5 510/4/5 513/4/5
f 515/4/5 513/4/5 512/4/5
f 516/4/5 513/4/5 515/4/5
f 517/1/6 518/1/6 519/1/6
f 519/1/6 518/1/6 520/1/6
f 519/2/6 520/2/6 521/2/6
f 521/2/6 520/2/6 522/2/6
f 523/2/6 524/2/6 525/2/6
f 525/2/6 524/2/6 526/2/6
f 525/1/6 526/1/6 527/1/6
f 527/1/6 526/1/6 528/1/6
f 529/1/6 530/1/6 531/1/6
f 531/1/6 530/1/6 532/1/6
f 533/1/6 534/1/6 535/1/6
f 535/1/6 534/1/6 536/1/6
f 537/1/6 538/1/6 541/1/6
f 541/1/6 538/1/6 542/1/6
f 539/1/6 540/1/6 543/1/6
f 543/1/6 540/1/6 544/1/6
f 545/3/6 546/3/6 549/3/6
f 549/3/6 546/3/6 550/3/6
f 547/3/6 548/3/6 551/3/6
f 551/3/6 548/3/6 552/3/6
f 553/4/6 554/4/6 555/4/6
f 555/4/6 554/4/6 556/4/6
f 557/4/6 558/4/6 561/4/6
f 561/4/6 558/4/6 562/4/6
f 559/4/6 560/4/6 563/4/6
f 563/4/6 560/4/6 564/4/6
f 565/4/6 566/4/6 569/4/6
f 569/4/6 566/4/6 570/4/6
f 567/4/6 568/4/6 571/4/6
f 571/4/6 568/4/6 572/4/6
f 573/4/6 574/4/6 576/4/6
f 576/4/6 574/4/6 577/4/6
f 575/4/6 576/4/6 579/4/6
f 577/4/6 578/4/6 579/4/6
f 576/4/6 577/4/6 579/4/6
f 579/4/6 578/4/6 580/4/6
f 580/4/6 578/4/6 581/4/6
f 581/4/6 578/4/6 582/4/6
f 580/4/6 581/4/6 583/4/6
f 583/4/6 581/4/6 584/4/6
