# MagicaVoxel @ Ephtracy

# group
o 

# material
mtllib Run-5.mtl
usemtl palette

# normals
vn -1 0 0
vn 1 0 0
vn 0 0 1
vn 0 0 -1
vn 0 -1 0
vn 0 1 0

# texcoords
vt 0.970703 0.5
vt 0.974609 0.5
vt 0.978516 0.5
vt 0.982422 0.5
vt 0.986328 0.5

# verts
v -0.4 0.5 0.5
v -0.4 0.5 0.3
v -0.4 0.6 0.5
v -0.4 0.6 0.3
v -0.4 0.6 0.1
v -0.4 0.7 0.3
v -0.4 0.7 0.1
v -0.4 0.7 0
v -0.4 0.8 0.1
v -0.4 0.8 0
v -0.3 0.8 0.1
v -0.3 0.8 0
v -0.3 0.9 0.2
v -0.3 0.9 0.1
v -0.3 0.9 0
v -0.3 0.9 -0.1
v -0.3 0.9 -0.2
v -0.3 1 0.3
v -0.3 1 0.2
v -0.3 1 0.1
v -0.3 1 -0.1
v -0.3 1.3 0.4
v -0.3 1.3 0.3
v -0.3 1.3 -0.2
v -0.3 1.4 0.4
v -0.3 1.4 0.2
v -0.3 1.5 0.2
v -0.3 1.5 0.1
v -0.3 1.5 -0.1
v -0.3 1.5 -0.2
v -0.3 1.6 0.1
v -0.3 1.6 -0.1
v -0.2 0 -0.1
v -0.2 0 -0.3
v -0.2 0.1 0
v -0.2 0.1 -0.1
v -0.2 0.1 -0.3
v -0.2 0.2 0.1
v -0.2 0.2 0
v -0.2 0.2 -0.1
v -0.2 0.3 0.2
v -0.2 0.3 0.1
v -0.2 0.3 0
v -0.2 0.3 -0.1
v -0.2 0.4 0.2
v -0.2 0.4 -0.1
v -0.2 0.8 0.1
v -0.2 0.8 0
v -0.2 0.8 -0.1
v -0.2 0.8 -0.2
v -0.2 0.9 0.3
v -0.2 0.9 0.2
v -0.2 0.9 0.1
v -0.2 0.9 0
v -0.2 0.9 -0.1
v -0.2 0.9 -0.2
v -0.2 1 0.3
v -0.2 1 0.2
v -0.2 1 0.1
v -0.2 1 -0.1
v -0.2 1.5 0.2
v -0.2 1.5 0.1
v -0.2 1.5 -0.1
v -0.2 1.5 -0.2
v -0.2 1.6 0.2
v -0.2 1.6 0.1
v -0.2 1.6 -0.1
v -0.2 1.6 -0.2
v 0 0.8 -0.1
v 0 0.8 -0.2
v 0 1 -0.1
v 0 1 -0.2
v 0.1 0.9 0.3
v 0.1 0.9 0.2
v 0.1 1.3 0.3
v 0.1 1.3 0.2
v 0.2 0 0.4
v 0.2 0 0.2
v 0.2 0.1 0.4
v 0.2 0.1 0.2
v 0.2 0.1 0.1
v 0.2 0.2 0.2
v 0.2 0.2 0.1
v 0.2 0.2 0
v 0.2 0.3 0.1
v 0.2 0.3 0
v 0.3 0.9 -0.1
v 0.3 0.9 -0.2
v 0.3 1 -0.1
v 0.3 1 -0.2
v 0.4 0.5 -0.2
v 0.4 0.5 -0.4
v 0.4 0.6 0
v 0.4 0.6 -0.2
v 0.4 0.6 -0.4
v 0.4 0.7 0.1
v 0.4 0.7 0
v 0.4 0.7 -0.2
v 0.4 0.8 0.1
v 0.4 0.8 0
v -0.3 0.5 0.5
v -0.3 0.5 0.3
v -0.3 0.6 0.5
v -0.3 0.6 0.3
v -0.3 0.6 0.1
v -0.3 0.7 0.3
v -0.3 0.7 0.1
v -0.3 0.7 0
v -0.3 0.8 0.1
v -0.3 0.8 0
v -0.1 0 -0.1
v -0.1 0 -0.3
v -0.1 0.1 0
v -0.1 0.1 -0.1
v -0.1 0.1 -0.3
v -0.1 0.2 0.1
v -0.1 0.2 0
v -0.1 0.2 -0.1
v -0.1 0.3 0.1
v -0.1 0.3 0
v -0.1 0.8 -0.1
v -0.1 0.8 -0.2
v -0.1 0.9 0.3
v -0.1 0.9 0.2
v -0.1 1 -0.1
v -0.1 1 -0.2
v -0.1 1.2 0.3
v -0.1 1.2 0.2
v 0 1.2 0.3
v 0 1.2 0.2
v 0 1.3 0.3
v 0 1.3 0.2
v 0.1 0.8 -0.1
v 0.1 0.8 -0.2
v 0.1 0.9 -0.1
v 0.1 0.9 -0.2
v 0.2 0.9 0.3
v 0.2 0.9 0.2
v 0.2 0.9 -0.1
v 0.2 0.9 -0.2
v 0.2 1 0.3
v 0.2 1 0.2
v 0.2 1 -0.1
v 0.2 1 -0.2
v 0.3 0 0.4
v 0.3 0 0.2
v 0.3 0.1 0.4
v 0.3 0.1 0.2
v 0.3 0.1 0.1
v 0.3 0.2 0.2
v 0.3 0.2 0.1
v 0.3 0.2 0
v 0.3 0.3 0.2
v 0.3 0.3 0.1
v 0.3 0.3 0
v 0.3 0.3 -0.1
v 0.3 0.4 0.2
v 0.3 0.4 -0.1
v 0.3 0.8 0.1
v 0.3 0.8 0
v 0.3 0.9 0.2
v 0.3 0.9 0.1
v 0.3 0.9 0
v 0.3 0.9 -0.1
v 0.3 1 0.1
v 0.3 1 0
v 0.3 1.5 0.2
v 0.3 1.5 0.1
v 0.3 1.5 -0.1
v 0.3 1.5 -0.2
v 0.3 1.6 0.2
v 0.3 1.6 0.1
v 0.3 1.6 -0.1
v 0.3 1.6 -0.2
v 0.4 0.8 0.1
v 0.4 0.8 0
v 0.4 0.9 0.2
v 0.4 0.9 0.1
v 0.4 0.9 0
v 0.4 0.9 -0.2
v 0.4 1 0.3
v 0.4 1 0.2
v 0.4 1 0.1
v 0.4 1 0
v 0.4 1.3 0.4
v 0.4 1.3 0.3
v 0.4 1.3 -0.2
v 0.4 1.4 0.4
v 0.4 1.4 0.2
v 0.4 1.5 0.2
v 0.4 1.5 0.1
v 0.4 1.5 -0.1
v 0.4 1.5 -0.2
v 0.4 1.6 0.1
v 0.4 1.6 -0.1
v 0.5 0.5 -0.2
v 0.5 0.5 -0.4
v 0.5 0.6 0
v 0.5 0.6 -0.2
v 0.5 0.6 -0.4
v 0.5 0.7 0.1
v 0.5 0.7 0
v 0.5 0.7 -0.2
v 0.5 0.8 0.1
v 0.5 0.8 0
v -0.4 0.5 0.5
v -0.4 0.6 0.5
v -0.3 0.5 0.5
v -0.3 0.6 0.5
v -0.3 1.3 0.4
v -0.3 1.4 0.4
v 0.2 0 0.4
v 0.2 0.1 0.4
v 0.3 0 0.4
v 0.3 0.1 0.4
v 0.4 1.3 0.4
v 0.4 1.4 0.4
v -0.4 0.6 0.3
v -0.4 0.7 0.3
v -0.3 0.6 0.3
v -0.3 0.7 0.3
v -0.3 1 0.3
v -0.3 1.3 0.3
v -0.2 0.9 0.3
v -0.2 1 0.3
v -0.1 0.9 0.3
v -0.1 1.2 0.3
v 0 1.2 0.3
v 0 1.3 0.3
v 0.1 0.9 0.3
v 0.1 1.3 0.3
v 0.2 0.9 0.3
v 0.2 1 0.3
v 0.4 1 0.3
v 0.4 1.3 0.3
v -0.3 0.9 0.2
v -0.3 1 0.2
v -0.3 1.4 0.2
v -0.3 1.5 0.2
v -0.2 0.3 0.2
v -0.2 0.4 0.2
v -0.2 0.9 0.2
v -0.2 1 0.2
v -0.2 1.5 0.2
v -0.2 1.6 0.2
v -0.1 0.8 0.2
v -0.1 0.9 0.2
v -0.1 1.2 0.2
v 0 0.7 0.2
v 0 0.8 0.2
v 0 1.2 0.2
v 0 1.3 0.2
v 0.1 0.7 0.2
v 0.1 0.8 0.2
v 0.1 0.9 0.2
v 0.1 1.3 0.2
v 0.2 0.1 0.2
v 0.2 0.2 0.2
v 0.2 0.8 0.2
v 0.2 0.9 0.2
v 0.2 1 0.2
v 0.3 0.1 0.2
v 0.3 0.2 0.2
v 0.3 0.3 0.2
v 0.3 0.4 0.2
v 0.3 0.9 0.2
v 0.3 1 0.2
v 0.3 1.5 0.2
v 0.3 1.6 0.2
v 0.4 0.9 0.2
v 0.4 1 0.2
v 0.4 1.4 0.2
v 0.4 1.5 0.2
v -0.4 0.7 0.1
v -0.4 0.8 0.1
v -0.3 0.7 0.1
v -0.3 0.8 0.1
v -0.3 0.9 0.1
v -0.3 1.5 0.1
v -0.3 1.6 0.1
v -0.2 0.2 0.1
v -0.2 0.3 0.1
v -0.2 0.8 0.1
v -0.2 0.9 0.1
v -0.2 1.5 0.1
v -0.2 1.6 0.1
v -0.1 0.2 0.1
v -0.1 0.3 0.1
v 0.2 0.2 0.1
v 0.2 0.3 0.1
v 0.3 0.2 0.1
v 0.3 0.3 0.1
v 0.3 0.8 0.1
v 0.3 0.9 0.1
v 0.3 1.5 0.1
v 0.3 1.6 0.1
v 0.4 0.7 0.1
v 0.4 0.8 0.1
v 0.4 0.9 0.1
v 0.4 1.5 0.1
v 0.4 1.6 0.1
v 0.5 0.7 0.1
v 0.5 0.8 0.1
v -0.2 0.1 0
v -0.2 0.2 0
v -0.1 0.1 0
v -0.1 0.2 0
v 0.3 0.9 0
v 0.3 1 0
v 0.4 0.6 0
v 0.4 0.7 0
v 0.4 0.9 0
v 0.4 1 0
v 0.5 0.6 0
v 0.5 0.7 0
v -0.3 0.9 -0.1
v -0.3 1 -0.1
v -0.2 0 -0.1
v -0.2 0.1 -0.1
v -0.2 0.9 -0.1
v -0.2 1 -0.1
v -0.1 0 -0.1
v -0.1 0.1 -0.1
v 0.4 0.5 -0.2
v 0.4 0.6 -0.2
v 0.5 0.5 -0.2
v 0.5 0.6 -0.2
v -0.4 0.5 0.3
v -0.4 0.6 0.3
v -0.3 0.5 0.3
v -0.3 0.6 0.3
v 0.2 0 0.2
v 0.2 0.1 0.2
v 0.3 0 0.2
v 0.3 0.1 0.2
v -0.4 0.6 0.1
v -0.4 0.7 0.1
v -0.3 0.6 0.1
v -0.3 0.7 0.1
v -0.3 0.9 0.1
v -0.3 1 0.1
v -0.2 0.9 0.1
v -0.2 1 0.1
v 0.2 0.1 0.1
v 0.2 0.2 0.1
v 0.3 0.1 0.1
v 0.3 0.2 0.1
v 0.3 0.9 0.1
v 0.3 1 0.1
v 0.4 0.9 0.1
v 0.4 1 0.1
v -0.4 0.7 0
v -0.4 0.8 0
v -0.3 0.7 0
v -0.3 0.8 0
v -0.3 0.9 0
v -0.2 0.2 0
v -0.2 0.3 0
v -0.2 0.8 0
v -0.2 0.9 0
v -0.1 0.2 0
v -0.1 0.3 0
v 0.2 0.2 0
v 0.2 0.3 0
v 0.3 0.2 0
v 0.3 0.3 0
v 0.3 0.8 0
v 0.3 0.9 0
v 0.4 0.7 0
v 0.4 0.8 0
v 0.4 0.9 0
v 0.5 0.7 0
v 0.5 0.8 0
v -0.3 1.5 -0.1
v -0.3 1.6 -0.1
v -0.2 0.1 -0.1
v -0.2 0.2 -0.1
v -0.2 0.3 -0.1
v -0.2 0.4 -0.1
v -0.2 0.8 -0.1
v -0.2 1.5 -0.1
v -0.2 1.6 -0.1
v -0.1 0.1 -0.1
v -0.1 0.2 -0.1
v -0.1 0.8 -0.1
v -0.1 1 -0.1
v 0 0.8 -0.1
v 0 1 -0.1
v 0.1 0.8 -0.1
v 0.1 0.9 -0.1
v 0.2 0.8 -0.1
v 0.2 0.9 -0.1
v 0.2 1 -0.1
v 0.3 0.3 -0.1
v 0.3 0.4 -0.1
v 0.3 0.9 -0.1
v 0.3 1 -0.1
v 0.3 1.5 -0.1
v 0.3 1.6 -0.1
v 0.4 1.5 -0.1
v 0.4 1.6 -0.1
v -0.3 0.9 -0.2
v -0.3 1.3 -0.2
v -0.3 1.5 -0.2
v -0.2 0.8 -0.2
v -0.2 0.9 -0.2
v -0.2 1.5 -0.2
v -0.2 1.6 -0.2
v -0.1 0.8 -0.2
v -0.1 1 -0.2
v 0 0.8 -0.2
v 0 1 -0.2
v 0.1 0.8 -0.2
v 0.1 0.9 -0.2
v 0.2 0.9 -0.2
v 0.2 1 -0.2
v 0.3 0.9 -0.2
v 0.3 1 -0.2
v 0.3 1.5 -0.2
v 0.3 1.6 -0.2
v 0.4 0.6 -0.2
v 0.4 0.7 -0.2
v 0.4 0.9 -0.2
v 0.4 1.3 -0.2
v 0.4 1.5 -0.2
v 0.5 0.6 -0.2
v 0.5 0.7 -0.2
v -0.2 0 -0.3
v -0.2 0.1 -0.3
v -0.1 0 -0.3
v -0.1 0.1 -0.3
v 0.4 0.5 -0.4
v 0.4 0.6 -0.4
v 0.5 0.5 -0.4
v 0.5 0.6 -0.4
v 0.2 0 0.4
v 0.3 0 0.4
v 0.2 0 0.2
v 0.3 0 0.2
v -0.2 0 -0.1
v -0.1 0 -0.1
v -0.2 0 -0.3
v -0.1 0 -0.3
v 0.2 0.1 0.2
v 0.3 0.1 0.2
v 0.2 0.1 0.1
v 0.3 0.1 0.1
v -0.2 0.1 0
v -0.1 0.1 0
v -0.2 0.1 -0.1
v -0.1 0.1 -0.1
v -0.2 0.2 0.1
v -0.1 0.2 0.1
v 0.2 0.2 0.1
v 0.3 0.2 0.1
v -0.2 0.2 0
v -0.1 0.2 0
v 0.2 0.2 0
v 0.3 0.2 0
v -0.2 0.3 0.2
v 0.3 0.3 0.2
v -0.2 0.3 0.1
v -0.1 0.3 0.1
v 0.2 0.3 0.1
v 0.3 0.3 0.1
v -0.2 0.3 0
v -0.1 0.3 0
v 0.2 0.3 0
v 0.3 0.3 0
v -0.2 0.3 -0.1
v 0.3 0.3 -0.1
v -0.4 0.5 0.5
v -0.3 0.5 0.5
v -0.4 0.5 0.3
v -0.3 0.5 0.3
v 0.4 0.5 -0.2
v 0.5 0.5 -0.2
v 0.4 0.5 -0.4
v 0.5 0.5 -0.4
v -0.4 0.6 0.3
v -0.3 0.6 0.3
v -0.4 0.6 0.1
v -0.3 0.6 0.1
v 0.4 0.6 0
v 0.5 0.6 0
v 0.4 0.6 -0.2
v 0.5 0.6 -0.2
v -0.4 0.7 0.1
v -0.3 0.7 0.1
v 0.4 0.7 0.1
v 0.5 0.7 0.1
v -0.4 0.7 0
v -0.3 0.7 0
v 0.4 0.7 0
v 0.5 0.7 0
v -0.3 0.8 0.1
v -0.2 0.8 0.1
v 0.3 0.8 0.1
v 0.4 0.8 0.1
v -0.3 0.8 0
v -0.2 0.8 0
v 0.3 0.8 0
v 0.4 0.8 0
v -0.2 0.8 -0.1
v -0.1 0.8 -0.1
v 0 0.8 -0.1
v 0.1 0.8 -0.1
v -0.2 0.8 -0.2
v -0.1 0.8 -0.2
v 0 0.8 -0.2
v 0.1 0.8 -0.2
v -0.2 0.9 0.3
v -0.1 0.9 0.3
v 0.1 0.9 0.3
v 0.2 0.9 0.3
v -0.3 0.9 0.2
v -0.2 0.9 0.2
v -0.1 0.9 0.2
v 0.1 0.9 0.2
v 0.2 0.9 0.2
v 0.3 0.9 0.2
v 0.4 0.9 0.2
v -0.3 0.9 0.1
v -0.2 0.9 0.1
v 0.3 0.9 0.1
v 0.4 0.9 0.1
v 0.3 0.9 0
v 0.4 0.9 0
v -0.3 0.9 -0.1
v -0.2 0.9 -0.1
v 0.1 0.9 -0.1
v 0.2 0.9 -0.1
v 0.3 0.9 -0.1
v -0.3 0.9 -0.2
v -0.2 0.9 -0.2
v 0.1 0.9 -0.2
v 0.2 0.9 -0.2
v 0.3 0.9 -0.2
v 0.4 0.9 -0.2
v -0.3 1 0.3
v -0.2 1 0.3
v 0.2 1 0.3
v 0.4 1 0.3
v -0.3 1 0.2
v -0.2 1 0.2
v 0.2 1 0.2
v 0.3 1 0.2
v 0.4 1 0.2
v -0.3 1 0.1
v -0.2 1 0.1
v 0.3 1 0.1
v 0.4 1 0.1
v 0.3 1 0
v 0.4 1 0
v -0.3 1 -0.1
v -0.2 1 -0.1
v -0.1 1 -0.1
v 0 1 -0.1
v 0.2 1 -0.1
v 0.3 1 -0.1
v -0.1 1 -0.2
v 0 1 -0.2
v 0.2 1 -0.2
v 0.3 1 -0.2
v -0.1 1.2 0.3
v 0 1.2 0.3
v -0.1 1.2 0.2
v 0 1.2 0.2
v -0.3 1.3 0.4
v 0.4 1.3 0.4
v -0.3 1.3 0.3
v 0 1.3 0.3
v 0.1 1.3 0.3
v 0.4 1.3 0.3
v 0 1.3 0.2
v 0.1 1.3 0.2
v 0.2 0.1 0.4
v 0.3 0.1 0.4
v 0.2 0.1 0.2
v 0.3 0.1 0.2
v -0.2 0.1 -0.1
v -0.1 0.1 -0.1
v -0.2 0.1 -0.3
v -0.1 0.1 -0.3
v 0.2 0.2 0.2
v 0.3 0.2 0.2
v 0.2 0.2 0.1
v 0.3 0.2 0.1
v -0.2 0.2 0
v -0.1 0.2 0
v -0.2 0.2 -0.1
v -0.1 0.2 -0.1
v -0.4 0.6 0.5
v -0.3 0.6 0.5
v -0.4 0.6 0.3
v -0.3 0.6 0.3
v 0.4 0.6 -0.2
v 0.5 0.6 -0.2
v 0.4 0.6 -0.4
v 0.5 0.6 -0.4
v -0.4 0.7 0.3
v -0.3 0.7 0.3
v -0.4 0.7 0.1
v -0.3 0.7 0.1
v 0.4 0.7 0
v 0.5 0.7 0
v 0.4 0.7 -0.2
v 0.5 0.7 -0.2
v -0.4 0.8 0.1
v -0.3 0.8 0.1
v 0.4 0.8 0.1
v 0.5 0.8 0.1
v -0.4 0.8 0
v -0.3 0.8 0
v 0.4 0.8 0
v 0.5 0.8 0
v -0.3 0.9 0.1
v -0.2 0.9 0.1
v 0.3 0.9 0.1
v 0.4 0.9 0.1
v -0.3 0.9 0
v -0.2 0.9 0
v 0.3 0.9 0
v 0.4 0.9 0
v -0.3 1.4 0.4
v 0.4 1.4 0.4
v -0.3 1.4 0.2
v 0.4 1.4 0.2
v -0.3 1.5 0.2
v -0.2 1.5 0.2
v 0.3 1.5 0.2
v 0.4 1.5 0.2
v -0.3 1.5 0.1
v -0.2 1.5 0.1
v 0.3 1.5 0.1
v 0.4 1.5 0.1
v -0.3 1.5 -0.1
v -0.2 1.5 -0.1
v 0.3 1.5 -0.1
v 0.4 1.5 -0.1
v -0.3 1.5 -0.2
v -0.2 1.5 -0.2
v 0.3 1.5 -0.2
v 0.4 1.5 -0.2
v -0.2 1.6 0.2
v 0.3 1.6 0.2
v -0.3 1.6 0.1
v -0.2 1.6 0.1
v 0.3 1.6 0.1
v 0.4 1.6 0.1
v -0.3 1.6 -0.1
v -0.2 1.6 -0.1
v 0.3 1.6 -0.1
v 0.4 1.6 -0.1
v -0.2 1.6 -0.2
v 0.3 1.6 -0.2

# faces
f 3/1/1 2/1/1 1/1/1
f 4/1/1 2/1/1 3/1/1
f 6/1/1 5/1/1 4/1/1
f 7/1/1 5/1/1 6/1/1
f 9/1/1 8/1/1 7/1/1
f 10/1/1 8/1/1 9/1/1
f 14/3/1 12/3/1 11/3/1
f 15/3/1 12/3/1 14/3/1
f 19/5/1 14/5/1 13/5/1
f 20/5/1 14/5/1 19/5/1
f 21/5/1 17/5/1 16/5/1
f 23/5/1 20/5/1 19/5/1
f 23/5/1 21/5/1 20/5/1
f 23/5/1 19/5/1 18/5/1
f 24/5/1 17/5/1 21/5/1
f 24/5/1 21/5/1 23/5/1
f 25/4/1 23/4/1 22/4/1
f 25/4/1 24/4/1 23/4/1
f 26/4/1 24/4/1 25/4/1
f 27/4/1 24/4/1 26/4/1
f 28/4/1 24/4/1 27/4/1
f 29/4/1 24/4/1 28/4/1
f 30/4/1 24/4/1 29/4/1
f 31/4/1 29/4/1 28/4/1
f 32/4/1 29/4/1 31/4/1
f 36/1/1 34/1/1 33/1/1
f 37/1/1 34/1/1 36/1/1
f 39/2/1 36/2/1 35/2/1
f 40/2/1 36/2/1 39/2/1
f 42/2/1 39/2/1 38/2/1
f 43/2/1 39/2/1 42/2/1
f 45/2/1 42/2/1 41/2/1
f 45/2/1 44/2/1 43/2/1
f 45/2/1 43/2/1 42/2/1
f 46/2/1 44/2/1 45/2/1
f 47/3/1 46/3/1 45/3/1
f 48/3/1 46/3/1 47/3/1
f 49/3/1 46/3/1 48/3/1
f 52/3/1 47/3/1 45/3/1
f 53/3/1 47/3/1 52/3/1
f 54/3/1 49/3/1 48/3/1
f 55/5/1 50/5/1 49/5/1
f 55/3/1 49/3/1 54/3/1
f 56/5/1 50/5/1 55/5/1
f 57/5/1 52/5/1 51/5/1
f 58/5/1 52/5/1 57/5/1
f 59/1/1 54/1/1 53/1/1
f 59/1/1 55/1/1 54/1/1
f 60/1/1 55/1/1 59/1/1
f 65/4/1 62/4/1 61/4/1
f 66/4/1 62/4/1 65/4/1
f 67/4/1 64/4/1 63/4/1
f 68/4/1 64/4/1 67/4/1
f 71/5/1 70/5/1 69/5/1
f 72/5/1 70/5/1 71/5/1
f 75/5/1 74/5/1 73/5/1
f 76/5/1 74/5/1 75/5/1
f 79/1/1 78/1/1 77/1/1
f 80/1/1 78/1/1 79/1/1
f 82/2/1 81/2/1 80/2/1
f 83/2/1 81/2/1 82/2/1
f 85/2/1 84/2/1 83/2/1
f 86/2/1 84/2/1 85/2/1
f 89/5/1 88/5/1 87/5/1
f 90/5/1 88/5/1 89/5/1
f 94/1/1 92/1/1 91/1/1
f 95/1/1 92/1/1 94/1/1
f 97/1/1 94/1/1 93/1/1
f 98/1/1 94/1/1 97/1/1
f 99/1/1 97/1/1 96/1/1
f 100/1/1 97/1/1 99/1/1
f 101/1/2 102/1/2 103/1/2
f 103/1/2 102/1/2 104/1/2
f 104/1/2 105/1/2 106/1/2
f 106/1/2 105/1/2 107/1/2
f 107/1/2 108/1/2 109/1/2
f 109/1/2 108/1/2 110/1/2
f 111/1/2 112/1/2 114/1/2
f 114/1/2 112/1/2 115/1/2
f 113/2/2 114/2/2 117/2/2
f 117/2/2 114/2/2 118/2/2
f 116/2/2 117/2/2 119/2/2
f 119/2/2 117/2/2 120/2/2
f 121/5/2 122/5/2 125/5/2
f 125/5/2 122/5/2 126/5/2
f 123/5/2 124/5/2 127/5/2
f 127/5/2 124/5/2 128/5/2
f 129/5/2 130/5/2 131/5/2
f 131/5/2 130/5/2 132/5/2
f 133/5/2 134/5/2 135/5/2
f 135/5/2 134/5/2 136/5/2
f 137/5/2 138/5/2 141/5/2
f 141/5/2 138/5/2 142/5/2
f 139/5/2 140/5/2 143/5/2
f 143/5/2 140/5/2 144/5/2
f 145/1/2 146/1/2 147/1/2
f 147/1/2 146/1/2 148/1/2
f 148/2/2 149/2/2 150/2/2
f 150/2/2 149/2/2 151/2/2
f 151/2/2 152/2/2 154/2/2
f 154/2/2 152/2/2 155/2/2
f 153/2/2 154/2/2 157/2/2
f 155/2/2 156/2/2 157/2/2
f 154/2/2 155/2/2 157/2/2
f 157/2/2 156/2/2 158/2/2
f 157/3/2 158/3/2 159/3/2
f 159/3/2 158/3/2 160/3/2
f 157/3/2 159/3/2 161/3/2
f 161/3/2 159/3/2 162/3/2
f 160/3/2 158/3/2 163/3/2
f 163/3/2 158/3/2 164/3/2
f 162/1/2 163/1/2 165/1/2
f 165/1/2 163/1/2 166/1/2
f 167/4/2 168/4/2 171/4/2
f 171/4/2 168/4/2 172/4/2
f 169/4/2 170/4/2 173/4/2
f 173/4/2 170/4/2 174/4/2
f 175/3/2 176/3/2 178/3/2
f 178/3/2 176/3/2 179/3/2
f 177/5/2 178/5/2 182/5/2
f 182/5/2 178/5/2 183/5/2
f 179/5/2 180/5/2 184/5/2
f 182/5/2 183/5/2 186/5/2
f 183/5/2 184/5/2 186/5/2
f 181/5/2 182/5/2 186/5/2
f 184/5/2 180/5/2 187/5/2
f 186/5/2 184/5/2 187/5/2
f 185/4/2 186/4/2 188/4/2
f 186/4/2 187/4/2 188/4/2
f 188/4/2 187/4/2 189/4/2
f 189/4/2 187/4/2 190/4/2
f 190/4/2 187/4/2 191/4/2
f 191/4/2 187/4/2 192/4/2
f 192/4/2 187/4/2 193/4/2
f 191/4/2 192/4/2 194/4/2
f 194/4/2 192/4/2 195/4/2
f 196/1/2 197/1/2 199/1/2
f 199/1/2 197/1/2 200/1/2
f 198/1/2 199/1/2 202/1/2
f 202/1/2 199/1/2 203/1/2
f 201/1/2 202/1/2 204/1/2
f 204/1/2 202/1/2 205/1/2
f 208/1/3 207/1/3 206/1/3
f 209/1/3 207/1/3 208/1/3
f 214/1/3 213/1/3 212/1/3
f 215/1/3 213/1/3 214/1/3
f 216/4/3 211/4/3 210/4/3
f 217/4/3 211/4/3 216/4/3
f 220/1/3 219/1/3 218/1/3
f 221/1/3 219/1/3 220/1/3
f 225/5/3 223/5/3 222/5/3
f 226/5/3 225/5/3 224/5/3
f 227/5/3 223/5/3 225/5/3
f 227/5/3 225/5/3 226/5/3
f 228/5/3 223/5/3 227/5/3
f 229/5/3 223/5/3 228/5/3
f 232/5/3 231/5/3 230/5/3
f 233/5/3 231/5/3 232/5/3
f 234/5/3 231/5/3 233/5/3
f 235/5/3 231/5/3 234/5/3
f 242/5/3 237/5/3 236/5/3
f 243/5/3 237/5/3 242/5/3
f 244/4/3 239/4/3 238/4/3
f 246/3/3 242/3/3 241/3/3
f 247/3/3 242/3/3 246/3/3
f 249/3/3 246/3/3 241/3/3
f 250/1/3 248/1/3 247/1/3
f 250/3/3 246/3/3 249/3/3
f 250/1/3 247/1/3 246/1/3
f 251/1/3 248/1/3 250/1/3
f 253/3/3 249/3/3 241/3/3
f 253/1/3 252/1/3 251/1/3
f 253/1/3 251/1/3 250/1/3
f 253/1/3 250/1/3 249/1/3
f 254/1/3 252/1/3 253/1/3
f 255/1/3 252/1/3 254/1/3
f 256/1/3 252/1/3 255/1/3
f 259/3/3 254/3/3 253/3/3
f 259/1/3 255/1/3 254/1/3
f 260/1/3 255/1/3 259/1/3
f 262/2/3 258/2/3 257/2/3
f 263/2/3 258/2/3 262/2/3
f 264/2/3 241/2/3 240/2/3
f 265/3/3 253/3/3 241/3/3
f 265/2/3 241/2/3 264/2/3
f 265/3/3 259/3/3 253/3/3
f 265/3/3 260/3/3 259/3/3
f 266/1/3 261/1/3 260/1/3
f 266/3/3 260/3/3 265/3/3
f 267/1/3 261/1/3 266/1/3
f 268/4/3 245/4/3 244/4/3
f 268/4/3 244/4/3 238/4/3
f 269/4/3 245/4/3 268/4/3
f 270/5/3 267/5/3 266/5/3
f 271/5/3 267/5/3 270/5/3
f 272/4/3 268/4/3 238/4/3
f 273/4/3 268/4/3 272/4/3
f 276/1/3 275/1/3 274/1/3
f 277/1/3 275/1/3 276/1/3
f 283/3/3 278/3/3 277/3/3
f 284/3/3 278/3/3 283/3/3
f 285/4/3 280/4/3 279/4/3
f 286/4/3 280/4/3 285/4/3
f 287/2/3 282/2/3 281/2/3
f 288/2/3 282/2/3 287/2/3
f 291/2/3 290/2/3 289/2/3
f 292/2/3 290/2/3 291/2/3
f 298/3/3 294/3/3 293/3/3
f 299/3/3 294/3/3 298/3/3
f 300/4/3 296/4/3 295/4/3
f 301/4/3 296/4/3 300/4/3
f 302/1/3 298/1/3 297/1/3
f 303/1/3 298/1/3 302/1/3
f 306/2/3 305/2/3 304/2/3
f 307/2/3 305/2/3 306/2/3
f 312/5/3 309/5/3 308/5/3
f 313/5/3 309/5/3 312/5/3
f 314/1/3 311/1/3 310/1/3
f 315/1/3 311/1/3 314/1/3
f 320/5/3 317/5/3 316/5/3
f 321/5/3 317/5/3 320/5/3
f 322/1/3 319/1/3 318/1/3
f 323/1/3 319/1/3 322/1/3
f 326/1/3 325/1/3 324/1/3
f 327/1/3 325/1/3 326/1/3
f 328/1/4 329/1/4 330/1/4
f 330/1/4 329/1/4 331/1/4
f 332/1/4 333/1/4 334/1/4
f 334/1/4 333/1/4 335/1/4
f 336/1/4 337/1/4 338/1/4
f 338/1/4 337/1/4 339/1/4
f 340/5/4 341/5/4 342/5/4
f 342/5/4 341/5/4 343/5/4
f 344/2/4 345/2/4 346/2/4
f 346/2/4 345/2/4 347/2/4
f 348/5/4 349/5/4 350/5/4
f 350/5/4 349/5/4 351/5/4
f 352/1/4 353/1/4 354/1/4
f 354/1/4 353/1/4 355/1/4
f 355/3/4 356/3/4 359/3/4
f 359/3/4 356/3/4 360/3/4
f 357/2/4 358/2/4 361/2/4
f 361/2/4 358/2/4 362/2/4
f 363/2/4 364/2/4 365/2/4
f 365/2/4 364/2/4 366/2/4
f 367/3/4 368/3/4 370/3/4
f 370/3/4 368/3/4 371/3/4
f 369/1/4 370/1/4 372/1/4
f 372/1/4 370/1/4 373/1/4
f 374/4/4 375/4/4 381/4/4
f 381/4/4 375/4/4 382/4/4
f 376/2/4 377/2/4 383/2/4
f 383/2/4 377/2/4 384/2/4
f 379/3/4 380/3/4 385/3/4
f 385/1/4 386/1/4 387/1/4
f 379/3/4 385/3/4 387/3/4
f 387/1/4 386/1/4 388/1/4
f 379/3/4 387/3/4 389/3/4
f 379/3/4 389/3/4 391/3/4
f 389/1/4 390/1/4 391/1/4
f 391/1/4 390/1/4 392/1/4
f 378/2/4 379/2/4 394/2/4
f 379/3/4 391/3/4 395/3/4
f 394/2/4 379/2/4 395/2/4
f 391/3/4 392/3/4 395/3/4
f 392/1/4 393/1/4 396/1/4
f 395/3/4 392/3/4 396/3/4
f 396/1/4 393/1/4 397/1/4
f 398/4/4 399/4/4 400/4/4
f 400/4/4 399/4/4 401/4/4
f 402/5/4 403/5/4 406/5/4
f 403/4/4 404/4/4 407/4/4
f 405/5/4 406/5/4 409/5/4
f 406/5/4 403/5/4 410/5/4
f 409/5/4 406/5/4 410/5/4
f 410/5/4 403/5/4 412/5/4
f 411/5/4 412/5/4 413/5/4
f 413/5/4 412/5/4 414/5/4
f 414/5/4 412/5/4 415/5/4
f 412/5/4 403/5/4 416/5/4
f 415/5/4 412/5/4 416/5/4
f 416/5/4 403/5/4 418/5/4
f 407/4/4 408/4/4 419/4/4
f 403/4/4 407/4/4 419/4/4
f 419/4/4 408/4/4 420/4/4
f 417/5/4 418/5/4 423/5/4
f 418/5/4 403/5/4 424/5/4
f 423/5/4 418/5/4 424/5/4
f 403/4/4 419/4/4 424/4/4
f 424/4/4 419/4/4 425/4/4
f 421/1/4 422/1/4 426/1/4
f 426/1/4 422/1/4 427/1/4
f 428/1/4 429/1/4 430/1/4
f 430/1/4 429/1/4 431/1/4
f 432/1/4 433/1/4 434/1/4
f 434/1/4 433/1/4 435/1/4
f 438/1/5 437/1/5 436/1/5
f 439/1/5 437/1/5 438/1/5
f 442/1/5 441/1/5 440/1/5
f 443/1/5 441/1/5 442/1/5
f 446/2/5 445/2/5 444/2/5
f 447/2/5 445/2/5 446/2/5
f 450/2/5 449/2/5 448/2/5
f 451/2/5 449/2/5 450/2/5
f 456/2/5 453/2/5 452/2/5
f 457/2/5 453/2/5 456/2/5
f 458/2/5 455/2/5 454/2/5
f 459/2/5 455/2/5 458/2/5
f 462/2/5 461/2/5 460/2/5
f 463/2/5 461/2/5 462/2/5
f 464/2/5 461/2/5 463/2/5
f 465/2/5 461/2/5 464/2/5
f 467/2/5 464/2/5 463/2/5
f 468/2/5 464/2/5 467/2/5
f 470/2/5 467/2/5 466/2/5
f 470/2/5 469/2/5 468/2/5
f 470/2/5 468/2/5 467/2/5
f 471/2/5 469/2/5 470/2/5
f 474/1/5 473/1/5 472/1/5
f 475/1/5 473/1/5 474/1/5
f 478/1/5 477/1/5 476/1/5
f 479/1/5 477/1/5 478/1/5
f 482/1/5 481/1/5 480/1/5
f 483/1/5 481/1/5 482/1/5
f 486/1/5 485/1/5 484/1/5
f 487/1/5 485/1/5 486/1/5
f 492/1/5 489/1/5 488/1/5
f 493/1/5 489/1/5 492/1/5
f 494/1/5 491/1/5 490/1/5
f 495/1/5 491/1/5 494/1/5
f 500/3/5 497/3/5 496/3/5
f 501/3/5 497/3/5 500/3/5
f 502/3/5 499/3/5 498/3/5
f 503/3/5 499/3/5 502/3/5
f 508/5/5 505/5/5 504/5/5
f 509/5/5 505/5/5 508/5/5
f 510/5/5 507/5/5 506/5/5
f 511/5/5 507/5/5 510/5/5
f 517/5/5 513/5/5 512/5/5
f 518/5/5 513/5/5 517/5/5
f 519/5/5 515/5/5 514/5/5
f 520/5/5 515/5/5 519/5/5
f 523/5/5 517/5/5 516/5/5
f 524/5/5 517/5/5 523/5/5
f 525/5/5 522/5/5 521/5/5
f 526/5/5 522/5/5 525/5/5
f 533/5/5 528/5/5 527/5/5
f 534/5/5 530/5/5 529/5/5
f 535/5/5 530/5/5 534/5/5
f 536/5/5 532/5/5 531/5/5
f 537/5/5 532/5/5 536/5/5
f 538/5/5 528/5/5 533/5/5
f 539/5/5 528/5/5 538/5/5
f 544/5/5 541/5/5 540/5/5
f 545/5/5 541/5/5 544/5/5
f 546/5/5 543/5/5 542/5/5
f 547/5/5 543/5/5 546/5/5
f 548/5/5 543/5/5 547/5/5
f 553/5/5 552/5/5 551/5/5
f 554/5/5 552/5/5 553/5/5
f 555/5/5 550/5/5 549/5/5
f 556/5/5 550/5/5 555/5/5
f 561/5/5 558/5/5 557/5/5
f 562/5/5 558/5/5 561/5/5
f 563/5/5 560/5/5 559/5/5
f 564/5/5 560/5/5 563/5/5
f 567/5/5 566/5/5 565/5/5
f 568/5/5 566/5/5 567/5/5
f 571/4/5 570/4/5 569/4/5
f 572/4/5 570/4/5 571/4/5
f 573/4/5 570/4/5 572/4/5
f 574/4/5 570/4/5 573/4/5
f 575/4/5 573/4/5 572/4/5
f 576/4/5 573/4/5 575/4/5
f 577/1/6 578/1/6 579/1/6
f 579/1/6 578/1/6 580/1/6
f 581/1/6 582/1/6 583/1/6
f 583/1/6 582/1/6 584/1/6
f 585/2/6 586/2/6 587/2/6
f 587/2/6 586/2/6 588/2/6
f 589/2/6 590/2/6 591/2/6
f 591/2/6 590/2/6 592/2/6
f 593/1/6 594/1/6 595/1/6
f 595/1/6 594/1/6 596/1/6
f 597/1/6 598/1/6 599/1/6
f 599/1/6 598/1/6 600/1/6
f 601/1/6 602/1/6 603/1/6
f 603/1/6 602/1/6 604/1/6
f 605/1/6 606/1/6 607/1/6
f 607/1/6 606/1/6 608/1/6
f 609/1/6 610/1/6 613/1/6
f 613/1/6 610/1/6 614/1/6
f 611/1/6 612/1/6 615/1/6
f 615/1/6 612/1/6 616/1/6
f 617/3/6 618/3/6 621/3/6
f 621/3/6 618/3/6 622/3/6
f 619/3/6 620/3/6 623/3/6
f 623/3/6 620/3/6 624/3/6
f 625/4/6 626/4/6 627/4/6
f 627/4/6 626/4/6 628/4/6
f 629/4/6 630/4/6 633/4/6
f 633/4/6 630/4/6 634/4/6
f 631/4/6 632/4/6 635/4/6
f 635/4/6 632/4/6 636/4/6
f 637/4/6 638/4/6 641/4/6
f 641/4/6 638/4/6 642/4/6
f 639/4/6 640/4/6 643/4/6
f 643/4/6 640/4/6 644/4/6
f 645/4/6 646/4/6 648/4/6
f 648/4/6 646/4/6 649/4/6
f 647/4/6 648/4/6 651/4/6
f 649/4/6 650/4/6 651/4/6
f 648/4/6 649/4/6 651/4/6
f 651/4/6 650/4/6 652/4/6
f 652/4/6 650/4/6 653/4/6
f 653/4/6 650/4/6 654/4/6
f 652/4/6 653/4/6 655/4/6
f 655/4/6 653/4/6 656/4/6
