# MagicaVoxel @ Ephtracy

# group
o 

# material
mtllib Run-3.mtl
usemtl palette

# normals
vn -1 0 0
vn 1 0 0
vn 0 0 1
vn 0 0 -1
vn 0 -1 0
vn 0 1 0

# texcoords
vt 0.970703 0.5
vt 0.974609 0.5
vt 0.978516 0.5
vt 0.982422 0.5
vt 0.986328 0.5

# verts
v -0.4 0.5 -0.2
v -0.4 0.5 -0.3
v -0.4 0.6 -0.1
v -0.4 0.6 -0.2
v -0.4 0.6 -0.3
v -0.4 0.7 0
v -0.4 0.7 -0.1
v -0.4 0.7 -0.2
v -0.4 0.8 0.1
v -0.4 0.8 0
v -0.4 0.8 -0.1
v -0.4 0.9 0.1
v -0.4 0.9 0
v -0.3 0.9 0.1
v -0.3 0.9 0
v -0.3 1 0.2
v -0.3 1 0.1
v -0.3 1 0
v -0.3 1 -0.1
v -0.3 1 -0.2
v -0.3 1.1 0.3
v -0.3 1.1 0.2
v -0.3 1.1 0.1
v -0.3 1.1 -0.1
v -0.3 1.4 0.4
v -0.3 1.4 0.3
v -0.3 1.4 -0.2
v -0.3 1.5 0.4
v -0.3 1.5 0.2
v -0.3 1.6 0.2
v -0.3 1.6 0.1
v -0.3 1.6 -0.1
v -0.3 1.6 -0.2
v -0.3 1.7 0.1
v -0.3 1.7 -0.1
v -0.2 0.1 0.3
v -0.2 0.1 0.2
v -0.2 0.2 0.3
v -0.2 0.2 0.2
v -0.2 0.2 0.1
v -0.2 0.3 0.2
v -0.2 0.3 0.1
v -0.2 0.3 0
v -0.2 0.4 0.2
v -0.2 0.4 0.1
v -0.2 0.4 0
v -0.2 0.4 -0.1
v -0.2 0.5 0.2
v -0.2 0.5 -0.1
v -0.2 0.9 0.1
v -0.2 0.9 0
v -0.2 0.9 -0.1
v -0.2 0.9 -0.2
v -0.2 1 0.3
v -0.2 1 0.2
v -0.2 1 0.1
v -0.2 1 0
v -0.2 1 -0.1
v -0.2 1 -0.2
v -0.2 1.1 0.3
v -0.2 1.1 0.2
v -0.2 1.1 0.1
v -0.2 1.1 -0.1
v -0.2 1.6 0.2
v -0.2 1.6 0.1
v -0.2 1.6 -0.1
v -0.2 1.6 -0.2
v -0.2 1.7 0.2
v -0.2 1.7 0.1
v -0.2 1.7 -0.1
v -0.2 1.7 -0.2
v 0 0.9 -0.1
v 0 0.9 -0.2
v 0 1.1 -0.1
v 0 1.1 -0.2
v 0.1 1 0.3
v 0.1 1 0.2
v 0.1 1.4 0.3
v 0.1 1.4 0.2
v 0.2 0.1 -0.1
v 0.2 0.1 -0.2
v 0.2 0.2 0
v 0.2 0.2 -0.1
v 0.2 0.2 -0.2
v 0.2 0.3 0.1
v 0.2 0.3 0
v 0.2 0.3 -0.1
v 0.2 0.4 0.1
v 0.2 0.4 0
v 0.3 1 -0.1
v 0.3 1 -0.2
v 0.3 1.1 -0.1
v 0.3 1.1 -0.2
v 0.4 0.5 0.4
v 0.4 0.5 0.3
v 0.4 0.6 0.4
v 0.4 0.6 0.3
v 0.4 0.6 0.2
v 0.4 0.7 0.3
v 0.4 0.7 0.2
v 0.4 0.7 0.1
v 0.4 0.8 0.2
v 0.4 0.8 0.1
v 0.4 0.8 0
v 0.4 0.9 0.1
v 0.4 0.9 0
v -0.3 0.5 -0.2
v -0.3 0.5 -0.3
v -0.3 0.6 -0.1
v -0.3 0.6 -0.2
v -0.3 0.6 -0.3
v -0.3 0.7 0
v -0.3 0.7 -0.1
v -0.3 0.7 -0.2
v -0.3 0.8 0.1
v -0.3 0.8 0
v -0.3 0.8 -0.1
v -0.3 0.9 0.1
v -0.3 0.9 0
v -0.1 0.1 0.3
v -0.1 0.1 0.2
v -0.1 0.2 0.3
v -0.1 0.2 0.2
v -0.1 0.2 0.1
v -0.1 0.3 0.2
v -0.1 0.3 0.1
v -0.1 0.3 0
v -0.1 0.4 0.1
v -0.1 0.4 0
v -0.1 0.9 -0.1
v -0.1 0.9 -0.2
v -0.1 1 0.3
v -0.1 1 0.2
v -0.1 1.1 -0.1
v -0.1 1.1 -0.2
v -0.1 1.3 0.3
v -0.1 1.3 0.2
v 0 1.3 0.3
v 0 1.3 0.2
v 0 1.4 0.3
v 0 1.4 0.2
v 0.1 0.9 -0.1
v 0.1 0.9 -0.2
v 0.1 1 -0.1
v 0.1 1 -0.2
v 0.2 1 0.3
v 0.2 1 0.2
v 0.2 1 -0.1
v 0.2 1 -0.2
v 0.2 1.1 0.3
v 0.2 1.1 0.2
v 0.2 1.1 -0.1
v 0.2 1.1 -0.2
v 0.3 0.1 -0.1
v 0.3 0.1 -0.2
v 0.3 0.2 0
v 0.3 0.2 -0.1
v 0.3 0.2 -0.2
v 0.3 0.3 0.1
v 0.3 0.3 0
v 0.3 0.3 -0.1
v 0.3 0.4 0.2
v 0.3 0.4 0.1
v 0.3 0.4 0
v 0.3 0.4 -0.1
v 0.3 0.5 0.2
v 0.3 0.5 -0.1
v 0.3 0.9 0.1
v 0.3 0.9 0
v 0.3 1 0.2
v 0.3 1 0.1
v 0.3 1 0
v 0.3 1 -0.1
v 0.3 1.1 0.1
v 0.3 1.1 0
v 0.3 1.6 0.2
v 0.3 1.6 0.1
v 0.3 1.6 -0.1
v 0.3 1.6 -0.2
v 0.3 1.7 0.2
v 0.3 1.7 0.1
v 0.3 1.7 -0.1
v 0.3 1.7 -0.2
v 0.4 0.9 0.1
v 0.4 0.9 0
v 0.4 1 0.2
v 0.4 1 0.1
v 0.4 1 0
v 0.4 1 -0.2
v 0.4 1.1 0.3
v 0.4 1.1 0.2
v 0.4 1.1 0.1
v 0.4 1.1 0
v 0.4 1.4 0.4
v 0.4 1.4 0.3
v 0.4 1.4 -0.2
v 0.4 1.5 0.4
v 0.4 1.5 0.2
v 0.4 1.6 0.2
v 0.4 1.6 0.1
v 0.4 1.6 -0.1
v 0.4 1.6 -0.2
v 0.4 1.7 0.1
v 0.4 1.7 -0.1
v 0.5 0.5 0.4
v 0.5 0.5 0.3
v 0.5 0.6 0.4
v 0.5 0.6 0.3
v 0.5 0.6 0.2
v 0.5 0.7 0.3
v 0.5 0.7 0.2
v 0.5 0.7 0.1
v 0.5 0.8 0.2
v 0.5 0.8 0.1
v 0.5 0.8 0
v 0.5 0.9 0.1
v 0.5 0.9 0
v -0.3 1.4 0.4
v -0.3 1.5 0.4
v 0.4 0.5 0.4
v 0.4 0.6 0.4
v 0.4 1.4 0.4
v 0.4 1.5 0.4
v 0.5 0.5 0.4
v 0.5 0.6 0.4
v -0.3 1.1 0.3
v -0.3 1.4 0.3
v -0.2 0.1 0.3
v -0.2 0.2 0.3
v -0.2 1 0.3
v -0.2 1.1 0.3
v -0.1 0.1 0.3
v -0.1 0.2 0.3
v -0.1 1 0.3
v -0.1 1.3 0.3
v 0 1.3 0.3
v 0 1.4 0.3
v 0.1 1 0.3
v 0.1 1.4 0.3
v 0.2 1 0.3
v 0.2 1.1 0.3
v 0.4 0.6 0.3
v 0.4 0.7 0.3
v 0.4 1.1 0.3
v 0.4 1.4 0.3
v 0.5 0.6 0.3
v 0.5 0.7 0.3
v -0.3 1 0.2
v -0.3 1.1 0.2
v -0.3 1.5 0.2
v -0.3 1.6 0.2
v -0.2 0.2 0.2
v -0.2 0.3 0.2
v -0.2 0.4 0.2
v -0.2 0.5 0.2
v -0.2 1 0.2
v -0.2 1.1 0.2
v -0.2 1.6 0.2
v -0.2 1.7 0.2
v -0.1 0.2 0.2
v -0.1 0.3 0.2
v -0.1 0.9 0.2
v -0.1 1 0.2
v -0.1 1.3 0.2
v 0 0.8 0.2
v 0 0.9 0.2
v 0 1.3 0.2
v 0 1.4 0.2
v 0.1 0.8 0.2
v 0.1 0.9 0.2
v 0.1 1 0.2
v 0.1 1.4 0.2
v 0.2 0.9 0.2
v 0.2 1 0.2
v 0.2 1.1 0.2
v 0.3 0.4 0.2
v 0.3 0.5 0.2
v 0.3 1 0.2
v 0.3 1.1 0.2
v 0.3 1.6 0.2
v 0.3 1.7 0.2
v 0.4 0.7 0.2
v 0.4 0.8 0.2
v 0.4 1 0.2
v 0.4 1.1 0.2
v 0.4 1.5 0.2
v 0.4 1.6 0.2
v 0.5 0.7 0.2
v 0.5 0.8 0.2
v -0.4 0.8 0.1
v -0.4 0.9 0.1
v -0.3 0.8 0.1
v -0.3 0.9 0.1
v -0.3 1 0.1
v -0.3 1.6 0.1
v -0.3 1.7 0.1
v -0.2 0.3 0.1
v -0.2 0.4 0.1
v -0.2 0.9 0.1
v -0.2 1 0.1
v -0.2 1.6 0.1
v -0.2 1.7 0.1
v -0.1 0.3 0.1
v -0.1 0.4 0.1
v 0.2 0.3 0.1
v 0.2 0.4 0.1
v 0.3 0.3 0.1
v 0.3 0.4 0.1
v 0.3 0.9 0.1
v 0.3 1 0.1
v 0.3 1.6 0.1
v 0.3 1.7 0.1
v 0.4 0.8 0.1
v 0.4 0.9 0.1
v 0.4 1 0.1
v 0.4 1.6 0.1
v 0.4 1.7 0.1
v 0.5 0.8 0.1
v 0.5 0.9 0.1
v -0.4 0.7 0
v -0.4 0.8 0
v -0.3 0.7 0
v -0.3 0.8 0
v 0.2 0.2 0
v 0.2 0.3 0
v 0.3 0.2 0
v 0.3 0.3 0
v 0.3 1 0
v 0.3 1.1 0
v 0.4 1 0
v 0.4 1.1 0
v -0.4 0.6 -0.1
v -0.4 0.7 -0.1
v -0.3 0.6 -0.1
v -0.3 0.7 -0.1
v -0.3 1 -0.1
v -0.3 1.1 -0.1
v -0.2 1 -0.1
v -0.2 1.1 -0.1
v 0.2 0.1 -0.1
v 0.2 0.2 -0.1
v 0.3 0.1 -0.1
v 0.3 0.2 -0.1
v -0.4 0.5 -0.2
v -0.4 0.6 -0.2
v -0.3 0.5 -0.2
v -0.3 0.6 -0.2
v 0.4 0.5 0.3
v 0.4 0.6 0.3
v 0.5 0.5 0.3
v 0.5 0.6 0.3
v -0.2 0.1 0.2
v -0.2 0.2 0.2
v -0.1 0.1 0.2
v -0.1 0.2 0.2
v 0.4 0.6 0.2
v 0.4 0.7 0.2
v 0.5 0.6 0.2
v 0.5 0.7 0.2
v -0.3 1 0.1
v -0.3 1.1 0.1
v -0.2 0.2 0.1
v -0.2 0.3 0.1
v -0.2 1 0.1
v -0.2 1.1 0.1
v -0.1 0.2 0.1
v -0.1 0.3 0.1
v 0.3 1 0.1
v 0.3 1.1 0.1
v 0.4 0.7 0.1
v 0.4 0.8 0.1
v 0.4 1 0.1
v 0.4 1.1 0.1
v 0.5 0.7 0.1
v 0.5 0.8 0.1
v -0.4 0.8 0
v -0.4 0.9 0
v -0.3 0.8 0
v -0.3 0.9 0
v -0.3 1 0
v -0.2 0.3 0
v -0.2 0.4 0
v -0.2 0.9 0
v -0.2 1 0
v -0.1 0.3 0
v -0.1 0.4 0
v 0.2 0.3 0
v 0.2 0.4 0
v 0.3 0.3 0
v 0.3 0.4 0
v 0.3 0.9 0
v 0.3 1 0
v 0.4 0.8 0
v 0.4 0.9 0
v 0.4 1 0
v 0.5 0.8 0
v 0.5 0.9 0
v -0.4 0.7 -0.1
v -0.4 0.8 -0.1
v -0.3 0.7 -0.1
v -0.3 0.8 -0.1
v -0.3 1.6 -0.1
v -0.3 1.7 -0.1
v -0.2 0.4 -0.1
v -0.2 0.5 -0.1
v -0.2 0.9 -0.1
v -0.2 1.6 -0.1
v -0.2 1.7 -0.1
v -0.1 0.9 -0.1
v -0.1 1.1 -0.1
v 0 0.9 -0.1
v 0 1.1 -0.1
v 0.1 0.9 -0.1
v 0.1 1 -0.1
v 0.2 0.2 -0.1
v 0.2 0.3 -0.1
v 0.2 0.9 -0.1
v 0.2 1 -0.1
v 0.2 1.1 -0.1
v 0.3 0.2 -0.1
v 0.3 0.3 -0.1
v 0.3 0.4 -0.1
v 0.3 0.5 -0.1
v 0.3 1 -0.1
v 0.3 1.1 -0.1
v 0.3 1.6 -0.1
v 0.3 1.7 -0.1
v 0.4 1.6 -0.1
v 0.4 1.7 -0.1
v -0.4 0.6 -0.2
v -0.4 0.7 -0.2
v -0.3 0.6 -0.2
v -0.3 0.7 -0.2
v -0.3 1 -0.2
v -0.3 1.4 -0.2
v -0.3 1.6 -0.2
v -0.2 0.9 -0.2
v -0.2 1 -0.2
v -0.2 1.6 -0.2
v -0.2 1.7 -0.2
v -0.1 0.9 -0.2
v -0.1 1.1 -0.2
v 0 0.9 -0.2
v 0 1.1 -0.2
v 0.1 0.9 -0.2
v 0.1 1 -0.2
v 0.2 0.1 -0.2
v 0.2 0.2 -0.2
v 0.2 1 -0.2
v 0.2 1.1 -0.2
v 0.3 0.1 -0.2
v 0.3 0.2 -0.2
v 0.3 1 -0.2
v 0.3 1.1 -0.2
v 0.3 1.6 -0.2
v 0.3 1.7 -0.2
v 0.4 1 -0.2
v 0.4 1.4 -0.2
v 0.4 1.6 -0.2
v -0.4 0.5 -0.3
v -0.4 0.6 -0.3
v -0.3 0.5 -0.3
v -0.3 0.6 -0.3
v -0.2 0.1 0.3
v -0.1 0.1 0.3
v -0.2 0.1 0.2
v -0.1 0.1 0.2
v 0.2 0.1 -0.1
v 0.3 0.1 -0.1
v 0.2 0.1 -0.2
v 0.3 0.1 -0.2
v -0.2 0.2 0.2
v -0.1 0.2 0.2
v -0.2 0.2 0.1
v -0.1 0.2 0.1
v 0.2 0.2 0
v 0.3 0.2 0
v 0.2 0.2 -0.1
v 0.3 0.2 -0.1
v -0.2 0.3 0.1
v -0.1 0.3 0.1
v 0.2 0.3 0.1
v 0.3 0.3 0.1
v -0.2 0.3 0
v -0.1 0.3 0
v 0.2 0.3 0
v 0.3 0.3 0
v -0.2 0.4 0.2
v 0.3 0.4 0.2
v -0.2 0.4 0.1
v -0.1 0.4 0.1
v 0.2 0.4 0.1
v 0.3 0.4 0.1
v -0.2 0.4 0
v -0.1 0.4 0
v 0.2 0.4 0
v 0.3 0.4 0
v -0.2 0.4 -0.1
v 0.3 0.4 -0.1
v 0.4 0.5 0.4
v 0.5 0.5 0.4
v 0.4 0.5 0.3
v 0.5 0.5 0.3
v -0.4 0.5 -0.2
v -0.3 0.5 -0.2
v -0.4 0.5 -0.3
v -0.3 0.5 -0.3
v 0.4 0.6 0.3
v 0.5 0.6 0.3
v 0.4 0.6 0.2
v 0.5 0.6 0.2
v -0.4 0.6 -0.1
v -0.3 0.6 -0.1
v -0.4 0.6 -0.2
v -0.3 0.6 -0.2
v 0.4 0.7 0.2
v 0.5 0.7 0.2
v 0.4 0.7 0.1
v 0.5 0.7 0.1
v -0.4 0.7 0
v -0.3 0.7 0
v -0.4 0.7 -0.1
v -0.3 0.7 -0.1
v -0.4 0.8 0.1
v -0.3 0.8 0.1
v 0.4 0.8 0.1
v 0.5 0.8 0.1
v -0.4 0.8 0
v -0.3 0.8 0
v 0.4 0.8 0
v 0.5 0.8 0
v -0.3 0.9 0.1
v -0.2 0.9 0.1
v 0.3 0.9 0.1
v 0.4 0.9 0.1
v -0.3 0.9 0
v -0.2 0.9 0
v 0.3 0.9 0
v 0.4 0.9 0
v -0.2 0.9 -0.1
v -0.1 0.9 -0.1
v 0 0.9 -0.1
v 0.1 0.9 -0.1
v -0.2 0.9 -0.2
v -0.1 0.9 -0.2
v 0 0.9 -0.2
v 0.1 0.9 -0.2
v -0.2 1 0.3
v -0.1 1 0.3
v 0.1 1 0.3
v 0.2 1 0.3
v -0.3 1 0.2
v -0.2 1 0.2
v -0.1 1 0.2
v 0.1 1 0.2
v 0.2 1 0.2
v 0.3 1 0.2
v 0.4 1 0.2
v -0.3 1 0.1
v -0.2 1 0.1
v 0.3 1 0.1
v 0.4 1 0.1
v 0.3 1 0
v 0.4 1 0
v -0.3 1 -0.1
v -0.2 1 -0.1
v 0.1 1 -0.1
v 0.2 1 -0.1
v 0.3 1 -0.1
v -0.3 1 -0.2
v -0.2 1 -0.2
v 0.1 1 -0.2
v 0.2 1 -0.2
v 0.3 1 -0.2
v 0.4 1 -0.2
v -0.3 1.1 0.3
v -0.2 1.1 0.3
v 0.2 1.1 0.3
v 0.4 1.1 0.3
v -0.3 1.1 0.2
v -0.2 1.1 0.2
v 0.2 1.1 0.2
v 0.3 1.1 0.2
v 0.4 1.1 0.2
v -0.3 1.1 0.1
v -0.2 1.1 0.1
v 0.3 1.1 0.1
v 0.4 1.1 0.1
v 0.3 1.1 0
v 0.4 1.1 0
v -0.3 1.1 -0.1
v -0.2 1.1 -0.1
v -0.1 1.1 -0.1
v 0 1.1 -0.1
v 0.2 1.1 -0.1
v 0.3 1.1 -0.1
v -0.1 1.1 -0.2
v 0 1.1 -0.2
v 0.2 1.1 -0.2
v 0.3 1.1 -0.2
v -0.1 1.3 0.3
v 0 1.3 0.3
v -0.1 1.3 0.2
v 0 1.3 0.2
v -0.3 1.4 0.4
v 0.4 1.4 0.4
v -0.3 1.4 0.3
v 0 1.4 0.3
v 0.1 1.4 0.3
v 0.4 1.4 0.3
v 0 1.4 0.2
v 0.1 1.4 0.2
v -0.2 0.2 0.3
v -0.1 0.2 0.3
v -0.2 0.2 0.2
v -0.1 0.2 0.2
v 0.2 0.2 -0.1
v 0.3 0.2 -0.1
v 0.2 0.2 -0.2
v 0.3 0.2 -0.2
v -0.2 0.3 0.2
v -0.1 0.3 0.2
v -0.2 0.3 0.1
v -0.1 0.3 0.1
v 0.2 0.3 0
v 0.3 0.3 0
v 0.2 0.3 -0.1
v 0.3 0.3 -0.1
v 0.4 0.6 0.4
v 0.5 0.6 0.4
v 0.4 0.6 0.3
v 0.5 0.6 0.3
v -0.4 0.6 -0.2
v -0.3 0.6 -0.2
v -0.4 0.6 -0.3
v -0.3 0.6 -0.3
v 0.4 0.7 0.3
v 0.5 0.7 0.3
v 0.4 0.7 0.2
v 0.5 0.7 0.2
v -0.4 0.7 -0.1
v -0.3 0.7 -0.1
v -0.4 0.7 -0.2
v -0.3 0.7 -0.2
v 0.4 0.8 0.2
v 0.5 0.8 0.2
v 0.4 0.8 0.1
v 0.5 0.8 0.1
v -0.4 0.8 0
v -0.3 0.8 0
v -0.4 0.8 -0.1
v -0.3 0.8 -0.1
v -0.4 0.9 0.1
v -0.3 0.9 0.1
v 0.4 0.9 0.1
v 0.5 0.9 0.1
v -0.4 0.9 0
v -0.3 0.9 0
v 0.4 0.9 0
v 0.5 0.9 0
v -0.3 1 0.1
v -0.2 1 0.1
v 0.3 1 0.1
v 0.4 1 0.1
v -0.3 1 0
v -0.2 1 0
v 0.3 1 0
v 0.4 1 0
v -0.3 1.5 0.4
v 0.4 1.5 0.4
v -0.3 1.5 0.2
v 0.4 1.5 0.2
v -0.3 1.6 0.2
v -0.2 1.6 0.2
v 0.3 1.6 0.2
v 0.4 1.6 0.2
v -0.3 1.6 0.1
v -0.2 1.6 0.1
v 0.3 1.6 0.1
v 0.4 1.6 0.1
v -0.3 1.6 -0.1
v -0.2 1.6 -0.1
v 0.3 1.6 -0.1
v 0.4 1.6 -0.1
v -0.3 1.6 -0.2
v -0.2 1.6 -0.2
v 0.3 1.6 -0.2
v 0.4 1.6 -0.2
v -0.2 1.7 0.2
v 0.3 1.7 0.2
v -0.3 1.7 0.1
v -0.2 1.7 0.1
v 0.3 1.7 0.1
v 0.4 1.7 0.1
v -0.3 1.7 -0.1
v -0.2 1.7 -0.1
v 0.3 1.7 -0.1
v 0.4 1.7 -0.1
v -0.2 1.7 -0.2
v 0.3 1.7 -0.2

# faces
f 4/1/1 2/1/1 1/1/1
f 5/1/1 2/1/1 4/1/1
f 7/1/1 4/1/1 3/1/1
f 8/1/1 4/1/1 7/1/1
f 10/1/1 7/1/1 6/1/1
f 11/1/1 7/1/1 10/1/1
f 12/1/1 10/1/1 9/1/1
f 13/1/1 10/1/1 12/1/1
f 17/3/1 15/3/1 14/3/1
f 18/3/1 15/3/1 17/3/1
f 22/5/1 17/5/1 16/5/1
f 23/5/1 17/5/1 22/5/1
f 24/5/1 20/5/1 19/5/1
f 26/5/1 23/5/1 22/5/1
f 26/5/1 24/5/1 23/5/1
f 26/5/1 22/5/1 21/5/1
f 27/5/1 20/5/1 24/5/1
f 27/5/1 24/5/1 26/5/1
f 28/4/1 26/4/1 25/4/1
f 28/4/1 27/4/1 26/4/1
f 29/4/1 27/4/1 28/4/1
f 30/4/1 27/4/1 29/4/1
f 31/4/1 27/4/1 30/4/1
f 32/4/1 27/4/1 31/4/1
f 33/4/1 27/4/1 32/4/1
f 34/4/1 32/4/1 31/4/1
f 35/4/1 32/4/1 34/4/1
f 38/1/1 37/1/1 36/1/1
f 39/1/1 37/1/1 38/1/1
f 41/2/1 40/2/1 39/2/1
f 42/2/1 40/2/1 41/2/1
f 45/2/1 43/2/1 42/2/1
f 46/2/1 43/2/1 45/2/1
f 48/2/1 45/2/1 44/2/1
f 48/2/1 47/2/1 46/2/1
f 48/2/1 46/2/1 45/2/1
f 49/2/1 47/2/1 48/2/1
f 50/3/1 49/3/1 48/3/1
f 51/3/1 49/3/1 50/3/1
f 52/3/1 49/3/1 51/3/1
f 55/3/1 50/3/1 48/3/1
f 56/3/1 50/3/1 55/3/1
f 57/3/1 52/3/1 51/3/1
f 58/5/1 53/5/1 52/5/1
f 58/3/1 52/3/1 57/3/1
f 59/5/1 53/5/1 58/5/1
f 60/5/1 55/5/1 54/5/1
f 61/5/1 55/5/1 60/5/1
f 62/1/1 57/1/1 56/1/1
f 62/1/1 58/1/1 57/1/1
f 63/1/1 58/1/1 62/1/1
f 68/4/1 65/4/1 64/4/1
f 69/4/1 65/4/1 68/4/1
f 70/4/1 67/4/1 66/4/1
f 71/4/1 67/4/1 70/4/1
f 74/5/1 73/5/1 72/5/1
f 75/5/1 73/5/1 74/5/1
f 78/5/1 77/5/1 76/5/1
f 79/5/1 77/5/1 78/5/1
f 83/1/1 81/1/1 80/1/1
f 84/1/1 81/1/1 83/1/1
f 86/2/1 83/2/1 82/2/1
f 87/2/1 83/2/1 86/2/1
f 88/2/1 86/2/1 85/2/1
f 89/2/1 86/2/1 88/2/1
f 92/5/1 91/5/1 90/5/1
f 93/5/1 91/5/1 92/5/1
f 96/1/1 95/1/1 94/1/1
f 97/1/1 95/1/1 96/1/1
f 99/1/1 98/1/1 97/1/1
f 100/1/1 98/1/1 99/1/1
f 102/1/1 101/1/1 100/1/1
f 103/1/1 101/1/1 102/1/1
f 105/1/1 104/1/1 103/1/1
f 106/1/1 104/1/1 105/1/1
f 107/1/2 108/1/2 110/1/2
f 110/1/2 108/1/2 111/1/2
f 109/1/2 110/1/2 113/1/2
f 113/1/2 110/1/2 114/1/2
f 112/1/2 113/1/2 116/1/2
f 116/1/2 113/1/2 117/1/2
f 115/1/2 116/1/2 118/1/2
f 118/1/2 116/1/2 119/1/2
f 120/1/2 121/1/2 122/1/2
f 122/1/2 121/1/2 123/1/2
f 123/2/2 124/2/2 125/2/2
f 125/2/2 124/2/2 126/2/2
f 126/2/2 127/2/2 128/2/2
f 128/2/2 127/2/2 129/2/2
f 130/5/2 131/5/2 134/5/2
f 134/5/2 131/5/2 135/5/2
f 132/5/2 133/5/2 136/5/2
f 136/5/2 133/5/2 137/5/2
f 138/5/2 139/5/2 140/5/2
f 140/5/2 139/5/2 141/5/2
f 142/5/2 143/5/2 144/5/2
f 144/5/2 143/5/2 145/5/2
f 146/5/2 147/5/2 150/5/2
f 150/5/2 147/5/2 151/5/2
f 148/5/2 149/5/2 152/5/2
f 152/5/2 149/5/2 153/5/2
f 154/1/2 155/1/2 157/1/2
f 157/1/2 155/1/2 158/1/2
f 156/2/2 157/2/2 160/2/2
f 160/2/2 157/2/2 161/2/2
f 159/2/2 160/2/2 163/2/2
f 163/2/2 160/2/2 164/2/2
f 162/2/2 163/2/2 166/2/2
f 164/2/2 165/2/2 166/2/2
f 163/2/2 164/2/2 166/2/2
f 166/2/2 165/2/2 167/2/2
f 166/3/2 167/3/2 168/3/2
f 168/3/2 167/3/2 169/3/2
f 166/3/2 168/3/2 170/3/2
f 170/3/2 168/3/2 171/3/2
f 169/3/2 167/3/2 172/3/2
f 172/3/2 167/3/2 173/3/2
f 171/1/2 172/1/2 174/1/2
f 174/1/2 172/1/2 175/1/2
f 176/4/2 177/4/2 180/4/2
f 180/4/2 177/4/2 181/4/2
f 178/4/2 179/4/2 182/4/2
f 182/4/2 179/4/2 183/4/2
f 184/3/2 185/3/2 187/3/2
f 187/3/2 185/3/2 188/3/2
f 186/5/2 187/5/2 191/5/2
f 191/5/2 187/5/2 192/5/2
f 188/5/2 189/5/2 193/5/2
f 191/5/2 192/5/2 195/5/2
f 192/5/2 193/5/2 195/5/2
f 190/5/2 191/5/2 195/5/2
f 193/5/2 189/5/2 196/5/2
f 195/5/2 193/5/2 196/5/2
f 194/4/2 195/4/2 197/4/2
f 195/4/2 196/4/2 197/4/2
f 197/4/2 196/4/2 198/4/2
f 198/4/2 196/4/2 199/4/2
f 199/4/2 196/4/2 200/4/2
f 200/4/2 196/4/2 201/4/2
f 201/4/2 196/4/2 202/4/2
f 200/4/2 201/4/2 203/4/2
f 203/4/2 201/4/2 204/4/2
f 205/1/2 206/1/2 207/1/2
f 207/1/2 206/1/2 208/1/2
f 208/1/2 209/1/2 210/1/2
f 210/1/2 209/1/2 211/1/2
f 211/1/2 212/1/2 213/1/2
f 213/1/2 212/1/2 214/1/2
f 214/1/2 215/1/2 216/1/2
f 216/1/2 215/1/2 217/1/2
f 222/4/3 219/4/3 218/4/3
f 223/4/3 219/4/3 222/4/3
f 224/1/3 221/1/3 220/1/3
f 225/1/3 221/1/3 224/1/3
f 231/5/3 227/5/3 226/5/3
f 232/1/3 229/1/3 228/1/3
f 233/1/3 229/1/3 232/1/3
f 234/5/3 231/5/3 230/5/3
f 235/5/3 227/5/3 231/5/3
f 235/5/3 231/5/3 234/5/3
f 236/5/3 227/5/3 235/5/3
f 237/5/3 227/5/3 236/5/3
f 240/5/3 239/5/3 238/5/3
f 241/5/3 239/5/3 240/5/3
f 244/5/3 239/5/3 241/5/3
f 245/5/3 239/5/3 244/5/3
f 246/1/3 243/1/3 242/1/3
f 247/1/3 243/1/3 246/1/3
f 256/5/3 249/5/3 248/5/3
f 257/5/3 249/5/3 256/5/3
f 258/4/3 251/4/3 250/4/3
f 260/2/3 253/2/3 252/2/3
f 261/2/3 253/2/3 260/2/3
f 262/3/3 256/3/3 255/3/3
f 263/3/3 256/3/3 262/3/3
f 265/3/3 262/3/3 255/3/3
f 266/1/3 264/1/3 263/1/3
f 266/3/3 262/3/3 265/3/3
f 266/1/3 263/1/3 262/1/3
f 267/1/3 264/1/3 266/1/3
f 269/3/3 265/3/3 255/3/3
f 269/1/3 268/1/3 267/1/3
f 269/1/3 267/1/3 266/1/3
f 269/1/3 266/1/3 265/1/3
f 270/1/3 268/1/3 269/1/3
f 271/1/3 268/1/3 270/1/3
f 272/1/3 268/1/3 271/1/3
f 273/3/3 270/3/3 269/3/3
f 273/1/3 271/1/3 270/1/3
f 274/1/3 271/1/3 273/1/3
f 276/2/3 255/2/3 254/2/3
f 277/3/3 269/3/3 255/3/3
f 277/2/3 255/2/3 276/2/3
f 277/3/3 273/3/3 269/3/3
f 277/3/3 274/3/3 273/3/3
f 278/1/3 275/1/3 274/1/3
f 278/3/3 274/3/3 277/3/3
f 279/1/3 275/1/3 278/1/3
f 280/4/3 259/4/3 258/4/3
f 280/4/3 258/4/3 250/4/3
f 281/4/3 259/4/3 280/4/3
f 284/5/3 279/5/3 278/5/3
f 285/5/3 279/5/3 284/5/3
f 286/4/3 280/4/3 250/4/3
f 287/4/3 280/4/3 286/4/3
f 288/1/3 283/1/3 282/1/3
f 289/1/3 283/1/3 288/1/3
f 292/1/3 291/1/3 290/1/3
f 293/1/3 291/1/3 292/1/3
f 299/3/3 294/3/3 293/3/3
f 300/3/3 294/3/3 299/3/3
f 301/4/3 296/4/3 295/4/3
f 302/4/3 296/4/3 301/4/3
f 303/2/3 298/2/3 297/2/3
f 304/2/3 298/2/3 303/2/3
f 307/2/3 306/2/3 305/2/3
f 308/2/3 306/2/3 307/2/3
f 314/3/3 310/3/3 309/3/3
f 315/3/3 310/3/3 314/3/3
f 316/4/3 312/4/3 311/4/3
f 317/4/3 312/4/3 316/4/3
f 318/1/3 314/1/3 313/1/3
f 319/1/3 314/1/3 318/1/3
f 322/1/3 321/1/3 320/1/3
f 323/1/3 321/1/3 322/1/3
f 326/2/3 325/2/3 324/2/3
f 327/2/3 325/2/3 326/2/3
f 330/5/3 329/5/3 328/5/3
f 331/5/3 329/5/3 330/5/3
f 334/1/3 333/1/3 332/1/3
f 335/1/3 333/1/3 334/1/3
f 338/5/3 337/5/3 336/5/3
f 339/5/3 337/5/3 338/5/3
f 342/1/3 341/1/3 340/1/3
f 343/1/3 341/1/3 342/1/3
f 346/1/3 345/1/3 344/1/3
f 347/1/3 345/1/3 346/1/3
f 348/1/4 349/1/4 350/1/4
f 350/1/4 349/1/4 351/1/4
f 352/1/4 353/1/4 354/1/4
f 354/1/4 353/1/4 355/1/4
f 356/1/4 357/1/4 358/1/4
f 358/1/4 357/1/4 359/1/4
f 360/5/4 361/5/4 364/5/4
f 364/5/4 361/5/4 365/5/4
f 362/2/4 363/2/4 366/2/4
f 366/2/4 363/2/4 367/2/4
f 368/5/4 369/5/4 372/5/4
f 372/5/4 369/5/4 373/5/4
f 370/1/4 371/1/4 374/1/4
f 374/1/4 371/1/4 375/1/4
f 376/1/4 377/1/4 378/1/4
f 378/1/4 377/1/4 379/1/4
f 379/3/4 380/3/4 383/3/4
f 383/3/4 380/3/4 384/3/4
f 381/2/4 382/2/4 385/2/4
f 385/2/4 382/2/4 386/2/4
f 387/2/4 388/2/4 389/2/4
f 389/2/4 388/2/4 390/2/4
f 391/3/4 392/3/4 394/3/4
f 394/3/4 392/3/4 395/3/4
f 393/1/4 394/1/4 396/1/4
f 396/1/4 394/1/4 397/1/4
f 398/1/4 399/1/4 400/1/4
f 400/1/4 399/1/4 401/1/4
f 402/4/4 403/4/4 407/4/4
f 407/4/4 403/4/4 408/4/4
f 405/3/4 406/3/4 409/3/4
f 405/3/4 409/3/4 411/3/4
f 409/1/4 410/1/4 411/1/4
f 411/1/4 410/1/4 412/1/4
f 405/3/4 411/3/4 413/3/4
f 405/3/4 413/3/4 417/3/4
f 413/1/4 414/1/4 417/1/4
f 417/1/4 414/1/4 418/1/4
f 415/2/4 416/2/4 420/2/4
f 420/2/4 416/2/4 421/2/4
f 404/2/4 405/2/4 422/2/4
f 405/3/4 417/3/4 423/3/4
f 422/2/4 405/2/4 423/2/4
f 417/3/4 418/3/4 423/3/4
f 418/1/4 419/1/4 424/1/4
f 423/3/4 418/3/4 424/3/4
f 424/1/4 419/1/4 425/1/4
f 426/4/4 427/4/4 428/4/4
f 428/4/4 427/4/4 429/4/4
f 430/1/4 431/1/4 432/1/4
f 432/1/4 431/1/4 433/1/4
f 434/5/4 435/5/4 438/5/4
f 435/4/4 436/4/4 439/4/4
f 437/5/4 438/5/4 441/5/4
f 438/5/4 435/5/4 442/5/4
f 441/5/4 438/5/4 442/5/4
f 442/5/4 435/5/4 444/5/4
f 443/5/4 444/5/4 445/5/4
f 445/5/4 444/5/4 446/5/4
f 446/5/4 444/5/4 449/5/4
f 444/5/4 435/5/4 450/5/4
f 449/5/4 444/5/4 450/5/4
f 447/1/4 448/1/4 451/1/4
f 451/1/4 448/1/4 452/1/4
f 450/5/4 435/5/4 454/5/4
f 439/4/4 440/4/4 455/4/4
f 435/4/4 439/4/4 455/4/4
f 455/4/4 440/4/4 456/4/4
f 453/5/4 454/5/4 457/5/4
f 454/5/4 435/5/4 458/5/4
f 457/5/4 454/5/4 458/5/4
f 435/4/4 455/4/4 458/4/4
f 458/4/4 455/4/4 459/4/4
f 460/1/4 461/1/4 462/1/4
f 462/1/4 461/1/4 463/1/4
f 466/1/5 465/1/5 464/1/5
f 467/1/5 465/1/5 466/1/5
f 470/1/5 469/1/5 468/1/5
f 471/1/5 469/1/5 470/1/5
f 474/2/5 473/2/5 472/2/5
f 475/2/5 473/2/5 474/2/5
f 478/2/5 477/2/5 476/2/5
f 479/2/5 477/2/5 478/2/5
f 484/2/5 481/2/5 480/2/5
f 485/2/5 481/2/5 484/2/5
f 486/2/5 483/2/5 482/2/5
f 487/2/5 483/2/5 486/2/5
f 490/2/5 489/2/5 488/2/5
f 491/2/5 489/2/5 490/2/5
f 492/2/5 489/2/5 491/2/5
f 493/2/5 489/2/5 492/2/5
f 495/2/5 492/2/5 491/2/5
f 496/2/5 492/2/5 495/2/5
f 498/2/5 495/2/5 494/2/5
f 498/2/5 497/2/5 496/2/5
f 498/2/5 496/2/5 495/2/5
f 499/2/5 497/2/5 498/2/5
f 502/1/5 501/1/5 500/1/5
f 503/1/5 501/1/5 502/1/5
f 506/1/5 505/1/5 504/1/5
f 507/1/5 505/1/5 506/1/5
f 510/1/5 509/1/5 508/1/5
f 511/1/5 509/1/5 510/1/5
f 514/1/5 513/1/5 512/1/5
f 515/1/5 513/1/5 514/1/5
f 518/1/5 517/1/5 516/1/5
f 519/1/5 517/1/5 518/1/5
f 522/1/5 521/1/5 520/1/5
f 523/1/5 521/1/5 522/1/5
f 528/1/5 525/1/5 524/1/5
f 529/1/5 525/1/5 528/1/5
f 530/1/5 527/1/5 526/1/5
f 531/1/5 527/1/5 530/1/5
f 536/3/5 533/3/5 532/3/5
f 537/3/5 533/3/5 536/3/5
f 538/3/5 535/3/5 534/3/5
f 539/3/5 535/3/5 538/3/5
f 544/5/5 541/5/5 540/5/5
f 545/5/5 541/5/5 544/5/5
f 546/5/5 543/5/5 542/5/5
f 547/5/5 543/5/5 546/5/5
f 553/5/5 549/5/5 548/5/5
f 554/5/5 549/5/5 553/5/5
f 555/5/5 551/5/5 550/5/5
f 556/5/5 551/5/5 555/5/5
f 559/5/5 553/5/5 552/5/5
f 560/5/5 553/5/5 559/5/5
f 561/5/5 558/5/5 557/5/5
f 562/5/5 558/5/5 561/5/5
f 569/5/5 564/5/5 563/5/5
f 570/5/5 566/5/5 565/5/5
f 571/5/5 566/5/5 570/5/5
f 572/5/5 568/5/5 567/5/5
f 573/5/5 568/5/5 572/5/5
f 574/5/5 564/5/5 569/5/5
f 575/5/5 564/5/5 574/5/5
f 580/5/5 577/5/5 576/5/5
f 581/5/5 577/5/5 580/5/5
f 582/5/5 579/5/5 578/5/5
f 583/5/5 579/5/5 582/5/5
f 584/5/5 579/5/5 583/5/5
f 589/5/5 588/5/5 587/5/5
f 590/5/5 588/5/5 589/5/5
f 591/5/5 586/5/5 585/5/5
f 592/5/5 586/5/5 591/5/5
f 597/5/5 594/5/5 593/5/5
f 598/5/5 594/5/5 597/5/5
f 599/5/5 596/5/5 595/5/5
f 600/5/5 596/5/5 599/5/5
f 603/5/5 602/5/5 601/5/5
f 604/5/5 602/5/5 603/5/5
f 607/4/5 606/4/5 605/4/5
f 608/4/5 606/4/5 607/4/5
f 609/4/5 606/4/5 608/4/5
f 610/4/5 606/4/5 609/4/5
f 611/4/5 609/4/5 608/4/5
f 612/4/5 609/4/5 611/4/5
f 613/1/6 614/1/6 615/1/6
f 615/1/6 614/1/6 616/1/6
f 617/1/6 618/1/6 619/1/6
f 619/1/6 618/1/6 620/1/6
f 621/2/6 622/2/6 623/2/6
f 623/2/6 622/2/6 624/2/6
f 625/2/6 626/2/6 627/2/6
f 627/2/6 626/2/6 628/2/6
f 629/1/6 630/1/6 631/1/6
f 631/1/6 630/1/6 632/1/6
f 633/1/6 634/1/6 635/1/6
f 635/1/6 634/1/6 636/1/6
f 637/1/6 638/1/6 639/1/6
f 639/1/6 638/1/6 640/1/6
f 641/1/6 642/1/6 643/1/6
f 643/1/6 642/1/6 644/1/6
f 645/1/6 646/1/6 647/1/6
f 647/1/6 646/1/6 648/1/6
f 649/1/6 650/1/6 651/1/6
f 651/1/6 650/1/6 652/1/6
f 653/1/6 654/1/6 657/1/6
f 657/1/6 654/1/6 658/1/6
f 655/1/6 656/1/6 659/1/6
f 659/1/6 656/1/6 660/1/6
f 661/3/6 662/3/6 665/3/6
f 665/3/6 662/3/6 666/3/6
f 663/3/6 664/3/6 667/3/6
f 667/3/6 664/3/6 668/3/6
f 669/4/6 670/4/6 671/4/6
f 671/4/6 670/4/6 672/4/6
f 673/4/6 674/4/6 677/4/6
f 677/4/6 674/4/6 678/4/6
f 675/4/6 676/4/6 679/4/6
f 679/4/6 676/4/6 680/4/6
f 681/4/6 682/4/6 685/4/6
f 685/4/6 682/4/6 686/4/6
f 683/4/6 684/4/6 687/4/6
f 687/4/6 684/4/6 688/4/6
f 689/4/6 690/4/6 692/4/6
f 692/4/6 690/4/6 693/4/6
f 691/4/6 692/4/6 695/4/6
f 693/4/6 694/4/6 695/4/6
f 692/4/6 693/4/6 695/4/6
f 695/4/6 694/4/6 696/4/6
f 696/4/6 694/4/6 697/4/6
f 697/4/6 694/4/6 698/4/6
f 696/4/6 697/4/6 699/4/6
f 699/4/6 697/4/6 700/4/6
