# MagicaVoxel @ Ephtracy

# group
o 

# material
mtllib Knight-8.mtl
usemtl palette

# normals
vn -1 0 0
vn 1 0 0
vn 0 0 1
vn 0 0 -1
vn 0 -1 0
vn 0 1 0

# texcoords
vt 0.970703 0.5
vt 0.974609 0.5
vt 0.978516 0.5
vt 0.982422 0.5
vt 0.990234 0.5
vt 0.994141 0.5

# verts
v 0.6 0.2 0.8
v 0.6 0.2 0.2
v 0.6 0.2 0.1
v 0.6 0.3 0.9
v 0.6 0.3 0.8
v 0.6 0.3 0.1
v 0.6 0.3 0
v 0.6 0.3 -0.1
v 0.6 0.4 0.9
v 0.6 0.4 0.2
v 0.6 0.4 0.1
v 0.6 0.4 0
v 0.6 0.4 -0.1
v 0.6 0.8 0.1
v 0.6 0.8 0
v 0.6 1 0.3
v 0.6 1 -0.2
v 0.6 1.4 0.3
v 0.6 1.4 -0.2
v 0.7 0.6 0.2
v 0.7 0.6 0.1
v 0.7 0.6 0
v 0.7 0.6 -0.1
v 0.7 0.8 0.2
v 0.7 0.8 0.1
v 0.7 0.8 0
v 0.7 0.8 -0.1
v 0.7 0.9 0.4
v 0.7 0.9 0.3
v 0.7 0.9 0.2
v 0.7 0.9 0.1
v 0.7 0.9 0
v 0.7 0.9 -0.2
v 0.7 1 0.3
v 0.7 1 0.2
v 0.7 1 -0.2
v 0.7 1 -0.3
v 0.7 1.4 0.4
v 0.7 1.4 0.3
v 0.7 1.4 -0.2
v 0.7 1.4 -0.3
v 0.7 1.5 0.3
v 0.7 1.5 -0.2
v 0.8 0 0.2
v 0.8 0 0.1
v 0.8 0 0
v 0.8 0.2 0.2
v 0.8 0.2 0.1
v 0.8 0.3 0.2
v 0.8 0.3 0.1
v 0.8 0.3 0
v 0.8 0.3 -0.1
v 0.8 0.6 0.3
v 0.8 0.6 0.2
v 0.8 0.6 0.1
v 0.8 0.6 0
v 0.8 0.6 -0.1
v 0.8 0.6 -0.2
v 0.8 0.8 0.3
v 0.8 0.8 0.2
v 0.8 0.8 0.1
v 0.8 0.8 0
v 0.8 0.8 -0.1
v 0.8 0.8 -0.2
v 0.8 0.9 0.2
v 0.8 0.9 0.1
v 0.8 0.9 0
v 0.8 0.9 -0.1
v 0.9 0.4 0.3
v 0.9 0.4 0.2
v 0.9 0.4 -0.1
v 0.9 0.4 -0.2
v 0.9 0.6 0.3
v 0.9 0.6 0.2
v 0.9 0.6 -0.1
v 0.9 0.6 -0.2
v 0.9 1 0.4
v 0.9 1 0.3
v 0.9 1.2 0.3
v 0.9 1.3 0.4
v 0.9 1.3 0.3
v 1.1 1 0.4
v 1.1 1 0.3
v 1.1 1.2 0.3
v 1.1 1.3 0.4
v 1.1 1.3 0.3
v 1.2 0 0.2
v 1.2 0 0.1
v 1.2 0 0
v 1.2 0.2 0.2
v 1.2 0.2 0.1
v 1.2 0.3 0.1
v 1.2 0.3 0
v 1.3 1 0.4
v 1.3 1 0.3
v 1.3 1.2 0.3
v 1.3 1.3 0.4
v 1.3 1.3 0.3
v 1.4 0.3 0.1
v 1.4 0.3 0
v 1.4 0.4 0.1
v 1.4 0.4 0
v 1.4 0.6 0.1
v 1.4 0.6 0
v 1.4 1 0.3
v 1.4 1 0.2
v 1.4 1.2 0.3
v 1.4 1.2 0.2
v 0.7 0.2 0.8
v 0.7 0.2 0.2
v 0.7 0.2 0.1
v 0.7 0.3 0.9
v 0.7 0.3 0.8
v 0.7 0.3 0.1
v 0.7 0.3 0
v 0.7 0.3 -0.1
v 0.7 0.4 0.9
v 0.7 0.4 0.2
v 0.7 0.4 0.1
v 0.7 0.4 0
v 0.7 0.4 -0.1
v 0.7 0.6 0.1
v 0.7 0.6 0
v 0.7 1 0.3
v 0.7 1 0.2
v 0.7 1.2 0.3
v 0.7 1.2 0.2
v 0.8 1 0.4
v 0.8 1 0.3
v 0.8 1.2 0.3
v 0.8 1.3 0.4
v 0.8 1.3 0.3
v 0.9 0 0.2
v 0.9 0 0.1
v 0.9 0 0
v 0.9 0.2 0.2
v 0.9 0.2 0.1
v 0.9 0.3 0.1
v 0.9 0.3 0
v 1 1 0.4
v 1 1 0.3
v 1 1.2 0.3
v 1 1.3 0.4
v 1 1.3 0.3
v 1.2 0.4 0.3
v 1.2 0.4 0.2
v 1.2 0.4 -0.1
v 1.2 0.4 -0.2
v 1.2 0.6 0.3
v 1.2 0.6 0.2
v 1.2 0.6 -0.1
v 1.2 0.6 -0.2
v 1.2 1 0.4
v 1.2 1 0.3
v 1.2 1.2 0.3
v 1.2 1.3 0.4
v 1.2 1.3 0.3
v 1.3 0 0.2
v 1.3 0 0.1
v 1.3 0 0
v 1.3 0.2 0.2
v 1.3 0.2 0.1
v 1.3 0.3 0.2
v 1.3 0.3 0.1
v 1.3 0.3 0
v 1.3 0.3 -0.1
v 1.3 0.6 0.3
v 1.3 0.6 0.2
v 1.3 0.6 0.1
v 1.3 0.6 0
v 1.3 0.6 -0.1
v 1.3 0.6 -0.2
v 1.3 0.8 0.3
v 1.3 0.8 0.2
v 1.3 0.8 0.1
v 1.3 0.8 0
v 1.3 0.8 -0.1
v 1.3 0.8 -0.2
v 1.3 0.9 0.2
v 1.3 0.9 0.1
v 1.3 0.9 0
v 1.3 0.9 -0.1
v 1.4 0.6 0.2
v 1.4 0.6 0.1
v 1.4 0.6 0
v 1.4 0.6 -0.1
v 1.4 0.8 0.2
v 1.4 0.8 0.1
v 1.4 0.8 0
v 1.4 0.8 -0.1
v 1.4 0.9 0.4
v 1.4 0.9 0.3
v 1.4 0.9 0.2
v 1.4 0.9 0.1
v 1.4 0.9 0
v 1.4 0.9 -0.2
v 1.4 1 0.3
v 1.4 1 0.2
v 1.4 1 -0.2
v 1.4 1 -0.3
v 1.4 1.4 0.4
v 1.4 1.4 0.3
v 1.4 1.4 -0.2
v 1.4 1.4 -0.3
v 1.4 1.5 0.3
v 1.4 1.5 -0.2
v 1.5 0.3 0.1
v 1.5 0.3 0
v 1.5 0.4 0.1
v 1.5 0.4 0
v 1.5 0.8 0.1
v 1.5 0.8 0
v 1.5 1 0.3
v 1.5 1 -0.2
v 1.5 1.4 0.3
v 1.5 1.4 -0.2
v 0.6 0.3 0.9
v 0.6 0.4 0.9
v 0.7 0.3 0.9
v 0.7 0.4 0.9
v 0.6 0.2 0.8
v 0.6 0.3 0.8
v 0.7 0.2 0.8
v 0.7 0.3 0.8
v 0.7 0.9 0.4
v 0.7 1.4 0.4
v 0.8 1 0.4
v 0.8 1.3 0.4
v 0.9 1 0.4
v 0.9 1.3 0.4
v 1 1 0.4
v 1 1.3 0.4
v 1.1 1 0.4
v 1.1 1.3 0.4
v 1.2 1 0.4
v 1.2 1.3 0.4
v 1.3 1 0.4
v 1.3 1.3 0.4
v 1.4 0.9 0.4
v 1.4 1.4 0.4
v 0.6 1 0.3
v 0.6 1.4 0.3
v 0.7 1 0.3
v 0.7 1.4 0.3
v 0.7 1.5 0.3
v 0.8 0.6 0.3
v 0.8 0.8 0.3
v 0.8 1.2 0.3
v 0.8 1.3 0.3
v 0.9 0.4 0.3
v 0.9 0.6 0.3
v 0.9 1.2 0.3
v 0.9 1.3 0.3
v 1 1.2 0.3
v 1 1.3 0.3
v 1.1 1.2 0.3
v 1.1 1.3 0.3
v 1.2 0.4 0.3
v 1.2 0.6 0.3
v 1.2 1.2 0.3
v 1.2 1.3 0.3
v 1.3 0.6 0.3
v 1.3 0.8 0.3
v 1.3 1.2 0.3
v 1.3 1.3 0.3
v 1.4 1 0.3
v 1.4 1.4 0.3
v 1.4 1.5 0.3
v 1.5 1 0.3
v 1.5 1.4 0.3
v 0.7 0.6 0.2
v 0.7 0.8 0.2
v 0.7 0.9 0.2
v 0.7 1 0.2
v 0.7 1.2 0.2
v 0.8 0 0.2
v 0.8 0.2 0.2
v 0.8 0.3 0.2
v 0.8 0.6 0.2
v 0.8 0.8 0.2
v 0.8 0.9 0.2
v 0.8 1.2 0.2
v 0.9 0 0.2
v 0.9 0.2 0.2
v 0.9 0.4 0.2
v 0.9 0.6 0.2
v 1.2 0 0.2
v 1.2 0.2 0.2
v 1.2 0.4 0.2
v 1.2 0.6 0.2
v 1.3 0 0.2
v 1.3 0.2 0.2
v 1.3 0.3 0.2
v 1.3 0.6 0.2
v 1.3 0.8 0.2
v 1.3 0.9 0.2
v 1.3 1.2 0.2
v 1.4 0.6 0.2
v 1.4 0.8 0.2
v 1.4 0.9 0.2
v 1.4 1 0.2
v 1.4 1.2 0.2
v 0.6 0.4 0.1
v 0.6 0.8 0.1
v 0.7 0.4 0.1
v 0.7 0.6 0.1
v 0.7 0.8 0.1
v 0.7 0.9 0.1
v 0.8 0.2 0.1
v 0.8 0.3 0.1
v 0.8 0.8 0.1
v 0.8 0.9 0.1
v 0.9 0.2 0.1
v 0.9 0.3 0.1
v 1.2 0.2 0.1
v 1.2 0.3 0.1
v 1.3 0.2 0.1
v 1.3 0.3 0.1
v 1.3 0.8 0.1
v 1.3 0.9 0.1
v 1.4 0.3 0.1
v 1.4 0.4 0.1
v 1.4 0.6 0.1
v 1.4 0.8 0.1
v 1.4 0.9 0.1
v 1.5 0.3 0.1
v 1.5 0.4 0.1
v 1.5 0.8 0.1
v 0.7 0.9 0.3
v 0.7 1 0.3
v 0.7 1.2 0.3
v 0.8 1 0.3
v 0.8 1.2 0.3
v 0.9 1 0.3
v 0.9 1.2 0.3
v 1 1 0.3
v 1 1.2 0.3
v 1.1 1 0.3
v 1.1 1.2 0.3
v 1.2 1 0.3
v 1.2 1.2 0.3
v 1.3 1 0.3
v 1.3 1.2 0.3
v 1.4 0.9 0.3
v 1.4 1 0.3
v 1.4 1.2 0.3
v 0.6 0.2 0.1
v 0.6 0.3 0.1
v 0.7 0.2 0.1
v 0.7 0.3 0.1
v 0.6 0.4 0
v 0.6 0.8 0
v 0.7 0.4 0
v 0.7 0.6 0
v 0.7 0.8 0
v 0.7 0.9 0
v 0.8 0 0
v 0.8 0.3 0
v 0.8 0.8 0
v 0.8 0.9 0
v 0.9 0 0
v 0.9 0.3 0
v 1.2 0 0
v 1.2 0.3 0
v 1.3 0 0
v 1.3 0.3 0
v 1.3 0.8 0
v 1.3 0.9 0
v 1.4 0.3 0
v 1.4 0.4 0
v 1.4 0.6 0
v 1.4 0.8 0
v 1.4 0.9 0
v 1.5 0.3 0
v 1.5 0.4 0
v 1.5 0.8 0
v 0.6 0.3 -0.1
v 0.6 0.4 -0.1
v 0.7 0.3 -0.1
v 0.7 0.4 -0.1
v 0.7 0.6 -0.1
v 0.7 0.8 -0.1
v 0.8 0.3 -0.1
v 0.8 0.6 -0.1
v 0.8 0.8 -0.1
v 0.8 0.9 -0.1
v 0.9 0.4 -0.1
v 0.9 0.6 -0.1
v 1.2 0.4 -0.1
v 1.2 0.6 -0.1
v 1.3 0.3 -0.1
v 1.3 0.6 -0.1
v 1.3 0.8 -0.1
v 1.3 0.9 -0.1
v 1.4 0.6 -0.1
v 1.4 0.8 -0.1
v 0.6 1 -0.2
v 0.6 1.4 -0.2
v 0.7 0.9 -0.2
v 0.7 1 -0.2
v 0.7 1.4 -0.2
v 0.7 1.5 -0.2
v 0.8 0.6 -0.2
v 0.8 0.8 -0.2
v 0.9 0.4 -0.2
v 0.9 0.6 -0.2
v 1.2 0.4 -0.2
v 1.2 0.6 -0.2
v 1.3 0.6 -0.2
v 1.3 0.8 -0.2
v 1.4 0.9 -0.2
v 1.4 1 -0.2
v 1.4 1.4 -0.2
v 1.4 1.5 -0.2
v 1.5 1 -0.2
v 1.5 1.4 -0.2
v 0.7 1 -0.3
v 0.7 1.4 -0.3
v 1.4 1 -0.3
v 1.4 1.4 -0.3
v 0.8 0 0.2
v 0.9 0 0.2
v 1.2 0 0.2
v 1.3 0 0.2
v 0.8 0 0.1
v 0.9 0 0.1
v 1.2 0 0.1
v 1.3 0 0.1
v 0.8 0 0
v 0.9 0 0
v 1.2 0 0
v 1.3 0 0
v 0.6 0.2 0.8
v 0.7 0.2 0.8
v 0.6 0.2 0.2
v 0.7 0.2 0.2
v 0.6 0.2 0.1
v 0.7 0.2 0.1
v 0.6 0.3 0.9
v 0.7 0.3 0.9
v 0.6 0.3 0.8
v 0.7 0.3 0.8
v 0.8 0.3 0.2
v 1.3 0.3 0.2
v 0.6 0.3 0.1
v 0.7 0.3 0.1
v 0.8 0.3 0.1
v 0.9 0.3 0.1
v 1.2 0.3 0.1
v 1.3 0.3 0.1
v 1.4 0.3 0.1
v 1.5 0.3 0.1
v 0.6 0.3 0
v 0.7 0.3 0
v 0.8 0.3 0
v 0.9 0.3 0
v 1.2 0.3 0
v 1.3 0.3 0
v 1.4 0.3 0
v 1.5 0.3 0
v 0.6 0.3 -0.1
v 0.7 0.3 -0.1
v 0.8 0.3 -0.1
v 1.3 0.3 -0.1
v 0.9 0.4 0.3
v 1.2 0.4 0.3
v 0.9 0.4 0.2
v 1.2 0.4 0.2
v 0.9 0.4 -0.1
v 1.2 0.4 -0.1
v 0.9 0.4 -0.2
v 1.2 0.4 -0.2
v 0.8 0.6 0.3
v 0.9 0.6 0.3
v 1.2 0.6 0.3
v 1.3 0.6 0.3
v 0.7 0.6 0.2
v 0.8 0.6 0.2
v 0.9 0.6 0.2
v 1.2 0.6 0.2
v 1.3 0.6 0.2
v 1.4 0.6 0.2
v 0.7 0.6 0.1
v 0.8 0.6 0.1
v 1.3 0.6 0.1
v 1.4 0.6 0.1
v 0.7 0.6 0
v 0.8 0.6 0
v 1.3 0.6 0
v 1.4 0.6 0
v 0.7 0.6 -0.1
v 0.8 0.6 -0.1
v 0.9 0.6 -0.1
v 1.2 0.6 -0.1
v 1.3 0.6 -0.1
v 1.4 0.6 -0.1
v 0.8 0.6 -0.2
v 0.9 0.6 -0.2
v 1.2 0.6 -0.2
v 1.3 0.6 -0.2
v 0.7 0.9 0.4
v 1.4 0.9 0.4
v 0.7 0.9 0.3
v 1.4 0.9 0.3
v 0.7 0.9 0.2
v 0.8 0.9 0.2
v 1.3 0.9 0.2
v 1.4 0.9 0.2
v 0.7 0.9 0.1
v 0.8 0.9 0.1
v 1.3 0.9 0.1
v 1.4 0.9 0.1
v 0.7 0.9 0
v 0.8 0.9 0
v 1.3 0.9 0
v 1.4 0.9 0
v 0.8 0.9 -0.1
v 1.3 0.9 -0.1
v 0.7 0.9 -0.2
v 1.4 0.9 -0.2
v 0.6 1 0.3
v 0.7 1 0.3
v 1.4 1 0.3
v 1.5 1 0.3
v 0.7 1 0.2
v 1.4 1 0.2
v 0.6 1 -0.2
v 0.7 1 -0.2
v 1.4 1 -0.2
v 1.5 1 -0.2
v 0.7 1 -0.3
v 1.4 1 -0.3
v 0.7 1.2 0.3
v 0.8 1.2 0.3
v 0.9 1.2 0.3
v 1 1.2 0.3
v 1.1 1.2 0.3
v 1.2 1.2 0.3
v 1.3 1.2 0.3
v 1.4 1.2 0.3
v 0.7 1.2 0.2
v 0.8 1.2 0.2
v 1.3 1.2 0.2
v 1.4 1.2 0.2
v 0.8 1.3 0.4
v 0.9 1.3 0.4
v 1 1.3 0.4
v 1.1 1.3 0.4
v 1.2 1.3 0.4
v 1.3 1.3 0.4
v 0.8 1.3 0.3
v 0.9 1.3 0.3
v 1 1.3 0.3
v 1.1 1.3 0.3
v 1.2 1.3 0.3
v 1.3 1.3 0.3
v 0.8 0.2 0.2
v 0.9 0.2 0.2
v 1.2 0.2 0.2
v 1.3 0.2 0.2
v 0.8 0.2 0.1
v 0.9 0.2 0.1
v 1.2 0.2 0.1
v 1.3 0.2 0.1
v 0.6 0.4 0.9
v 0.7 0.4 0.9
v 0.6 0.4 0.2
v 0.7 0.4 0.2
v 0.6 0.4 0.1
v 0.7 0.4 0.1
v 0.6 0.4 0
v 0.7 0.4 0
v 0.6 0.4 -0.1
v 0.7 0.4 -0.1
v 0.8 0.8 0.3
v 1.3 0.8 0.3
v 0.7 0.8 0.2
v 0.8 0.8 0.2
v 1.3 0.8 0.2
v 1.4 0.8 0.2
v 0.6 0.8 0.1
v 0.7 0.8 0.1
v 0.8 0.8 0.1
v 1.3 0.8 0.1
v 1.4 0.8 0.1
v 1.5 0.8 0.1
v 0.6 0.8 0
v 0.7 0.8 0
v 0.8 0.8 0
v 1.3 0.8 0
v 1.4 0.8 0
v 1.5 0.8 0
v 0.7 0.8 -0.1
v 0.8 0.8 -0.1
v 1.3 0.8 -0.1
v 1.4 0.8 -0.1
v 0.8 0.8 -0.2
v 1.3 0.8 -0.2
v 0.8 1 0.4
v 0.9 1 0.4
v 1 1 0.4
v 1.1 1 0.4
v 1.2 1 0.4
v 1.3 1 0.4
v 0.8 1 0.3
v 0.9 1 0.3
v 1 1 0.3
v 1.1 1 0.3
v 1.2 1 0.3
v 1.3 1 0.3
v 0.7 1.4 0.4
v 1.4 1.4 0.4
v 0.6 1.4 0.3
v 0.7 1.4 0.3
v 1.4 1.4 0.3
v 1.5 1.4 0.3
v 0.6 1.4 -0.2
v 0.7 1.4 -0.2
v 1.4 1.4 -0.2
v 1.5 1.4 -0.2
v 0.7 1.4 -0.3
v 1.4 1.4 -0.3
v 0.7 1.5 0.3
v 1.4 1.5 0.3
v 0.7 1.5 -0.2
v 1.4 1.5 -0.2

# faces
f 5/5/1 2/5/1 1/5/1
f 6/6/1 3/6/1 2/6/1
f 9/5/1 5/5/1 4/5/1
f 10/5/1 2/5/1 5/5/1
f 10/5/1 5/5/1 9/5/1
f 10/6/1 6/6/1 2/6/1
f 11/1/1 7/1/1 6/1/1
f 11/6/1 6/6/1 10/6/1
f 12/6/1 8/6/1 7/6/1
f 12/1/1 7/1/1 11/1/1
f 13/6/1 8/6/1 12/6/1
f 14/5/1 12/5/1 11/5/1
f 15/5/1 12/5/1 14/5/1
f 18/5/1 17/5/1 16/5/1
f 19/5/1 17/5/1 18/5/1
f 24/5/1 21/5/1 20/5/1
f 25/5/1 21/5/1 24/5/1
f 26/5/1 23/5/1 22/5/1
f 27/5/1 23/5/1 26/5/1
f 31/2/1 26/2/1 25/2/1
f 32/2/1 26/2/1 31/2/1
f 34/5/1 29/5/1 28/5/1
f 35/2/1 32/2/1 31/2/1
f 35/2/1 33/2/1 32/2/1
f 35/2/1 31/2/1 30/2/1
f 36/2/1 33/2/1 35/2/1
f 38/5/1 34/5/1 28/5/1
f 39/5/1 34/5/1 38/5/1
f 40/5/1 37/5/1 36/5/1
f 41/5/1 37/5/1 40/5/1
f 42/5/1 40/5/1 39/5/1
f 43/5/1 40/5/1 42/5/1
f 47/5/1 45/5/1 44/5/1
f 48/2/1 46/2/1 45/2/1
f 48/5/1 45/5/1 47/5/1
f 50/2/1 46/2/1 48/2/1
f 51/2/1 46/2/1 50/2/1
f 54/5/1 50/5/1 49/5/1
f 55/2/1 51/2/1 50/2/1
f 55/5/1 50/5/1 54/5/1
f 56/5/1 52/5/1 51/5/1
f 56/2/1 51/2/1 55/2/1
f 57/5/1 52/5/1 56/5/1
f 59/5/1 54/5/1 53/5/1
f 60/5/1 54/5/1 59/5/1
f 63/5/1 58/5/1 57/5/1
f 64/5/1 58/5/1 63/5/1
f 65/2/1 61/2/1 60/2/1
f 66/2/1 61/2/1 65/2/1
f 67/2/1 63/2/1 62/2/1
f 68/2/1 63/2/1 67/2/1
f 73/5/1 70/5/1 69/5/1
f 74/5/1 70/5/1 73/5/1
f 75/5/1 72/5/1 71/5/1
f 76/5/1 72/5/1 75/5/1
f 79/5/1 78/5/1 77/5/1
f 80/5/1 79/5/1 77/5/1
f 81/5/1 79/5/1 80/5/1
f 84/5/1 83/5/1 82/5/1
f 85/5/1 84/5/1 82/5/1
f 86/5/1 84/5/1 85/5/1
f 90/5/1 88/5/1 87/5/1
f 91/2/1 89/2/1 88/2/1
f 91/5/1 88/5/1 90/5/1
f 92/2/1 89/2/1 91/2/1
f 93/2/1 89/2/1 92/2/1
f 96/5/1 95/5/1 94/5/1
f 97/5/1 96/5/1 94/5/1
f 98/5/1 96/5/1 97/5/1
f 101/1/1 100/1/1 99/1/1
f 102/1/1 100/1/1 101/1/1
f 103/5/1 102/5/1 101/5/1
f 104/5/1 102/5/1 103/5/1
f 107/5/1 106/5/1 105/5/1
f 108/5/1 106/5/1 107/5/1
f 109/5/2 110/5/2 113/5/2
f 110/6/2 111/6/2 114/6/2
f 112/5/2 113/5/2 117/5/2
f 113/5/2 110/5/2 118/5/2
f 117/5/2 113/5/2 118/5/2
f 110/6/2 114/6/2 118/6/2
f 114/1/2 115/1/2 119/1/2
f 118/6/2 114/6/2 119/6/2
f 115/6/2 116/6/2 120/6/2
f 119/1/2 115/1/2 120/1/2
f 120/6/2 116/6/2 121/6/2
f 119/5/2 120/5/2 122/5/2
f 122/5/2 120/5/2 123/5/2
f 124/5/2 125/5/2 126/5/2
f 126/5/2 125/5/2 127/5/2
f 128/5/2 129/5/2 130/5/2
f 128/5/2 130/5/2 131/5/2
f 131/5/2 130/5/2 132/5/2
f 133/5/2 134/5/2 136/5/2
f 134/2/2 135/2/2 137/2/2
f 136/5/2 134/5/2 137/5/2
f 137/2/2 135/2/2 138/2/2
f 138/2/2 135/2/2 139/2/2
f 140/5/2 141/5/2 142/5/2
f 140/5/2 142/5/2 143/5/2
f 143/5/2 142/5/2 144/5/2
f 145/5/2 146/5/2 149/5/2
f 149/5/2 146/5/2 150/5/2
f 147/5/2 148/5/2 151/5/2
f 151/5/2 148/5/2 152/5/2
f 153/5/2 154/5/2 155/5/2
f 153/5/2 155/5/2 156/5/2
f 156/5/2 155/5/2 157/5/2
f 158/5/2 159/5/2 161/5/2
f 159/2/2 160/2/2 162/2/2
f 161/5/2 159/5/2 162/5/2
f 162/2/2 160/2/2 164/2/2
f 164/2/2 160/2/2 165/2/2
f 163/5/2 164/5/2 168/5/2
f 164/2/2 165/2/2 169/2/2
f 168/5/2 164/5/2 169/5/2
f 165/5/2 166/5/2 170/5/2
f 169/2/2 165/2/2 170/2/2
f 170/5/2 166/5/2 171/5/2
f 167/5/2 168/5/2 173/5/2
f 173/5/2 168/5/2 174/5/2
f 171/5/2 172/5/2 177/5/2
f 177/5/2 172/5/2 178/5/2
f 174/2/2 175/2/2 179/2/2
f 179/2/2 175/2/2 180/2/2
f 176/2/2 177/2/2 181/2/2
f 181/2/2 177/2/2 182/2/2
f 183/5/2 184/5/2 187/5/2
f 187/5/2 184/5/2 188/5/2
f 185/5/2 186/5/2 189/5/2
f 189/5/2 186/5/2 190/5/2
f 188/2/2 189/2/2 194/2/2
f 194/2/2 189/2/2 195/2/2
f 191/5/2 192/5/2 197/5/2
f 194/2/2 195/2/2 198/2/2
f 195/2/2 196/2/2 198/2/2
f 193/2/2 194/2/2 198/2/2
f 198/2/2 196/2/2 199/2/2
f 191/5/2 197/5/2 201/5/2
f 201/5/2 197/5/2 202/5/2
f 199/5/2 200/5/2 203/5/2
f 203/5/2 200/5/2 204/5/2
f 202/5/2 203/5/2 205/5/2
f 205/5/2 203/5/2 206/5/2
f 207/1/2 208/1/2 209/1/2
f 209/1/2 208/1/2 210/1/2
f 209/5/2 210/5/2 211/5/2
f 211/5/2 210/5/2 212/5/2
f 213/5/2 214/5/2 215/5/2
f 215/5/2 214/5/2 216/5/2
f 219/5/3 218/5/3 217/5/3
f 220/5/3 218/5/3 219/5/3
f 223/5/3 222/5/3 221/5/3
f 224/5/3 222/5/3 223/5/3
f 227/5/3 226/5/3 225/5/3
f 228/5/3 226/5/3 227/5/3
f 229/5/3 227/5/3 225/5/3
f 230/5/3 226/5/3 228/5/3
f 231/5/3 229/5/3 225/5/3
f 231/5/3 230/5/3 229/5/3
f 232/5/3 226/5/3 230/5/3
f 232/5/3 230/5/3 231/5/3
f 233/5/3 231/5/3 225/5/3
f 234/5/3 226/5/3 232/5/3
f 235/5/3 233/5/3 225/5/3
f 235/5/3 234/5/3 233/5/3
f 236/5/3 226/5/3 234/5/3
f 236/5/3 234/5/3 235/5/3
f 237/5/3 235/5/3 225/5/3
f 238/5/3 226/5/3 236/5/3
f 239/5/3 237/5/3 225/5/3
f 239/5/3 238/5/3 237/5/3
f 240/5/3 226/5/3 238/5/3
f 240/5/3 238/5/3 239/5/3
f 243/5/3 242/5/3 241/5/3
f 244/5/3 242/5/3 243/5/3
f 251/5/3 247/5/3 246/5/3
f 252/5/3 249/5/3 248/5/3
f 253/5/3 249/5/3 252/5/3
f 256/5/3 255/5/3 254/5/3
f 257/5/3 255/5/3 256/5/3
f 258/5/3 251/5/3 250/5/3
f 259/5/3 247/5/3 251/5/3
f 259/5/3 251/5/3 258/5/3
f 262/5/3 247/5/3 259/5/3
f 263/5/3 247/5/3 262/5/3
f 264/5/3 261/5/3 260/5/3
f 265/5/3 261/5/3 264/5/3
f 267/5/3 245/5/3 244/5/3
f 268/5/3 245/5/3 267/5/3
f 269/5/3 267/5/3 266/5/3
f 270/5/3 267/5/3 269/5/3
f 279/5/3 272/5/3 271/5/3
f 280/5/3 272/5/3 279/5/3
f 281/2/3 274/2/3 273/2/3
f 281/2/3 275/2/3 274/2/3
f 282/2/3 275/2/3 281/2/3
f 283/5/3 277/5/3 276/5/3
f 284/5/3 277/5/3 283/5/3
f 285/5/3 279/5/3 278/5/3
f 286/5/3 279/5/3 285/5/3
f 289/5/3 285/5/3 278/5/3
f 291/5/3 288/5/3 287/5/3
f 292/5/3 288/5/3 291/5/3
f 293/5/3 290/5/3 289/5/3
f 293/5/3 289/5/3 278/5/3
f 294/5/3 290/5/3 293/5/3
f 295/2/3 281/2/3 280/2/3
f 296/1/3 282/1/3 281/1/3
f 296/2/3 281/2/3 295/2/3
f 297/1/3 282/1/3 296/1/3
f 298/5/3 295/5/3 294/5/3
f 299/5/3 295/5/3 298/5/3
f 300/2/3 297/2/3 296/2/3
f 301/2/3 297/2/3 300/2/3
f 302/2/3 297/2/3 301/2/3
f 305/5/3 304/5/3 303/5/3
f 306/5/3 304/5/3 305/5/3
f 307/5/3 304/5/3 306/5/3
f 311/2/3 308/2/3 307/2/3
f 312/2/3 308/2/3 311/2/3
f 313/2/3 310/2/3 309/2/3
f 314/2/3 310/2/3 313/2/3
f 317/2/3 316/2/3 315/2/3
f 318/2/3 316/2/3 317/2/3
f 324/2/3 320/2/3 319/2/3
f 325/2/3 320/2/3 324/2/3
f 326/1/3 322/1/3 321/1/3
f 327/5/3 323/5/3 322/5/3
f 327/1/3 322/1/3 326/1/3
f 327/5/3 324/5/3 323/5/3
f 328/5/3 324/5/3 327/5/3
f 329/5/4 330/5/4 332/5/4
f 330/5/4 331/5/4 332/5/4
f 332/5/4 331/5/4 333/5/4
f 329/5/4 332/5/4 334/5/4
f 329/5/4 334/5/4 336/5/4
f 334/5/4 335/5/4 336/5/4
f 336/5/4 335/5/4 337/5/4
f 329/5/4 336/5/4 338/5/4
f 329/5/4 338/5/4 340/5/4
f 338/5/4 339/5/4 340/5/4
f 340/5/4 339/5/4 341/5/4
f 329/5/4 340/5/4 342/5/4
f 329/5/4 342/5/4 344/5/4
f 342/5/4 343/5/4 344/5/4
f 344/5/4 343/5/4 345/5/4
f 345/5/4 343/5/4 346/5/4
f 347/6/4 348/6/4 349/6/4
f 349/6/4 348/6/4 350/6/4
f 351/5/4 352/5/4 353/5/4
f 353/5/4 352/5/4 354/5/4
f 354/5/4 352/5/4 355/5/4
f 355/2/4 356/2/4 359/2/4
f 359/2/4 356/2/4 360/2/4
f 357/2/4 358/2/4 361/2/4
f 361/2/4 358/2/4 362/2/4
f 363/2/4 364/2/4 365/2/4
f 365/2/4 364/2/4 366/2/4
f 367/2/4 368/2/4 372/2/4
f 372/2/4 368/2/4 373/2/4
f 369/1/4 370/1/4 374/1/4
f 370/5/4 371/5/4 375/5/4
f 374/1/4 370/1/4 375/1/4
f 371/5/4 372/5/4 375/5/4
f 375/5/4 372/5/4 376/5/4
f 377/6/4 378/6/4 379/6/4
f 379/6/4 378/6/4 380/6/4
f 381/5/4 382/5/4 384/5/4
f 384/5/4 382/5/4 385/5/4
f 383/5/4 384/5/4 387/5/4
f 387/5/4 384/5/4 388/5/4
f 383/5/4 387/5/4 389/5/4
f 383/5/4 389/5/4 391/5/4
f 389/5/4 390/5/4 391/5/4
f 391/5/4 390/5/4 392/5/4
f 385/2/4 386/2/4 393/2/4
f 393/2/4 386/2/4 394/2/4
f 392/5/4 393/5/4 395/5/4
f 395/5/4 393/5/4 396/5/4
f 397/5/4 398/5/4 400/5/4
f 400/5/4 398/5/4 401/5/4
f 403/5/4 404/5/4 406/5/4
f 405/5/4 406/5/4 407/5/4
f 406/5/4 404/5/4 408/5/4
f 407/5/4 406/5/4 408/5/4
f 408/5/4 404/5/4 409/5/4
f 409/5/4 404/5/4 410/5/4
f 399/2/4 400/2/4 411/2/4
f 411/2/4 400/2/4 412/2/4
f 401/5/4 402/5/4 413/5/4
f 413/5/4 402/5/4 414/5/4
f 412/5/4 413/5/4 415/5/4
f 415/5/4 413/5/4 416/5/4
f 417/5/4 418/5/4 419/5/4
f 419/5/4 418/5/4 420/5/4
f 425/5/5 422/5/5 421/5/5
f 426/5/5 422/5/5 425/5/5
f 427/5/5 424/5/5 423/5/5
f 428/5/5 424/5/5 427/5/5
f 429/2/5 426/2/5 425/2/5
f 430/2/5 426/2/5 429/2/5
f 431/2/5 428/2/5 427/2/5
f 432/2/5 428/2/5 431/2/5
f 435/5/5 434/5/5 433/5/5
f 436/5/5 434/5/5 435/5/5
f 437/6/5 436/6/5 435/6/5
f 438/6/5 436/6/5 437/6/5
f 441/5/5 440/5/5 439/5/5
f 442/5/5 440/5/5 441/5/5
f 447/5/5 444/5/5 443/5/5
f 448/5/5 444/5/5 447/5/5
f 449/5/5 444/5/5 448/5/5
f 450/5/5 444/5/5 449/5/5
f 453/1/5 446/1/5 445/1/5
f 454/1/5 446/1/5 453/1/5
f 456/2/5 449/2/5 448/2/5
f 457/2/5 449/2/5 456/2/5
f 459/1/5 452/1/5 451/1/5
f 460/1/5 452/1/5 459/1/5
f 461/6/5 454/6/5 453/6/5
f 462/6/5 454/6/5 461/6/5
f 463/5/5 458/5/5 457/5/5
f 463/5/5 456/5/5 455/5/5
f 463/5/5 457/5/5 456/5/5
f 464/5/5 458/5/5 463/5/5
f 467/5/5 466/5/5 465/5/5
f 468/5/5 466/5/5 467/5/5
f 471/5/5 470/5/5 469/5/5
f 472/5/5 470/5/5 471/5/5
f 478/5/5 474/5/5 473/5/5
f 479/5/5 474/5/5 478/5/5
f 480/5/5 476/5/5 475/5/5
f 481/5/5 476/5/5 480/5/5
f 483/5/5 478/5/5 477/5/5
f 484/5/5 478/5/5 483/5/5
f 485/5/5 482/5/5 481/5/5
f 486/5/5 482/5/5 485/5/5
f 487/5/5 484/5/5 483/5/5
f 488/5/5 484/5/5 487/5/5
f 489/5/5 486/5/5 485/5/5
f 490/5/5 486/5/5 489/5/5
f 491/5/5 488/5/5 487/5/5
f 492/5/5 488/5/5 491/5/5
f 495/5/5 490/5/5 489/5/5
f 496/5/5 490/5/5 495/5/5
f 497/5/5 493/5/5 492/5/5
f 498/5/5 493/5/5 497/5/5
f 499/5/5 495/5/5 494/5/5
f 500/5/5 495/5/5 499/5/5
f 503/5/5 502/5/5 501/5/5
f 504/5/5 502/5/5 503/5/5
f 509/2/5 506/2/5 505/2/5
f 510/2/5 506/2/5 509/2/5
f 511/2/5 508/2/5 507/2/5
f 512/2/5 508/2/5 511/2/5
f 517/2/5 514/2/5 513/2/5
f 518/2/5 516/2/5 515/2/5
f 519/2/5 517/2/5 513/2/5
f 519/2/5 518/2/5 517/2/5
f 520/2/5 516/2/5 518/2/5
f 520/2/5 518/2/5 519/2/5
f 525/5/5 522/5/5 521/5/5
f 526/5/5 524/5/5 523/5/5
f 527/5/5 525/5/5 521/5/5
f 528/5/5 525/5/5 527/5/5
f 529/5/5 524/5/5 526/5/5
f 530/5/5 524/5/5 529/5/5
f 531/5/5 529/5/5 528/5/5
f 532/5/5 529/5/5 531/5/5
f 541/5/5 534/5/5 533/5/5
f 541/5/5 540/5/5 539/5/5
f 541/5/5 539/5/5 538/5/5
f 541/5/5 538/5/5 537/5/5
f 541/5/5 537/5/5 536/5/5
f 541/5/5 536/5/5 535/5/5
f 541/5/5 535/5/5 534/5/5
f 542/5/5 540/5/5 541/5/5
f 543/5/5 540/5/5 542/5/5
f 544/5/5 540/5/5 543/5/5
f 551/5/5 546/5/5 545/5/5
f 552/5/5 546/5/5 551/5/5
f 553/5/5 548/5/5 547/5/5
f 554/5/5 548/5/5 553/5/5
f 555/5/5 550/5/5 549/5/5
f 556/5/5 550/5/5 555/5/5
f 557/5/6 558/5/6 561/5/6
f 561/5/6 558/5/6 562/5/6
f 559/5/6 560/5/6 563/5/6
f 563/5/6 560/5/6 564/5/6
f 565/5/6 566/5/6 567/5/6
f 567/5/6 566/5/6 568/5/6
f 567/6/6 568/6/6 569/6/6
f 569/6/6 568/6/6 570/6/6
f 571/6/6 572/6/6 573/6/6
f 573/6/6 572/6/6 574/6/6
f 575/5/6 576/5/6 578/5/6
f 578/5/6 576/5/6 579/5/6
f 577/5/6 578/5/6 582/5/6
f 582/5/6 578/5/6 583/5/6
f 579/5/6 580/5/6 584/5/6
f 584/5/6 580/5/6 585/5/6
f 581/5/6 582/5/6 587/5/6
f 587/5/6 582/5/6 588/5/6
f 585/5/6 586/5/6 591/5/6
f 591/5/6 586/5/6 592/5/6
f 588/5/6 589/5/6 593/5/6
f 593/5/6 589/5/6 594/5/6
f 590/5/6 591/5/6 595/5/6
f 595/5/6 591/5/6 596/5/6
f 594/5/6 595/5/6 597/5/6
f 597/5/6 595/5/6 598/5/6
f 599/5/6 600/5/6 605/5/6
f 605/5/6 600/5/6 606/5/6
f 601/5/6 602/5/6 607/5/6
f 607/5/6 602/5/6 608/5/6
f 603/5/6 604/5/6 609/5/6
f 609/5/6 604/5/6 610/5/6
f 611/5/6 612/5/6 614/5/6
f 614/5/6 612/5/6 615/5/6
f 613/5/6 614/5/6 617/5/6
f 617/5/6 614/5/6 618/5/6
f 615/5/6 616/5/6 619/5/6
f 619/5/6 616/5/6 620/5/6
f 618/5/6 619/5/6 621/5/6
f 621/5/6 619/5/6 622/5/6
f 623/5/6 624/5/6 625/5/6
f 625/5/6 624/5/6 626/5/6
