# MagicaVoxel @ Ephtracy

# group
o 

# material
mtllib Knight-0.mtl
usemtl palette

# normals
vn -1 0 0
vn 1 0 0
vn 0 0 1
vn 0 0 -1
vn 0 -1 0
vn 0 1 0

# texcoords
vt 0.970703 0.5
vt 0.974609 0.5
vt 0.978516 0.5
vt 0.982422 0.5
vt 0.990234 0.5
vt 0.994141 0.5

# verts
v 8.8 1.1 0.4
v 8.8 1.1 -0.1
v 8.8 1.5 0.4
v 8.8 1.5 -0.1
v 8.9 0.7 0.5
v 8.9 0.7 0.4
v 8.9 0.7 0.3
v 8.9 0.7 0
v 8.9 0.8 0.5
v 8.9 0.8 0.4
v 8.9 0.8 0.3
v 8.9 0.9 0.4
v 8.9 0.9 0.2
v 8.9 0.9 0.1
v 8.9 0.9 0
v 8.9 1 0.5
v 8.9 1 0.4
v 8.9 1 0.3
v 8.9 1 0.2
v 8.9 1 0.1
v 8.9 1 -0.1
v 8.9 1.1 0.4
v 8.9 1.1 0.3
v 8.9 1.1 -0.1
v 8.9 1.1 -0.2
v 8.9 1.5 0.5
v 8.9 1.5 0.4
v 8.9 1.5 -0.1
v 8.9 1.5 -0.2
v 8.9 1.6 0.4
v 8.9 1.6 -0.1
v 9 0 0.2
v 9 0 0.1
v 9 0.1 0.3
v 9 0.1 0.2
v 9 0.3 0.3
v 9 0.3 0.2
v 9 0.4 0.3
v 9 0.4 0.2
v 9 0.4 0.1
v 9 0.4 0
v 9 0.6 0.6
v 9 0.6 0.5
v 9 0.7 0.6
v 9 0.7 0.5
v 9 0.7 0.4
v 9 0.7 0.3
v 9 0.7 0.2
v 9 0.7 0.1
v 9 0.7 0
v 9 0.7 -0.1
v 9 0.8 0.4
v 9 0.8 0.3
v 9 0.9 0.3
v 9 0.9 0.2
v 9 0.9 0.1
v 9 0.9 0
v 9 0.9 -0.1
v 9 1 0.3
v 9 1 0.2
v 9 1 0.1
v 9 1 0
v 9.1 0.5 0.7
v 9.1 0.5 0.6
v 9.1 0.5 0.4
v 9.1 0.5 0.3
v 9.1 0.5 0
v 9.1 0.5 -0.1
v 9.1 0.6 0.7
v 9.1 0.6 0.6
v 9.1 0.7 0.4
v 9.1 0.7 0.3
v 9.1 0.7 0
v 9.1 0.7 -0.1
v 9.1 1.1 0.5
v 9.1 1.1 0.4
v 9.1 1.3 0.4
v 9.1 1.4 0.5
v 9.1 1.4 0.4
v 9.2 0.4 1.4
v 9.2 0.4 0.8
v 9.2 0.4 0.7
v 9.2 0.5 1.5
v 9.2 0.5 1.4
v 9.2 0.5 0.7
v 9.2 0.5 0.6
v 9.2 0.5 0.5
v 9.2 0.6 1.5
v 9.2 0.6 0.8
v 9.2 0.6 0.7
v 9.2 0.6 0.6
v 9.2 0.6 0.5
v 9.3 1.1 0.5
v 9.3 1.1 0.4
v 9.3 1.3 0.4
v 9.3 1.4 0.5
v 9.3 1.4 0.4
v 9.4 0 0.2
v 9.4 0 0.1
v 9.4 0.1 0.3
v 9.4 0.1 0.2
v 9.4 0.3 0.3
v 9.4 0.3 0.2
v 9.4 0.4 0.2
v 9.4 0.4 0.1
v 9.4 0.6 0.6
v 9.4 0.6 0.5
v 9.4 0.7 0.6
v 9.4 0.7 0.5
v 9.5 0.7 0.5
v 9.5 0.7 0.4
v 9.5 0.8 0.5
v 9.5 0.8 0.4
v 9.5 1.1 0.5
v 9.5 1.1 0.4
v 9.5 1.3 0.4
v 9.5 1.4 0.5
v 9.5 1.4 0.4
v 9.6 1.1 0.4
v 9.6 1.1 0.3
v 9.6 1.3 0.4
v 9.6 1.3 0.3
v 8.9 1.1 0.4
v 8.9 1.1 0.3
v 8.9 1.3 0.4
v 8.9 1.3 0.3
v 9 0.7 0.5
v 9 0.7 0.4
v 9 0.8 0.5
v 9 0.8 0.4
v 9 1.1 0.5
v 9 1.1 0.4
v 9 1.3 0.4
v 9 1.4 0.5
v 9 1.4 0.4
v 9.1 0 0.2
v 9.1 0 0.1
v 9.1 0.1 0.3
v 9.1 0.1 0.2
v 9.1 0.3 0.3
v 9.1 0.3 0.2
v 9.1 0.4 0.2
v 9.1 0.4 0.1
v 9.1 0.6 0.6
v 9.1 0.6 0.5
v 9.1 0.7 0.6
v 9.1 0.7 0.5
v 9.2 1.1 0.5
v 9.2 1.1 0.4
v 9.2 1.3 0.4
v 9.2 1.4 0.5
v 9.2 1.4 0.4
v 9.3 0.4 1.4
v 9.3 0.4 0.8
v 9.3 0.4 0.7
v 9.3 0.5 1.5
v 9.3 0.5 1.4
v 9.3 0.5 0.7
v 9.3 0.5 0.6
v 9.3 0.5 0.5
v 9.3 0.6 1.5
v 9.3 0.6 0.8
v 9.3 0.6 0.7
v 9.3 0.6 0.6
v 9.3 0.6 0.5
v 9.4 0.5 0.7
v 9.4 0.5 0.6
v 9.4 0.5 0.4
v 9.4 0.5 0.3
v 9.4 0.5 0
v 9.4 0.5 -0.1
v 9.4 0.6 0.7
v 9.4 0.6 0.6
v 9.4 0.7 0.4
v 9.4 0.7 0.3
v 9.4 0.7 0
v 9.4 0.7 -0.1
v 9.4 1.1 0.5
v 9.4 1.1 0.4
v 9.4 1.3 0.4
v 9.4 1.4 0.5
v 9.4 1.4 0.4
v 9.5 0 0.2
v 9.5 0 0.1
v 9.5 0.1 0.3
v 9.5 0.1 0.2
v 9.5 0.3 0.3
v 9.5 0.3 0.2
v 9.5 0.4 0.3
v 9.5 0.4 0.2
v 9.5 0.4 0.1
v 9.5 0.4 0
v 9.5 0.6 0.6
v 9.5 0.6 0.5
v 9.5 0.7 0.6
v 9.5 0.7 0.5
v 9.5 0.7 0.4
v 9.5 0.7 0.3
v 9.5 0.7 0.2
v 9.5 0.7 0.1
v 9.5 0.7 0
v 9.5 0.7 -0.1
v 9.5 0.8 0.4
v 9.5 0.8 0.3
v 9.5 0.9 0.3
v 9.5 0.9 0.2
v 9.5 0.9 0.1
v 9.5 0.9 0
v 9.5 0.9 -0.1
v 9.5 1 0.3
v 9.5 1 0.2
v 9.5 1 0.1
v 9.5 1 0
v 9.6 0.7 0.5
v 9.6 0.7 0.4
v 9.6 0.7 0.3
v 9.6 0.7 0
v 9.6 0.8 0.5
v 9.6 0.8 0.4
v 9.6 0.8 0.3
v 9.6 0.9 0.4
v 9.6 0.9 0.2
v 9.6 0.9 0.1
v 9.6 0.9 0
v 9.6 1 0.5
v 9.6 1 0.4
v 9.6 1 0.3
v 9.6 1 0.2
v 9.6 1 0.1
v 9.6 1 0
v 9.6 1 -0.1
v 9.6 1.1 0.4
v 9.6 1.1 0.3
v 9.6 1.1 0
v 9.6 1.1 -0.1
v 9.6 1.1 -0.2
v 9.6 1.5 0.5
v 9.6 1.5 0.4
v 9.6 1.5 -0.1
v 9.6 1.5 -0.2
v 9.6 1.6 0.4
v 9.6 1.6 -0.1
v 9.7 1.1 0.4
v 9.7 1.1 -0.1
v 9.7 1.5 0.4
v 9.7 1.5 -0.1
v 9.2 0.5 1.5
v 9.2 0.6 1.5
v 9.3 0.5 1.5
v 9.3 0.6 1.5
v 9.2 0.4 1.4
v 9.2 0.5 1.4
v 9.3 0.4 1.4
v 9.3 0.5 1.4
v 9.1 0.5 0.7
v 9.1 0.6 0.7
v 9.2 0.5 0.7
v 9.2 0.6 0.7
v 9.3 0.5 0.7
v 9.3 0.6 0.7
v 9.4 0.5 0.7
v 9.4 0.6 0.7
v 9 0.6 0.6
v 9 0.7 0.6
v 9.1 0.6 0.6
v 9.1 0.7 0.6
v 9.4 0.6 0.6
v 9.4 0.7 0.6
v 9.5 0.6 0.6
v 9.5 0.7 0.6
v 8.9 0.7 0.5
v 8.9 0.8 0.5
v 8.9 1 0.5
v 8.9 1.5 0.5
v 9 0.7 0.5
v 9 0.8 0.5
v 9 1.1 0.5
v 9 1.4 0.5
v 9.1 1.1 0.5
v 9.1 1.4 0.5
v 9.2 1.1 0.5
v 9.2 1.4 0.5
v 9.3 1.1 0.5
v 9.3 1.4 0.5
v 9.4 1.1 0.5
v 9.4 1.4 0.5
v 9.5 0.7 0.5
v 9.5 0.8 0.5
v 9.5 1.1 0.5
v 9.5 1.4 0.5
v 9.6 0.7 0.5
v 9.6 0.8 0.5
v 9.6 1 0.5
v 9.6 1.5 0.5
v 8.8 1.1 0.4
v 8.8 1.5 0.4
v 8.9 0.8 0.4
v 8.9 0.9 0.4
v 8.9 1.1 0.4
v 8.9 1.5 0.4
v 8.9 1.6 0.4
v 9 0.7 0.4
v 9 0.8 0.4
v 9 1.3 0.4
v 9 1.4 0.4
v 9.1 0.5 0.4
v 9.1 0.7 0.4
v 9.1 1.3 0.4
v 9.1 1.4 0.4
v 9.2 1.3 0.4
v 9.2 1.4 0.4
v 9.3 1.3 0.4
v 9.3 1.4 0.4
v 9.4 0.5 0.4
v 9.4 0.7 0.4
v 9.4 1.3 0.4
v 9.4 1.4 0.4
v 9.5 0.7 0.4
v 9.5 0.8 0.4
v 9.5 1.3 0.4
v 9.5 1.4 0.4
v 9.6 0.8 0.4
v 9.6 0.9 0.4
v 9.6 1.1 0.4
v 9.6 1.5 0.4
v 9.6 1.6 0.4
v 9.7 1.1 0.4
v 9.7 1.5 0.4
v 8.9 0.7 0.3
v 8.9 0.8 0.3
v 8.9 1 0.3
v 8.9 1.1 0.3
v 8.9 1.3 0.3
v 9 0.1 0.3
v 9 0.3 0.3
v 9 0.4 0.3
v 9 0.7 0.3
v 9 0.8 0.3
v 9 0.9 0.3
v 9 1 0.3
v 9 1.3 0.3
v 9.1 0.1 0.3
v 9.1 0.3 0.3
v 9.1 0.5 0.3
v 9.1 0.7 0.3
v 9.4 0.1 0.3
v 9.4 0.3 0.3
v 9.4 0.5 0.3
v 9.4 0.7 0.3
v 9.5 0.1 0.3
v 9.5 0.3 0.3
v 9.5 0.4 0.3
v 9.5 0.7 0.3
v 9.5 0.8 0.3
v 9.5 0.9 0.3
v 9.5 1 0.3
v 9.5 1.3 0.3
v 9.6 0.7 0.3
v 9.6 0.8 0.3
v 9.6 1 0.3
v 9.6 1.1 0.3
v 9.6 1.3 0.3
v 8.9 0.9 0.2
v 8.9 1 0.2
v 9 0 0.2
v 9 0.1 0.2
v 9 0.3 0.2
v 9 0.4 0.2
v 9 0.9 0.2
v 9 1 0.2
v 9.1 0 0.2
v 9.1 0.1 0.2
v 9.1 0.3 0.2
v 9.1 0.4 0.2
v 9.4 0 0.2
v 9.4 0.1 0.2
v 9.4 0.3 0.2
v 9.4 0.4 0.2
v 9.5 0 0.2
v 9.5 0.1 0.2
v 9.5 0.3 0.2
v 9.5 0.4 0.2
v 9.5 0.9 0.2
v 9.5 1 0.2
v 9.6 0.9 0.2
v 9.6 1 0.2
v 9.2 0.4 0.7
v 9.2 0.5 0.7
v 9.3 0.4 0.7
v 9.3 0.5 0.7
v 9.1 0.5 0.6
v 9.1 0.6 0.6
v 9.2 0.5 0.6
v 9.2 0.6 0.6
v 9.3 0.5 0.6
v 9.3 0.6 0.6
v 9.4 0.5 0.6
v 9.4 0.6 0.6
v 9 0.6 0.5
v 9 0.7 0.5
v 9.1 0.6 0.5
v 9.1 0.7 0.5
v 9.2 0.5 0.5
v 9.2 0.6 0.5
v 9.3 0.5 0.5
v 9.3 0.6 0.5
v 9.4 0.6 0.5
v 9.4 0.7 0.5
v 9.5 0.6 0.5
v 9.5 0.7 0.5
v 8.9 0.7 0.4
v 8.9 0.8 0.4
v 8.9 1 0.4
v 8.9 1.1 0.4
v 8.9 1.3 0.4
v 9 0.7 0.4
v 9 0.8 0.4
v 9 1.1 0.4
v 9 1.3 0.4
v 9.1 1.1 0.4
v 9.1 1.3 0.4
v 9.2 1.1 0.4
v 9.2 1.3 0.4
v 9.3 1.1 0.4
v 9.3 1.3 0.4
v 9.4 1.1 0.4
v 9.4 1.3 0.4
v 9.5 0.7 0.4
v 9.5 0.8 0.4
v 9.5 1.1 0.4
v 9.5 1.3 0.4
v 9.6 0.7 0.4
v 9.6 0.8 0.4
v 9.6 1 0.4
v 9.6 1.1 0.4
v 9.6 1.3 0.4
v 8.9 0.9 0.1
v 8.9 1 0.1
v 9 0 0.1
v 9 0.4 0.1
v 9 0.9 0.1
v 9 1 0.1
v 9.1 0 0.1
v 9.1 0.4 0.1
v 9.4 0 0.1
v 9.4 0.4 0.1
v 9.5 0 0.1
v 9.5 0.4 0.1
v 9.5 0.9 0.1
v 9.5 1 0.1
v 9.6 0.9 0.1
v 9.6 1 0.1
v 8.9 0.7 0
v 8.9 0.9 0
v 9 0.4 0
v 9 0.7 0
v 9 0.9 0
v 9 1 0
v 9.1 0.5 0
v 9.1 0.7 0
v 9.4 0.5 0
v 9.4 0.7 0
v 9.5 0.4 0
v 9.5 0.7 0
v 9.5 0.9 0
v 9.5 1 0
v 9.6 0.7 0
v 9.6 0.9 0
v 8.8 1.1 -0.1
v 8.8 1.5 -0.1
v 8.9 1 -0.1
v 8.9 1.1 -0.1
v 8.9 1.5 -0.1
v 8.9 1.6 -0.1
v 9 0.7 -0.1
v 9 0.9 -0.1
v 9.1 0.5 -0.1
v 9.1 0.7 -0.1
v 9.4 0.5 -0.1
v 9.4 0.7 -0.1
v 9.5 0.7 -0.1
v 9.5 0.9 -0.1
v 9.5 1 -0.1
v 9.5 1.1 -0.1
v 9.6 1 -0.1
v 9.6 1.1 -0.1
v 9.6 1.5 -0.1
v 9.6 1.6 -0.1
v 9.7 1.1 -0.1
v 9.7 1.5 -0.1
v 8.9 1.1 -0.2
v 8.9 1.5 -0.2
v 9.6 1.1 -0.2
v 9.6 1.5 -0.2
v 9 0 0.2
v 9.1 0 0.2
v 9.4 0 0.2
v 9.5 0 0.2
v 9 0 0.1
v 9.1 0 0.1
v 9.4 0 0.1
v 9.5 0 0.1
v 9 0.1 0.3
v 9.1 0.1 0.3
v 9.4 0.1 0.3
v 9.5 0.1 0.3
v 9 0.1 0.2
v 9.1 0.1 0.2
v 9.4 0.1 0.2
v 9.5 0.1 0.2
v 9.2 0.4 1.4
v 9.3 0.4 1.4
v 9.2 0.4 0.8
v 9.3 0.4 0.8
v 9.2 0.4 0.7
v 9.3 0.4 0.7
v 9 0.4 0.3
v 9.5 0.4 0.3
v 9 0.4 0.2
v 9.1 0.4 0.2
v 9.4 0.4 0.2
v 9.5 0.4 0.2
v 9 0.4 0.1
v 9.1 0.4 0.1
v 9.4 0.4 0.1
v 9.5 0.4 0.1
v 9 0.4 0
v 9.5 0.4 0
v 9.2 0.5 1.5
v 9.3 0.5 1.5
v 9.2 0.5 1.4
v 9.3 0.5 1.4
v 9.1 0.5 0.7
v 9.2 0.5 0.7
v 9.3 0.5 0.7
v 9.4 0.5 0.7
v 9.1 0.5 0.6
v 9.2 0.5 0.6
v 9.3 0.5 0.6
v 9.4 0.5 0.6
v 9.2 0.5 0.5
v 9.3 0.5 0.5
v 9.1 0.5 0.4
v 9.4 0.5 0.4
v 9.1 0.5 0.3
v 9.4 0.5 0.3
v 9.1 0.5 0
v 9.4 0.5 0
v 9.1 0.5 -0.1
v 9.4 0.5 -0.1
v 9 0.6 0.6
v 9.1 0.6 0.6
v 9.4 0.6 0.6
v 9.5 0.6 0.6
v 9 0.6 0.5
v 9.1 0.6 0.5
v 9.4 0.6 0.5
v 9.5 0.6 0.5
v 8.9 0.7 0.5
v 9 0.7 0.5
v 9.5 0.7 0.5
v 9.6 0.7 0.5
v 8.9 0.7 0.4
v 9 0.7 0.4
v 9.1 0.7 0.4
v 9.4 0.7 0.4
v 9.5 0.7 0.4
v 9.6 0.7 0.4
v 8.9 0.7 0.3
v 9 0.7 0.3
v 9.1 0.7 0.3
v 9.4 0.7 0.3
v 9.5 0.7 0.3
v 9.6 0.7 0.3
v 9 0.7 0.2
v 9.5 0.7 0.2
v 9 0.7 0.1
v 9.5 0.7 0.1
v 8.9 0.7 0
v 9 0.7 0
v 9.1 0.7 0
v 9.4 0.7 0
v 9.5 0.7 0
v 9.6 0.7 0
v 9 0.7 -0.1
v 9.1 0.7 -0.1
v 9.4 0.7 -0.1
v 9.5 0.7 -0.1
v 8.9 0.8 0.4
v 9 0.8 0.4
v 9.5 0.8 0.4
v 9.6 0.8 0.4
v 8.9 0.8 0.3
v 9 0.8 0.3
v 9.5 0.8 0.3
v 9.6 0.8 0.3
v 8.9 1 0.5
v 9.6 1 0.5
v 8.9 1 0.4
v 9.6 1 0.4
v 8.9 1 0.3
v 9 1 0.3
v 9.5 1 0.3
v 9.6 1 0.3
v 8.9 1 0.2
v 9 1 0.2
v 9.5 1 0.2
v 9.6 1 0.2
v 8.9 1 0.1
v 9 1 0.1
v 9.5 1 0.1
v 9.6 1 0.1
v 9 1 0
v 9.5 1 0
v 9.6 1 0
v 8.9 1 -0.1
v 9.5 1 -0.1
v 9.6 1 -0.1
v 8.8 1.1 0.4
v 8.9 1.1 0.4
v 9.6 1.1 0.4
v 9.7 1.1 0.4
v 8.9 1.1 0.3
v 9.6 1.1 0.3
v 9.6 1.1 0
v 8.8 1.1 -0.1
v 8.9 1.1 -0.1
v 9.5 1.1 -0.1
v 9.6 1.1 -0.1
v 9.7 1.1 -0.1
v 8.9 1.1 -0.2
v 9.6 1.1 -0.2
v 8.9 1.3 0.4
v 9 1.3 0.4
v 9.1 1.3 0.4
v 9.2 1.3 0.4
v 9.3 1.3 0.4
v 9.4 1.3 0.4
v 9.5 1.3 0.4
v 9.6 1.3 0.4
v 8.9 1.3 0.3
v 9 1.3 0.3
v 9.5 1.3 0.3
v 9.6 1.3 0.3
v 9 1.4 0.5
v 9.1 1.4 0.5
v 9.2 1.4 0.5
v 9.3 1.4 0.5
v 9.4 1.4 0.5
v 9.5 1.4 0.5
v 9 1.4 0.4
v 9.1 1.4 0.4
v 9.2 1.4 0.4
v 9.3 1.4 0.4
v 9.4 1.4 0.4
v 9.5 1.4 0.4
v 9 0.3 0.3
v 9.1 0.3 0.3
v 9.4 0.3 0.3
v 9.5 0.3 0.3
v 9 0.3 0.2
v 9.1 0.3 0.2
v 9.4 0.3 0.2
v 9.5 0.3 0.2
v 9.2 0.6 1.5
v 9.3 0.6 1.5
v 9.2 0.6 0.8
v 9.3 0.6 0.8
v 9.1 0.6 0.7
v 9.2 0.6 0.7
v 9.3 0.6 0.7
v 9.4 0.6 0.7
v 9.1 0.6 0.6
v 9.2 0.6 0.6
v 9.3 0.6 0.6
v 9.4 0.6 0.6
v 9.2 0.6 0.5
v 9.3 0.6 0.5
v 9 0.7 0.6
v 9.1 0.7 0.6
v 9.4 0.7 0.6
v 9.5 0.7 0.6
v 9 0.7 0.5
v 9.1 0.7 0.5
v 9.4 0.7 0.5
v 9.5 0.7 0.5
v 8.9 0.8 0.5
v 9 0.8 0.5
v 9.5 0.8 0.5
v 9.6 0.8 0.5
v 8.9 0.8 0.4
v 9 0.8 0.4
v 9.5 0.8 0.4
v 9.6 0.8 0.4
v 8.9 0.9 0.4
v 9.6 0.9 0.4
v 9 0.9 0.3
v 9.5 0.9 0.3
v 8.9 0.9 0.2
v 9 0.9 0.2
v 9.5 0.9 0.2
v 9.6 0.9 0.2
v 8.9 0.9 0.1
v 9 0.9 0.1
v 9.5 0.9 0.1
v 9.6 0.9 0.1
v 8.9 0.9 0
v 9 0.9 0
v 9.5 0.9 0
v 9.6 0.9 0
v 9 0.9 -0.1
v 9.5 0.9 -0.1
v 9 1.1 0.5
v 9.1 1.1 0.5
v 9.2 1.1 0.5
v 9.3 1.1 0.5
v 9.4 1.1 0.5
v 9.5 1.1 0.5
v 9 1.1 0.4
v 9.1 1.1 0.4
v 9.2 1.1 0.4
v 9.3 1.1 0.4
v 9.4 1.1 0.4
v 9.5 1.1 0.4
v 8.9 1.5 0.5
v 9.6 1.5 0.5
v 8.8 1.5 0.4
v 8.9 1.5 0.4
v 9.6 1.5 0.4
v 9.7 1.5 0.4
v 8.8 1.5 -0.1
v 8.9 1.5 -0.1
v 9.6 1.5 -0.1
v 9.7 1.5 -0.1
v 8.9 1.5 -0.2
v 9.6 1.5 -0.2
v 8.9 1.6 0.4
v 9.6 1.6 0.4
v 8.9 1.6 -0.1
v 9.6 1.6 -0.1

# faces
f 3/5/1 2/5/1 1/5/1
f 4/5/1 2/5/1 3/5/1
f 9/5/1 6/5/1 5/5/1
f 10/5/1 6/5/1 9/5/1
f 11/5/1 8/5/1 7/5/1
f 12/5/1 11/5/1 10/5/1
f 13/5/1 8/5/1 11/5/1
f 13/5/1 11/5/1 12/5/1
f 14/5/1 8/5/1 13/5/1
f 15/5/1 8/5/1 14/5/1
f 19/2/1 14/2/1 13/2/1
f 20/2/1 14/2/1 19/2/1
f 22/5/1 17/5/1 16/5/1
f 23/2/1 20/2/1 19/2/1
f 23/2/1 21/2/1 20/2/1
f 23/2/1 19/2/1 18/2/1
f 24/2/1 21/2/1 23/2/1
f 26/5/1 22/5/1 16/5/1
f 27/5/1 22/5/1 26/5/1
f 28/5/1 25/5/1 24/5/1
f 29/5/1 25/5/1 28/5/1
f 30/5/1 28/5/1 27/5/1
f 31/5/1 28/5/1 30/5/1
f 35/2/1 33/2/1 32/2/1
f 36/5/1 35/5/1 34/5/1
f 37/2/1 33/2/1 35/2/1
f 37/5/1 35/5/1 36/5/1
f 39/2/1 33/2/1 37/2/1
f 40/2/1 33/2/1 39/2/1
f 44/5/1 43/5/1 42/5/1
f 45/5/1 43/5/1 44/5/1
f 47/5/1 39/5/1 38/5/1
f 48/2/1 40/2/1 39/2/1
f 48/5/1 39/5/1 47/5/1
f 49/5/1 41/5/1 40/5/1
f 49/2/1 40/2/1 48/2/1
f 50/5/1 41/5/1 49/5/1
f 52/5/1 47/5/1 46/5/1
f 53/5/1 47/5/1 52/5/1
f 57/5/1 51/5/1 50/5/1
f 58/5/1 51/5/1 57/5/1
f 59/2/1 55/2/1 54/2/1
f 60/2/1 55/2/1 59/2/1
f 61/2/1 57/2/1 56/2/1
f 62/2/1 57/2/1 61/2/1
f 69/1/1 64/1/1 63/1/1
f 70/1/1 64/1/1 69/1/1
f 71/5/1 66/5/1 65/5/1
f 72/5/1 66/5/1 71/5/1
f 73/5/1 68/5/1 67/5/1
f 74/5/1 68/5/1 73/5/1
f 77/5/1 76/5/1 75/5/1
f 78/5/1 77/5/1 75/5/1
f 79/5/1 77/5/1 78/5/1
f 84/5/1 81/5/1 80/5/1
f 85/6/1 82/6/1 81/6/1
f 88/5/1 84/5/1 83/5/1
f 89/5/1 81/5/1 84/5/1
f 89/5/1 84/5/1 88/5/1
f 89/6/1 85/6/1 81/6/1
f 90/6/1 85/6/1 89/6/1
f 91/6/1 87/6/1 86/6/1
f 92/6/1 87/6/1 91/6/1
f 95/5/1 94/5/1 93/5/1
f 96/5/1 95/5/1 93/5/1
f 97/5/1 95/5/1 96/5/1
f 101/2/1 99/2/1 98/2/1
f 102/5/1 101/5/1 100/5/1
f 103/2/1 99/2/1 101/2/1
f 103/5/1 101/5/1 102/5/1
f 104/2/1 99/2/1 103/2/1
f 105/2/1 99/2/1 104/2/1
f 108/5/1 107/5/1 106/5/1
f 109/5/1 107/5/1 108/5/1
f 112/5/1 111/5/1 110/5/1
f 113/5/1 111/5/1 112/5/1
f 116/5/1 115/5/1 114/5/1
f 117/5/1 116/5/1 114/5/1
f 118/5/1 116/5/1 117/5/1
f 121/5/1 120/5/1 119/5/1
f 122/5/1 120/5/1 121/5/1
f 123/5/2 124/5/2 125/5/2
f 125/5/2 124/5/2 126/5/2
f 127/5/2 128/5/2 129/5/2
f 129/5/2 128/5/2 130/5/2
f 131/5/2 132/5/2 133/5/2
f 131/5/2 133/5/2 134/5/2
f 134/5/2 133/5/2 135/5/2
f 136/2/2 137/2/2 139/2/2
f 138/5/2 139/5/2 140/5/2
f 139/2/2 137/2/2 141/2/2
f 140/5/2 139/5/2 141/5/2
f 141/2/2 137/2/2 142/2/2
f 142/2/2 137/2/2 143/2/2
f 144/5/2 145/5/2 146/5/2
f 146/5/2 145/5/2 147/5/2
f 148/5/2 149/5/2 150/5/2
f 148/5/2 150/5/2 151/5/2
f 151/5/2 150/5/2 152/5/2
f 153/5/2 154/5/2 157/5/2
f 154/6/2 155/6/2 158/6/2
f 156/5/2 157/5/2 161/5/2
f 157/5/2 154/5/2 162/5/2
f 161/5/2 157/5/2 162/5/2
f 154/6/2 158/6/2 162/6/2
f 162/6/2 158/6/2 163/6/2
f 159/6/2 160/6/2 164/6/2
f 164/6/2 160/6/2 165/6/2
f 166/1/2 167/1/2 172/1/2
f 172/1/2 167/1/2 173/1/2
f 168/5/2 169/5/2 174/5/2
f 174/5/2 169/5/2 175/5/2
f 170/5/2 171/5/2 176/5/2
f 176/5/2 171/5/2 177/5/2
f 178/5/2 179/5/2 180/5/2
f 178/5/2 180/5/2 181/5/2
f 181/5/2 180/5/2 182/5/2
f 183/2/2 184/2/2 186/2/2
f 185/5/2 186/5/2 187/5/2
f 186/2/2 184/2/2 188/2/2
f 187/5/2 186/5/2 188/5/2
f 188/2/2 184/2/2 190/2/2
f 190/2/2 184/2/2 191/2/2
f 193/5/2 194/5/2 195/5/2
f 195/5/2 194/5/2 196/5/2
f 189/5/2 190/5/2 198/5/2
f 190/2/2 191/2/2 199/2/2
f 198/5/2 190/5/2 199/5/2
f 191/5/2 192/5/2 200/5/2
f 199/2/2 191/2/2 200/2/2
f 200/5/2 192/5/2 201/5/2
f 197/5/2 198/5/2 203/5/2
f 203/5/2 198/5/2 204/5/2
f 201/5/2 202/5/2 208/5/2
f 208/5/2 202/5/2 209/5/2
f 205/2/2 206/2/2 210/2/2
f 210/2/2 206/2/2 211/2/2
f 207/2/2 208/2/2 212/2/2
f 212/2/2 208/2/2 213/2/2
f 214/5/2 215/5/2 218/5/2
f 218/5/2 215/5/2 219/5/2
f 216/5/2 217/5/2 220/5/2
f 219/5/2 220/5/2 221/5/2
f 220/5/2 217/5/2 222/5/2
f 221/5/2 220/5/2 222/5/2
f 222/5/2 217/5/2 223/5/2
f 223/5/2 217/5/2 224/5/2
f 222/2/2 223/2/2 228/2/2
f 228/2/2 223/2/2 229/2/2
f 225/5/2 226/5/2 232/5/2
f 229/2/2 230/2/2 233/2/2
f 227/2/2 228/2/2 233/2/2
f 228/2/2 229/2/2 233/2/2
f 230/5/2 231/5/2 234/5/2
f 233/2/2 230/2/2 234/2/2
f 234/5/2 231/5/2 235/5/2
f 225/5/2 232/5/2 237/5/2
f 237/5/2 232/5/2 238/5/2
f 235/5/2 236/5/2 239/5/2
f 239/5/2 236/5/2 240/5/2
f 238/5/2 239/5/2 241/5/2
f 241/5/2 239/5/2 242/5/2
f 243/5/2 244/5/2 245/5/2
f 245/5/2 244/5/2 246/5/2
f 249/5/3 248/5/3 247/5/3
f 250/5/3 248/5/3 249/5/3
f 253/5/3 252/5/3 251/5/3
f 254/5/3 252/5/3 253/5/3
f 257/1/3 256/1/3 255/1/3
f 258/1/3 256/1/3 257/1/3
f 261/1/3 260/1/3 259/1/3
f 262/1/3 260/1/3 261/1/3
f 265/5/3 264/5/3 263/5/3
f 266/5/3 264/5/3 265/5/3
f 269/5/3 268/5/3 267/5/3
f 270/5/3 268/5/3 269/5/3
f 275/5/3 272/5/3 271/5/3
f 276/5/3 272/5/3 275/5/3
f 277/5/3 274/5/3 273/5/3
f 278/5/3 274/5/3 277/5/3
f 279/5/3 277/5/3 273/5/3
f 280/5/3 274/5/3 278/5/3
f 281/5/3 279/5/3 273/5/3
f 281/5/3 280/5/3 279/5/3
f 282/5/3 274/5/3 280/5/3
f 282/5/3 280/5/3 281/5/3
f 283/5/3 281/5/3 273/5/3
f 284/5/3 274/5/3 282/5/3
f 285/5/3 283/5/3 273/5/3
f 285/5/3 284/5/3 283/5/3
f 286/5/3 274/5/3 284/5/3
f 286/5/3 284/5/3 285/5/3
f 289/5/3 285/5/3 273/5/3
f 290/5/3 274/5/3 286/5/3
f 291/5/3 288/5/3 287/5/3
f 292/5/3 288/5/3 291/5/3
f 293/5/3 290/5/3 289/5/3
f 293/5/3 289/5/3 273/5/3
f 294/5/3 274/5/3 290/5/3
f 294/5/3 290/5/3 293/5/3
f 299/5/3 296/5/3 295/5/3
f 300/5/3 296/5/3 299/5/3
f 303/5/3 298/5/3 297/5/3
f 307/5/3 303/5/3 302/5/3
f 308/5/3 305/5/3 304/5/3
f 309/5/3 305/5/3 308/5/3
f 312/5/3 311/5/3 310/5/3
f 313/5/3 311/5/3 312/5/3
f 314/5/3 307/5/3 306/5/3
f 315/5/3 303/5/3 307/5/3
f 315/5/3 307/5/3 314/5/3
f 318/5/3 303/5/3 315/5/3
f 319/5/3 298/5/3 303/5/3
f 319/5/3 303/5/3 318/5/3
f 320/5/3 317/5/3 316/5/3
f 321/5/3 317/5/3 320/5/3
f 322/5/3 298/5/3 319/5/3
f 323/5/3 298/5/3 322/5/3
f 325/5/3 301/5/3 300/5/3
f 326/5/3 301/5/3 325/5/3
f 327/5/3 325/5/3 324/5/3
f 328/5/3 325/5/3 327/5/3
f 337/5/3 330/5/3 329/5/3
f 338/5/3 330/5/3 337/5/3
f 340/2/3 332/2/3 331/2/3
f 340/2/3 333/2/3 332/2/3
f 341/2/3 333/2/3 340/2/3
f 342/5/3 335/5/3 334/5/3
f 343/5/3 335/5/3 342/5/3
f 344/5/3 337/5/3 336/5/3
f 345/5/3 337/5/3 344/5/3
f 348/5/3 344/5/3 336/5/3
f 350/5/3 347/5/3 346/5/3
f 351/5/3 347/5/3 350/5/3
f 352/5/3 349/5/3 348/5/3
f 352/5/3 348/5/3 336/5/3
f 353/5/3 349/5/3 352/5/3
f 355/2/3 340/2/3 339/2/3
f 356/1/3 341/1/3 340/1/3
f 356/2/3 340/2/3 355/2/3
f 357/1/3 341/1/3 356/1/3
f 358/5/3 354/5/3 353/5/3
f 359/5/3 354/5/3 358/5/3
f 360/2/3 357/2/3 356/2/3
f 361/2/3 357/2/3 360/2/3
f 362/2/3 357/2/3 361/2/3
f 369/2/3 364/2/3 363/2/3
f 370/2/3 364/2/3 369/2/3
f 371/2/3 366/2/3 365/2/3
f 372/2/3 366/2/3 371/2/3
f 373/2/3 368/2/3 367/2/3
f 374/2/3 368/2/3 373/2/3
f 379/2/3 376/2/3 375/2/3
f 380/2/3 376/2/3 379/2/3
f 381/2/3 378/2/3 377/2/3
f 382/2/3 378/2/3 381/2/3
f 385/2/3 384/2/3 383/2/3
f 386/2/3 384/2/3 385/2/3
f 387/6/4 388/6/4 389/6/4
f 389/6/4 388/6/4 390/6/4
f 391/1/4 392/1/4 393/1/4
f 393/1/4 392/1/4 394/1/4
f 395/1/4 396/1/4 397/1/4
f 397/1/4 396/1/4 398/1/4
f 399/5/4 400/5/4 401/5/4
f 401/5/4 400/5/4 402/5/4
f 403/6/4 404/6/4 405/6/4
f 405/6/4 404/6/4 406/6/4
f 407/5/4 408/5/4 409/5/4
f 409/5/4 408/5/4 410/5/4
f 411/5/4 412/5/4 416/5/4
f 416/5/4 412/5/4 417/5/4
f 414/5/4 415/5/4 418/5/4
f 413/5/4 414/5/4 418/5/4
f 418/5/4 415/5/4 419/5/4
f 413/5/4 418/5/4 420/5/4
f 413/5/4 420/5/4 422/5/4
f 420/5/4 421/5/4 422/5/4
f 422/5/4 421/5/4 423/5/4
f 413/5/4 422/5/4 424/5/4
f 413/5/4 424/5/4 426/5/4
f 424/5/4 425/5/4 426/5/4
f 426/5/4 425/5/4 427/5/4
f 413/5/4 426/5/4 430/5/4
f 428/5/4 429/5/4 432/5/4
f 432/5/4 429/5/4 433/5/4
f 430/5/4 431/5/4 434/5/4
f 413/5/4 430/5/4 434/5/4
f 434/5/4 431/5/4 435/5/4
f 435/5/4 431/5/4 436/5/4
f 437/2/4 438/2/4 441/2/4
f 441/2/4 438/2/4 442/2/4
f 439/2/4 440/2/4 443/2/4
f 443/2/4 440/2/4 444/2/4
f 445/2/4 446/2/4 447/2/4
f 447/2/4 446/2/4 448/2/4
f 449/2/4 450/2/4 451/2/4
f 451/2/4 450/2/4 452/2/4
f 453/5/4 454/5/4 456/5/4
f 456/5/4 454/5/4 457/5/4
f 455/5/4 456/5/4 459/5/4
f 459/5/4 456/5/4 460/5/4
f 455/5/4 459/5/4 461/5/4
f 455/5/4 461/5/4 463/5/4
f 461/5/4 462/5/4 463/5/4
f 463/5/4 462/5/4 464/5/4
f 457/2/4 458/2/4 465/2/4
f 465/2/4 458/2/4 466/2/4
f 464/5/4 465/5/4 467/5/4
f 467/5/4 465/5/4 468/5/4
f 469/5/4 470/5/4 472/5/4
f 472/5/4 470/5/4 473/5/4
f 475/5/4 476/5/4 478/5/4
f 477/5/4 478/5/4 479/5/4
f 478/5/4 476/5/4 480/5/4
f 479/5/4 478/5/4 480/5/4
f 480/5/4 476/5/4 481/5/4
f 481/5/4 476/5/4 482/5/4
f 471/2/4 472/2/4 483/2/4
f 483/2/4 472/2/4 484/2/4
f 483/5/4 484/5/4 485/5/4
f 485/5/4 484/5/4 486/5/4
f 473/5/4 474/5/4 487/5/4
f 487/5/4 474/5/4 488/5/4
f 486/5/4 487/5/4 489/5/4
f 489/5/4 487/5/4 490/5/4
f 491/5/4 492/5/4 493/5/4
f 493/5/4 492/5/4 494/5/4
f 499/2/5 496/2/5 495/2/5
f 500/2/5 496/2/5 499/2/5
f 501/2/5 498/2/5 497/2/5
f 502/2/5 498/2/5 501/2/5
f 507/5/5 504/5/5 503/5/5
f 508/5/5 504/5/5 507/5/5
f 509/5/5 506/5/5 505/5/5
f 510/5/5 506/5/5 509/5/5
f 513/5/5 512/5/5 511/5/5
f 514/5/5 512/5/5 513/5/5
f 515/6/5 514/6/5 513/6/5
f 516/6/5 514/6/5 515/6/5
f 519/5/5 518/5/5 517/5/5
f 520/5/5 518/5/5 519/5/5
f 521/5/5 518/5/5 520/5/5
f 522/5/5 518/5/5 521/5/5
f 524/2/5 521/2/5 520/2/5
f 525/2/5 521/2/5 524/2/5
f 527/5/5 524/5/5 523/5/5
f 527/5/5 526/5/5 525/5/5
f 527/5/5 525/5/5 524/5/5
f 528/5/5 526/5/5 527/5/5
f 531/5/5 530/5/5 529/5/5
f 532/5/5 530/5/5 531/5/5
f 537/1/5 534/1/5 533/1/5
f 538/6/5 535/6/5 534/6/5
f 538/1/5 534/1/5 537/1/5
f 539/1/5 536/1/5 535/1/5
f 539/6/5 535/6/5 538/6/5
f 540/1/5 536/1/5 539/1/5
f 541/6/5 539/6/5 538/6/5
f 542/6/5 539/6/5 541/6/5
f 545/5/5 544/5/5 543/5/5
f 546/5/5 544/5/5 545/5/5
f 549/5/5 548/5/5 547/5/5
f 550/5/5 548/5/5 549/5/5
f 555/5/5 552/5/5 551/5/5
f 556/5/5 552/5/5 555/5/5
f 557/5/5 554/5/5 553/5/5
f 558/5/5 554/5/5 557/5/5
f 563/5/5 560/5/5 559/5/5
f 564/5/5 560/5/5 563/5/5
f 567/5/5 562/5/5 561/5/5
f 568/5/5 562/5/5 567/5/5
f 570/5/5 565/5/5 564/5/5
f 571/5/5 565/5/5 570/5/5
f 572/5/5 567/5/5 566/5/5
f 573/5/5 567/5/5 572/5/5
f 575/5/5 570/5/5 569/5/5
f 576/5/5 574/5/5 573/5/5
f 577/5/5 575/5/5 569/5/5
f 578/5/5 574/5/5 576/5/5
f 579/5/5 577/5/5 569/5/5
f 580/5/5 577/5/5 579/5/5
f 583/5/5 574/5/5 578/5/5
f 584/5/5 574/5/5 583/5/5
f 585/5/5 581/5/5 580/5/5
f 586/5/5 581/5/5 585/5/5
f 587/5/5 583/5/5 582/5/5
f 588/5/5 583/5/5 587/5/5
f 593/5/5 590/5/5 589/5/5
f 594/5/5 590/5/5 593/5/5
f 595/5/5 592/5/5 591/5/5
f 596/5/5 592/5/5 595/5/5
f 599/5/5 598/5/5 597/5/5
f 600/5/5 598/5/5 599/5/5
f 605/2/5 602/2/5 601/2/5
f 606/2/5 602/2/5 605/2/5
f 607/2/5 604/2/5 603/2/5
f 608/2/5 604/2/5 607/2/5
f 613/2/5 610/2/5 609/2/5
f 614/2/5 612/2/5 611/2/5
f 615/2/5 612/2/5 614/2/5
f 616/2/5 613/2/5 609/2/5
f 616/2/5 614/2/5 613/2/5
f 617/5/5 615/5/5 614/5/5
f 617/2/5 614/2/5 616/2/5
f 618/5/5 615/5/5 617/5/5
f 623/5/5 620/5/5 619/5/5
f 624/5/5 622/5/5 621/5/5
f 625/5/5 622/5/5 624/5/5
f 626/5/5 623/5/5 619/5/5
f 627/5/5 623/5/5 626/5/5
f 629/5/5 622/5/5 625/5/5
f 630/5/5 622/5/5 629/5/5
f 631/5/5 628/5/5 627/5/5
f 631/5/5 629/5/5 628/5/5
f 632/5/5 629/5/5 631/5/5
f 641/5/5 634/5/5 633/5/5
f 641/5/5 640/5/5 639/5/5
f 641/5/5 639/5/5 638/5/5
f 641/5/5 638/5/5 637/5/5
f 641/5/5 637/5/5 636/5/5
f 641/5/5 636/5/5 635/5/5
f 641/5/5 635/5/5 634/5/5
f 642/5/5 640/5/5 641/5/5
f 643/5/5 640/5/5 642/5/5
f 644/5/5 640/5/5 643/5/5
f 651/5/5 646/5/5 645/5/5
f 652/5/5 646/5/5 651/5/5
f 653/5/5 648/5/5 647/5/5
f 654/5/5 648/5/5 653/5/5
f 655/5/5 650/5/5 649/5/5
f 656/5/5 650/5/5 655/5/5
f 657/5/6 658/5/6 661/5/6
f 661/5/6 658/5/6 662/5/6
f 659/5/6 660/5/6 663/5/6
f 663/5/6 660/5/6 664/5/6
f 665/5/6 666/5/6 667/5/6
f 667/5/6 666/5/6 668/5/6
f 667/6/6 668/6/6 670/6/6
f 670/6/6 668/6/6 671/6/6
f 669/1/6 670/1/6 673/1/6
f 670/6/6 671/6/6 674/6/6
f 673/1/6 670/1/6 674/1/6
f 671/1/6 672/1/6 675/1/6
f 674/6/6 671/6/6 675/6/6
f 675/1/6 672/1/6 676/1/6
f 674/6/6 675/6/6 677/6/6
f 677/6/6 675/6/6 678/6/6
f 679/5/6 680/5/6 683/5/6
f 683/5/6 680/5/6 684/5/6
f 681/5/6 682/5/6 685/5/6
f 685/5/6 682/5/6 686/5/6
f 687/5/6 688/5/6 691/5/6
f 691/5/6 688/5/6 692/5/6
f 689/5/6 690/5/6 693/5/6
f 693/5/6 690/5/6 694/5/6
f 695/5/6 696/5/6 697/5/6
f 697/5/6 696/5/6 698/5/6
f 695/5/6 697/5/6 699/5/6
f 699/5/6 697/5/6 700/5/6
f 698/5/6 696/5/6 701/5/6
f 701/5/6 696/5/6 702/5/6
f 703/5/6 704/5/6 707/5/6
f 707/5/6 704/5/6 708/5/6
f 705/5/6 706/5/6 709/5/6
f 709/5/6 706/5/6 710/5/6
f 708/5/6 709/5/6 711/5/6
f 711/5/6 709/5/6 712/5/6
f 713/5/6 714/5/6 719/5/6
f 719/5/6 714/5/6 720/5/6
f 715/5/6 716/5/6 721/5/6
f 721/5/6 716/5/6 722/5/6
f 717/5/6 718/5/6 723/5/6
f 723/5/6 718/5/6 724/5/6
f 725/5/6 726/5/6 728/5/6
f 728/5/6 726/5/6 729/5/6
f 727/5/6 728/5/6 731/5/6
f 731/5/6 728/5/6 732/5/6
f 729/5/6 730/5/6 733/5/6
f 733/5/6 730/5/6 734/5/6
f 732/5/6 733/5/6 735/5/6
f 735/5/6 733/5/6 736/5/6
f 737/5/6 738/5/6 739/5/6
f 739/5/6 738/5/6 740/5/6
