# MagicaVoxel @ Ephtracy

# group
o 

# material
mtllib Knight-4.mtl
usemtl palette

# normals
vn -1 0 0
vn 1 0 0
vn 0 0 1
vn 0 0 -1
vn 0 -1 0
vn 0 1 0

# texcoords
vt 0.970703 0.5
vt 0.974609 0.5
vt 0.978516 0.5
vt 0.982422 0.5
vt 0.990234 0.5
vt 0.994141 0.5

# verts
v 4.6 0.3 1.2
v 4.6 0.3 0.6
v 4.6 0.3 0.5
v 4.6 0.4 1.3
v 4.6 0.4 1.2
v 4.6 0.4 0.5
v 4.6 0.4 0.4
v 4.6 0.4 0.3
v 4.6 0.5 1.3
v 4.6 0.5 0.6
v 4.6 0.5 0.5
v 4.6 0.5 0.4
v 4.6 0.5 0.3
v 4.6 0.6 0.4
v 4.6 0.6 0.3
v 4.6 0.6 0.2
v 4.6 0.7 0.3
v 4.6 0.7 0.2
v 4.6 0.7 0.1
v 4.6 0.8 0.2
v 4.6 0.8 0.1
v 4.6 1 0.4
v 4.6 1 -0.0999999
v 4.6 1.4 0.4
v 4.6 1.4 -0.0999999
v 4.7 0.6 0.2
v 4.7 0.6 1.19209e-007
v 4.7 0.7 0.3
v 4.7 0.7 0.2
v 4.7 0.7 0.1
v 4.7 0.8 0.3
v 4.7 0.8 0.2
v 4.7 0.8 0.1
v 4.7 0.8 1.19209e-007
v 4.7 0.9 0.5
v 4.7 0.9 0.4
v 4.7 0.9 0.3
v 4.7 0.9 0.2
v 4.7 0.9 0.1
v 4.7 0.9 -0.0999999
v 4.7 1 0.4
v 4.7 1 0.3
v 4.7 1 -0.0999999
v 4.7 1 -0.2
v 4.7 1.4 0.5
v 4.7 1.4 0.4
v 4.7 1.4 -0.0999999
v 4.7 1.4 -0.2
v 4.7 1.5 0.4
v 4.7 1.5 -0.0999999
v 4.8 0 0.1
v 4.8 0 1.19209e-007
v 4.8 0 -0.0999999
v 4.8 0.1 0.2
v 4.8 0.1 0.1
v 4.8 0.1 1.19209e-007
v 4.8 0.1 -0.0999999
v 4.8 0.2 0.2
v 4.8 0.2 0.1
v 4.8 0.2 1.19209e-007
v 4.8 0.3 0.3
v 4.8 0.3 0.2
v 4.8 0.3 0.1
v 4.8 0.3 1.19209e-007
v 4.8 0.6 0.4
v 4.8 0.6 0.3
v 4.8 0.6 0.2
v 4.8 0.6 0.1
v 4.8 0.6 1.19209e-007
v 4.8 0.6 -0.0999999
v 4.8 0.8 0.4
v 4.8 0.8 0.3
v 4.8 0.8 0.2
v 4.8 0.8 0.1
v 4.8 0.8 1.19209e-007
v 4.8 0.8 -0.0999999
v 4.8 0.9 0.3
v 4.8 0.9 0.2
v 4.8 0.9 0.1
v 4.8 0.9 1.19209e-007
v 4.9 0.4 0.4
v 4.9 0.4 0.3
v 4.9 0.4 1.19209e-007
v 4.9 0.4 -0.0999999
v 4.9 0.6 0.4
v 4.9 0.6 0.3
v 4.9 0.6 1.19209e-007
v 4.9 0.6 -0.0999999
v 4.9 1 0.5
v 4.9 1 0.4
v 4.9 1.2 0.4
v 4.9 1.3 0.5
v 4.9 1.3 0.4
v 5.1 1 0.5
v 5.1 1 0.4
v 5.1 1.2 0.4
v 5.1 1.3 0.5
v 5.1 1.3 0.4
v 5.2 0 0.4
v 5.2 0 0.3
v 5.2 0.1 0.4
v 5.2 0.1 0.3
v 5.2 0.1 0.2
v 5.2 0.2 0.4
v 5.2 0.2 0.3
v 5.2 0.2 0.2
v 5.2 0.2 0.1
v 5.2 0.3 0.3
v 5.2 0.3 0.2
v 5.2 0.3 0.1
v 5.3 1 0.5
v 5.3 1 0.4
v 5.3 1.2 0.4
v 5.3 1.3 0.5
v 5.3 1.3 0.4
v 5.4 0.4 -0.0999999
v 5.4 0.4 -0.2
v 5.4 0.5 1.19209e-007
v 5.4 0.5 -0.0999999
v 5.4 0.5 -0.2
v 5.4 0.6 1.19209e-007
v 5.4 0.6 -0.0999999
v 5.4 1 0.4
v 5.4 1 0.3
v 5.4 1.2 0.4
v 5.4 1.2 0.3
v 4.7 0.3 1.2
v 4.7 0.3 0.6
v 4.7 0.3 0.5
v 4.7 0.4 1.3
v 4.7 0.4 1.2
v 4.7 0.4 0.5
v 4.7 0.4 0.4
v 4.7 0.4 0.3
v 4.7 0.5 1.3
v 4.7 0.5 0.6
v 4.7 0.5 0.5
v 4.7 0.5 0.4
v 4.7 0.5 0.3
v 4.7 0.6 0.4
v 4.7 0.6 0.3
v 4.7 1 0.4
v 4.7 1 0.3
v 4.7 1.2 0.4
v 4.7 1.2 0.3
v 4.8 1 0.5
v 4.8 1 0.4
v 4.8 1.2 0.4
v 4.8 1.3 0.5
v 4.8 1.3 0.4
v 4.9 0 0.1
v 4.9 0 1.19209e-007
v 4.9 0 -0.0999999
v 4.9 0.1 0.2
v 4.9 0.1 0.1
v 4.9 0.1 1.19209e-007
v 4.9 0.1 -0.0999999
v 4.9 0.2 0.2
v 4.9 0.2 0.1
v 4.9 0.2 1.19209e-007
v 4.9 0.3 0.2
v 4.9 0.3 0.1
v 5 1 0.5
v 5 1 0.4
v 5 1.2 0.4
v 5 1.3 0.5
v 5 1.3 0.4
v 5.2 0.4 0.4
v 5.2 0.4 0.3
v 5.2 0.4 1.19209e-007
v 5.2 0.4 -0.0999999
v 5.2 0.6 0.4
v 5.2 0.6 0.3
v 5.2 0.6 1.19209e-007
v 5.2 0.6 -0.0999999
v 5.2 1 0.5
v 5.2 1 0.4
v 5.2 1.2 0.4
v 5.2 1.3 0.5
v 5.2 1.3 0.4
v 5.3 0 0.4
v 5.3 0 0.3
v 5.3 0.1 0.4
v 5.3 0.1 0.3
v 5.3 0.1 0.2
v 5.3 0.2 0.4
v 5.3 0.2 0.3
v 5.3 0.2 0.2
v 5.3 0.2 0.1
v 5.3 0.3 0.1
v 5.3 0.3 1.19209e-007
v 5.3 0.6 0.4
v 5.3 0.6 0.3
v 5.3 0.6 0.2
v 5.3 0.6 0.1
v 5.3 0.6 1.19209e-007
v 5.3 0.6 -0.0999999
v 5.3 0.8 0.4
v 5.3 0.8 0.3
v 5.3 0.8 0.2
v 5.3 0.8 0.1
v 5.3 0.8 1.19209e-007
v 5.3 0.8 -0.0999999
v 5.3 0.9 0.3
v 5.3 0.9 0.2
v 5.3 0.9 0.1
v 5.3 0.9 1.19209e-007
v 5.4 0.6 0.3
v 5.4 0.6 0.1
v 5.4 0.7 0.2
v 5.4 0.7 0.1
v 5.4 0.7 1.19209e-007
v 5.4 0.8 0.3
v 5.4 0.8 0.2
v 5.4 0.8 0.1
v 5.4 0.8 1.19209e-007
v 5.4 0.9 0.5
v 5.4 0.9 0.4
v 5.4 0.9 0.3
v 5.4 0.9 0.2
v 5.4 0.9 0.1
v 5.4 0.9 -0.0999999
v 5.4 1 0.4
v 5.4 1 0.3
v 5.4 1 -0.0999999
v 5.4 1 -0.2
v 5.4 1.4 0.5
v 5.4 1.4 0.4
v 5.4 1.4 -0.0999999
v 5.4 1.4 -0.2
v 5.4 1.5 0.4
v 5.4 1.5 -0.0999999
v 5.5 0.4 -0.0999999
v 5.5 0.4 -0.2
v 5.5 0.5 1.19209e-007
v 5.5 0.5 -0.0999999
v 5.5 0.5 -0.2
v 5.5 0.6 0.1
v 5.5 0.6 1.19209e-007
v 5.5 0.6 -0.0999999
v 5.5 0.7 0.2
v 5.5 0.7 0.1
v 5.5 0.7 1.19209e-007
v 5.5 0.8 0.2
v 5.5 0.8 0.1
v 5.5 1 0.4
v 5.5 1 -0.0999999
v 5.5 1.4 0.4
v 5.5 1.4 -0.0999999
v 4.6 0.4 1.3
v 4.6 0.5 1.3
v 4.7 0.4 1.3
v 4.7 0.5 1.3
v 4.6 0.3 1.2
v 4.6 0.4 1.2
v 4.7 0.3 1.2
v 4.7 0.4 1.2
v 4.7 0.9 0.5
v 4.7 1.4 0.5
v 4.8 1 0.5
v 4.8 1.3 0.5
v 4.9 1 0.5
v 4.9 1.3 0.5
v 5 1 0.5
v 5 1.3 0.5
v 5.1 1 0.5
v 5.1 1.3 0.5
v 5.2 1 0.5
v 5.2 1.3 0.5
v 5.3 1 0.5
v 5.3 1.3 0.5
v 5.4 0.9 0.5
v 5.4 1.4 0.5
v 4.6 0.5 0.4
v 4.6 0.6 0.4
v 4.6 1 0.4
v 4.6 1.4 0.4
v 4.7 0.5 0.4
v 4.7 0.6 0.4
v 4.7 1 0.4
v 4.7 1.4 0.4
v 4.7 1.5 0.4
v 4.8 0.6 0.4
v 4.8 0.8 0.4
v 4.8 1.2 0.4
v 4.8 1.3 0.4
v 4.9 0.4 0.4
v 4.9 0.6 0.4
v 4.9 1.2 0.4
v 4.9 1.3 0.4
v 5 1.2 0.4
v 5 1.3 0.4
v 5.1 1.2 0.4
v 5.1 1.3 0.4
v 5.2 0 0.4
v 5.2 0.1 0.4
v 5.2 0.2 0.4
v 5.2 0.4 0.4
v 5.2 0.6 0.4
v 5.2 1.2 0.4
v 5.2 1.3 0.4
v 5.3 0 0.4
v 5.3 0.1 0.4
v 5.3 0.2 0.4
v 5.3 0.6 0.4
v 5.3 0.8 0.4
v 5.3 1.2 0.4
v 5.3 1.3 0.4
v 5.4 1 0.4
v 5.4 1.4 0.4
v 5.4 1.5 0.4
v 5.5 1 0.4
v 5.5 1.4 0.4
v 4.6 0.6 0.3
v 4.6 0.7 0.3
v 4.7 0.6 0.3
v 4.7 0.7 0.3
v 4.7 0.8 0.3
v 4.7 0.9 0.3
v 4.7 1 0.3
v 4.7 1.2 0.3
v 4.8 0.3 0.3
v 4.8 0.6 0.3
v 4.8 0.8 0.3
v 4.8 0.9 0.3
v 4.8 1.2 0.3
v 4.9 0.4 0.3
v 4.9 0.6 0.3
v 5.2 0.2 0.3
v 5.2 0.3 0.3
v 5.2 0.4 0.3
v 5.2 0.6 0.3
v 5.3 0.2 0.3
v 5.3 0.6 0.3
v 5.3 0.8 0.3
v 5.3 0.9 0.3
v 5.3 1.2 0.3
v 5.4 0.6 0.3
v 5.4 0.8 0.3
v 5.4 0.9 0.3
v 5.4 1 0.3
v 5.4 1.2 0.3
v 4.6 0.7 0.2
v 4.6 0.8 0.2
v 4.7 0.7 0.2
v 4.7 0.8 0.2
v 4.7 0.9 0.2
v 4.8 0.1 0.2
v 4.8 0.2 0.2
v 4.8 0.3 0.2
v 4.8 0.8 0.2
v 4.8 0.9 0.2
v 4.9 0.1 0.2
v 4.9 0.2 0.2
v 4.9 0.3 0.2
v 5.3 0.8 0.2
v 5.3 0.9 0.2
v 5.4 0.7 0.2
v 5.4 0.8 0.2
v 5.4 0.9 0.2
v 5.5 0.7 0.2
v 5.5 0.8 0.2
v 4.8 0 0.1
v 4.8 0.1 0.1
v 4.9 0 0.1
v 4.9 0.1 0.1
v 5.4 0.6 0.1
v 5.4 0.7 0.1
v 5.5 0.6 0.1
v 5.5 0.7 0.1
v 5.4 0.5 1.19209e-007
v 5.4 0.6 1.19209e-007
v 5.5 0.5 1.19209e-007
v 5.5 0.6 1.19209e-007
v 5.4 0.4 -0.0999999
v 5.4 0.5 -0.0999999
v 5.5 0.4 -0.0999999
v 5.5 0.5 -0.0999999
v 4.6 0.3 0.5
v 4.6 0.4 0.5
v 4.7 0.3 0.5
v 4.7 0.4 0.5
v 4.7 0.9 0.4
v 4.7 1 0.4
v 4.7 1.2 0.4
v 4.8 1 0.4
v 4.8 1.2 0.4
v 4.9 1 0.4
v 4.9 1.2 0.4
v 5 1 0.4
v 5 1.2 0.4
v 5.1 1 0.4
v 5.1 1.2 0.4
v 5.2 1 0.4
v 5.2 1.2 0.4
v 5.3 1 0.4
v 5.3 1.2 0.4
v 5.4 0.9 0.4
v 5.4 1 0.4
v 5.4 1.2 0.4
v 4.6 0.4 0.3
v 4.6 0.5 0.3
v 4.6 0.6 0.3
v 4.7 0.4 0.3
v 4.7 0.5 0.3
v 4.7 0.6 0.3
v 5.2 0 0.3
v 5.2 0.1 0.3
v 5.3 0 0.3
v 5.3 0.1 0.3
v 4.6 0.6 0.2
v 4.6 0.7 0.2
v 4.7 0.6 0.2
v 4.7 0.7 0.2
v 5.2 0.1 0.2
v 5.2 0.2 0.2
v 5.3 0.1 0.2
v 5.3 0.2 0.2
v 4.6 0.7 0.1
v 4.6 0.8 0.1
v 4.7 0.7 0.1
v 4.7 0.8 0.1
v 4.7 0.9 0.1
v 4.8 0.2 0.1
v 4.8 0.3 0.1
v 4.8 0.8 0.1
v 4.8 0.9 0.1
v 4.9 0.2 0.1
v 4.9 0.3 0.1
v 5.2 0.2 0.1
v 5.2 0.3 0.1
v 5.3 0.2 0.1
v 5.3 0.3 0.1
v 5.3 0.8 0.1
v 5.3 0.9 0.1
v 5.4 0.7 0.1
v 5.4 0.8 0.1
v 5.4 0.9 0.1
v 5.5 0.7 0.1
v 5.5 0.8 0.1
v 4.7 0.6 1.19209e-007
v 4.7 0.8 1.19209e-007
v 4.8 0.1 1.19209e-007
v 4.8 0.2 1.19209e-007
v 4.8 0.3 1.19209e-007
v 4.8 0.6 1.19209e-007
v 4.8 0.8 1.19209e-007
v 4.8 0.9 1.19209e-007
v 4.9 0.1 1.19209e-007
v 4.9 0.2 1.19209e-007
v 4.9 0.4 1.19209e-007
v 4.9 0.6 1.19209e-007
v 5.2 0.4 1.19209e-007
v 5.2 0.6 1.19209e-007
v 5.3 0.3 1.19209e-007
v 5.3 0.6 1.19209e-007
v 5.3 0.8 1.19209e-007
v 5.3 0.9 1.19209e-007
v 5.4 0.6 1.19209e-007
v 5.4 0.7 1.19209e-007
v 5.4 0.8 1.19209e-007
v 5.5 0.6 1.19209e-007
v 5.5 0.7 1.19209e-007
v 4.6 1 -0.0999999
v 4.6 1.4 -0.0999999
v 4.7 0.9 -0.0999999
v 4.7 1 -0.0999999
v 4.7 1.4 -0.0999999
v 4.7 1.5 -0.0999999
v 4.8 0 -0.0999999
v 4.8 0.1 -0.0999999
v 4.8 0.6 -0.0999999
v 4.8 0.8 -0.0999999
v 4.9 0 -0.0999999
v 4.9 0.1 -0.0999999
v 4.9 0.4 -0.0999999
v 4.9 0.6 -0.0999999
v 5.2 0.4 -0.0999999
v 5.2 0.6 -0.0999999
v 5.3 0.6 -0.0999999
v 5.3 0.8 -0.0999999
v 5.4 0.5 -0.0999999
v 5.4 0.6 -0.0999999
v 5.4 0.9 -0.0999999
v 5.4 1 -0.0999999
v 5.4 1.4 -0.0999999
v 5.4 1.5 -0.0999999
v 5.5 0.5 -0.0999999
v 5.5 0.6 -0.0999999
v 5.5 1 -0.0999999
v 5.5 1.4 -0.0999999
v 4.7 1 -0.2
v 4.7 1.4 -0.2
v 5.4 0.4 -0.2
v 5.4 0.5 -0.2
v 5.4 1 -0.2
v 5.4 1.4 -0.2
v 5.5 0.4 -0.2
v 5.5 0.5 -0.2
v 5.2 0 0.4
v 5.3 0 0.4
v 5.2 0 0.3
v 5.3 0 0.3
v 4.8 0 0.1
v 4.9 0 0.1
v 4.8 0 1.19209e-007
v 4.9 0 1.19209e-007
v 4.8 0 -0.0999999
v 4.9 0 -0.0999999
v 5.2 0.1 0.3
v 5.3 0.1 0.3
v 4.8 0.1 0.2
v 4.9 0.1 0.2
v 5.2 0.1 0.2
v 5.3 0.1 0.2
v 4.8 0.1 0.1
v 4.9 0.1 0.1
v 5.2 0.2 0.2
v 5.3 0.2 0.2
v 5.2 0.2 0.1
v 5.3 0.2 0.1
v 4.6 0.3 1.2
v 4.7 0.3 1.2
v 4.6 0.3 0.6
v 4.7 0.3 0.6
v 4.6 0.3 0.5
v 4.7 0.3 0.5
v 4.8 0.3 0.3
v 5.2 0.3 0.3
v 4.8 0.3 0.2
v 4.9 0.3 0.2
v 5.2 0.3 0.2
v 4.8 0.3 0.1
v 4.9 0.3 0.1
v 5.2 0.3 0.1
v 5.3 0.3 0.1
v 4.8 0.3 1.19209e-007
v 5.3 0.3 1.19209e-007
v 4.6 0.4 1.3
v 4.7 0.4 1.3
v 4.6 0.4 1.2
v 4.7 0.4 1.2
v 4.6 0.4 0.5
v 4.7 0.4 0.5
v 4.6 0.4 0.4
v 4.7 0.4 0.4
v 4.9 0.4 0.4
v 5.2 0.4 0.4
v 4.6 0.4 0.3
v 4.7 0.4 0.3
v 4.9 0.4 0.3
v 5.2 0.4 0.3
v 4.9 0.4 1.19209e-007
v 5.2 0.4 1.19209e-007
v 4.9 0.4 -0.0999999
v 5.2 0.4 -0.0999999
v 5.4 0.4 -0.0999999
v 5.5 0.4 -0.0999999
v 5.4 0.4 -0.2
v 5.5 0.4 -0.2
v 5.4 0.5 1.19209e-007
v 5.5 0.5 1.19209e-007
v 5.4 0.5 -0.0999999
v 5.5 0.5 -0.0999999
v 4.8 0.6 0.4
v 4.9 0.6 0.4
v 5.2 0.6 0.4
v 5.3 0.6 0.4
v 4.6 0.6 0.3
v 4.7 0.6 0.3
v 4.8 0.6 0.3
v 4.9 0.6 0.3
v 5.2 0.6 0.3
v 5.3 0.6 0.3
v 5.4 0.6 0.3
v 4.6 0.6 0.2
v 4.7 0.6 0.2
v 4.8 0.6 0.2
v 5.3 0.6 0.2
v 4.8 0.6 0.1
v 5.3 0.6 0.1
v 5.4 0.6 0.1
v 5.5 0.6 0.1
v 4.7 0.6 1.19209e-007
v 4.8 0.6 1.19209e-007
v 4.9 0.6 1.19209e-007
v 5.2 0.6 1.19209e-007
v 5.3 0.6 1.19209e-007
v 5.4 0.6 1.19209e-007
v 5.5 0.6 1.19209e-007
v 4.8 0.6 -0.0999999
v 4.9 0.6 -0.0999999
v 5.2 0.6 -0.0999999
v 5.3 0.6 -0.0999999
v 4.6 0.7 0.2
v 4.7 0.7 0.2
v 5.4 0.7 0.2
v 5.5 0.7 0.2
v 4.6 0.7 0.1
v 4.7 0.7 0.1
v 5.4 0.7 0.1
v 5.5 0.7 0.1
v 4.7 0.9 0.5
v 5.4 0.9 0.5
v 4.7 0.9 0.4
v 5.4 0.9 0.4
v 4.7 0.9 0.3
v 4.8 0.9 0.3
v 5.3 0.9 0.3
v 5.4 0.9 0.3
v 4.7 0.9 0.2
v 4.8 0.9 0.2
v 5.3 0.9 0.2
v 5.4 0.9 0.2
v 4.7 0.9 0.1
v 4.8 0.9 0.1
v 5.3 0.9 0.1
v 5.4 0.9 0.1
v 4.8 0.9 1.19209e-007
v 5.3 0.9 1.19209e-007
v 4.7 0.9 -0.0999999
v 5.4 0.9 -0.0999999
v 4.6 1 0.4
v 4.7 1 0.4
v 5.4 1 0.4
v 5.5 1 0.4
v 4.7 1 0.3
v 5.4 1 0.3
v 4.6 1 -0.0999999
v 4.7 1 -0.0999999
v 5.4 1 -0.0999999
v 5.5 1 -0.0999999
v 4.7 1 -0.2
v 5.4 1 -0.2
v 4.7 1.2 0.4
v 4.8 1.2 0.4
v 4.9 1.2 0.4
v 5 1.2 0.4
v 5.1 1.2 0.4
v 5.2 1.2 0.4
v 5.3 1.2 0.4
v 5.4 1.2 0.4
v 4.7 1.2 0.3
v 4.8 1.2 0.3
v 5.3 1.2 0.3
v 5.4 1.2 0.3
v 4.8 1.3 0.5
v 4.9 1.3 0.5
v 5 1.3 0.5
v 5.1 1.3 0.5
v 5.2 1.3 0.5
v 5.3 1.3 0.5
v 4.8 1.3 0.4
v 4.9 1.3 0.4
v 5 1.3 0.4
v 5.1 1.3 0.4
v 5.2 1.3 0.4
v 5.3 1.3 0.4
v 4.8 0.1 1.19209e-007
v 4.9 0.1 1.19209e-007
v 4.8 0.1 -0.0999999
v 4.9 0.1 -0.0999999
v 5.2 0.2 0.4
v 5.3 0.2 0.4
v 5.2 0.2 0.3
v 5.3 0.2 0.3
v 4.8 0.2 0.1
v 4.9 0.2 0.1
v 4.8 0.2 1.19209e-007
v 4.9 0.2 1.19209e-007
v 4.6 0.5 1.3
v 4.7 0.5 1.3
v 4.6 0.5 0.6
v 4.7 0.5 0.6
v 4.6 0.5 0.5
v 4.7 0.5 0.5
v 4.6 0.5 0.4
v 4.7 0.5 0.4
v 5.4 0.5 -0.0999999
v 5.5 0.5 -0.0999999
v 5.4 0.5 -0.2
v 5.5 0.5 -0.2
v 4.6 0.6 0.4
v 4.7 0.6 0.4
v 4.6 0.6 0.3
v 4.7 0.6 0.3
v 5.4 0.6 1.19209e-007
v 5.5 0.6 1.19209e-007
v 5.4 0.6 -0.0999999
v 5.5 0.6 -0.0999999
v 4.6 0.7 0.3
v 4.7 0.7 0.3
v 4.6 0.7 0.2
v 4.7 0.7 0.2
v 5.4 0.7 0.1
v 5.5 0.7 0.1
v 5.4 0.7 1.19209e-007
v 5.5 0.7 1.19209e-007
v 4.8 0.8 0.4
v 5.3 0.8 0.4
v 4.7 0.8 0.3
v 4.8 0.8 0.3
v 5.3 0.8 0.3
v 5.4 0.8 0.3
v 4.6 0.8 0.2
v 4.7 0.8 0.2
v 4.8 0.8 0.2
v 5.3 0.8 0.2
v 5.4 0.8 0.2
v 5.5 0.8 0.2
v 4.6 0.8 0.1
v 4.7 0.8 0.1
v 4.8 0.8 0.1
v 5.3 0.8 0.1
v 5.4 0.8 0.1
v 5.5 0.8 0.1
v 4.7 0.8 1.19209e-007
v 4.8 0.8 1.19209e-007
v 5.3 0.8 1.19209e-007
v 5.4 0.8 1.19209e-007
v 4.8 0.8 -0.0999999
v 5.3 0.8 -0.0999999
v 4.8 1 0.5
v 4.9 1 0.5
v 5 1 0.5
v 5.1 1 0.5
v 5.2 1 0.5
v 5.3 1 0.5
v 4.8 1 0.4
v 4.9 1 0.4
v 5 1 0.4
v 5.1 1 0.4
v 5.2 1 0.4
v 5.3 1 0.4
v 4.7 1.4 0.5
v 5.4 1.4 0.5
v 4.6 1.4 0.4
v 4.7 1.4 0.4
v 5.4 1.4 0.4
v 5.5 1.4 0.4
v 4.6 1.4 -0.0999999
v 4.7 1.4 -0.0999999
v 5.4 1.4 -0.0999999
v 5.5 1.4 -0.0999999
v 4.7 1.4 -0.2
v 5.4 1.4 -0.2
v 4.7 1.5 0.4
v 5.4 1.5 0.4
v 4.7 1.5 -0.0999999
v 5.4 1.5 -0.0999999

# faces
f 5/5/1 2/5/1 1/5/1
f 6/6/1 3/6/1 2/6/1
f 9/5/1 5/5/1 4/5/1
f 10/5/1 2/5/1 5/5/1
f 10/5/1 5/5/1 9/5/1
f 10/6/1 6/6/1 2/6/1
f 11/1/1 7/1/1 6/1/1
f 11/6/1 6/6/1 10/6/1
f 12/6/1 8/6/1 7/6/1
f 12/1/1 7/1/1 11/1/1
f 13/6/1 8/6/1 12/6/1
f 14/5/1 13/5/1 12/5/1
f 15/5/1 13/5/1 14/5/1
f 17/5/1 16/5/1 15/5/1
f 18/5/1 16/5/1 17/5/1
f 20/5/1 19/5/1 18/5/1
f 21/5/1 19/5/1 20/5/1
f 24/5/1 23/5/1 22/5/1
f 25/5/1 23/5/1 24/5/1
f 29/5/1 27/5/1 26/5/1
f 30/5/1 27/5/1 29/5/1
f 31/5/1 29/5/1 28/5/1
f 32/5/1 29/5/1 31/5/1
f 33/5/1 27/5/1 30/5/1
f 34/5/1 27/5/1 33/5/1
f 38/2/1 33/2/1 32/2/1
f 39/2/1 33/2/1 38/2/1
f 41/5/1 36/5/1 35/5/1
f 42/2/1 39/2/1 38/2/1
f 42/2/1 40/2/1 39/2/1
f 42/2/1 38/2/1 37/2/1
f 43/2/1 40/2/1 42/2/1
f 45/5/1 41/5/1 35/5/1
f 46/5/1 41/5/1 45/5/1
f 47/5/1 44/5/1 43/5/1
f 48/5/1 44/5/1 47/5/1
f 49/5/1 47/5/1 46/5/1
f 50/5/1 47/5/1 49/5/1
f 55/5/1 52/5/1 51/5/1
f 56/2/1 53/2/1 52/2/1
f 56/5/1 52/5/1 55/5/1
f 57/2/1 53/2/1 56/2/1
f 58/5/1 55/5/1 54/5/1
f 59/2/1 56/2/1 55/2/1
f 59/5/1 55/5/1 58/5/1
f 60/2/1 56/2/1 59/2/1
f 62/2/1 59/2/1 58/2/1
f 63/2/1 59/2/1 62/2/1
f 66/5/1 62/5/1 61/5/1
f 67/2/1 63/2/1 62/2/1
f 67/5/1 62/5/1 66/5/1
f 68/5/1 64/5/1 63/5/1
f 68/2/1 63/2/1 67/2/1
f 69/5/1 64/5/1 68/5/1
f 71/5/1 66/5/1 65/5/1
f 72/5/1 66/5/1 71/5/1
f 75/5/1 70/5/1 69/5/1
f 76/5/1 70/5/1 75/5/1
f 77/2/1 73/2/1 72/2/1
f 78/2/1 73/2/1 77/2/1
f 79/2/1 75/2/1 74/2/1
f 80/2/1 75/2/1 79/2/1
f 85/5/1 82/5/1 81/5/1
f 86/5/1 82/5/1 85/5/1
f 87/5/1 84/5/1 83/5/1
f 88/5/1 84/5/1 87/5/1
f 91/5/1 90/5/1 89/5/1
f 92/5/1 91/5/1 89/5/1
f 93/5/1 91/5/1 92/5/1
f 96/5/1 95/5/1 94/5/1
f 97/5/1 96/5/1 94/5/1
f 98/5/1 96/5/1 97/5/1
f 101/2/1 100/2/1 99/2/1
f 102/2/1 100/2/1 101/2/1
f 104/5/1 102/5/1 101/5/1
f 105/2/1 103/2/1 102/2/1
f 105/5/1 102/5/1 104/5/1
f 106/2/1 103/2/1 105/2/1
f 108/5/1 106/5/1 105/5/1
f 109/2/1 107/2/1 106/2/1
f 109/5/1 106/5/1 108/5/1
f 110/2/1 107/2/1 109/2/1
f 113/5/1 112/5/1 111/5/1
f 114/5/1 113/5/1 111/5/1
f 115/5/1 113/5/1 114/5/1
f 119/1/1 117/1/1 116/1/1
f 120/1/1 117/1/1 119/1/1
f 121/5/1 119/5/1 118/5/1
f 122/5/1 119/5/1 121/5/1
f 125/5/1 124/5/1 123/5/1
f 126/5/1 124/5/1 125/5/1
f 127/5/2 128/5/2 131/5/2
f 128/6/2 129/6/2 132/6/2
f 130/5/2 131/5/2 135/5/2
f 131/5/2 128/5/2 136/5/2
f 135/5/2 131/5/2 136/5/2
f 128/6/2 132/6/2 136/6/2
f 132/1/2 133/1/2 137/1/2
f 136/6/2 132/6/2 137/6/2
f 133/6/2 134/6/2 138/6/2
f 137/1/2 133/1/2 138/1/2
f 138/6/2 134/6/2 139/6/2
f 138/5/2 139/5/2 140/5/2
f 140/5/2 139/5/2 141/5/2
f 142/5/2 143/5/2 144/5/2
f 144/5/2 143/5/2 145/5/2
f 146/5/2 147/5/2 148/5/2
f 146/5/2 148/5/2 149/5/2
f 149/5/2 148/5/2 150/5/2
f 151/5/2 152/5/2 155/5/2
f 152/2/2 153/2/2 156/2/2
f 155/5/2 152/5/2 156/5/2
f 156/2/2 153/2/2 157/2/2
f 154/5/2 155/5/2 158/5/2
f 155/2/2 156/2/2 159/2/2
f 158/5/2 155/5/2 159/5/2
f 159/2/2 156/2/2 160/2/2
f 158/2/2 159/2/2 161/2/2
f 161/2/2 159/2/2 162/2/2
f 163/5/2 164/5/2 165/5/2
f 163/5/2 165/5/2 166/5/2
f 166/5/2 165/5/2 167/5/2
f 168/5/2 169/5/2 172/5/2
f 172/5/2 169/5/2 173/5/2
f 170/5/2 171/5/2 174/5/2
f 174/5/2 171/5/2 175/5/2
f 176/5/2 177/5/2 178/5/2
f 176/5/2 178/5/2 179/5/2
f 179/5/2 178/5/2 180/5/2
f 181/2/2 182/2/2 183/2/2
f 183/2/2 182/2/2 184/2/2
f 183/5/2 184/5/2 186/5/2
f 184/2/2 185/2/2 187/2/2
f 186/5/2 184/5/2 187/5/2
f 187/2/2 185/2/2 188/2/2
f 188/2/2 189/2/2 190/2/2
f 187/5/2 188/5/2 193/5/2
f 188/2/2 190/2/2 194/2/2
f 193/5/2 188/5/2 194/5/2
f 190/5/2 191/5/2 195/5/2
f 194/2/2 190/2/2 195/2/2
f 195/5/2 191/5/2 196/5/2
f 192/5/2 193/5/2 198/5/2
f 198/5/2 193/5/2 199/5/2
f 196/5/2 197/5/2 202/5/2
f 202/5/2 197/5/2 203/5/2
f 199/2/2 200/2/2 204/2/2
f 204/2/2 200/2/2 205/2/2
f 201/2/2 202/2/2 206/2/2
f 206/2/2 202/2/2 207/2/2
f 208/5/2 209/5/2 210/5/2
f 210/5/2 209/5/2 211/5/2
f 208/5/2 210/5/2 213/5/2
f 213/5/2 210/5/2 214/5/2
f 211/5/2 212/5/2 215/5/2
f 215/5/2 212/5/2 216/5/2
f 214/2/2 215/2/2 220/2/2
f 220/2/2 215/2/2 221/2/2
f 217/5/2 218/5/2 223/5/2
f 220/2/2 221/2/2 224/2/2
f 221/2/2 222/2/2 224/2/2
f 219/2/2 220/2/2 224/2/2
f 224/2/2 222/2/2 225/2/2
f 217/5/2 223/5/2 227/5/2
f 227/5/2 223/5/2 228/5/2
f 225/5/2 226/5/2 229/5/2
f 229/5/2 226/5/2 230/5/2
f 228/5/2 229/5/2 231/5/2
f 231/5/2 229/5/2 232/5/2
f 233/1/2 234/1/2 236/1/2
f 236/1/2 234/1/2 237/1/2
f 235/5/2 236/5/2 239/5/2
f 239/5/2 236/5/2 240/5/2
f 238/5/2 239/5/2 242/5/2
f 242/5/2 239/5/2 243/5/2
f 241/5/2 242/5/2 244/5/2
f 244/5/2 242/5/2 245/5/2
f 246/5/2 247/5/2 248/5/2
f 248/5/2 247/5/2 249/5/2
f 252/5/3 251/5/3 250/5/3
f 253/5/3 251/5/3 252/5/3
f 256/5/3 255/5/3 254/5/3
f 257/5/3 255/5/3 256/5/3
f 260/5/3 259/5/3 258/5/3
f 261/5/3 259/5/3 260/5/3
f 262/5/3 260/5/3 258/5/3
f 263/5/3 259/5/3 261/5/3
f 264/5/3 262/5/3 258/5/3
f 264/5/3 263/5/3 262/5/3
f 265/5/3 259/5/3 263/5/3
f 265/5/3 263/5/3 264/5/3
f 266/5/3 264/5/3 258/5/3
f 267/5/3 259/5/3 265/5/3
f 268/5/3 266/5/3 258/5/3
f 268/5/3 267/5/3 266/5/3
f 269/5/3 259/5/3 267/5/3
f 269/5/3 267/5/3 268/5/3
f 270/5/3 268/5/3 258/5/3
f 271/5/3 259/5/3 269/5/3
f 272/5/3 270/5/3 258/5/3
f 272/5/3 271/5/3 270/5/3
f 273/5/3 259/5/3 271/5/3
f 273/5/3 271/5/3 272/5/3
f 278/5/3 275/5/3 274/5/3
f 279/5/3 275/5/3 278/5/3
f 280/5/3 277/5/3 276/5/3
f 281/5/3 277/5/3 280/5/3
f 288/5/3 284/5/3 283/5/3
f 289/5/3 286/5/3 285/5/3
f 290/5/3 286/5/3 289/5/3
f 293/5/3 292/5/3 291/5/3
f 294/5/3 292/5/3 293/5/3
f 298/5/3 288/5/3 287/5/3
f 299/5/3 284/5/3 288/5/3
f 299/5/3 288/5/3 298/5/3
f 302/2/3 296/2/3 295/2/3
f 303/5/3 297/5/3 296/5/3
f 303/2/3 296/2/3 302/2/3
f 304/5/3 297/5/3 303/5/3
f 305/5/3 284/5/3 299/5/3
f 306/5/3 284/5/3 305/5/3
f 307/5/3 301/5/3 300/5/3
f 308/5/3 301/5/3 307/5/3
f 310/5/3 282/5/3 281/5/3
f 311/5/3 282/5/3 310/5/3
f 312/5/3 310/5/3 309/5/3
f 313/5/3 310/5/3 312/5/3
f 316/5/3 315/5/3 314/5/3
f 317/5/3 315/5/3 316/5/3
f 323/5/3 317/5/3 316/5/3
f 323/5/3 318/5/3 317/5/3
f 324/5/3 318/5/3 323/5/3
f 325/2/3 321/2/3 320/2/3
f 325/2/3 320/2/3 319/2/3
f 326/2/3 321/2/3 325/2/3
f 327/5/3 323/5/3 322/5/3
f 328/5/3 323/5/3 327/5/3
f 330/5/3 327/5/3 322/5/3
f 331/5/3 327/5/3 330/5/3
f 333/5/3 330/5/3 329/5/3
f 333/5/3 332/5/3 331/5/3
f 333/5/3 331/5/3 330/5/3
f 334/5/3 332/5/3 333/5/3
f 335/2/3 325/2/3 324/2/3
f 336/1/3 326/1/3 325/1/3
f 336/2/3 325/2/3 335/2/3
f 337/1/3 326/1/3 336/1/3
f 338/5/3 335/5/3 334/5/3
f 339/5/3 335/5/3 338/5/3
f 340/2/3 337/2/3 336/2/3
f 341/2/3 337/2/3 340/2/3
f 342/2/3 337/2/3 341/2/3
f 345/5/3 344/5/3 343/5/3
f 346/5/3 344/5/3 345/5/3
f 351/2/3 347/2/3 346/2/3
f 352/2/3 347/2/3 351/2/3
f 353/5/3 349/5/3 348/5/3
f 354/2/3 350/2/3 349/2/3
f 354/5/3 349/5/3 353/5/3
f 355/2/3 350/2/3 354/2/3
f 359/2/3 357/2/3 356/2/3
f 360/2/3 357/2/3 359/2/3
f 361/5/3 359/5/3 358/5/3
f 362/5/3 359/5/3 361/5/3
f 365/5/3 364/5/3 363/5/3
f 366/5/3 364/5/3 365/5/3
f 369/5/3 368/5/3 367/5/3
f 370/5/3 368/5/3 369/5/3
f 373/5/3 372/5/3 371/5/3
f 374/5/3 372/5/3 373/5/3
f 377/1/3 376/1/3 375/1/3
f 378/1/3 376/1/3 377/1/3
f 379/6/4 380/6/4 381/6/4
f 381/6/4 380/6/4 382/6/4
f 383/5/4 384/5/4 386/5/4
f 384/5/4 385/5/4 386/5/4
f 386/5/4 385/5/4 387/5/4
f 383/5/4 386/5/4 388/5/4
f 383/5/4 388/5/4 390/5/4
f 388/5/4 389/5/4 390/5/4
f 390/5/4 389/5/4 391/5/4
f 383/5/4 390/5/4 392/5/4
f 383/5/4 392/5/4 394/5/4
f 392/5/4 393/5/4 394/5/4
f 394/5/4 393/5/4 395/5/4
f 383/5/4 394/5/4 396/5/4
f 383/5/4 396/5/4 398/5/4
f 396/5/4 397/5/4 398/5/4
f 398/5/4 397/5/4 399/5/4
f 399/5/4 397/5/4 400/5/4
f 401/6/4 402/6/4 404/6/4
f 402/5/4 403/5/4 405/5/4
f 404/6/4 402/6/4 405/6/4
f 405/5/4 403/5/4 406/5/4
f 407/2/4 408/2/4 409/2/4
f 409/2/4 408/2/4 410/2/4
f 411/5/4 412/5/4 413/5/4
f 413/5/4 412/5/4 414/5/4
f 415/2/4 416/2/4 417/2/4
f 417/2/4 416/2/4 418/2/4
f 419/5/4 420/5/4 421/5/4
f 421/5/4 420/5/4 422/5/4
f 422/2/4 423/2/4 426/2/4
f 426/2/4 423/2/4 427/2/4
f 424/2/4 425/2/4 428/2/4
f 428/2/4 425/2/4 429/2/4
f 430/2/4 431/2/4 432/2/4
f 432/2/4 431/2/4 433/2/4
f 434/2/4 435/2/4 437/2/4
f 437/2/4 435/2/4 438/2/4
f 436/5/4 437/5/4 439/5/4
f 439/5/4 437/5/4 440/5/4
f 441/5/4 442/5/4 446/5/4
f 446/5/4 442/5/4 447/5/4
f 443/2/4 444/2/4 449/2/4
f 449/2/4 444/2/4 450/2/4
f 445/5/4 446/5/4 451/5/4
f 451/5/4 446/5/4 452/5/4
f 445/5/4 451/5/4 453/5/4
f 445/5/4 453/5/4 455/5/4
f 453/5/4 454/5/4 455/5/4
f 455/5/4 454/5/4 456/5/4
f 447/2/4 448/2/4 457/2/4
f 457/2/4 448/2/4 458/2/4
f 456/5/4 457/5/4 459/5/4
f 459/5/4 457/5/4 460/5/4
f 460/5/4 457/5/4 461/5/4
f 459/5/4 460/5/4 462/5/4
f 462/5/4 460/5/4 463/5/4
f 464/5/4 465/5/4 467/5/4
f 467/5/4 465/5/4 468/5/4
f 470/2/4 471/2/4 474/2/4
f 474/2/4 471/2/4 475/2/4
f 472/5/4 473/5/4 477/5/4
f 476/5/4 477/5/4 478/5/4
f 477/5/4 473/5/4 479/5/4
f 478/5/4 477/5/4 479/5/4
f 479/5/4 473/5/4 480/5/4
f 480/5/4 473/5/4 481/5/4
f 466/2/4 467/2/4 484/2/4
f 484/2/4 467/2/4 485/2/4
f 468/5/4 469/5/4 486/5/4
f 486/5/4 469/5/4 487/5/4
f 482/5/4 483/5/4 488/5/4
f 488/5/4 483/5/4 489/5/4
f 485/5/4 486/5/4 490/5/4
f 490/5/4 486/5/4 491/5/4
f 492/5/4 493/5/4 496/5/4
f 496/5/4 493/5/4 497/5/4
f 494/1/4 495/1/4 498/1/4
f 498/1/4 495/1/4 499/1/4
f 502/2/5 501/2/5 500/2/5
f 503/2/5 501/2/5 502/2/5
f 506/5/5 505/5/5 504/5/5
f 507/5/5 505/5/5 506/5/5
f 508/2/5 507/2/5 506/2/5
f 509/2/5 507/2/5 508/2/5
f 514/2/5 511/2/5 510/2/5
f 515/2/5 511/2/5 514/2/5
f 516/5/5 513/5/5 512/5/5
f 517/5/5 513/5/5 516/5/5
f 520/2/5 519/2/5 518/2/5
f 521/2/5 519/2/5 520/2/5
f 524/5/5 523/5/5 522/5/5
f 525/5/5 523/5/5 524/5/5
f 526/6/5 525/6/5 524/6/5
f 527/6/5 525/6/5 526/6/5
f 530/5/5 529/5/5 528/5/5
f 531/5/5 529/5/5 530/5/5
f 532/5/5 529/5/5 531/5/5
f 534/2/5 532/2/5 531/2/5
f 535/2/5 532/2/5 534/2/5
f 537/5/5 535/5/5 534/5/5
f 537/5/5 536/5/5 535/5/5
f 537/5/5 534/5/5 533/5/5
f 538/5/5 536/5/5 537/5/5
f 541/5/5 540/5/5 539/5/5
f 542/5/5 540/5/5 541/5/5
f 545/1/5 544/1/5 543/1/5
f 546/1/5 544/1/5 545/1/5
f 549/6/5 546/6/5 545/6/5
f 550/6/5 546/6/5 549/6/5
f 551/5/5 548/5/5 547/5/5
f 552/5/5 548/5/5 551/5/5
f 555/5/5 554/5/5 553/5/5
f 556/5/5 554/5/5 555/5/5
f 559/1/5 558/1/5 557/1/5
f 560/1/5 558/1/5 559/1/5
f 563/5/5 562/5/5 561/5/5
f 564/5/5 562/5/5 563/5/5
f 571/5/5 566/5/5 565/5/5
f 572/5/5 566/5/5 571/5/5
f 573/5/5 568/5/5 567/5/5
f 574/5/5 568/5/5 573/5/5
f 576/5/5 570/5/5 569/5/5
f 576/5/5 571/5/5 570/5/5
f 577/5/5 571/5/5 576/5/5
f 578/5/5 571/5/5 577/5/5
f 579/5/5 575/5/5 574/5/5
f 580/5/5 578/5/5 577/5/5
f 581/5/5 575/5/5 579/5/5
f 582/5/5 575/5/5 581/5/5
f 584/5/5 580/5/5 577/5/5
f 585/5/5 580/5/5 584/5/5
f 588/5/5 583/5/5 582/5/5
f 588/5/5 582/5/5 581/5/5
f 589/5/5 583/5/5 588/5/5
f 590/5/5 583/5/5 589/5/5
f 591/5/5 586/5/5 585/5/5
f 592/5/5 586/5/5 591/5/5
f 593/5/5 588/5/5 587/5/5
f 594/5/5 588/5/5 593/5/5
f 599/5/5 596/5/5 595/5/5
f 600/5/5 596/5/5 599/5/5
f 601/5/5 598/5/5 597/5/5
f 602/5/5 598/5/5 601/5/5
f 605/5/5 604/5/5 603/5/5
f 606/5/5 604/5/5 605/5/5
f 611/2/5 608/2/5 607/2/5
f 612/2/5 608/2/5 611/2/5
f 613/2/5 610/2/5 609/2/5
f 614/2/5 610/2/5 613/2/5
f 619/2/5 616/2/5 615/2/5
f 620/2/5 618/2/5 617/2/5
f 621/2/5 619/2/5 615/2/5
f 621/2/5 620/2/5 619/2/5
f 622/2/5 618/2/5 620/2/5
f 622/2/5 620/2/5 621/2/5
f 627/5/5 624/5/5 623/5/5
f 628/5/5 626/5/5 625/5/5
f 629/5/5 627/5/5 623/5/5
f 630/5/5 627/5/5 629/5/5
f 631/5/5 626/5/5 628/5/5
f 632/5/5 626/5/5 631/5/5
f 633/5/5 631/5/5 630/5/5
f 634/5/5 631/5/5 633/5/5
f 643/5/5 636/5/5 635/5/5
f 643/5/5 642/5/5 641/5/5
f 643/5/5 641/5/5 640/5/5
f 643/5/5 640/5/5 639/5/5
f 643/5/5 639/5/5 638/5/5
f 643/5/5 638/5/5 637/5/5
f 643/5/5 637/5/5 636/5/5
f 644/5/5 642/5/5 643/5/5
f 645/5/5 642/5/5 644/5/5
f 646/5/5 642/5/5 645/5/5
f 653/5/5 648/5/5 647/5/5
f 654/5/5 648/5/5 653/5/5
f 655/5/5 650/5/5 649/5/5
f 656/5/5 650/5/5 655/5/5
f 657/5/5 652/5/5 651/5/5
f 658/5/5 652/5/5 657/5/5
f 659/2/6 660/2/6 661/2/6
f 661/2/6 660/2/6 662/2/6
f 663/5/6 664/5/6 665/5/6
f 665/5/6 664/5/6 666/5/6
f 667/2/6 668/2/6 669/2/6
f 669/2/6 668/2/6 670/2/6
f 671/5/6 672/5/6 673/5/6
f 673/5/6 672/5/6 674/5/6
f 673/6/6 674/6/6 675/6/6
f 675/6/6 674/6/6 676/6/6
f 675/1/6 676/1/6 677/1/6
f 677/1/6 676/1/6 678/1/6
f 679/1/6 680/1/6 681/1/6
f 681/1/6 680/1/6 682/1/6
f 683/5/6 684/5/6 685/5/6
f 685/5/6 684/5/6 686/5/6
f 687/5/6 688/5/6 689/5/6
f 689/5/6 688/5/6 690/5/6
f 691/5/6 692/5/6 693/5/6
f 693/5/6 692/5/6 694/5/6
f 695/5/6 696/5/6 697/5/6
f 697/5/6 696/5/6 698/5/6
f 699/5/6 700/5/6 702/5/6
f 702/5/6 700/5/6 703/5/6
f 701/5/6 702/5/6 706/5/6
f 706/5/6 702/5/6 707/5/6
f 703/5/6 704/5/6 708/5/6
f 708/5/6 704/5/6 709/5/6
f 705/5/6 706/5/6 711/5/6
f 711/5/6 706/5/6 712/5/6
f 709/5/6 710/5/6 715/5/6
f 715/5/6 710/5/6 716/5/6
f 712/5/6 713/5/6 717/5/6
f 717/5/6 713/5/6 718/5/6
f 714/5/6 715/5/6 719/5/6
f 719/5/6 715/5/6 720/5/6
f 718/5/6 719/5/6 721/5/6
f 721/5/6 719/5/6 722/5/6
f 723/5/6 724/5/6 729/5/6
f 729/5/6 724/5/6 730/5/6
f 725/5/6 726/5/6 731/5/6
f 731/5/6 726/5/6 732/5/6
f 727/5/6 728/5/6 733/5/6
f 733/5/6 728/5/6 734/5/6
f 735/5/6 736/5/6 738/5/6
f 738/5/6 736/5/6 739/5/6
f 737/5/6 738/5/6 741/5/6
f 741/5/6 738/5/6 742/5/6
f 739/5/6 740/5/6 743/5/6
f 743/5/6 740/5/6 744/5/6
f 742/5/6 743/5/6 745/5/6
f 745/5/6 743/5/6 746/5/6
f 747/5/6 748/5/6 749/5/6
f 749/5/6 748/5/6 750/5/6
