# MagicaVoxel @ Ephtracy

# group
o 

# material
mtllib Knight-6.mtl
usemtl palette

# normals
vn -1 0 0
vn 1 0 0
vn 0 0 1
vn 0 0 -1
vn 0 -1 0
vn 0 1 0

# texcoords
vt 0.970703 0.5
vt 0.974609 0.5
vt 0.978516 0.5
vt 0.982422 0.5
vt 0.990234 0.5
vt 0.994141 0.5

# verts
v 2.6 -0.1 -0.2
v 2.6 -0.1 -0.3
v 2.6 0 -0.1
v 2.6 0 -0.2
v 2.6 0.6 -0.1
v 2.6 0.6 -0.3
v 2.6 0.7 0.2
v 2.6 0.7 -0.1
v 2.6 0.7 -0.2
v 2.6 0.7 -0.3
v 2.6 0.8 0.2
v 2.6 0.8 -0.2
v 2.6 0.8 -0.3
v 2.6 0.9 -0.2
v 2.6 0.9 -0.3
v 2.6 1 0.4
v 2.6 1 -0.1
v 2.6 1.4 0.4
v 2.6 1.4 -0.1
v 2.7 0.6 0.3
v 2.7 0.6 5.96046e-008
v 2.7 0.7 0.2
v 2.7 0.7 5.96046e-008
v 2.7 0.8 0.3
v 2.7 0.8 0.2
v 2.7 0.8 0.1
v 2.7 0.9 0.5
v 2.7 0.9 0.4
v 2.7 0.9 0.3
v 2.7 0.9 0.2
v 2.7 0.9 0.1
v 2.7 0.9 -0.1
v 2.7 1 0.4
v 2.7 1 0.3
v 2.7 1 -0.1
v 2.7 1 -0.2
v 2.7 1.4 0.5
v 2.7 1.4 0.4
v 2.7 1.4 -0.1
v 2.7 1.4 -0.2
v 2.7 1.5 0.4
v 2.7 1.5 -0.1
v 2.8 0.2 0.5
v 2.8 0.2 0.1
v 2.8 0.3 0.5
v 2.8 0.3 0.4
v 2.8 0.3 0.2
v 2.8 0.3 0.1
v 2.8 0.3 5.96046e-008
v 2.8 0.4 0.4
v 2.8 0.4 0.3
v 2.8 0.6 0.4
v 2.8 0.6 0.3
v 2.8 0.6 0.2
v 2.8 0.6 0.1
v 2.8 0.6 5.96046e-008
v 2.8 0.6 -0.1
v 2.8 0.8 0.4
v 2.8 0.8 0.3
v 2.8 0.8 0.2
v 2.8 0.8 0.1
v 2.8 0.8 5.96046e-008
v 2.8 0.8 -0.1
v 2.8 0.9 0.3
v 2.8 0.9 0.2
v 2.8 0.9 0.1
v 2.8 0.9 5.96046e-008
v 2.9 0.4 0.4
v 2.9 0.4 0.3
v 2.9 0.4 5.96046e-008
v 2.9 0.4 -0.1
v 2.9 0.6 0.4
v 2.9 0.6 0.3
v 2.9 0.6 5.96046e-008
v 2.9 0.6 -0.1
v 2.9 1 0.5
v 2.9 1 0.4
v 2.9 1.2 0.4
v 2.9 1.3 0.5
v 2.9 1.3 0.4
v 3.1 1 0.5
v 3.1 1 0.4
v 3.1 1.2 0.4
v 3.1 1.3 0.5
v 3.1 1.3 0.4
v 3.2 0.1 0.1
v 3.2 0.1 -0.1
v 3.2 0.2 0.2
v 3.2 0.2 0.1
v 3.2 0.2 -0.1
v 3.2 0.2 -0.2
v 3.2 0.3 0.2
v 3.2 0.3 0.1
v 3.2 0.3 5.96046e-008
v 3.2 0.3 -0.2
v 3.3 1 0.5
v 3.3 1 0.4
v 3.3 1.2 0.4
v 3.3 1.3 0.5
v 3.3 1.3 0.4
v 3.4 0.7 0.6
v 3.4 0.7 0.5
v 3.4 0.7 0.3
v 3.4 0.8 0.6
v 3.4 0.8 0.5
v 3.4 0.8 0.3
v 3.4 1 0.4
v 3.4 1 0.3
v 3.4 1.2 0.4
v 3.4 1.2 0.3
v 2.7 -0.1 -0.2
v 2.7 -0.1 -0.3
v 2.7 0 -0.1
v 2.7 0 -0.2
v 2.7 0.6 -0.1
v 2.7 0.6 -0.3
v 2.7 0.7 5.96046e-008
v 2.7 0.7 -0.1
v 2.7 0.7 -0.2
v 2.7 0.7 -0.3
v 2.7 0.8 5.96046e-008
v 2.7 0.8 -0.2
v 2.7 0.8 -0.3
v 2.7 0.9 -0.2
v 2.7 0.9 -0.3
v 2.7 1 0.4
v 2.7 1 0.3
v 2.7 1.2 0.4
v 2.7 1.2 0.3
v 2.8 1 0.5
v 2.8 1 0.4
v 2.8 1.2 0.4
v 2.8 1.3 0.5
v 2.8 1.3 0.4
v 2.9 0.2 0.5
v 2.9 0.2 0.1
v 2.9 0.3 0.5
v 2.9 0.3 0.4
v 2.9 0.3 0.3
v 2.9 0.3 0.2
v 2.9 0.3 0.1
v 2.9 0.4 0.4
v 2.9 0.4 0.3
v 3 1 0.5
v 3 1 0.4
v 3 1.2 0.4
v 3 1.3 0.5
v 3 1.3 0.4
v 3.2 0.4 0.4
v 3.2 0.4 0.3
v 3.2 0.4 5.96046e-008
v 3.2 0.4 -0.1
v 3.2 0.6 0.4
v 3.2 0.6 0.3
v 3.2 0.6 5.96046e-008
v 3.2 0.6 -0.1
v 3.2 1 0.5
v 3.2 1 0.4
v 3.2 1.2 0.4
v 3.2 1.3 0.5
v 3.2 1.3 0.4
v 3.3 0.1 0.1
v 3.3 0.1 -0.1
v 3.3 0.2 0.2
v 3.3 0.2 0.1
v 3.3 0.2 -0.1
v 3.3 0.2 -0.2
v 3.3 0.3 0.3
v 3.3 0.3 0.2
v 3.3 0.3 0.1
v 3.3 0.3 5.96046e-008
v 3.3 0.3 -0.2
v 3.3 0.6 0.4
v 3.3 0.6 0.3
v 3.3 0.6 0.2
v 3.3 0.6 0.1
v 3.3 0.6 5.96046e-008
v 3.3 0.6 -0.1
v 3.3 0.8 0.4
v 3.3 0.8 0.3
v 3.3 0.8 0.2
v 3.3 0.8 0.1
v 3.3 0.8 5.96046e-008
v 3.3 0.8 -0.1
v 3.3 0.9 0.3
v 3.3 0.9 0.2
v 3.3 0.9 0.1
v 3.3 0.9 5.96046e-008
v 3.4 0.6 0.3
v 3.4 0.6 5.96046e-008
v 3.4 0.7 0.3
v 3.4 0.7 0.1
v 3.4 0.8 0.2
v 3.4 0.8 0.1
v 3.4 0.8 5.96046e-008
v 3.4 0.9 0.5
v 3.4 0.9 0.4
v 3.4 0.9 0.3
v 3.4 0.9 0.2
v 3.4 0.9 0.1
v 3.4 0.9 -0.1
v 3.4 1 0.4
v 3.4 1 0.3
v 3.4 1 -0.1
v 3.4 1 -0.2
v 3.4 1.4 0.5
v 3.4 1.4 0.4
v 3.4 1.4 -0.1
v 3.4 1.4 -0.2
v 3.4 1.5 0.4
v 3.4 1.5 -0.1
v 3.5 0.7 0.6
v 3.5 0.7 0.5
v 3.5 0.7 0.1
v 3.5 0.8 0.6
v 3.5 0.8 0.5
v 3.5 0.8 0.1
v 3.5 1 0.4
v 3.5 1 -0.1
v 3.5 1.4 0.4
v 3.5 1.4 -0.1
v 3.4 0.7 0.6
v 3.4 0.8 0.6
v 3.5 0.7 0.6
v 3.5 0.8 0.6
v 2.7 0.9 0.5
v 2.7 1.4 0.5
v 2.8 0.2 0.5
v 2.8 0.3 0.5
v 2.8 1 0.5
v 2.8 1.3 0.5
v 2.9 0.2 0.5
v 2.9 0.3 0.5
v 2.9 1 0.5
v 2.9 1.3 0.5
v 3 1 0.5
v 3 1.3 0.5
v 3.1 1 0.5
v 3.1 1.3 0.5
v 3.2 1 0.5
v 3.2 1.3 0.5
v 3.3 1 0.5
v 3.3 1.3 0.5
v 3.4 0.9 0.5
v 3.4 1.4 0.5
v 2.6 1 0.4
v 2.6 1.4 0.4
v 2.7 1 0.4
v 2.7 1.4 0.4
v 2.7 1.5 0.4
v 2.8 0.3 0.4
v 2.8 0.4 0.4
v 2.8 0.6 0.4
v 2.8 0.8 0.4
v 2.8 1.2 0.4
v 2.8 1.3 0.4
v 2.9 0.3 0.4
v 2.9 0.4 0.4
v 2.9 0.6 0.4
v 2.9 1.2 0.4
v 2.9 1.3 0.4
v 3 1.2 0.4
v 3 1.3 0.4
v 3.1 1.2 0.4
v 3.1 1.3 0.4
v 3.2 0.4 0.4
v 3.2 0.6 0.4
v 3.2 1.2 0.4
v 3.2 1.3 0.4
v 3.3 0.6 0.4
v 3.3 0.8 0.4
v 3.3 1.2 0.4
v 3.3 1.3 0.4
v 3.4 1 0.4
v 3.4 1.4 0.4
v 3.4 1.5 0.4
v 3.5 1 0.4
v 3.5 1.4 0.4
v 2.7 0.6 0.3
v 2.7 0.8 0.3
v 2.7 0.9 0.3
v 2.7 1 0.3
v 2.7 1.2 0.3
v 2.8 0.4 0.3
v 2.8 0.6 0.3
v 2.8 0.8 0.3
v 2.8 0.9 0.3
v 2.8 1.2 0.3
v 2.9 0.3 0.3
v 2.9 0.4 0.3
v 2.9 0.6 0.3
v 3.2 0.4 0.3
v 3.2 0.6 0.3
v 3.3 0.3 0.3
v 3.3 0.6 0.3
v 3.3 0.8 0.3
v 3.3 0.9 0.3
v 3.3 1.2 0.3
v 3.4 0.6 0.3
v 3.4 0.7 0.3
v 3.4 0.8 0.3
v 3.4 0.9 0.3
v 3.4 1 0.3
v 3.4 1.2 0.3
v 2.6 0.7 0.2
v 2.6 0.8 0.2
v 2.7 0.7 0.2
v 2.7 0.8 0.2
v 2.7 0.9 0.2
v 2.8 0.8 0.2
v 2.8 0.9 0.2
v 3.2 0.2 0.2
v 3.2 0.3 0.2
v 3.3 0.2 0.2
v 3.3 0.3 0.2
v 3.3 0.8 0.2
v 3.3 0.9 0.2
v 3.4 0.8 0.2
v 3.4 0.9 0.2
v 3.2 0.1 0.1
v 3.2 0.2 0.1
v 3.3 0.1 0.1
v 3.3 0.2 0.1
v 2.6 0 -0.1
v 2.6 0.6 -0.1
v 2.6 0.7 -0.1
v 2.7 0 -0.1
v 2.7 0.6 -0.1
v 2.7 0.7 -0.1
v 2.6 -0.1 -0.2
v 2.6 0 -0.2
v 2.6 0.8 -0.2
v 2.6 0.9 -0.2
v 2.7 -0.1 -0.2
v 2.7 0 -0.2
v 2.7 0.8 -0.2
v 2.7 0.9 -0.2
v 2.7 0.9 0.4
v 2.7 1 0.4
v 2.7 1.2 0.4
v 2.8 1 0.4
v 2.8 1.2 0.4
v 2.9 1 0.4
v 2.9 1.2 0.4
v 3 1 0.4
v 3 1.2 0.4
v 3.1 1 0.4
v 3.1 1.2 0.4
v 3.2 1 0.4
v 3.2 1.2 0.4
v 3.3 1 0.4
v 3.3 1.2 0.4
v 3.4 0.9 0.4
v 3.4 1 0.4
v 3.4 1.2 0.4
v 2.7 0.8 0.1
v 2.7 0.9 0.1
v 2.8 0.2 0.1
v 2.8 0.3 0.1
v 2.8 0.8 0.1
v 2.8 0.9 0.1
v 2.9 0.2 0.1
v 2.9 0.3 0.1
v 3.3 0.8 0.1
v 3.3 0.9 0.1
v 3.4 0.7 0.1
v 3.4 0.8 0.1
v 3.4 0.9 0.1
v 3.5 0.7 0.1
v 3.5 0.8 0.1
v 2.7 0.6 5.96046e-008
v 2.7 0.7 5.96046e-008
v 2.7 0.8 5.96046e-008
v 2.8 0.3 5.96046e-008
v 2.8 0.6 5.96046e-008
v 2.8 0.8 5.96046e-008
v 2.8 0.9 5.96046e-008
v 2.9 0.4 5.96046e-008
v 2.9 0.6 5.96046e-008
v 3.2 0.3 5.96046e-008
v 3.2 0.4 5.96046e-008
v 3.2 0.6 5.96046e-008
v 3.3 0.3 5.96046e-008
v 3.3 0.6 5.96046e-008
v 3.3 0.8 5.96046e-008
v 3.3 0.9 5.96046e-008
v 3.4 0.6 5.96046e-008
v 3.4 0.8 5.96046e-008
v 2.6 1 -0.1
v 2.6 1.4 -0.1
v 2.7 0.9 -0.1
v 2.7 1 -0.1
v 2.7 1.4 -0.1
v 2.7 1.5 -0.1
v 2.8 0.6 -0.1
v 2.8 0.8 -0.1
v 2.9 0.4 -0.1
v 2.9 0.6 -0.1
v 3.2 0.1 -0.1
v 3.2 0.2 -0.1
v 3.2 0.4 -0.1
v 3.2 0.6 -0.1
v 3.3 0.1 -0.1
v 3.3 0.2 -0.1
v 3.3 0.6 -0.1
v 3.3 0.8 -0.1
v 3.4 0.9 -0.1
v 3.4 1 -0.1
v 3.4 1.4 -0.1
v 3.4 1.5 -0.1
v 3.5 1 -0.1
v 3.5 1.4 -0.1
v 2.7 1 -0.2
v 2.7 1.4 -0.2
v 3.2 0.2 -0.2
v 3.2 0.3 -0.2
v 3.3 0.2 -0.2
v 3.3 0.3 -0.2
v 3.4 1 -0.2
v 3.4 1.4 -0.2
v 2.6 -0.1 -0.3
v 2.6 0.6 -0.3
v 2.6 0.7 -0.3
v 2.6 0.8 -0.3
v 2.6 0.9 -0.3
v 2.7 -0.1 -0.3
v 2.7 0.6 -0.3
v 2.7 0.7 -0.3
v 2.7 0.8 -0.3
v 2.7 0.9 -0.3
v 2.6 -0.1 -0.2
v 2.7 -0.1 -0.2
v 2.6 -0.1 -0.3
v 2.7 -0.1 -0.3
v 2.6 0 -0.1
v 2.7 0 -0.1
v 2.6 0 -0.2
v 2.7 0 -0.2
v 3.2 0.1 0.1
v 3.3 0.1 0.1
v 3.2 0.1 -0.1
v 3.3 0.1 -0.1
v 2.8 0.2 0.5
v 2.9 0.2 0.5
v 3.2 0.2 0.2
v 3.3 0.2 0.2
v 2.8 0.2 0.1
v 2.9 0.2 0.1
v 3.2 0.2 0.1
v 3.3 0.2 0.1
v 3.2 0.2 -0.1
v 3.3 0.2 -0.1
v 3.2 0.2 -0.2
v 3.3 0.2 -0.2
v 2.9 0.3 0.3
v 3.3 0.3 0.3
v 2.9 0.3 0.2
v 3.2 0.3 0.2
v 3.3 0.3 0.2
v 2.8 0.3 0.1
v 2.9 0.3 0.1
v 3.2 0.3 0.1
v 2.8 0.3 5.96046e-008
v 3.2 0.3 5.96046e-008
v 2.9 0.4 0.4
v 3.2 0.4 0.4
v 2.9 0.4 0.3
v 3.2 0.4 0.3
v 2.9 0.4 5.96046e-008
v 3.2 0.4 5.96046e-008
v 2.9 0.4 -0.1
v 3.2 0.4 -0.1
v 2.8 0.6 0.4
v 2.9 0.6 0.4
v 3.2 0.6 0.4
v 3.3 0.6 0.4
v 2.7 0.6 0.3
v 2.8 0.6 0.3
v 2.9 0.6 0.3
v 3.2 0.6 0.3
v 3.3 0.6 0.3
v 3.4 0.6 0.3
v 2.8 0.6 0.2
v 3.3 0.6 0.2
v 2.8 0.6 0.1
v 3.3 0.6 0.1
v 2.7 0.6 5.96046e-008
v 2.8 0.6 5.96046e-008
v 2.9 0.6 5.96046e-008
v 3.2 0.6 5.96046e-008
v 3.3 0.6 5.96046e-008
v 3.4 0.6 5.96046e-008
v 2.8 0.6 -0.1
v 2.9 0.6 -0.1
v 3.2 0.6 -0.1
v 3.3 0.6 -0.1
v 3.4 0.7 0.6
v 3.5 0.7 0.6
v 3.4 0.7 0.5
v 3.5 0.7 0.5
v 3.4 0.7 0.3
v 2.6 0.7 0.2
v 2.7 0.7 0.2
v 3.4 0.7 0.1
v 3.5 0.7 0.1
v 2.7 0.7 5.96046e-008
v 2.6 0.7 -0.1
v 2.7 0.7 -0.1
v 2.7 0.9 0.5
v 3.4 0.9 0.5
v 2.7 0.9 0.4
v 3.4 0.9 0.4
v 2.7 0.9 0.3
v 2.8 0.9 0.3
v 3.3 0.9 0.3
v 3.4 0.9 0.3
v 2.7 0.9 0.2
v 2.8 0.9 0.2
v 3.3 0.9 0.2
v 3.4 0.9 0.2
v 2.7 0.9 0.1
v 2.8 0.9 0.1
v 3.3 0.9 0.1
v 3.4 0.9 0.1
v 2.8 0.9 5.96046e-008
v 3.3 0.9 5.96046e-008
v 2.7 0.9 -0.1
v 3.4 0.9 -0.1
v 2.6 1 0.4
v 2.7 1 0.4
v 3.4 1 0.4
v 3.5 1 0.4
v 2.7 1 0.3
v 3.4 1 0.3
v 2.6 1 -0.1
v 2.7 1 -0.1
v 3.4 1 -0.1
v 3.5 1 -0.1
v 2.7 1 -0.2
v 3.4 1 -0.2
v 2.7 1.2 0.4
v 2.8 1.2 0.4
v 2.9 1.2 0.4
v 3 1.2 0.4
v 3.1 1.2 0.4
v 3.2 1.2 0.4
v 3.3 1.2 0.4
v 3.4 1.2 0.4
v 2.7 1.2 0.3
v 2.8 1.2 0.3
v 3.3 1.2 0.3
v 3.4 1.2 0.3
v 2.8 1.3 0.5
v 2.9 1.3 0.5
v 3 1.3 0.5
v 3.1 1.3 0.5
v 3.2 1.3 0.5
v 3.3 1.3 0.5
v 2.8 1.3 0.4
v 2.9 1.3 0.4
v 3 1.3 0.4
v 3.1 1.3 0.4
v 3.2 1.3 0.4
v 3.3 1.3 0.4
v 2.8 0.3 0.5
v 2.9 0.3 0.5
v 2.8 0.3 0.4
v 2.9 0.3 0.4
v 3.2 0.3 5.96046e-008
v 3.3 0.3 5.96046e-008
v 3.2 0.3 -0.2
v 3.3 0.3 -0.2
v 2.8 0.4 0.4
v 2.9 0.4 0.4
v 2.8 0.4 0.3
v 2.9 0.4 0.3
v 3.4 0.8 0.6
v 3.5 0.8 0.6
v 3.4 0.8 0.5
v 3.5 0.8 0.5
v 2.8 0.8 0.4
v 3.3 0.8 0.4
v 2.7 0.8 0.3
v 2.8 0.8 0.3
v 3.3 0.8 0.3
v 3.4 0.8 0.3
v 2.6 0.8 0.2
v 2.7 0.8 0.2
v 2.8 0.8 0.2
v 3.3 0.8 0.2
v 3.4 0.8 0.2
v 2.7 0.8 0.1
v 2.8 0.8 0.1
v 3.3 0.8 0.1
v 3.4 0.8 0.1
v 3.5 0.8 0.1
v 2.7 0.8 5.96046e-008
v 2.8 0.8 5.96046e-008
v 3.3 0.8 5.96046e-008
v 3.4 0.8 5.96046e-008
v 2.8 0.8 -0.1
v 3.3 0.8 -0.1
v 2.6 0.8 -0.2
v 2.7 0.8 -0.2
v 2.6 0.9 -0.2
v 2.7 0.9 -0.2
v 2.6 0.9 -0.3
v 2.7 0.9 -0.3
v 2.8 1 0.5
v 2.9 1 0.5
v 3 1 0.5
v 3.1 1 0.5
v 3.2 1 0.5
v 3.3 1 0.5
v 2.8 1 0.4
v 2.9 1 0.4
v 3 1 0.4
v 3.1 1 0.4
v 3.2 1 0.4
v 3.3 1 0.4
v 2.7 1.4 0.5
v 3.4 1.4 0.5
v 2.6 1.4 0.4
v 2.7 1.4 0.4
v 3.4 1.4 0.4
v 3.5 1.4 0.4
v 2.6 1.4 -0.1
v 2.7 1.4 -0.1
v 3.4 1.4 -0.1
v 3.5 1.4 -0.1
v 2.7 1.4 -0.2
v 3.4 1.4 -0.2
v 2.7 1.5 0.4
v 3.4 1.5 0.4
v 2.7 1.5 -0.1
v 3.4 1.5 -0.1

# faces
f 4/5/1 2/5/1 1/5/1
f 5/5/1 4/5/1 3/5/1
f 6/5/1 2/5/1 4/5/1
f 6/5/1 4/5/1 5/5/1
f 8/6/1 6/6/1 5/6/1
f 9/6/1 6/6/1 8/6/1
f 10/6/1 6/6/1 9/6/1
f 11/5/1 8/5/1 7/5/1
f 11/5/1 9/5/1 8/5/1
f 12/1/1 10/1/1 9/1/1
f 12/5/1 9/5/1 11/5/1
f 13/1/1 10/1/1 12/1/1
f 14/6/1 13/6/1 12/6/1
f 15/6/1 13/6/1 14/6/1
f 18/5/1 17/5/1 16/5/1
f 19/5/1 17/5/1 18/5/1
f 22/5/1 21/5/1 20/5/1
f 23/5/1 21/5/1 22/5/1
f 24/5/1 22/5/1 20/5/1
f 25/5/1 22/5/1 24/5/1
f 30/2/1 26/2/1 25/2/1
f 31/2/1 26/2/1 30/2/1
f 33/5/1 28/5/1 27/5/1
f 34/2/1 31/2/1 30/2/1
f 34/2/1 32/2/1 31/2/1
f 34/2/1 30/2/1 29/2/1
f 35/2/1 32/2/1 34/2/1
f 37/5/1 33/5/1 27/5/1
f 38/5/1 33/5/1 37/5/1
f 39/5/1 36/5/1 35/5/1
f 40/5/1 36/5/1 39/5/1
f 41/5/1 39/5/1 38/5/1
f 42/5/1 39/5/1 41/5/1
f 45/2/1 44/2/1 43/2/1
f 46/2/1 44/2/1 45/2/1
f 47/2/1 44/2/1 46/2/1
f 48/2/1 44/2/1 47/2/1
f 50/5/1 47/5/1 46/5/1
f 51/5/1 47/5/1 50/5/1
f 53/5/1 47/5/1 51/5/1
f 54/2/1 48/2/1 47/2/1
f 54/5/1 47/5/1 53/5/1
f 55/5/1 49/5/1 48/5/1
f 55/2/1 48/2/1 54/2/1
f 56/5/1 49/5/1 55/5/1
f 58/5/1 53/5/1 52/5/1
f 59/5/1 53/5/1 58/5/1
f 62/5/1 57/5/1 56/5/1
f 63/5/1 57/5/1 62/5/1
f 64/2/1 60/2/1 59/2/1
f 65/2/1 60/2/1 64/2/1
f 66/2/1 62/2/1 61/2/1
f 67/2/1 62/2/1 66/2/1
f 72/5/1 69/5/1 68/5/1
f 73/5/1 69/5/1 72/5/1
f 74/5/1 71/5/1 70/5/1
f 75/5/1 71/5/1 74/5/1
f 78/5/1 77/5/1 76/5/1
f 79/5/1 78/5/1 76/5/1
f 80/5/1 78/5/1 79/5/1
f 83/5/1 82/5/1 81/5/1
f 84/5/1 83/5/1 81/5/1
f 85/5/1 83/5/1 84/5/1
f 89/5/1 87/5/1 86/5/1
f 90/5/1 87/5/1 89/5/1
f 92/2/1 89/2/1 88/2/1
f 92/2/1 91/2/1 90/2/1
f 92/2/1 90/2/1 89/2/1
f 93/2/1 91/2/1 92/2/1
f 94/2/1 91/2/1 93/2/1
f 95/2/1 91/2/1 94/2/1
f 98/5/1 97/5/1 96/5/1
f 99/5/1 98/5/1 96/5/1
f 100/5/1 98/5/1 99/5/1
f 104/1/1 102/1/1 101/1/1
f 105/5/1 103/5/1 102/5/1
f 105/1/1 102/1/1 104/1/1
f 106/5/1 103/5/1 105/5/1
f 109/5/1 108/5/1 107/5/1
f 110/5/1 108/5/1 109/5/1
f 111/5/2 112/5/2 114/5/2
f 113/5/2 114/5/2 115/5/2
f 114/5/2 112/5/2 116/5/2
f 115/5/2 114/5/2 116/5/2
f 115/6/2 116/6/2 118/6/2
f 118/6/2 116/6/2 119/6/2
f 119/6/2 116/6/2 120/6/2
f 117/5/2 118/5/2 121/5/2
f 118/5/2 119/5/2 121/5/2
f 119/1/2 120/1/2 122/1/2
f 121/5/2 119/5/2 122/5/2
f 122/1/2 120/1/2 123/1/2
f 122/6/2 123/6/2 124/6/2
f 124/6/2 123/6/2 125/6/2
f 126/5/2 127/5/2 128/5/2
f 128/5/2 127/5/2 129/5/2
f 130/5/2 131/5/2 132/5/2
f 130/5/2 132/5/2 133/5/2
f 133/5/2 132/5/2 134/5/2
f 135/2/2 136/2/2 137/2/2
f 137/2/2 136/2/2 138/2/2
f 138/2/2 136/2/2 139/2/2
f 139/2/2 136/2/2 140/2/2
f 140/2/2 136/2/2 141/2/2
f 138/5/2 139/5/2 142/5/2
f 142/5/2 139/5/2 143/5/2
f 144/5/2 145/5/2 146/5/2
f 144/5/2 146/5/2 147/5/2
f 147/5/2 146/5/2 148/5/2
f 149/5/2 150/5/2 153/5/2
f 153/5/2 150/5/2 154/5/2
f 151/5/2 152/5/2 155/5/2
f 155/5/2 152/5/2 156/5/2
f 157/5/2 158/5/2 159/5/2
f 157/5/2 159/5/2 160/5/2
f 160/5/2 159/5/2 161/5/2
f 162/5/2 163/5/2 165/5/2
f 165/5/2 163/5/2 166/5/2
f 164/2/2 165/2/2 169/2/2
f 166/2/2 167/2/2 169/2/2
f 165/2/2 166/2/2 169/2/2
f 169/2/2 167/2/2 170/2/2
f 170/2/2 167/2/2 171/2/2
f 171/2/2 167/2/2 172/2/2
f 168/5/2 169/5/2 174/5/2
f 169/2/2 170/2/2 175/2/2
f 174/5/2 169/5/2 175/5/2
f 170/5/2 171/5/2 176/5/2
f 175/2/2 170/2/2 176/2/2
f 176/5/2 171/5/2 177/5/2
f 173/5/2 174/5/2 179/5/2
f 179/5/2 174/5/2 180/5/2
f 177/5/2 178/5/2 183/5/2
f 183/5/2 178/5/2 184/5/2
f 180/2/2 181/2/2 185/2/2
f 185/2/2 181/2/2 186/2/2
f 182/2/2 183/2/2 187/2/2
f 187/2/2 183/2/2 188/2/2
f 189/5/2 190/5/2 191/5/2
f 191/5/2 190/5/2 192/5/2
f 192/5/2 190/5/2 194/5/2
f 194/5/2 190/5/2 195/5/2
f 193/2/2 194/2/2 199/2/2
f 199/2/2 194/2/2 200/2/2
f 196/5/2 197/5/2 202/5/2
f 200/2/2 201/2/2 203/2/2
f 199/2/2 200/2/2 203/2/2
f 198/2/2 199/2/2 203/2/2
f 203/2/2 201/2/2 204/2/2
f 196/5/2 202/5/2 206/5/2
f 206/5/2 202/5/2 207/5/2
f 204/5/2 205/5/2 208/5/2
f 208/5/2 205/5/2 209/5/2
f 207/5/2 208/5/2 210/5/2
f 210/5/2 208/5/2 211/5/2
f 212/1/2 213/1/2 215/1/2
f 213/5/2 214/5/2 216/5/2
f 215/1/2 213/1/2 216/1/2
f 216/5/2 214/5/2 217/5/2
f 218/5/2 219/5/2 220/5/2
f 220/5/2 219/5/2 221/5/2
f 224/1/3 223/1/3 222/1/3
f 225/1/3 223/1/3 224/1/3
f 230/5/3 227/5/3 226/5/3
f 231/5/3 227/5/3 230/5/3
f 232/2/3 229/2/3 228/2/3
f 233/2/3 229/2/3 232/2/3
f 234/5/3 230/5/3 226/5/3
f 235/5/3 227/5/3 231/5/3
f 236/5/3 234/5/3 226/5/3
f 236/5/3 235/5/3 234/5/3
f 237/5/3 227/5/3 235/5/3
f 237/5/3 235/5/3 236/5/3
f 238/5/3 236/5/3 226/5/3
f 239/5/3 227/5/3 237/5/3
f 240/5/3 238/5/3 226/5/3
f 240/5/3 239/5/3 238/5/3
f 241/5/3 227/5/3 239/5/3
f 241/5/3 239/5/3 240/5/3
f 242/5/3 240/5/3 226/5/3
f 243/5/3 227/5/3 241/5/3
f 244/5/3 242/5/3 226/5/3
f 244/5/3 243/5/3 242/5/3
f 245/5/3 227/5/3 243/5/3
f 245/5/3 243/5/3 244/5/3
f 248/5/3 247/5/3 246/5/3
f 249/5/3 247/5/3 248/5/3
f 257/5/3 252/5/3 251/5/3
f 258/5/3 252/5/3 257/5/3
f 259/5/3 254/5/3 253/5/3
f 260/5/3 256/5/3 255/5/3
f 261/5/3 256/5/3 260/5/3
f 264/5/3 263/5/3 262/5/3
f 265/5/3 263/5/3 264/5/3
f 266/5/3 259/5/3 258/5/3
f 267/5/3 254/5/3 259/5/3
f 267/5/3 259/5/3 266/5/3
f 270/5/3 254/5/3 267/5/3
f 271/5/3 254/5/3 270/5/3
f 272/5/3 269/5/3 268/5/3
f 273/5/3 269/5/3 272/5/3
f 275/5/3 250/5/3 249/5/3
f 276/5/3 250/5/3 275/5/3
f 277/5/3 275/5/3 274/5/3
f 278/5/3 275/5/3 277/5/3
f 285/5/3 280/5/3 279/5/3
f 286/5/3 280/5/3 285/5/3
f 287/2/3 283/2/3 282/2/3
f 287/2/3 282/2/3 281/2/3
f 288/2/3 283/2/3 287/2/3
f 290/5/3 285/5/3 284/5/3
f 291/5/3 285/5/3 290/5/3
f 292/5/3 290/5/3 289/5/3
f 294/5/3 292/5/3 289/5/3
f 294/5/3 293/5/3 292/5/3
f 295/5/3 293/5/3 294/5/3
f 296/2/3 287/2/3 286/2/3
f 297/1/3 288/1/3 287/1/3
f 297/2/3 287/2/3 296/2/3
f 298/1/3 288/1/3 297/1/3
f 299/5/3 296/5/3 295/5/3
f 300/5/3 296/5/3 299/5/3
f 301/5/3 296/5/3 300/5/3
f 302/2/3 298/2/3 297/2/3
f 303/2/3 298/2/3 302/2/3
f 304/2/3 298/2/3 303/2/3
f 307/5/3 306/5/3 305/5/3
f 308/5/3 306/5/3 307/5/3
f 310/2/3 309/2/3 308/2/3
f 311/2/3 309/2/3 310/2/3
f 314/2/3 313/2/3 312/2/3
f 315/2/3 313/2/3 314/2/3
f 318/2/3 317/2/3 316/2/3
f 319/2/3 317/2/3 318/2/3
f 322/5/3 321/5/3 320/5/3
f 323/5/3 321/5/3 322/5/3
f 327/5/3 325/5/3 324/5/3
f 328/6/3 326/6/3 325/6/3
f 328/5/3 325/5/3 327/5/3
f 329/6/3 326/6/3 328/6/3
f 334/5/3 331/5/3 330/5/3
f 335/5/3 331/5/3 334/5/3
f 336/6/3 333/6/3 332/6/3
f 337/6/3 333/6/3 336/6/3
f 338/5/4 339/5/4 341/5/4
f 339/5/4 340/5/4 341/5/4
f 341/5/4 340/5/4 342/5/4
f 338/5/4 341/5/4 343/5/4
f 338/5/4 343/5/4 345/5/4
f 343/5/4 344/5/4 345/5/4
f 345/5/4 344/5/4 346/5/4
f 338/5/4 345/5/4 347/5/4
f 338/5/4 347/5/4 349/5/4
f 347/5/4 348/5/4 349/5/4
f 349/5/4 348/5/4 350/5/4
f 338/5/4 349/5/4 351/5/4
f 338/5/4 351/5/4 353/5/4
f 351/5/4 352/5/4 353/5/4
f 353/5/4 352/5/4 354/5/4
f 354/5/4 352/5/4 355/5/4
f 356/2/4 357/2/4 360/2/4
f 360/2/4 357/2/4 361/2/4
f 358/2/4 359/2/4 362/2/4
f 362/2/4 359/2/4 363/2/4
f 364/2/4 365/2/4 367/2/4
f 367/2/4 365/2/4 368/2/4
f 366/5/4 367/5/4 369/5/4
f 369/5/4 367/5/4 370/5/4
f 371/5/4 372/5/4 375/5/4
f 372/5/4 373/5/4 375/5/4
f 375/5/4 373/5/4 376/5/4
f 374/5/4 375/5/4 378/5/4
f 378/5/4 375/5/4 379/5/4
f 374/5/4 378/5/4 380/5/4
f 380/5/4 378/5/4 381/5/4
f 380/5/4 381/5/4 383/5/4
f 381/5/4 382/5/4 383/5/4
f 383/5/4 382/5/4 384/5/4
f 376/2/4 377/2/4 385/2/4
f 385/2/4 377/2/4 386/2/4
f 384/5/4 385/5/4 387/5/4
f 387/5/4 385/5/4 388/5/4
f 389/5/4 390/5/4 392/5/4
f 392/5/4 390/5/4 393/5/4
f 395/5/4 396/5/4 398/5/4
f 397/5/4 398/5/4 401/5/4
f 398/5/4 396/5/4 402/5/4
f 401/5/4 398/5/4 402/5/4
f 399/5/4 400/5/4 403/5/4
f 403/5/4 400/5/4 404/5/4
f 402/5/4 396/5/4 405/5/4
f 405/5/4 396/5/4 406/5/4
f 391/2/4 392/2/4 407/2/4
f 407/2/4 392/2/4 408/2/4
f 393/5/4 394/5/4 409/5/4
f 409/5/4 394/5/4 410/5/4
f 408/5/4 409/5/4 411/5/4
f 411/5/4 409/5/4 412/5/4
f 415/2/4 416/2/4 417/2/4
f 417/2/4 416/2/4 418/2/4
f 413/5/4 414/5/4 419/5/4
f 419/5/4 414/5/4 420/5/4
f 421/5/4 422/5/4 426/5/4
f 422/6/4 423/6/4 427/6/4
f 426/5/4 422/5/4 427/5/4
f 423/1/4 424/1/4 428/1/4
f 427/6/4 423/6/4 428/6/4
f 424/6/4 425/6/4 429/6/4
f 428/1/4 424/1/4 429/1/4
f 429/6/4 425/6/4 430/6/4
f 433/5/5 432/5/5 431/5/5
f 434/5/5 432/5/5 433/5/5
f 437/5/5 436/5/5 435/5/5
f 438/5/5 436/5/5 437/5/5
f 441/5/5 440/5/5 439/5/5
f 442/5/5 440/5/5 441/5/5
f 447/2/5 444/2/5 443/2/5
f 448/2/5 444/2/5 447/2/5
f 449/2/5 446/2/5 445/2/5
f 450/2/5 446/2/5 449/2/5
f 453/2/5 452/2/5 451/2/5
f 454/2/5 452/2/5 453/2/5
f 457/5/5 456/5/5 455/5/5
f 458/5/5 456/5/5 457/5/5
f 459/5/5 456/5/5 458/5/5
f 461/2/5 458/2/5 457/2/5
f 462/2/5 458/2/5 461/2/5
f 463/5/5 461/5/5 460/5/5
f 463/5/5 462/5/5 461/5/5
f 464/5/5 462/5/5 463/5/5
f 467/5/5 466/5/5 465/5/5
f 468/5/5 466/5/5 467/5/5
f 471/5/5 470/5/5 469/5/5
f 472/5/5 470/5/5 471/5/5
f 478/5/5 474/5/5 473/5/5
f 479/5/5 474/5/5 478/5/5
f 480/5/5 476/5/5 475/5/5
f 481/5/5 476/5/5 480/5/5
f 483/5/5 478/5/5 477/5/5
f 484/5/5 482/5/5 481/5/5
f 485/5/5 483/5/5 477/5/5
f 486/5/5 482/5/5 484/5/5
f 487/5/5 485/5/5 477/5/5
f 488/5/5 485/5/5 487/5/5
f 491/5/5 482/5/5 486/5/5
f 492/5/5 482/5/5 491/5/5
f 493/5/5 489/5/5 488/5/5
f 494/5/5 489/5/5 493/5/5
f 495/5/5 491/5/5 490/5/5
f 496/5/5 491/5/5 495/5/5
f 499/1/5 498/1/5 497/1/5
f 500/1/5 498/1/5 499/1/5
f 501/5/5 500/5/5 499/5/5
f 504/5/5 500/5/5 501/5/5
f 505/5/5 500/5/5 504/5/5
f 506/5/5 503/5/5 502/5/5
f 507/5/5 506/5/5 502/5/5
f 508/5/5 506/5/5 507/5/5
f 511/5/5 510/5/5 509/5/5
f 512/5/5 510/5/5 511/5/5
f 517/2/5 514/2/5 513/2/5
f 518/2/5 514/2/5 517/2/5
f 519/2/5 516/2/5 515/2/5
f 520/2/5 516/2/5 519/2/5
f 525/2/5 522/2/5 521/2/5
f 526/2/5 524/2/5 523/2/5
f 527/2/5 525/2/5 521/2/5
f 527/2/5 526/2/5 525/2/5
f 528/2/5 524/2/5 526/2/5
f 528/2/5 526/2/5 527/2/5
f 533/5/5 530/5/5 529/5/5
f 534/5/5 532/5/5 531/5/5
f 535/5/5 533/5/5 529/5/5
f 536/5/5 533/5/5 535/5/5
f 537/5/5 532/5/5 534/5/5
f 538/5/5 532/5/5 537/5/5
f 539/5/5 537/5/5 536/5/5
f 540/5/5 537/5/5 539/5/5
f 549/5/5 542/5/5 541/5/5
f 549/5/5 548/5/5 547/5/5
f 549/5/5 547/5/5 546/5/5
f 549/5/5 546/5/5 545/5/5
f 549/5/5 545/5/5 544/5/5
f 549/5/5 544/5/5 543/5/5
f 549/5/5 543/5/5 542/5/5
f 550/5/5 548/5/5 549/5/5
f 551/5/5 548/5/5 550/5/5
f 552/5/5 548/5/5 551/5/5
f 559/5/5 554/5/5 553/5/5
f 560/5/5 554/5/5 559/5/5
f 561/5/5 556/5/5 555/5/5
f 562/5/5 556/5/5 561/5/5
f 563/5/5 558/5/5 557/5/5
f 564/5/5 558/5/5 563/5/5
f 565/2/6 566/2/6 567/2/6
f 567/2/6 566/2/6 568/2/6
f 569/2/6 570/2/6 571/2/6
f 571/2/6 570/2/6 572/2/6
f 573/5/6 574/5/6 575/5/6
f 575/5/6 574/5/6 576/5/6
f 577/1/6 578/1/6 579/1/6
f 579/1/6 578/1/6 580/1/6
f 581/5/6 582/5/6 584/5/6
f 584/5/6 582/5/6 585/5/6
f 579/5/6 580/5/6 586/5/6
f 583/5/6 584/5/6 588/5/6
f 588/5/6 584/5/6 589/5/6
f 585/5/6 586/5/6 590/5/6
f 586/5/6 580/5/6 591/5/6
f 590/5/6 586/5/6 591/5/6
f 587/5/6 588/5/6 592/5/6
f 591/5/6 580/5/6 595/5/6
f 595/5/6 580/5/6 596/5/6
f 592/5/6 593/5/6 597/5/6
f 587/5/6 592/5/6 597/5/6
f 597/5/6 593/5/6 598/5/6
f 594/5/6 595/5/6 599/5/6
f 599/5/6 595/5/6 600/5/6
f 598/5/6 599/5/6 601/5/6
f 601/5/6 599/5/6 602/5/6
f 587/5/6 597/5/6 603/5/6
f 603/5/6 597/5/6 604/5/6
f 605/6/6 606/6/6 607/6/6
f 607/6/6 606/6/6 608/6/6
f 609/5/6 610/5/6 615/5/6
f 615/5/6 610/5/6 616/5/6
f 611/5/6 612/5/6 617/5/6
f 617/5/6 612/5/6 618/5/6
f 613/5/6 614/5/6 619/5/6
f 619/5/6 614/5/6 620/5/6
f 621/5/6 622/5/6 624/5/6
f 624/5/6 622/5/6 625/5/6
f 623/5/6 624/5/6 627/5/6
f 627/5/6 624/5/6 628/5/6
f 625/5/6 626/5/6 629/5/6
f 629/5/6 626/5/6 630/5/6
f 628/5/6 629/5/6 631/5/6
f 631/5/6 629/5/6 632/5/6
f 633/5/6 634/5/6 635/5/6
f 635/5/6 634/5/6 636/5/6
