# MagicaVoxel @ Ephtracy

# group
o 

# material
mtllib Knight-1.mtl
usemtl palette

# normals
vn -1 0 0
vn 1 0 0
vn 0 0 1
vn 0 0 -1
vn 0 -1 0
vn 0 1 0

# texcoords
vt 0.970703 0.5
vt 0.974609 0.5
vt 0.978516 0.5
vt 0.982422 0.5
vt 0.990234 0.5
vt 0.994141 0.5

# verts
v 6.7 1.1 0.4
v 6.7 1.1 -0.1
v 6.7 1.5 0.4
v 6.7 1.5 -0.1
v 6.8 0.7 0.3
v 6.8 0.7 0
v 6.8 0.8 0.5
v 6.8 0.8 0.3
v 6.8 0.9 0.5
v 6.8 0.9 0.2
v 6.8 0.9 0.1
v 6.8 0.9 0
v 6.8 1 0.5
v 6.8 1 0.4
v 6.8 1 0.3
v 6.8 1 0.2
v 6.8 1 0.1
v 6.8 1 -0.1
v 6.8 1.1 0.4
v 6.8 1.1 0.3
v 6.8 1.1 -0.1
v 6.8 1.1 -0.2
v 6.8 1.5 0.5
v 6.8 1.5 0.4
v 6.8 1.5 -0.1
v 6.8 1.5 -0.2
v 6.8 1.6 0.4
v 6.8 1.6 -0.1
v 6.9 0 0.2
v 6.9 0 0.1
v 6.9 0.1 0.3
v 6.9 0.1 0.2
v 6.9 0.3 0.3
v 6.9 0.3 0.2
v 6.9 0.4 0.3
v 6.9 0.4 0.2
v 6.9 0.4 0.1
v 6.9 0.4 0
v 6.9 0.7 0.4
v 6.9 0.7 0.3
v 6.9 0.7 0.2
v 6.9 0.7 0.1
v 6.9 0.7 0
v 6.9 0.7 -0.1
v 6.9 0.8 0.6
v 6.9 0.8 0.5
v 6.9 0.8 0.4
v 6.9 0.8 0.3
v 6.9 0.9 0.6
v 6.9 0.9 0.5
v 6.9 0.9 0.3
v 6.9 0.9 0.2
v 6.9 0.9 0.1
v 6.9 0.9 0
v 6.9 0.9 -0.1
v 6.9 1 0.3
v 6.9 1 0.2
v 6.9 1 0.1
v 6.9 1 0
v 7 0.5 0.4
v 7 0.5 0.3
v 7 0.5 0
v 7 0.5 -0.1
v 7 0.7 0.4
v 7 0.7 0.3
v 7 0.7 0
v 7 0.7 -0.1
v 7 0.8 0.7
v 7 0.8 0.6
v 7 0.9 0.7
v 7 0.9 0.6
v 7 1.1 0.5
v 7 1.1 0.4
v 7 1.3 0.4
v 7 1.4 0.5
v 7 1.4 0.4
v 7.1 0.7 0.7
v 7.1 0.7 0.6
v 7.1 0.8 0.7
v 7.1 0.8 0.6
v 7.1 0.9 0.8
v 7.1 0.9 0.7
v 7.1 0.9 0.6
v 7.1 1 0.8
v 7.1 1 0.6
v 7.1 1.6 0.8
v 7.1 1.6 0.7
v 7.1 1.7 0.7
v 7.1 1.7 0.6
v 7.2 1.1 0.5
v 7.2 1.1 0.4
v 7.2 1.3 0.4
v 7.2 1.4 0.5
v 7.2 1.4 0.4
v 7.3 0 0.2
v 7.3 0 0.1
v 7.3 0.1 0.3
v 7.3 0.1 0.2
v 7.3 0.3 0.3
v 7.3 0.3 0.2
v 7.3 0.4 0.2
v 7.3 0.4 0.1
v 7.3 0.8 0.6
v 7.3 0.8 0.5
v 7.3 0.9 0.6
v 7.3 0.9 0.5
v 7.4 0.8 0.5
v 7.4 0.8 0.4
v 7.4 0.9 0.5
v 7.4 0.9 0.4
v 7.4 1.1 0.5
v 7.4 1.1 0.4
v 7.4 1.3 0.4
v 7.4 1.4 0.5
v 7.4 1.4 0.4
v 7.5 1.1 0.4
v 7.5 1.1 0.3
v 7.5 1.3 0.4
v 7.5 1.3 0.3
v 6.8 1.1 0.4
v 6.8 1.1 0.3
v 6.8 1.3 0.4
v 6.8 1.3 0.3
v 6.9 0.8 0.5
v 6.9 0.8 0.4
v 6.9 0.9 0.5
v 6.9 0.9 0.4
v 6.9 1.1 0.5
v 6.9 1.1 0.4
v 6.9 1.3 0.4
v 6.9 1.4 0.5
v 6.9 1.4 0.4
v 7 0 0.2
v 7 0 0.1
v 7 0.1 0.3
v 7 0.1 0.2
v 7 0.3 0.3
v 7 0.3 0.2
v 7 0.4 0.2
v 7 0.4 0.1
v 7 0.8 0.6
v 7 0.8 0.5
v 7 0.9 0.6
v 7 0.9 0.5
v 7.1 1.1 0.5
v 7.1 1.1 0.4
v 7.1 1.3 0.4
v 7.1 1.4 0.5
v 7.1 1.4 0.4
v 7.2 0.7 0.7
v 7.2 0.7 0.6
v 7.2 0.8 0.7
v 7.2 0.8 0.6
v 7.2 0.9 0.8
v 7.2 0.9 0.7
v 7.2 0.9 0.6
v 7.2 1 0.8
v 7.2 1 0.6
v 7.2 1.6 0.8
v 7.2 1.6 0.7
v 7.2 1.7 0.7
v 7.2 1.7 0.6
v 7.3 0.5 0.4
v 7.3 0.5 0.3
v 7.3 0.5 0
v 7.3 0.5 -0.1
v 7.3 0.7 0.4
v 7.3 0.7 0.3
v 7.3 0.7 0
v 7.3 0.7 -0.1
v 7.3 0.8 0.7
v 7.3 0.8 0.6
v 7.3 0.9 0.7
v 7.3 0.9 0.6
v 7.3 1.1 0.5
v 7.3 1.1 0.4
v 7.3 1.3 0.4
v 7.3 1.4 0.5
v 7.3 1.4 0.4
v 7.4 0 0.2
v 7.4 0 0.1
v 7.4 0.1 0.3
v 7.4 0.1 0.2
v 7.4 0.3 0.3
v 7.4 0.3 0.2
v 7.4 0.4 0.3
v 7.4 0.4 0.2
v 7.4 0.4 0.1
v 7.4 0.4 0
v 7.4 0.7 0.4
v 7.4 0.7 0.3
v 7.4 0.7 0.2
v 7.4 0.7 0.1
v 7.4 0.7 0
v 7.4 0.7 -0.1
v 7.4 0.8 0.6
v 7.4 0.8 0.5
v 7.4 0.8 0.4
v 7.4 0.8 0.3
v 7.4 0.9 0.6
v 7.4 0.9 0.5
v 7.4 0.9 0.3
v 7.4 0.9 0.2
v 7.4 0.9 0.1
v 7.4 0.9 0
v 7.4 0.9 -0.1
v 7.4 1 0.3
v 7.4 1 0.2
v 7.4 1 0.1
v 7.4 1 0
v 7.5 0.7 0.3
v 7.5 0.7 0
v 7.5 0.8 0.5
v 7.5 0.8 0.3
v 7.5 0.9 0.5
v 7.5 0.9 0.2
v 7.5 0.9 0.1
v 7.5 0.9 0
v 7.5 1 0.5
v 7.5 1 0.4
v 7.5 1 0.3
v 7.5 1 0.2
v 7.5 1 0.1
v 7.5 1 -0.1
v 7.5 1.1 0.4
v 7.5 1.1 0.3
v 7.5 1.1 -0.1
v 7.5 1.1 -0.2
v 7.5 1.5 0.5
v 7.5 1.5 0.4
v 7.5 1.5 -0.1
v 7.5 1.5 -0.2
v 7.5 1.6 0.4
v 7.5 1.6 -0.1
v 7.6 1.1 0.4
v 7.6 1.1 -0.1
v 7.6 1.5 0.4
v 7.6 1.5 -0.1
v 7.1 0.9 0.8
v 7.1 1 0.8
v 7.1 1.6 0.8
v 7.2 0.9 0.8
v 7.2 1 0.8
v 7.2 1.6 0.8
v 7 0.8 0.7
v 7 0.9 0.7
v 7.1 0.7 0.7
v 7.1 0.8 0.7
v 7.1 0.9 0.7
v 7.1 1.6 0.7
v 7.1 1.7 0.7
v 7.2 0.7 0.7
v 7.2 0.8 0.7
v 7.2 0.9 0.7
v 7.2 1.6 0.7
v 7.2 1.7 0.7
v 7.3 0.8 0.7
v 7.3 0.9 0.7
v 6.9 0.8 0.6
v 6.9 0.9 0.6
v 7 0.8 0.6
v 7 0.9 0.6
v 7.3 0.8 0.6
v 7.3 0.9 0.6
v 7.4 0.8 0.6
v 7.4 0.9 0.6
v 6.8 0.8 0.5
v 6.8 0.9 0.5
v 6.8 1 0.5
v 6.8 1.5 0.5
v 6.9 0.8 0.5
v 6.9 0.9 0.5
v 6.9 1.1 0.5
v 6.9 1.4 0.5
v 7 1.1 0.5
v 7 1.4 0.5
v 7.1 1.1 0.5
v 7.1 1.4 0.5
v 7.2 1.1 0.5
v 7.2 1.4 0.5
v 7.3 1.1 0.5
v 7.3 1.4 0.5
v 7.4 0.8 0.5
v 7.4 0.9 0.5
v 7.4 1.1 0.5
v 7.4 1.4 0.5
v 7.5 0.8 0.5
v 7.5 0.9 0.5
v 7.5 1 0.5
v 7.5 1.5 0.5
v 6.7 1.1 0.4
v 6.7 1.5 0.4
v 6.8 1.1 0.4
v 6.8 1.5 0.4
v 6.8 1.6 0.4
v 6.9 0.7 0.4
v 6.9 0.8 0.4
v 6.9 0.9 0.4
v 6.9 1.3 0.4
v 6.9 1.4 0.4
v 7 0.5 0.4
v 7 0.7 0.4
v 7 1.3 0.4
v 7 1.4 0.4
v 7.1 1.3 0.4
v 7.1 1.4 0.4
v 7.2 1.3 0.4
v 7.2 1.4 0.4
v 7.3 0.5 0.4
v 7.3 0.7 0.4
v 7.3 1.3 0.4
v 7.3 1.4 0.4
v 7.4 0.7 0.4
v 7.4 0.8 0.4
v 7.4 0.9 0.4
v 7.4 1.3 0.4
v 7.4 1.4 0.4
v 7.5 1.1 0.4
v 7.5 1.5 0.4
v 7.5 1.6 0.4
v 7.6 1.1 0.4
v 7.6 1.5 0.4
v 6.8 0.7 0.3
v 6.8 0.8 0.3
v 6.8 1 0.3
v 6.8 1.1 0.3
v 6.8 1.3 0.3
v 6.9 0.1 0.3
v 6.9 0.3 0.3
v 6.9 0.4 0.3
v 6.9 0.7 0.3
v 6.9 0.8 0.3
v 6.9 0.9 0.3
v 6.9 1 0.3
v 6.9 1.3 0.3
v 7 0.1 0.3
v 7 0.3 0.3
v 7 0.5 0.3
v 7 0.7 0.3
v 7.3 0.1 0.3
v 7.3 0.3 0.3
v 7.3 0.5 0.3
v 7.3 0.7 0.3
v 7.4 0.1 0.3
v 7.4 0.3 0.3
v 7.4 0.4 0.3
v 7.4 0.7 0.3
v 7.4 0.8 0.3
v 7.4 0.9 0.3
v 7.4 1 0.3
v 7.4 1.3 0.3
v 7.5 0.7 0.3
v 7.5 0.8 0.3
v 7.5 1 0.3
v 7.5 1.1 0.3
v 7.5 1.3 0.3
v 6.8 0.9 0.2
v 6.8 1 0.2
v 6.9 0 0.2
v 6.9 0.1 0.2
v 6.9 0.3 0.2
v 6.9 0.4 0.2
v 6.9 0.9 0.2
v 6.9 1 0.2
v 7 0 0.2
v 7 0.1 0.2
v 7 0.3 0.2
v 7 0.4 0.2
v 7.3 0 0.2
v 7.3 0.1 0.2
v 7.3 0.3 0.2
v 7.3 0.4 0.2
v 7.4 0 0.2
v 7.4 0.1 0.2
v 7.4 0.3 0.2
v 7.4 0.4 0.2
v 7.4 0.9 0.2
v 7.4 1 0.2
v 7.5 0.9 0.2
v 7.5 1 0.2
v 7 0.8 0.6
v 7 0.9 0.6
v 7.1 0.7 0.6
v 7.1 0.8 0.6
v 7.1 0.9 0.6
v 7.1 1 0.6
v 7.1 1.7 0.6
v 7.2 0.7 0.6
v 7.2 0.8 0.6
v 7.2 0.9 0.6
v 7.2 1 0.6
v 7.2 1.7 0.6
v 7.3 0.8 0.6
v 7.3 0.9 0.6
v 6.9 0.8 0.5
v 6.9 0.9 0.5
v 7 0.8 0.5
v 7 0.9 0.5
v 7.3 0.8 0.5
v 7.3 0.9 0.5
v 7.4 0.8 0.5
v 7.4 0.9 0.5
v 6.8 1 0.4
v 6.8 1.1 0.4
v 6.8 1.3 0.4
v 6.9 1.1 0.4
v 6.9 1.3 0.4
v 7 1.1 0.4
v 7 1.3 0.4
v 7.1 1.1 0.4
v 7.1 1.3 0.4
v 7.2 1.1 0.4
v 7.2 1.3 0.4
v 7.3 1.1 0.4
v 7.3 1.3 0.4
v 7.4 1.1 0.4
v 7.4 1.3 0.4
v 7.5 1 0.4
v 7.5 1.1 0.4
v 7.5 1.3 0.4
v 6.8 0.9 0.1
v 6.8 1 0.1
v 6.9 0 0.1
v 6.9 0.4 0.1
v 6.9 0.9 0.1
v 6.9 1 0.1
v 7 0 0.1
v 7 0.4 0.1
v 7.3 0 0.1
v 7.3 0.4 0.1
v 7.4 0 0.1
v 7.4 0.4 0.1
v 7.4 0.9 0.1
v 7.4 1 0.1
v 7.5 0.9 0.1
v 7.5 1 0.1
v 6.8 0.7 0
v 6.8 0.9 0
v 6.9 0.4 0
v 6.9 0.7 0
v 6.9 0.9 0
v 6.9 1 0
v 7 0.5 0
v 7 0.7 0
v 7.3 0.5 0
v 7.3 0.7 0
v 7.4 0.4 0
v 7.4 0.7 0
v 7.4 0.9 0
v 7.4 1 0
v 7.5 0.7 0
v 7.5 0.9 0
v 6.7 1.1 -0.1
v 6.7 1.5 -0.1
v 6.8 1 -0.1
v 6.8 1.1 -0.1
v 6.8 1.5 -0.1
v 6.8 1.6 -0.1
v 6.9 0.7 -0.1
v 6.9 0.9 -0.1
v 7 0.5 -0.1
v 7 0.7 -0.1
v 7.3 0.5 -0.1
v 7.3 0.7 -0.1
v 7.4 0.7 -0.1
v 7.4 0.9 -0.1
v 7.5 1 -0.1
v 7.5 1.1 -0.1
v 7.5 1.5 -0.1
v 7.5 1.6 -0.1
v 7.6 1.1 -0.1
v 7.6 1.5 -0.1
v 6.8 1.1 -0.2
v 6.8 1.5 -0.2
v 7.5 1.1 -0.2
v 7.5 1.5 -0.2
v 6.9 0 0.2
v 7 0 0.2
v 7.3 0 0.2
v 7.4 0 0.2
v 6.9 0 0.1
v 7 0 0.1
v 7.3 0 0.1
v 7.4 0 0.1
v 6.9 0.1 0.3
v 7 0.1 0.3
v 7.3 0.1 0.3
v 7.4 0.1 0.3
v 6.9 0.1 0.2
v 7 0.1 0.2
v 7.3 0.1 0.2
v 7.4 0.1 0.2
v 6.9 0.4 0.3
v 7.4 0.4 0.3
v 6.9 0.4 0.2
v 7 0.4 0.2
v 7.3 0.4 0.2
v 7.4 0.4 0.2
v 6.9 0.4 0.1
v 7 0.4 0.1
v 7.3 0.4 0.1
v 7.4 0.4 0.1
v 6.9 0.4 0
v 7.4 0.4 0
v 7 0.5 0.4
v 7.3 0.5 0.4
v 7 0.5 0.3
v 7.3 0.5 0.3
v 7 0.5 0
v 7.3 0.5 0
v 7 0.5 -0.1
v 7.3 0.5 -0.1
v 7.1 0.7 0.7
v 7.2 0.7 0.7
v 7.1 0.7 0.6
v 7.2 0.7 0.6
v 6.9 0.7 0.4
v 7 0.7 0.4
v 7.3 0.7 0.4
v 7.4 0.7 0.4
v 6.8 0.7 0.3
v 6.9 0.7 0.3
v 7 0.7 0.3
v 7.3 0.7 0.3
v 7.4 0.7 0.3
v 7.5 0.7 0.3
v 6.9 0.7 0.2
v 7.4 0.7 0.2
v 6.9 0.7 0.1
v 7.4 0.7 0.1
v 6.8 0.7 0
v 6.9 0.7 0
v 7 0.7 0
v 7.3 0.7 0
v 7.4 0.7 0
v 7.5 0.7 0
v 6.9 0.7 -0.1
v 7 0.7 -0.1
v 7.3 0.7 -0.1
v 7.4 0.7 -0.1
v 7 0.8 0.7
v 7.1 0.8 0.7
v 7.2 0.8 0.7
v 7.3 0.8 0.7
v 6.9 0.8 0.6
v 7 0.8 0.6
v 7.1 0.8 0.6
v 7.2 0.8 0.6
v 7.3 0.8 0.6
v 7.4 0.8 0.6
v 6.8 0.8 0.5
v 6.9 0.8 0.5
v 7 0.8 0.5
v 7.3 0.8 0.5
v 7.4 0.8 0.5
v 7.5 0.8 0.5
v 6.9 0.8 0.4
v 7.4 0.8 0.4
v 6.8 0.8 0.3
v 6.9 0.8 0.3
v 7.4 0.8 0.3
v 7.5 0.8 0.3
v 7.1 0.9 0.8
v 7.2 0.9 0.8
v 7.1 0.9 0.7
v 7.2 0.9 0.7
v 6.8 1 0.5
v 7.5 1 0.5
v 6.8 1 0.4
v 7.5 1 0.4
v 6.8 1 0.3
v 6.9 1 0.3
v 7.4 1 0.3
v 7.5 1 0.3
v 6.8 1 0.2
v 6.9 1 0.2
v 7.4 1 0.2
v 7.5 1 0.2
v 6.8 1 0.1
v 6.9 1 0.1
v 7.4 1 0.1
v 7.5 1 0.1
v 6.9 1 0
v 7.4 1 0
v 6.8 1 -0.1
v 7.5 1 -0.1
v 6.7 1.1 0.4
v 6.8 1.1 0.4
v 7.5 1.1 0.4
v 7.6 1.1 0.4
v 6.8 1.1 0.3
v 7.5 1.1 0.3
v 6.7 1.1 -0.1
v 6.8 1.1 -0.1
v 7.5 1.1 -0.1
v 7.6 1.1 -0.1
v 6.8 1.1 -0.2
v 7.5 1.1 -0.2
v 6.8 1.3 0.4
v 6.9 1.3 0.4
v 7 1.3 0.4
v 7.1 1.3 0.4
v 7.2 1.3 0.4
v 7.3 1.3 0.4
v 7.4 1.3 0.4
v 7.5 1.3 0.4
v 6.8 1.3 0.3
v 6.9 1.3 0.3
v 7.4 1.3 0.3
v 7.5 1.3 0.3
v 6.9 1.4 0.5
v 7 1.4 0.5
v 7.1 1.4 0.5
v 7.2 1.4 0.5
v 7.3 1.4 0.5
v 7.4 1.4 0.5
v 6.9 1.4 0.4
v 7 1.4 0.4
v 7.1 1.4 0.4
v 7.2 1.4 0.4
v 7.3 1.4 0.4
v 7.4 1.4 0.4
v 6.9 0.3 0.3
v 7 0.3 0.3
v 7.3 0.3 0.3
v 7.4 0.3 0.3
v 6.9 0.3 0.2
v 7 0.3 0.2
v 7.3 0.3 0.2
v 7.4 0.3 0.2
v 7 0.9 0.7
v 7.1 0.9 0.7
v 7.2 0.9 0.7
v 7.3 0.9 0.7
v 6.9 0.9 0.6
v 7 0.9 0.6
v 7.1 0.9 0.6
v 7.2 0.9 0.6
v 7.3 0.9 0.6
v 7.4 0.9 0.6
v 6.8 0.9 0.5
v 6.9 0.9 0.5
v 7 0.9 0.5
v 7.3 0.9 0.5
v 7.4 0.9 0.5
v 7.5 0.9 0.5
v 6.9 0.9 0.4
v 7.4 0.9 0.4
v 6.9 0.9 0.3
v 7.4 0.9 0.3
v 6.8 0.9 0.2
v 6.9 0.9 0.2
v 7.4 0.9 0.2
v 7.5 0.9 0.2
v 6.8 0.9 0.1
v 6.9 0.9 0.1
v 7.4 0.9 0.1
v 7.5 0.9 0.1
v 6.8 0.9 0
v 6.9 0.9 0
v 7.4 0.9 0
v 7.5 0.9 0
v 6.9 0.9 -0.1
v 7.4 0.9 -0.1
v 6.9 1.1 0.5
v 7 1.1 0.5
v 7.1 1.1 0.5
v 7.2 1.1 0.5
v 7.3 1.1 0.5
v 7.4 1.1 0.5
v 6.9 1.1 0.4
v 7 1.1 0.4
v 7.1 1.1 0.4
v 7.2 1.1 0.4
v 7.3 1.1 0.4
v 7.4 1.1 0.4
v 6.8 1.5 0.5
v 7.5 1.5 0.5
v 6.7 1.5 0.4
v 6.8 1.5 0.4
v 7.5 1.5 0.4
v 7.6 1.5 0.4
v 6.7 1.5 -0.1
v 6.8 1.5 -0.1
v 7.5 1.5 -0.1
v 7.6 1.5 -0.1
v 6.8 1.5 -0.2
v 7.5 1.5 -0.2
v 7.1 1.6 0.8
v 7.2 1.6 0.8
v 7.1 1.6 0.7
v 7.2 1.6 0.7
v 6.8 1.6 0.4
v 7.5 1.6 0.4
v 6.8 1.6 -0.1
v 7.5 1.6 -0.1
v 7.1 1.7 0.7
v 7.2 1.7 0.7
v 7.1 1.7 0.6
v 7.2 1.7 0.6

# faces
f 3/5/1 2/5/1 1/5/1
f 4/5/1 2/5/1 3/5/1
f 8/5/1 6/5/1 5/5/1
f 9/5/1 8/5/1 7/5/1
f 10/5/1 6/5/1 8/5/1
f 10/5/1 8/5/1 9/5/1
f 11/5/1 6/5/1 10/5/1
f 12/5/1 6/5/1 11/5/1
f 16/2/1 11/2/1 10/2/1
f 17/2/1 11/2/1 16/2/1
f 19/5/1 14/5/1 13/5/1
f 20/2/1 17/2/1 16/2/1
f 20/2/1 18/2/1 17/2/1
f 20/2/1 16/2/1 15/2/1
f 21/2/1 18/2/1 20/2/1
f 23/5/1 19/5/1 13/5/1
f 24/5/1 19/5/1 23/5/1
f 25/5/1 22/5/1 21/5/1
f 26/5/1 22/5/1 25/5/1
f 27/5/1 25/5/1 24/5/1
f 28/5/1 25/5/1 27/5/1
f 32/2/1 30/2/1 29/2/1
f 33/5/1 32/5/1 31/5/1
f 34/2/1 30/2/1 32/2/1
f 34/5/1 32/5/1 33/5/1
f 36/2/1 30/2/1 34/2/1
f 37/2/1 30/2/1 36/2/1
f 40/5/1 36/5/1 35/5/1
f 41/2/1 37/2/1 36/2/1
f 41/5/1 36/5/1 40/5/1
f 42/5/1 38/5/1 37/5/1
f 42/2/1 37/2/1 41/2/1
f 43/5/1 38/5/1 42/5/1
f 47/5/1 40/5/1 39/5/1
f 48/5/1 40/5/1 47/5/1
f 49/5/1 46/5/1 45/5/1
f 50/5/1 46/5/1 49/5/1
f 54/5/1 44/5/1 43/5/1
f 55/5/1 44/5/1 54/5/1
f 56/2/1 52/2/1 51/2/1
f 57/2/1 52/2/1 56/2/1
f 58/2/1 54/2/1 53/2/1
f 59/2/1 54/2/1 58/2/1
f 64/5/1 61/5/1 60/5/1
f 65/5/1 61/5/1 64/5/1
f 66/5/1 63/5/1 62/5/1
f 67/5/1 63/5/1 66/5/1
f 70/1/1 69/1/1 68/1/1
f 71/1/1 69/1/1 70/1/1
f 74/5/1 73/5/1 72/5/1
f 75/5/1 74/5/1 72/5/1
f 76/5/1 74/5/1 75/5/1
f 79/6/1 78/6/1 77/6/1
f 80/6/1 78/6/1 79/6/1
f 84/6/1 82/6/1 81/6/1
f 84/6/1 83/6/1 82/6/1
f 85/6/1 83/6/1 84/6/1
f 86/5/1 85/5/1 84/5/1
f 87/5/1 85/5/1 86/5/1
f 88/5/1 85/5/1 87/5/1
f 89/5/1 85/5/1 88/5/1
f 92/5/1 91/5/1 90/5/1
f 93/5/1 92/5/1 90/5/1
f 94/5/1 92/5/1 93/5/1
f 98/2/1 96/2/1 95/2/1
f 99/5/1 98/5/1 97/5/1
f 100/2/1 96/2/1 98/2/1
f 100/5/1 98/5/1 99/5/1
f 101/2/1 96/2/1 100/2/1
f 102/2/1 96/2/1 101/2/1
f 105/5/1 104/5/1 103/5/1
f 106/5/1 104/5/1 105/5/1
f 109/5/1 108/5/1 107/5/1
f 110/5/1 108/5/1 109/5/1
f 113/5/1 112/5/1 111/5/1
f 114/5/1 113/5/1 111/5/1
f 115/5/1 113/5/1 114/5/1
f 118/5/1 117/5/1 116/5/1
f 119/5/1 117/5/1 118/5/1
f 120/5/2 121/5/2 122/5/2
f 122/5/2 121/5/2 123/5/2
f 124/5/2 125/5/2 126/5/2
f 126/5/2 125/5/2 127/5/2
f 128/5/2 129/5/2 130/5/2
f 128/5/2 130/5/2 131/5/2
f 131/5/2 130/5/2 132/5/2
f 133/2/2 134/2/2 136/2/2
f 135/5/2 136/5/2 137/5/2
f 136/2/2 134/2/2 138/2/2
f 137/5/2 136/5/2 138/5/2
f 138/2/2 134/2/2 139/2/2
f 139/2/2 134/2/2 140/2/2
f 141/5/2 142/5/2 143/5/2
f 143/5/2 142/5/2 144/5/2
f 145/5/2 146/5/2 147/5/2
f 145/5/2 147/5/2 148/5/2
f 148/5/2 147/5/2 149/5/2
f 150/6/2 151/6/2 152/6/2
f 152/6/2 151/6/2 153/6/2
f 154/6/2 155/6/2 157/6/2
f 155/6/2 156/6/2 157/6/2
f 157/6/2 156/6/2 158/6/2
f 157/5/2 158/5/2 159/5/2
f 159/5/2 158/5/2 160/5/2
f 160/5/2 158/5/2 161/5/2
f 161/5/2 158/5/2 162/5/2
f 163/5/2 164/5/2 167/5/2
f 167/5/2 164/5/2 168/5/2
f 165/5/2 166/5/2 169/5/2
f 169/5/2 166/5/2 170/5/2
f 171/1/2 172/1/2 173/1/2
f 173/1/2 172/1/2 174/1/2
f 175/5/2 176/5/2 177/5/2
f 175/5/2 177/5/2 178/5/2
f 178/5/2 177/5/2 179/5/2
f 180/2/2 181/2/2 183/2/2
f 182/5/2 183/5/2 184/5/2
f 183/2/2 181/2/2 185/2/2
f 184/5/2 183/5/2 185/5/2
f 185/2/2 181/2/2 187/2/2
f 187/2/2 181/2/2 188/2/2
f 186/5/2 187/5/2 191/5/2
f 187/2/2 188/2/2 192/2/2
f 191/5/2 187/5/2 192/5/2
f 188/5/2 189/5/2 193/5/2
f 192/2/2 188/2/2 193/2/2
f 193/5/2 189/5/2 194/5/2
f 190/5/2 191/5/2 198/5/2
f 198/5/2 191/5/2 199/5/2
f 196/5/2 197/5/2 200/5/2
f 200/5/2 197/5/2 201/5/2
f 194/5/2 195/5/2 205/5/2
f 205/5/2 195/5/2 206/5/2
f 202/2/2 203/2/2 207/2/2
f 207/2/2 203/2/2 208/2/2
f 204/2/2 205/2/2 209/2/2
f 209/2/2 205/2/2 210/2/2
f 211/5/2 212/5/2 214/5/2
f 213/5/2 214/5/2 215/5/2
f 214/5/2 212/5/2 216/5/2
f 215/5/2 214/5/2 216/5/2
f 216/5/2 212/5/2 217/5/2
f 217/5/2 212/5/2 218/5/2
f 216/2/2 217/2/2 222/2/2
f 222/2/2 217/2/2 223/2/2
f 219/5/2 220/5/2 225/5/2
f 222/2/2 223/2/2 226/2/2
f 223/2/2 224/2/2 226/2/2
f 221/2/2 222/2/2 226/2/2
f 226/2/2 224/2/2 227/2/2
f 219/5/2 225/5/2 229/5/2
f 229/5/2 225/5/2 230/5/2
f 227/5/2 228/5/2 231/5/2
f 231/5/2 228/5/2 232/5/2
f 230/5/2 231/5/2 233/5/2
f 233/5/2 231/5/2 234/5/2
f 235/5/2 236/5/2 237/5/2
f 237/5/2 236/5/2 238/5/2
f 242/6/3 240/6/3 239/6/3
f 243/5/3 241/5/3 240/5/3
f 243/6/3 240/6/3 242/6/3
f 244/5/3 241/5/3 243/5/3
f 248/1/3 246/1/3 245/1/3
f 249/1/3 246/1/3 248/1/3
f 252/6/3 248/6/3 247/6/3
f 252/6/3 249/6/3 248/6/3
f 253/6/3 249/6/3 252/6/3
f 254/6/3 249/6/3 253/6/3
f 255/5/3 251/5/3 250/5/3
f 256/5/3 251/5/3 255/5/3
f 257/1/3 254/1/3 253/1/3
f 258/1/3 254/1/3 257/1/3
f 261/5/3 260/5/3 259/5/3
f 262/5/3 260/5/3 261/5/3
f 265/5/3 264/5/3 263/5/3
f 266/5/3 264/5/3 265/5/3
f 271/5/3 268/5/3 267/5/3
f 272/5/3 268/5/3 271/5/3
f 273/5/3 270/5/3 269/5/3
f 274/5/3 270/5/3 273/5/3
f 275/5/3 273/5/3 269/5/3
f 276/5/3 270/5/3 274/5/3
f 277/5/3 275/5/3 269/5/3
f 277/5/3 276/5/3 275/5/3
f 278/5/3 270/5/3 276/5/3
f 278/5/3 276/5/3 277/5/3
f 279/5/3 277/5/3 269/5/3
f 280/5/3 270/5/3 278/5/3
f 281/5/3 279/5/3 269/5/3
f 281/5/3 280/5/3 279/5/3
f 282/5/3 270/5/3 280/5/3
f 282/5/3 280/5/3 281/5/3
f 285/5/3 281/5/3 269/5/3
f 286/5/3 270/5/3 282/5/3
f 287/5/3 284/5/3 283/5/3
f 288/5/3 284/5/3 287/5/3
f 289/5/3 286/5/3 285/5/3
f 289/5/3 285/5/3 269/5/3
f 290/5/3 270/5/3 286/5/3
f 290/5/3 286/5/3 289/5/3
f 293/5/3 292/5/3 291/5/3
f 294/5/3 292/5/3 293/5/3
f 302/5/3 297/5/3 296/5/3
f 302/5/3 298/5/3 297/5/3
f 303/5/3 300/5/3 299/5/3
f 304/5/3 300/5/3 303/5/3
f 307/5/3 306/5/3 305/5/3
f 308/5/3 306/5/3 307/5/3
f 309/5/3 302/5/3 301/5/3
f 310/5/3 298/5/3 302/5/3
f 310/5/3 302/5/3 309/5/3
f 313/5/3 298/5/3 310/5/3
f 314/5/3 298/5/3 313/5/3
f 315/5/3 298/5/3 314/5/3
f 316/5/3 312/5/3 311/5/3
f 317/5/3 312/5/3 316/5/3
f 319/5/3 295/5/3 294/5/3
f 320/5/3 295/5/3 319/5/3
f 321/5/3 319/5/3 318/5/3
f 322/5/3 319/5/3 321/5/3
f 331/5/3 324/5/3 323/5/3
f 332/5/3 324/5/3 331/5/3
f 334/2/3 326/2/3 325/2/3
f 334/2/3 327/2/3 326/2/3
f 335/2/3 327/2/3 334/2/3
f 336/5/3 329/5/3 328/5/3
f 337/5/3 329/5/3 336/5/3
f 338/5/3 331/5/3 330/5/3
f 339/5/3 331/5/3 338/5/3
f 342/5/3 338/5/3 330/5/3
f 344/5/3 341/5/3 340/5/3
f 345/5/3 341/5/3 344/5/3
f 346/5/3 343/5/3 342/5/3
f 346/5/3 342/5/3 330/5/3
f 347/5/3 343/5/3 346/5/3
f 349/2/3 334/2/3 333/2/3
f 350/1/3 335/1/3 334/1/3
f 350/2/3 334/2/3 349/2/3
f 351/1/3 335/1/3 350/1/3
f 352/5/3 348/5/3 347/5/3
f 353/5/3 348/5/3 352/5/3
f 354/2/3 351/2/3 350/2/3
f 355/2/3 351/2/3 354/2/3
f 356/2/3 351/2/3 355/2/3
f 363/2/3 358/2/3 357/2/3
f 364/2/3 358/2/3 363/2/3
f 365/2/3 360/2/3 359/2/3
f 366/2/3 360/2/3 365/2/3
f 367/2/3 362/2/3 361/2/3
f 368/2/3 362/2/3 367/2/3
f 373/2/3 370/2/3 369/2/3
f 374/2/3 370/2/3 373/2/3
f 375/2/3 372/2/3 371/2/3
f 376/2/3 372/2/3 375/2/3
f 379/2/3 378/2/3 377/2/3
f 380/2/3 378/2/3 379/2/3
f 381/1/4 382/1/4 384/1/4
f 384/1/4 382/1/4 385/1/4
f 383/6/4 384/6/4 388/6/4
f 384/6/4 385/6/4 388/6/4
f 385/6/4 386/6/4 388/6/4
f 388/6/4 386/6/4 389/6/4
f 389/6/4 386/6/4 390/6/4
f 386/5/4 387/5/4 391/5/4
f 390/6/4 386/6/4 391/6/4
f 391/5/4 387/5/4 392/5/4
f 389/1/4 390/1/4 393/1/4
f 393/1/4 390/1/4 394/1/4
f 395/5/4 396/5/4 397/5/4
f 397/5/4 396/5/4 398/5/4
f 399/5/4 400/5/4 401/5/4
f 401/5/4 400/5/4 402/5/4
f 403/5/4 404/5/4 406/5/4
f 404/5/4 405/5/4 406/5/4
f 406/5/4 405/5/4 407/5/4
f 403/5/4 406/5/4 408/5/4
f 403/5/4 408/5/4 410/5/4
f 408/5/4 409/5/4 410/5/4
f 410/5/4 409/5/4 411/5/4
f 403/5/4 410/5/4 412/5/4
f 403/5/4 412/5/4 414/5/4
f 412/5/4 413/5/4 414/5/4
f 414/5/4 413/5/4 415/5/4
f 403/5/4 414/5/4 416/5/4
f 403/5/4 416/5/4 418/5/4
f 416/5/4 417/5/4 418/5/4
f 418/5/4 417/5/4 419/5/4
f 419/5/4 417/5/4 420/5/4
f 421/2/4 422/2/4 425/2/4
f 425/2/4 422/2/4 426/2/4
f 423/2/4 424/2/4 427/2/4
f 427/2/4 424/2/4 428/2/4
f 429/2/4 430/2/4 431/2/4
f 431/2/4 430/2/4 432/2/4
f 433/2/4 434/2/4 435/2/4
f 435/2/4 434/2/4 436/2/4
f 437/5/4 438/5/4 440/5/4
f 440/5/4 438/5/4 441/5/4
f 439/5/4 440/5/4 443/5/4
f 443/5/4 440/5/4 444/5/4
f 439/5/4 443/5/4 445/5/4
f 439/5/4 445/5/4 447/5/4
f 445/5/4 446/5/4 447/5/4
f 447/5/4 446/5/4 448/5/4
f 441/2/4 442/2/4 449/2/4
f 449/2/4 442/2/4 450/2/4
f 448/5/4 449/5/4 451/5/4
f 451/5/4 449/5/4 452/5/4
f 453/5/4 454/5/4 456/5/4
f 456/5/4 454/5/4 457/5/4
f 459/5/4 460/5/4 462/5/4
f 461/5/4 462/5/4 463/5/4
f 462/5/4 460/5/4 464/5/4
f 463/5/4 462/5/4 464/5/4
f 464/5/4 460/5/4 465/5/4
f 465/5/4 460/5/4 466/5/4
f 455/2/4 456/2/4 467/2/4
f 467/2/4 456/2/4 468/2/4
f 457/5/4 458/5/4 469/5/4
f 469/5/4 458/5/4 470/5/4
f 468/5/4 469/5/4 471/5/4
f 471/5/4 469/5/4 472/5/4
f 473/5/4 474/5/4 475/5/4
f 475/5/4 474/5/4 476/5/4
f 481/2/5 478/2/5 477/2/5
f 482/2/5 478/2/5 481/2/5
f 483/2/5 480/2/5 479/2/5
f 484/2/5 480/2/5 483/2/5
f 489/5/5 486/5/5 485/5/5
f 490/5/5 486/5/5 489/5/5
f 491/5/5 488/5/5 487/5/5
f 492/5/5 488/5/5 491/5/5
f 495/5/5 494/5/5 493/5/5
f 496/5/5 494/5/5 495/5/5
f 497/5/5 494/5/5 496/5/5
f 498/5/5 494/5/5 497/5/5
f 500/2/5 497/2/5 496/2/5
f 501/2/5 497/2/5 500/2/5
f 503/5/5 500/5/5 499/5/5
f 503/5/5 502/5/5 501/5/5
f 503/5/5 501/5/5 500/5/5
f 504/5/5 502/5/5 503/5/5
f 507/5/5 506/5/5 505/5/5
f 508/5/5 506/5/5 507/5/5
f 511/5/5 510/5/5 509/5/5
f 512/5/5 510/5/5 511/5/5
f 515/6/5 514/6/5 513/6/5
f 516/6/5 514/6/5 515/6/5
f 522/5/5 518/5/5 517/5/5
f 523/5/5 518/5/5 522/5/5
f 524/5/5 520/5/5 519/5/5
f 525/5/5 520/5/5 524/5/5
f 527/5/5 522/5/5 521/5/5
f 528/5/5 526/5/5 525/5/5
f 529/5/5 527/5/5 521/5/5
f 530/5/5 526/5/5 528/5/5
f 531/5/5 529/5/5 521/5/5
f 532/5/5 529/5/5 531/5/5
f 535/5/5 526/5/5 530/5/5
f 536/5/5 526/5/5 535/5/5
f 537/5/5 533/5/5 532/5/5
f 538/5/5 533/5/5 537/5/5
f 539/5/5 535/5/5 534/5/5
f 540/5/5 535/5/5 539/5/5
f 546/1/5 542/1/5 541/1/5
f 547/1/5 542/1/5 546/1/5
f 548/1/5 544/1/5 543/1/5
f 549/1/5 544/1/5 548/1/5
f 552/5/5 546/5/5 545/5/5
f 553/5/5 546/5/5 552/5/5
f 554/5/5 550/5/5 549/5/5
f 555/5/5 550/5/5 554/5/5
f 557/5/5 552/5/5 551/5/5
f 558/5/5 556/5/5 555/5/5
f 559/5/5 557/5/5 551/5/5
f 560/5/5 557/5/5 559/5/5
f 561/5/5 556/5/5 558/5/5
f 562/5/5 556/5/5 561/5/5
f 565/6/5 564/6/5 563/6/5
f 566/6/5 564/6/5 565/6/5
f 569/5/5 568/5/5 567/5/5
f 570/5/5 568/5/5 569/5/5
f 575/2/5 572/2/5 571/2/5
f 576/2/5 572/2/5 575/2/5
f 577/2/5 574/2/5 573/2/5
f 578/2/5 574/2/5 577/2/5
f 583/2/5 580/2/5 579/2/5
f 584/2/5 582/2/5 581/2/5
f 585/2/5 583/2/5 579/2/5
f 585/2/5 584/2/5 583/2/5
f 586/2/5 582/2/5 584/2/5
f 586/2/5 584/2/5 585/2/5
f 591/5/5 588/5/5 587/5/5
f 592/5/5 590/5/5 589/5/5
f 593/5/5 591/5/5 587/5/5
f 594/5/5 591/5/5 593/5/5
f 595/5/5 590/5/5 592/5/5
f 596/5/5 590/5/5 595/5/5
f 597/5/5 595/5/5 594/5/5
f 598/5/5 595/5/5 597/5/5
f 607/5/5 600/5/5 599/5/5
f 607/5/5 606/5/5 605/5/5
f 607/5/5 605/5/5 604/5/5
f 607/5/5 604/5/5 603/5/5
f 607/5/5 603/5/5 602/5/5
f 607/5/5 602/5/5 601/5/5
f 607/5/5 601/5/5 600/5/5
f 608/5/5 606/5/5 607/5/5
f 609/5/5 606/5/5 608/5/5
f 610/5/5 606/5/5 609/5/5
f 617/5/5 612/5/5 611/5/5
f 618/5/5 612/5/5 617/5/5
f 619/5/5 614/5/5 613/5/5
f 620/5/5 614/5/5 619/5/5
f 621/5/5 616/5/5 615/5/5
f 622/5/5 616/5/5 621/5/5
f 623/5/6 624/5/6 627/5/6
f 627/5/6 624/5/6 628/5/6
f 625/5/6 626/5/6 629/5/6
f 629/5/6 626/5/6 630/5/6
f 631/1/6 632/1/6 636/1/6
f 636/1/6 632/1/6 637/1/6
f 633/1/6 634/1/6 638/1/6
f 638/1/6 634/1/6 639/1/6
f 635/5/6 636/5/6 642/5/6
f 642/5/6 636/5/6 643/5/6
f 639/5/6 640/5/6 644/5/6
f 644/5/6 640/5/6 645/5/6
f 641/5/6 642/5/6 647/5/6
f 645/5/6 646/5/6 648/5/6
f 641/5/6 647/5/6 649/5/6
f 647/5/6 648/5/6 649/5/6
f 648/5/6 646/5/6 650/5/6
f 649/5/6 648/5/6 650/5/6
f 641/5/6 649/5/6 651/5/6
f 651/5/6 649/5/6 652/5/6
f 650/5/6 646/5/6 653/5/6
f 653/5/6 646/5/6 654/5/6
f 655/5/6 656/5/6 659/5/6
f 659/5/6 656/5/6 660/5/6
f 657/5/6 658/5/6 661/5/6
f 661/5/6 658/5/6 662/5/6
f 660/5/6 661/5/6 663/5/6
f 663/5/6 661/5/6 664/5/6
f 665/5/6 666/5/6 671/5/6
f 671/5/6 666/5/6 672/5/6
f 667/5/6 668/5/6 673/5/6
f 673/5/6 668/5/6 674/5/6
f 669/5/6 670/5/6 675/5/6
f 675/5/6 670/5/6 676/5/6
f 677/5/6 678/5/6 680/5/6
f 680/5/6 678/5/6 681/5/6
f 679/5/6 680/5/6 683/5/6
f 683/5/6 680/5/6 684/5/6
f 681/5/6 682/5/6 685/5/6
f 685/5/6 682/5/6 686/5/6
f 684/5/6 685/5/6 687/5/6
f 687/5/6 685/5/6 688/5/6
f 689/5/6 690/5/6 691/5/6
f 691/5/6 690/5/6 692/5/6
f 693/5/6 694/5/6 695/5/6
f 695/5/6 694/5/6 696/5/6
f 697/5/6 698/5/6 699/5/6
f 699/5/6 698/5/6 700/5/6
