# MagicaVoxel @ Ephtracy

# group
o 

# material
mtllib ChelAxe-2.mtl
usemtl palette

# normals
vn -1 0 0
vn 1 0 0
vn 0 0 1
vn 0 0 -1
vn 0 -1 0
vn 0 1 0

# texcoords
vt 0.970703 0.5
vt 0.974609 0.5
vt 0.978516 0.5
vt 0.982422 0.5
vt 0.986328 0.5
vt 0.990234 0.5
vt 0.994141 0.5

# verts
v -2.8 2 0.1
v -2.8 2 -0.4
v -2.8 2.1 0.1
v -2.8 2.1 -0.4
v -2.7 2 0.2
v -2.7 2 0.1
v -2.7 2.1 0.2
v -2.7 2.1 0.1
v -1.6 2 0
v -1.6 2 -0.1
v -1.6 2.1 0
v -1.6 2.1 -0.1
v -1.5 2 0.1
v -1.5 2 0
v -1.5 2.1 0.1
v -1.5 2.1 0
v -1.4 2.1 0.1
v -1.4 2.1 0
v -1.4 2.2 0.2
v -1.4 2.2 0.1
v -1.4 2.2 0
v -1.4 2.2 -0.1
v -1.4 2.2 -0.2
v -1.4 2.3 0.3
v -1.4 2.3 0.2
v -1.4 2.3 0.1
v -1.4 2.3 -0.1
v -1.4 2.6 0.4
v -1.4 2.6 0.3
v -1.4 2.6 -0.2
v -1.4 2.7 0.4
v -1.4 2.7 0.2
v -1.4 2.8 0.2
v -1.4 2.8 0.1
v -1.4 2.8 -0.1
v -1.4 2.8 -0.2
v -1.4 2.9 0.1
v -1.4 2.9 -0.1
v -1.3 1.2 0.1
v -1.3 1.2 0
v -1.3 1.4 0.1
v -1.3 1.4 0
v -1.3 1.6 0.2
v -1.3 1.6 0.1
v -1.3 1.6 0
v -1.3 1.6 -0.1
v -1.3 1.7 0.2
v -1.3 1.7 -0.1
v -1.3 2.1 0.1
v -1.3 2.1 0
v -1.3 2.1 -0.1
v -1.3 2.1 -0.2
v -1.3 2.2 0.3
v -1.3 2.2 0.2
v -1.3 2.2 0.1
v -1.3 2.2 0
v -1.3 2.2 -0.1
v -1.3 2.2 -0.2
v -1.3 2.3 0.3
v -1.3 2.3 0.2
v -1.3 2.3 0.1
v -1.3 2.3 -0.1
v -1.3 2.8 0.2
v -1.3 2.8 0.1
v -1.3 2.8 -0.1
v -1.3 2.8 -0.2
v -1.3 2.9 0.2
v -1.3 2.9 0.1
v -1.3 2.9 -0.1
v -1.3 2.9 -0.2
v -1.1 2.1 -0.1
v -1.1 2.1 -0.2
v -1.1 2.3 -0.1
v -1.1 2.3 -0.2
v -1 2.2 0.3
v -1 2.2 0.2
v -1 2.6 0.3
v -1 2.6 0.2
v -0.9 1.2 0.1
v -0.9 1.2 0
v -0.9 1.4 0.1
v -0.9 1.4 0
v -0.9 1.6 0.1
v -0.9 1.6 0
v -0.8 2.2 -0.1
v -0.8 2.2 -0.2
v -0.8 2.3 -0.1
v -0.8 2.3 -0.2
v -0.7 1.6 0.1
v -0.7 1.6 0
v -0.7 2.1 0.1
v -0.7 2.1 0
v -2.5 2 0.2
v -2.5 2 0.1
v -2.5 2.1 0.2
v -2.5 2.1 0.1
v -2.4 2 0.1
v -2.4 2 -0.1
v -2.4 2 -0.2
v -2.4 2 -0.4
v -2.4 2.1 0.1
v -2.4 2.1 -0.1
v -2.4 2.1 -0.2
v -2.4 2.1 -0.4
v -1.6 2 -0.1
v -1.6 2 -0.2
v -1.6 2.1 -0.1
v -1.6 2.1 -0.2
v -1.5 2 0
v -1.5 2 -0.1
v -1.5 2.1 0
v -1.5 2.1 -0.1
v -1.4 2 0.1
v -1.4 2 0
v -1.4 2.1 0.1
v -1.4 2.1 0
v -1.2 1.2 0.1
v -1.2 1.2 0
v -1.2 1.4 0.1
v -1.2 1.4 0
v -1.2 1.6 0.1
v -1.2 1.6 0
v -1.2 2.1 -0.1
v -1.2 2.1 -0.2
v -1.2 2.2 0.3
v -1.2 2.2 0.2
v -1.2 2.3 -0.1
v -1.2 2.3 -0.2
v -1.2 2.5 0.3
v -1.2 2.5 0.2
v -1.1 2.5 0.3
v -1.1 2.5 0.2
v -1.1 2.6 0.3
v -1.1 2.6 0.2
v -1 2.1 -0.1
v -1 2.1 -0.2
v -1 2.2 -0.1
v -1 2.2 -0.2
v -0.9 2.2 0.3
v -0.9 2.2 0.2
v -0.9 2.2 -0.1
v -0.9 2.2 -0.2
v -0.9 2.3 0.3
v -0.9 2.3 0.2
v -0.9 2.3 -0.1
v -0.9 2.3 -0.2
v -0.8 1.2 0.1
v -0.8 1.2 0
v -0.8 1.4 0.1
v -0.8 1.4 0
v -0.8 1.6 0.2
v -0.8 1.6 0.1
v -0.8 1.6 0
v -0.8 1.6 -0.1
v -0.8 1.7 0.2
v -0.8 1.7 -0.1
v -0.8 2.1 0.1
v -0.8 2.1 0
v -0.8 2.2 0.2
v -0.8 2.2 0.1
v -0.8 2.2 0
v -0.8 2.2 -0.1
v -0.8 2.3 0.1
v -0.8 2.3 0
v -0.8 2.8 0.2
v -0.8 2.8 0.1
v -0.8 2.8 -0.1
v -0.8 2.8 -0.2
v -0.8 2.9 0.2
v -0.8 2.9 0.1
v -0.8 2.9 -0.1
v -0.8 2.9 -0.2
v -0.7 2.1 0.1
v -0.7 2.1 0
v -0.7 2.2 0.2
v -0.7 2.2 0.1
v -0.7 2.2 0
v -0.7 2.2 -0.2
v -0.7 2.3 0.3
v -0.7 2.3 0.2
v -0.7 2.3 0.1
v -0.7 2.3 0
v -0.7 2.6 0.4
v -0.7 2.6 0.3
v -0.7 2.6 -0.2
v -0.7 2.7 0.4
v -0.7 2.7 0.2
v -0.7 2.8 0.2
v -0.7 2.8 0.1
v -0.7 2.8 -0.1
v -0.7 2.8 -0.2
v -0.7 2.9 0.1
v -0.7 2.9 -0.1
v -0.6 1.6 0.1
v -0.6 1.6 0
v -0.6 2.1 0.1
v -0.6 2.1 0
v -1.4 2.6 0.4
v -1.4 2.7 0.4
v -0.7 2.6 0.4
v -0.7 2.7 0.4
v -1.4 2.3 0.3
v -1.4 2.6 0.3
v -1.3 2.2 0.3
v -1.3 2.3 0.3
v -1.2 2.2 0.3
v -1.2 2.5 0.3
v -1.1 2.5 0.3
v -1.1 2.6 0.3
v -1 2.2 0.3
v -1 2.6 0.3
v -0.9 2.2 0.3
v -0.9 2.3 0.3
v -0.7 2.3 0.3
v -0.7 2.6 0.3
v -2.7 2 0.2
v -2.7 2.1 0.2
v -2.5 2 0.2
v -2.5 2.1 0.2
v -1.4 2.2 0.2
v -1.4 2.3 0.2
v -1.4 2.7 0.2
v -1.4 2.8 0.2
v -1.3 1.6 0.2
v -1.3 1.7 0.2
v -1.3 2.2 0.2
v -1.3 2.3 0.2
v -1.3 2.8 0.2
v -1.3 2.9 0.2
v -1.2 2.1 0.2
v -1.2 2.2 0.2
v -1.2 2.5 0.2
v -1.1 2 0.2
v -1.1 2.1 0.2
v -1.1 2.5 0.2
v -1.1 2.6 0.2
v -1 2 0.2
v -1 2.1 0.2
v -1 2.2 0.2
v -1 2.6 0.2
v -0.9 2.1 0.2
v -0.9 2.2 0.2
v -0.9 2.3 0.2
v -0.8 1.6 0.2
v -0.8 1.7 0.2
v -0.8 2.2 0.2
v -0.8 2.3 0.2
v -0.8 2.8 0.2
v -0.8 2.9 0.2
v -0.7 2.2 0.2
v -0.7 2.3 0.2
v -0.7 2.7 0.2
v -0.7 2.8 0.2
v -2.8 2 0.1
v -2.8 2.1 0.1
v -2.7 2 0.1
v -2.7 2.1 0.1
v -2.5 2 0.1
v -2.5 2.1 0.1
v -2.4 2 0.1
v -2.4 2.1 0.1
v -1.5 2 0.1
v -1.5 2.1 0.1
v -1.4 2 0.1
v -1.4 2.1 0.1
v -1.4 2.2 0.1
v -1.4 2.8 0.1
v -1.4 2.9 0.1
v -1.3 1.2 0.1
v -1.3 1.4 0.1
v -1.3 1.6 0.1
v -1.3 2.1 0.1
v -1.3 2.2 0.1
v -1.3 2.8 0.1
v -1.3 2.9 0.1
v -1.2 1.2 0.1
v -1.2 1.4 0.1
v -1.2 1.6 0.1
v -0.9 1.2 0.1
v -0.9 1.4 0.1
v -0.9 1.6 0.1
v -0.8 1.2 0.1
v -0.8 1.4 0.1
v -0.8 1.6 0.1
v -0.8 2.1 0.1
v -0.8 2.2 0.1
v -0.8 2.8 0.1
v -0.8 2.9 0.1
v -0.7 1.6 0.1
v -0.7 2.1 0.1
v -0.7 2.2 0.1
v -0.7 2.8 0.1
v -0.7 2.9 0.1
v -0.6 1.6 0.1
v -0.6 2.1 0.1
v -1.6 2 0
v -1.6 2.1 0
v -1.5 2 0
v -1.5 2.1 0
v -0.8 2.2 0
v -0.8 2.3 0
v -0.7 2.2 0
v -0.7 2.3 0
v -2.4 2 -0.1
v -2.4 2.1 -0.1
v -1.9 2 -0.1
v -1.9 2.1 -0.1
v -1.6 2 -0.1
v -1.6 2.1 -0.1
v -1.4 2.2 -0.1
v -1.4 2.3 -0.1
v -1.3 2.2 -0.1
v -1.3 2.3 -0.1
v -1.4 2.2 0.1
v -1.4 2.3 0.1
v -1.3 2.2 0.1
v -1.3 2.3 0.1
v -0.8 2.2 0.1
v -0.8 2.3 0.1
v -0.7 2.2 0.1
v -0.7 2.3 0.1
v -1.5 2 0
v -1.5 2.1 0
v -1.4 2 0
v -1.4 2.1 0
v -1.4 2.2 0
v -1.3 1.2 0
v -1.3 1.4 0
v -1.3 1.6 0
v -1.3 2.1 0
v -1.3 2.2 0
v -1.2 1.2 0
v -1.2 1.4 0
v -1.2 1.6 0
v -0.9 1.2 0
v -0.9 1.4 0
v -0.9 1.6 0
v -0.8 1.2 0
v -0.8 1.4 0
v -0.8 1.6 0
v -0.8 2.1 0
v -0.8 2.2 0
v -0.7 1.6 0
v -0.7 2.1 0
v -0.7 2.2 0
v -0.6 1.6 0
v -0.6 2.1 0
v -1.6 2 -0.1
v -1.6 2.1 -0.1
v -1.5 2 -0.1
v -1.5 2.1 -0.1
v -1.4 2.8 -0.1
v -1.4 2.9 -0.1
v -1.3 1.6 -0.1
v -1.3 1.7 -0.1
v -1.3 2.1 -0.1
v -1.3 2.8 -0.1
v -1.3 2.9 -0.1
v -1.2 2.1 -0.1
v -1.2 2.3 -0.1
v -1.1 2.1 -0.1
v -1.1 2.3 -0.1
v -1 2.1 -0.1
v -1 2.2 -0.1
v -0.9 2.1 -0.1
v -0.9 2.2 -0.1
v -0.9 2.3 -0.1
v -0.8 1.6 -0.1
v -0.8 1.7 -0.1
v -0.8 2.2 -0.1
v -0.8 2.3 -0.1
v -0.8 2.8 -0.1
v -0.8 2.9 -0.1
v -0.7 2.8 -0.1
v -0.7 2.9 -0.1
v -2.4 2 -0.2
v -2.4 2.1 -0.2
v -1.9 2 -0.2
v -1.9 2.1 -0.2
v -1.6 2 -0.2
v -1.6 2.1 -0.2
v -1.4 2.2 -0.2
v -1.4 2.6 -0.2
v -1.4 2.8 -0.2
v -1.3 2.1 -0.2
v -1.3 2.2 -0.2
v -1.3 2.8 -0.2
v -1.3 2.9 -0.2
v -1.2 2.1 -0.2
v -1.2 2.3 -0.2
v -1.1 2.1 -0.2
v -1.1 2.3 -0.2
v -1 2.1 -0.2
v -1 2.2 -0.2
v -0.9 2.2 -0.2
v -0.9 2.3 -0.2
v -0.8 2.2 -0.2
v -0.8 2.3 -0.2
v -0.8 2.8 -0.2
v -0.8 2.9 -0.2
v -0.7 2.2 -0.2
v -0.7 2.6 -0.2
v -0.7 2.8 -0.2
v -2.8 2 -0.4
v -2.8 2.1 -0.4
v -2.4 2 -0.4
v -2.4 2.1 -0.4
v -1.3 1.2 0.1
v -1.2 1.2 0.1
v -0.9 1.2 0.1
v -0.8 1.2 0.1
v -1.3 1.2 0
v -1.2 1.2 0
v -0.9 1.2 0
v -0.8 1.2 0
v -1.3 1.6 0.2
v -0.8 1.6 0.2
v -1.3 1.6 0.1
v -1.2 1.6 0.1
v -0.9 1.6 0.1
v -0.8 1.6 0.1
v -0.7 1.6 0.1
v -0.6 1.6 0.1
v -1.3 1.6 0
v -1.2 1.6 0
v -0.9 1.6 0
v -0.8 1.6 0
v -0.7 1.6 0
v -0.6 1.6 0
v -1.3 1.6 -0.1
v -0.8 1.6 -0.1
v -2.7 2 0.2
v -2.5 2 0.2
v -2.8 2 0.1
v -2.7 2 0.1
v -2.5 2 0.1
v -2.4 2 0.1
v -1.5 2 0.1
v -1.4 2 0.1
v -1.6 2 0
v -1.5 2 0
v -1.4 2 0
v -2.4 2 -0.1
v -1.9 2 -0.1
v -1.6 2 -0.1
v -1.5 2 -0.1
v -2.4 2 -0.2
v -1.9 2 -0.2
v -1.6 2 -0.2
v -2.8 2 -0.4
v -2.4 2 -0.4
v -1.4 2.1 0.1
v -1.3 2.1 0.1
v -0.8 2.1 0.1
v -0.7 2.1 0.1
v -1.4 2.1 0
v -1.3 2.1 0
v -0.8 2.1 0
v -0.7 2.1 0
v -1.3 2.1 -0.1
v -1.2 2.1 -0.1
v -1.1 2.1 -0.1
v -1 2.1 -0.1
v -1.3 2.1 -0.2
v -1.2 2.1 -0.2
v -1.1 2.1 -0.2
v -1 2.1 -0.2
v -1.3 2.2 0.3
v -1.2 2.2 0.3
v -1 2.2 0.3
v -0.9 2.2 0.3
v -1.4 2.2 0.2
v -1.3 2.2 0.2
v -1.2 2.2 0.2
v -1 2.2 0.2
v -0.9 2.2 0.2
v -0.8 2.2 0.2
v -0.7 2.2 0.2
v -1.4 2.2 0.1
v -1.3 2.2 0.1
v -0.8 2.2 0.1
v -0.7 2.2 0.1
v -0.8 2.2 0
v -0.7 2.2 0
v -1.4 2.2 -0.1
v -1.3 2.2 -0.1
v -1 2.2 -0.1
v -0.9 2.2 -0.1
v -0.8 2.2 -0.1
v -1.4 2.2 -0.2
v -1.3 2.2 -0.2
v -1 2.2 -0.2
v -0.9 2.2 -0.2
v -0.8 2.2 -0.2
v -0.7 2.2 -0.2
v -1.4 2.3 0.3
v -1.3 2.3 0.3
v -0.9 2.3 0.3
v -0.7 2.3 0.3
v -1.4 2.3 0.2
v -1.3 2.3 0.2
v -0.9 2.3 0.2
v -0.8 2.3 0.2
v -0.7 2.3 0.2
v -1.4 2.3 0.1
v -1.3 2.3 0.1
v -0.8 2.3 0.1
v -0.7 2.3 0.1
v -0.8 2.3 0
v -0.7 2.3 0
v -1.4 2.3 -0.1
v -1.3 2.3 -0.1
v -1.2 2.3 -0.1
v -1.1 2.3 -0.1
v -0.9 2.3 -0.1
v -0.8 2.3 -0.1
v -1.2 2.3 -0.2
v -1.1 2.3 -0.2
v -0.9 2.3 -0.2
v -0.8 2.3 -0.2
v -1.2 2.5 0.3
v -1.1 2.5 0.3
v -1.2 2.5 0.2
v -1.1 2.5 0.2
v -1.4 2.6 0.4
v -0.7 2.6 0.4
v -1.4 2.6 0.3
v -1.1 2.6 0.3
v -1 2.6 0.3
v -0.7 2.6 0.3
v -1.1 2.6 0.2
v -1 2.6 0.2
v -2.7 2.1 0.2
v -2.5 2.1 0.2
v -2.8 2.1 0.1
v -2.7 2.1 0.1
v -2.5 2.1 0.1
v -2.4 2.1 0.1
v -1.5 2.1 0.1
v -1.4 2.1 0.1
v -0.7 2.1 0.1
v -0.6 2.1 0.1
v -1.6 2.1 0
v -1.5 2.1 0
v -1.4 2.1 0
v -0.7 2.1 0
v -0.6 2.1 0
v -2.4 2.1 -0.1
v -1.9 2.1 -0.1
v -1.6 2.1 -0.1
v -1.5 2.1 -0.1
v -2.4 2.1 -0.2
v -1.9 2.1 -0.2
v -1.6 2.1 -0.2
v -2.8 2.1 -0.4
v -2.4 2.1 -0.4
v -1.4 2.2 0.1
v -1.3 2.2 0.1
v -0.8 2.2 0.1
v -0.7 2.2 0.1
v -1.4 2.2 0
v -1.3 2.2 0
v -0.8 2.2 0
v -0.7 2.2 0
v -1.4 2.7 0.4
v -0.7 2.7 0.4
v -1.4 2.7 0.2
v -0.7 2.7 0.2
v -1.4 2.8 0.2
v -1.3 2.8 0.2
v -0.8 2.8 0.2
v -0.7 2.8 0.2
v -1.4 2.8 0.1
v -1.3 2.8 0.1
v -0.8 2.8 0.1
v -0.7 2.8 0.1
v -1.4 2.8 -0.1
v -1.3 2.8 -0.1
v -0.8 2.8 -0.1
v -0.7 2.8 -0.1
v -1.4 2.8 -0.2
v -1.3 2.8 -0.2
v -0.8 2.8 -0.2
v -0.7 2.8 -0.2
v -1.3 2.9 0.2
v -0.8 2.9 0.2
v -1.4 2.9 0.1
v -1.3 2.9 0.1
v -0.8 2.9 0.1
v -0.7 2.9 0.1
v -1.4 2.9 -0.1
v -1.3 2.9 -0.1
v -0.8 2.9 -0.1
v -0.7 2.9 -0.1
v -1.3 2.9 -0.2
v -0.8 2.9 -0.2

# faces
f 3/6/1 2/6/1 1/6/1
f 4/6/1 2/6/1 3/6/1
f 7/6/1 6/6/1 5/6/1
f 8/6/1 6/6/1 7/6/1
f 11/1/1 10/1/1 9/1/1
f 12/1/1 10/1/1 11/1/1
f 15/1/1 14/1/1 13/1/1
f 16/1/1 14/1/1 15/1/1
f 20/3/1 18/3/1 17/3/1
f 21/3/1 18/3/1 20/3/1
f 25/5/1 20/5/1 19/5/1
f 26/5/1 20/5/1 25/5/1
f 27/5/1 23/5/1 22/5/1
f 29/5/1 26/5/1 25/5/1
f 29/5/1 27/5/1 26/5/1
f 29/5/1 25/5/1 24/5/1
f 30/5/1 23/5/1 27/5/1
f 30/5/1 27/5/1 29/5/1
f 31/4/1 29/4/1 28/4/1
f 31/4/1 30/4/1 29/4/1
f 32/4/1 30/4/1 31/4/1
f 33/4/1 30/4/1 32/4/1
f 34/4/1 30/4/1 33/4/1
f 35/4/1 30/4/1 34/4/1
f 36/4/1 30/4/1 35/4/1
f 37/4/1 35/4/1 34/4/1
f 38/4/1 35/4/1 37/4/1
f 41/1/1 40/1/1 39/1/1
f 42/1/1 40/1/1 41/1/1
f 44/2/1 42/2/1 41/2/1
f 45/2/1 42/2/1 44/2/1
f 47/2/1 45/2/1 44/2/1
f 47/2/1 46/2/1 45/2/1
f 47/2/1 44/2/1 43/2/1
f 48/2/1 46/2/1 47/2/1
f 49/3/1 48/3/1 47/3/1
f 50/3/1 48/3/1 49/3/1
f 51/3/1 48/3/1 50/3/1
f 54/3/1 49/3/1 47/3/1
f 55/3/1 49/3/1 54/3/1
f 56/3/1 51/3/1 50/3/1
f 57/5/1 52/5/1 51/5/1
f 57/3/1 51/3/1 56/3/1
f 58/5/1 52/5/1 57/5/1
f 59/5/1 54/5/1 53/5/1
f 60/5/1 54/5/1 59/5/1
f 61/1/1 56/1/1 55/1/1
f 61/1/1 57/1/1 56/1/1
f 62/1/1 57/1/1 61/1/1
f 67/4/1 64/4/1 63/4/1
f 68/4/1 64/4/1 67/4/1
f 69/4/1 66/4/1 65/4/1
f 70/4/1 66/4/1 69/4/1
f 73/5/1 72/5/1 71/5/1
f 74/5/1 72/5/1 73/5/1
f 77/5/1 76/5/1 75/5/1
f 78/5/1 76/5/1 77/5/1
f 81/1/1 80/1/1 79/1/1
f 82/1/1 80/1/1 81/1/1
f 83/2/1 82/2/1 81/2/1
f 84/2/1 82/2/1 83/2/1
f 87/5/1 86/5/1 85/5/1
f 88/5/1 86/5/1 87/5/1
f 91/1/1 90/1/1 89/1/1
f 92/1/1 90/1/1 91/1/1
f 93/6/2 94/6/2 95/6/2
f 95/6/2 94/6/2 96/6/2
f 97/6/2 98/6/2 101/6/2
f 101/6/2 98/6/2 102/6/2
f 99/6/2 100/6/2 103/6/2
f 103/6/2 100/6/2 104/6/2
f 105/1/2 106/1/2 107/1/2
f 107/1/2 106/1/2 108/1/2
f 109/1/2 110/1/2 111/1/2
f 111/1/2 110/1/2 112/1/2
f 113/1/2 114/1/2 115/1/2
f 115/1/2 114/1/2 116/1/2
f 117/1/2 118/1/2 119/1/2
f 119/1/2 118/1/2 120/1/2
f 119/2/2 120/2/2 121/2/2
f 121/2/2 120/2/2 122/2/2
f 123/5/2 124/5/2 127/5/2
f 127/5/2 124/5/2 128/5/2
f 125/5/2 126/5/2 129/5/2
f 129/5/2 126/5/2 130/5/2
f 131/5/2 132/5/2 133/5/2
f 133/5/2 132/5/2 134/5/2
f 135/5/2 136/5/2 137/5/2
f 137/5/2 136/5/2 138/5/2
f 139/5/2 140/5/2 143/5/2
f 143/5/2 140/5/2 144/5/2
f 141/5/2 142/5/2 145/5/2
f 145/5/2 142/5/2 146/5/2
f 147/1/2 148/1/2 149/1/2
f 149/1/2 148/1/2 150/1/2
f 149/2/2 150/2/2 152/2/2
f 152/2/2 150/2/2 153/2/2
f 152/2/2 153/2/2 155/2/2
f 153/2/2 154/2/2 155/2/2
f 151/2/2 152/2/2 155/2/2
f 155/2/2 154/2/2 156/2/2
f 155/3/2 156/3/2 157/3/2
f 157/3/2 156/3/2 158/3/2
f 155/3/2 157/3/2 159/3/2
f 159/3/2 157/3/2 160/3/2
f 158/3/2 156/3/2 161/3/2
f 161/3/2 156/3/2 162/3/2
f 160/1/2 161/1/2 163/1/2
f 163/1/2 161/1/2 164/1/2
f 165/4/2 166/4/2 169/4/2
f 169/4/2 166/4/2 170/4/2
f 167/4/2 168/4/2 171/4/2
f 171/4/2 168/4/2 172/4/2
f 173/3/2 174/3/2 176/3/2
f 176/3/2 174/3/2 177/3/2
f 175/5/2 176/5/2 180/5/2
f 180/5/2 176/5/2 181/5/2
f 177/5/2 178/5/2 182/5/2
f 180/5/2 181/5/2 184/5/2
f 181/5/2 182/5/2 184/5/2
f 179/5/2 180/5/2 184/5/2
f 182/5/2 178/5/2 185/5/2
f 184/5/2 182/5/2 185/5/2
f 183/4/2 184/4/2 186/4/2
f 184/4/2 185/4/2 186/4/2
f 186/4/2 185/4/2 187/4/2
f 187/4/2 185/4/2 188/4/2
f 188/4/2 185/4/2 189/4/2
f 189/4/2 185/4/2 190/4/2
f 190/4/2 185/4/2 191/4/2
f 189/4/2 190/4/2 192/4/2
f 192/4/2 190/4/2 193/4/2
f 194/1/2 195/1/2 196/1/2
f 196/1/2 195/1/2 197/1/2
f 200/4/3 199/4/3 198/4/3
f 201/4/3 199/4/3 200/4/3
f 205/5/3 203/5/3 202/5/3
f 206/5/3 205/5/3 204/5/3
f 207/5/3 203/5/3 205/5/3
f 207/5/3 205/5/3 206/5/3
f 208/5/3 203/5/3 207/5/3
f 209/5/3 203/5/3 208/5/3
f 212/5/3 211/5/3 210/5/3
f 213/5/3 211/5/3 212/5/3
f 214/5/3 211/5/3 213/5/3
f 215/5/3 211/5/3 214/5/3
f 218/6/3 217/6/3 216/6/3
f 219/6/3 217/6/3 218/6/3
f 226/5/3 221/5/3 220/5/3
f 227/5/3 221/5/3 226/5/3
f 228/4/3 223/4/3 222/4/3
f 230/3/3 226/3/3 225/3/3
f 231/3/3 226/3/3 230/3/3
f 233/3/3 230/3/3 225/3/3
f 234/1/3 232/1/3 231/1/3
f 234/3/3 230/3/3 233/3/3
f 234/1/3 231/1/3 230/1/3
f 235/1/3 232/1/3 234/1/3
f 237/3/3 233/3/3 225/3/3
f 237/1/3 236/1/3 235/1/3
f 237/1/3 235/1/3 234/1/3
f 237/1/3 234/1/3 233/1/3
f 238/1/3 236/1/3 237/1/3
f 239/1/3 236/1/3 238/1/3
f 240/1/3 236/1/3 239/1/3
f 241/3/3 238/3/3 237/3/3
f 241/1/3 239/1/3 238/1/3
f 242/1/3 239/1/3 241/1/3
f 244/2/3 225/2/3 224/2/3
f 245/3/3 237/3/3 225/3/3
f 245/2/3 225/2/3 244/2/3
f 245/3/3 241/3/3 237/3/3
f 245/3/3 242/3/3 241/3/3
f 246/1/3 243/1/3 242/1/3
f 246/3/3 242/3/3 245/3/3
f 247/1/3 243/1/3 246/1/3
f 248/4/3 229/4/3 228/4/3
f 248/4/3 228/4/3 222/4/3
f 249/4/3 229/4/3 248/4/3
f 250/5/3 247/5/3 246/5/3
f 251/5/3 247/5/3 250/5/3
f 252/4/3 248/4/3 222/4/3
f 253/4/3 248/4/3 252/4/3
f 256/6/3 255/6/3 254/6/3
f 257/6/3 255/6/3 256/6/3
f 260/6/3 259/6/3 258/6/3
f 261/6/3 259/6/3 260/6/3
f 264/1/3 263/1/3 262/1/3
f 265/1/3 263/1/3 264/1/3
f 272/3/3 266/3/3 265/3/3
f 273/3/3 266/3/3 272/3/3
f 274/4/3 268/4/3 267/4/3
f 275/4/3 268/4/3 274/4/3
f 276/1/3 270/1/3 269/1/3
f 277/2/3 271/2/3 270/2/3
f 277/1/3 270/1/3 276/1/3
f 278/2/3 271/2/3 277/2/3
f 282/1/3 280/1/3 279/1/3
f 283/2/3 281/2/3 280/2/3
f 283/1/3 280/1/3 282/1/3
f 284/2/3 281/2/3 283/2/3
f 290/3/3 286/3/3 285/3/3
f 291/3/3 286/3/3 290/3/3
f 292/4/3 288/4/3 287/4/3
f 293/4/3 288/4/3 292/4/3
f 294/1/3 290/1/3 289/1/3
f 295/1/3 290/1/3 294/1/3
f 298/1/3 297/1/3 296/1/3
f 299/1/3 297/1/3 298/1/3
f 302/5/3 301/5/3 300/5/3
f 303/5/3 301/5/3 302/5/3
f 306/7/3 305/7/3 304/7/3
f 307/7/3 305/7/3 306/7/3
f 308/1/3 307/1/3 306/1/3
f 309/1/3 307/1/3 308/1/3
f 312/5/3 311/5/3 310/5/3
f 313/5/3 311/5/3 312/5/3
f 314/5/4 315/5/4 316/5/4
f 316/5/4 315/5/4 317/5/4
f 318/5/4 319/5/4 320/5/4
f 320/5/4 319/5/4 321/5/4
f 322/1/4 323/1/4 324/1/4
f 324/1/4 323/1/4 325/1/4
f 325/3/4 326/3/4 330/3/4
f 330/3/4 326/3/4 331/3/4
f 327/1/4 328/1/4 332/1/4
f 328/2/4 329/2/4 333/2/4
f 332/1/4 328/1/4 333/1/4
f 333/2/4 329/2/4 334/2/4
f 335/1/4 336/1/4 338/1/4
f 336/2/4 337/2/4 339/2/4
f 338/1/4 336/1/4 339/1/4
f 339/2/4 337/2/4 340/2/4
f 341/3/4 342/3/4 344/3/4
f 344/3/4 342/3/4 345/3/4
f 343/1/4 344/1/4 346/1/4
f 346/1/4 344/1/4 347/1/4
f 348/1/4 349/1/4 350/1/4
f 350/1/4 349/1/4 351/1/4
f 352/4/4 353/4/4 357/4/4
f 357/4/4 353/4/4 358/4/4
f 355/3/4 356/3/4 359/3/4
f 355/3/4 359/3/4 361/3/4
f 359/1/4 360/1/4 361/1/4
f 361/1/4 360/1/4 362/1/4
f 355/3/4 361/3/4 363/3/4
f 355/3/4 363/3/4 365/3/4
f 363/1/4 364/1/4 365/1/4
f 365/1/4 364/1/4 366/1/4
f 354/2/4 355/2/4 368/2/4
f 355/3/4 365/3/4 369/3/4
f 368/2/4 355/2/4 369/2/4
f 365/3/4 366/3/4 369/3/4
f 366/1/4 367/1/4 370/1/4
f 369/3/4 366/3/4 370/3/4
f 370/1/4 367/1/4 371/1/4
f 372/4/4 373/4/4 374/4/4
f 374/4/4 373/4/4 375/4/4
f 376/7/4 377/7/4 378/7/4
f 378/7/4 377/7/4 379/7/4
f 378/1/4 379/1/4 380/1/4
f 380/1/4 379/1/4 381/1/4
f 382/5/4 383/5/4 386/5/4
f 383/4/4 384/4/4 387/4/4
f 385/5/4 386/5/4 389/5/4
f 386/5/4 383/5/4 390/5/4
f 389/5/4 386/5/4 390/5/4
f 390/5/4 383/5/4 392/5/4
f 391/5/4 392/5/4 393/5/4
f 393/5/4 392/5/4 394/5/4
f 394/5/4 392/5/4 395/5/4
f 392/5/4 383/5/4 396/5/4
f 395/5/4 392/5/4 396/5/4
f 396/5/4 383/5/4 398/5/4
f 387/4/4 388/4/4 399/4/4
f 383/4/4 387/4/4 399/4/4
f 399/4/4 388/4/4 400/4/4
f 397/5/4 398/5/4 401/5/4
f 398/5/4 383/5/4 402/5/4
f 401/5/4 398/5/4 402/5/4
f 383/4/4 399/4/4 402/4/4
f 402/4/4 399/4/4 403/4/4
f 404/6/4 405/6/4 406/6/4
f 406/6/4 405/6/4 407/6/4
f 412/1/5 409/1/5 408/1/5
f 413/1/5 409/1/5 412/1/5
f 414/1/5 411/1/5 410/1/5
f 415/1/5 411/1/5 414/1/5
f 418/2/5 417/2/5 416/2/5
f 419/2/5 417/2/5 418/2/5
f 420/2/5 417/2/5 419/2/5
f 421/2/5 417/2/5 420/2/5
f 425/2/5 420/2/5 419/2/5
f 426/2/5 420/2/5 425/2/5
f 428/1/5 423/1/5 422/1/5
f 429/1/5 423/1/5 428/1/5
f 430/2/5 427/2/5 426/2/5
f 430/2/5 425/2/5 424/2/5
f 430/2/5 426/2/5 425/2/5
f 431/2/5 427/2/5 430/2/5
f 435/6/5 433/6/5 432/6/5
f 436/6/5 433/6/5 435/6/5
f 441/1/5 439/1/5 438/1/5
f 442/1/5 439/1/5 441/1/5
f 443/6/5 435/6/5 434/6/5
f 443/6/5 436/6/5 435/6/5
f 443/6/5 437/6/5 436/6/5
f 445/1/5 441/1/5 440/1/5
f 446/1/5 441/1/5 445/1/5
f 447/7/5 444/7/5 443/7/5
f 447/6/5 443/6/5 434/6/5
f 448/1/5 445/1/5 444/1/5
f 448/7/5 444/7/5 447/7/5
f 449/1/5 445/1/5 448/1/5
f 450/6/5 447/6/5 434/6/5
f 451/6/5 447/6/5 450/6/5
f 456/3/5 453/3/5 452/3/5
f 457/3/5 453/3/5 456/3/5
f 458/3/5 455/3/5 454/3/5
f 459/3/5 455/3/5 458/3/5
f 464/5/5 461/5/5 460/5/5
f 465/5/5 461/5/5 464/5/5
f 466/5/5 463/5/5 462/5/5
f 467/5/5 463/5/5 466/5/5
f 473/5/5 469/5/5 468/5/5
f 474/5/5 469/5/5 473/5/5
f 475/5/5 471/5/5 470/5/5
f 476/5/5 471/5/5 475/5/5
f 479/5/5 473/5/5 472/5/5
f 480/5/5 473/5/5 479/5/5
f 481/5/5 478/5/5 477/5/5
f 482/5/5 478/5/5 481/5/5
f 489/5/5 484/5/5 483/5/5
f 490/5/5 486/5/5 485/5/5
f 491/5/5 486/5/5 490/5/5
f 492/5/5 488/5/5 487/5/5
f 493/5/5 488/5/5 492/5/5
f 494/5/5 484/5/5 489/5/5
f 495/5/5 484/5/5 494/5/5
f 500/5/5 497/5/5 496/5/5
f 501/5/5 497/5/5 500/5/5
f 502/5/5 499/5/5 498/5/5
f 503/5/5 499/5/5 502/5/5
f 504/5/5 499/5/5 503/5/5
f 509/5/5 508/5/5 507/5/5
f 510/5/5 508/5/5 509/5/5
f 511/5/5 506/5/5 505/5/5
f 512/5/5 506/5/5 511/5/5
f 517/5/5 514/5/5 513/5/5
f 518/5/5 514/5/5 517/5/5
f 519/5/5 516/5/5 515/5/5
f 520/5/5 516/5/5 519/5/5
f 523/5/5 522/5/5 521/5/5
f 524/5/5 522/5/5 523/5/5
f 527/4/5 526/4/5 525/4/5
f 528/4/5 526/4/5 527/4/5
f 529/4/5 526/4/5 528/4/5
f 530/4/5 526/4/5 529/4/5
f 531/4/5 529/4/5 528/4/5
f 532/4/5 529/4/5 531/4/5
f 533/6/6 534/6/6 536/6/6
f 536/6/6 534/6/6 537/6/6
f 539/1/6 540/1/6 544/1/6
f 544/1/6 540/1/6 545/1/6
f 541/1/6 542/1/6 546/1/6
f 546/1/6 542/1/6 547/1/6
f 535/6/6 536/6/6 548/6/6
f 536/6/6 537/6/6 548/6/6
f 537/6/6 538/6/6 548/6/6
f 543/1/6 544/1/6 550/1/6
f 550/1/6 544/1/6 551/1/6
f 548/7/6 549/7/6 552/7/6
f 535/6/6 548/6/6 552/6/6
f 549/1/6 550/1/6 553/1/6
f 552/7/6 549/7/6 553/7/6
f 553/1/6 550/1/6 554/1/6
f 535/6/6 552/6/6 555/6/6
f 555/6/6 552/6/6 556/6/6
f 557/3/6 558/3/6 561/3/6
f 561/3/6 558/3/6 562/3/6
f 559/3/6 560/3/6 563/3/6
f 563/3/6 560/3/6 564/3/6
f 565/4/6 566/4/6 567/4/6
f 567/4/6 566/4/6 568/4/6
f 569/4/6 570/4/6 573/4/6
f 573/4/6 570/4/6 574/4/6
f 571/4/6 572/4/6 575/4/6
f 575/4/6 572/4/6 576/4/6
f 577/4/6 578/4/6 581/4/6
f 581/4/6 578/4/6 582/4/6
f 579/4/6 580/4/6 583/4/6
f 583/4/6 580/4/6 584/4/6
f 585/4/6 586/4/6 588/4/6
f 588/4/6 586/4/6 589/4/6
f 587/4/6 588/4/6 591/4/6
f 589/4/6 590/4/6 591/4/6
f 588/4/6 589/4/6 591/4/6
f 591/4/6 590/4/6 592/4/6
f 592/4/6 590/4/6 593/4/6
f 593/4/6 590/4/6 594/4/6
f 592/4/6 593/4/6 595/4/6
f 595/4/6 593/4/6 596/4/6
